%TF.GenerationSoftware,KiCad,Pcbnew,(6.0.6-0)*%
%TF.CreationDate,2022-07-16T17:32:28+08:00*%
%TF.ProjectId,__,8cc82e6b-6963-4616-945f-706362585858,rev?*%
%TF.SameCoordinates,Original*%
%TF.FileFunction,Legend,Top*%
%TF.FilePolarity,Positive*%
%FSLAX46Y46*%
G04 Gerber Fmt 4.6, Leading zero omitted, Abs format (unit mm)*
G04 Created by KiCad (PCBNEW (6.0.6-0)) date 2022-07-16 17:32:28*
%MOMM*%
%LPD*%
G01*
G04 APERTURE LIST*
%ADD10C,0.150000*%
%ADD11C,0.120000*%
G04 APERTURE END LIST*
D10*
X72261904Y-79647380D02*
X72261904Y-80456904D01*
X72309523Y-80552142D01*
X72357142Y-80599761D01*
X72452380Y-80647380D01*
X72642857Y-80647380D01*
X72738095Y-80599761D01*
X72785714Y-80552142D01*
X72833333Y-80456904D01*
X72833333Y-79647380D01*
X73261904Y-80599761D02*
X73404761Y-80647380D01*
X73642857Y-80647380D01*
X73738095Y-80599761D01*
X73785714Y-80552142D01*
X73833333Y-80456904D01*
X73833333Y-80361666D01*
X73785714Y-80266428D01*
X73738095Y-80218809D01*
X73642857Y-80171190D01*
X73452380Y-80123571D01*
X73357142Y-80075952D01*
X73309523Y-80028333D01*
X73261904Y-79933095D01*
X73261904Y-79837857D01*
X73309523Y-79742619D01*
X73357142Y-79695000D01*
X73452380Y-79647380D01*
X73690476Y-79647380D01*
X73833333Y-79695000D01*
X74595238Y-80123571D02*
X74738095Y-80171190D01*
X74785714Y-80218809D01*
X74833333Y-80314047D01*
X74833333Y-80456904D01*
X74785714Y-80552142D01*
X74738095Y-80599761D01*
X74642857Y-80647380D01*
X74261904Y-80647380D01*
X74261904Y-79647380D01*
X74595238Y-79647380D01*
X74690476Y-79695000D01*
X74738095Y-79742619D01*
X74785714Y-79837857D01*
X74785714Y-79933095D01*
X74738095Y-80028333D01*
X74690476Y-80075952D01*
X74595238Y-80123571D01*
X74261904Y-80123571D01*
X75119047Y-79742619D02*
X76357142Y-79742619D01*
X75595238Y-80171190D02*
X76261904Y-80171190D01*
X75547619Y-80647380D02*
X76309523Y-80647380D01*
X75404761Y-80028333D02*
X75404761Y-80647380D01*
X75928571Y-79837857D02*
X75928571Y-80647380D01*
X75642857Y-79504523D02*
X75404761Y-80028333D01*
X75119047Y-80218809D01*
X76642857Y-79790238D02*
X77833333Y-79790238D01*
X76976190Y-80123571D02*
X77738095Y-80123571D01*
X76833333Y-80647380D02*
X77833333Y-80647380D01*
X77357142Y-80123571D02*
X77357142Y-80647380D01*
X77071428Y-79552142D02*
X76976190Y-80075952D01*
X76785714Y-80409285D01*
X76595238Y-80599761D01*
X69261904Y-81257380D02*
X69261904Y-82066904D01*
X69309523Y-82162142D01*
X69357142Y-82209761D01*
X69452380Y-82257380D01*
X69642857Y-82257380D01*
X69738095Y-82209761D01*
X69785714Y-82162142D01*
X69833333Y-82066904D01*
X69833333Y-81257380D01*
X70261904Y-82209761D02*
X70404761Y-82257380D01*
X70642857Y-82257380D01*
X70738095Y-82209761D01*
X70785714Y-82162142D01*
X70833333Y-82066904D01*
X70833333Y-81971666D01*
X70785714Y-81876428D01*
X70738095Y-81828809D01*
X70642857Y-81781190D01*
X70452380Y-81733571D01*
X70357142Y-81685952D01*
X70309523Y-81638333D01*
X70261904Y-81543095D01*
X70261904Y-81447857D01*
X70309523Y-81352619D01*
X70357142Y-81305000D01*
X70452380Y-81257380D01*
X70690476Y-81257380D01*
X70833333Y-81305000D01*
X71595238Y-81733571D02*
X71738095Y-81781190D01*
X71785714Y-81828809D01*
X71833333Y-81924047D01*
X71833333Y-82066904D01*
X71785714Y-82162142D01*
X71738095Y-82209761D01*
X71642857Y-82257380D01*
X71261904Y-82257380D01*
X71261904Y-81257380D01*
X71595238Y-81257380D01*
X71690476Y-81305000D01*
X71738095Y-81352619D01*
X71785714Y-81447857D01*
X71785714Y-81543095D01*
X71738095Y-81638333D01*
X71690476Y-81685952D01*
X71595238Y-81733571D01*
X71261904Y-81733571D01*
X73166666Y-82257380D02*
X73071428Y-82209761D01*
X73023809Y-82162142D01*
X72976190Y-82066904D01*
X72976190Y-81781190D01*
X73023809Y-81685952D01*
X73071428Y-81638333D01*
X73166666Y-81590714D01*
X73309523Y-81590714D01*
X73404761Y-81638333D01*
X73452380Y-81685952D01*
X73500000Y-81781190D01*
X73500000Y-82066904D01*
X73452380Y-82162142D01*
X73404761Y-82209761D01*
X73309523Y-82257380D01*
X73166666Y-82257380D01*
X73928571Y-81590714D02*
X73928571Y-82257380D01*
X73928571Y-81685952D02*
X73976190Y-81638333D01*
X74071428Y-81590714D01*
X74214285Y-81590714D01*
X74309523Y-81638333D01*
X74357142Y-81733571D01*
X74357142Y-82257380D01*
X75452380Y-81590714D02*
X75833333Y-81590714D01*
X75595238Y-81257380D02*
X75595238Y-82114523D01*
X75642857Y-82209761D01*
X75738095Y-82257380D01*
X75833333Y-82257380D01*
X76166666Y-82257380D02*
X76166666Y-81257380D01*
X76595238Y-82257380D02*
X76595238Y-81733571D01*
X76547619Y-81638333D01*
X76452380Y-81590714D01*
X76309523Y-81590714D01*
X76214285Y-81638333D01*
X76166666Y-81685952D01*
X77452380Y-82209761D02*
X77357142Y-82257380D01*
X77166666Y-82257380D01*
X77071428Y-82209761D01*
X77023809Y-82114523D01*
X77023809Y-81733571D01*
X77071428Y-81638333D01*
X77166666Y-81590714D01*
X77357142Y-81590714D01*
X77452380Y-81638333D01*
X77500000Y-81733571D01*
X77500000Y-81828809D01*
X77023809Y-81924047D01*
X78833333Y-82257380D02*
X78738095Y-82209761D01*
X78690476Y-82114523D01*
X78690476Y-81257380D01*
X79595238Y-82209761D02*
X79500000Y-82257380D01*
X79309523Y-82257380D01*
X79214285Y-82209761D01*
X79166666Y-82114523D01*
X79166666Y-81733571D01*
X79214285Y-81638333D01*
X79309523Y-81590714D01*
X79500000Y-81590714D01*
X79595238Y-81638333D01*
X79642857Y-81733571D01*
X79642857Y-81828809D01*
X79166666Y-81924047D01*
X79928571Y-81590714D02*
X80309523Y-81590714D01*
X80071428Y-82257380D02*
X80071428Y-81400238D01*
X80119047Y-81305000D01*
X80214285Y-81257380D01*
X80309523Y-81257380D01*
X80500000Y-81590714D02*
X80880952Y-81590714D01*
X80642857Y-81257380D02*
X80642857Y-82114523D01*
X80690476Y-82209761D01*
X80785714Y-82257380D01*
X80880952Y-82257380D01*
X73619047Y-102037380D02*
X74333333Y-102037380D01*
X73142857Y-102180238D02*
X73523809Y-102180238D01*
X73571428Y-102370714D02*
X74380952Y-102370714D01*
X73571428Y-102561190D02*
X74380952Y-102561190D01*
X73190476Y-103037380D02*
X73380952Y-103037380D01*
X73380952Y-101894523D02*
X73380952Y-103037380D01*
X74000000Y-101894523D02*
X74000000Y-102085000D01*
X74190476Y-102085000D02*
X74142857Y-102323095D01*
X73809523Y-102132619D02*
X73857142Y-102370714D01*
X73714285Y-102799285D01*
X74333333Y-103037380D01*
X73523809Y-102513571D02*
X73142857Y-102608809D01*
X74190476Y-102561190D02*
X74095238Y-102799285D01*
X74000000Y-102894523D01*
X73571428Y-103037380D01*
X75523809Y-102227857D02*
X75857142Y-102227857D01*
X74666666Y-102370714D02*
X75142857Y-102370714D01*
X74666666Y-102513571D02*
X75190476Y-102513571D01*
X74809523Y-102704047D02*
X75190476Y-102704047D01*
X74666666Y-102704047D02*
X75095238Y-102704047D01*
X75333333Y-102989761D02*
X75809523Y-102989761D01*
X74666666Y-101942142D02*
X74666666Y-102323095D01*
X74809523Y-102085000D02*
X74809523Y-102227857D01*
X74809523Y-102799285D02*
X74857142Y-102989761D01*
X74904761Y-101942142D02*
X74904761Y-102704047D01*
X74666666Y-101942142D02*
X75142857Y-101942142D01*
X75142857Y-102323095D01*
X75333333Y-102513571D02*
X75333333Y-103037380D01*
X75523809Y-101894523D02*
X75523809Y-102513571D01*
X75333333Y-102513571D02*
X75809523Y-102513571D01*
X75809523Y-103037380D01*
X75142857Y-102799285D02*
X75190476Y-102942142D01*
X74952380Y-102799285D02*
X75047619Y-102989761D01*
X75047619Y-102085000D02*
X75000000Y-102275476D01*
X74666666Y-102846904D02*
X74666666Y-103037380D01*
X76095238Y-102132619D02*
X77333333Y-102132619D01*
X76571428Y-102561190D02*
X77238095Y-102561190D01*
X76523809Y-103037380D02*
X77285714Y-103037380D01*
X76380952Y-102418333D02*
X76380952Y-103037380D01*
X76904761Y-102227857D02*
X76904761Y-103037380D01*
X76619047Y-101894523D02*
X76380952Y-102418333D01*
X76095238Y-102608809D01*
X77619047Y-102180238D02*
X78809523Y-102180238D01*
X77952380Y-102513571D02*
X78714285Y-102513571D01*
X77809523Y-103037380D02*
X78809523Y-103037380D01*
X78333333Y-102513571D02*
X78333333Y-103037380D01*
X78047619Y-101942142D02*
X77952380Y-102465952D01*
X77761904Y-102799285D01*
X77571428Y-102989761D01*
X72642857Y-104552142D02*
X72595238Y-104599761D01*
X72452380Y-104647380D01*
X72357142Y-104647380D01*
X72214285Y-104599761D01*
X72119047Y-104504523D01*
X72071428Y-104409285D01*
X72023809Y-104218809D01*
X72023809Y-104075952D01*
X72071428Y-103885476D01*
X72119047Y-103790238D01*
X72214285Y-103695000D01*
X72357142Y-103647380D01*
X72452380Y-103647380D01*
X72595238Y-103695000D01*
X72642857Y-103742619D01*
X73214285Y-104647380D02*
X73119047Y-104599761D01*
X73071428Y-104552142D01*
X73023809Y-104456904D01*
X73023809Y-104171190D01*
X73071428Y-104075952D01*
X73119047Y-104028333D01*
X73214285Y-103980714D01*
X73357142Y-103980714D01*
X73452380Y-104028333D01*
X73500000Y-104075952D01*
X73547619Y-104171190D01*
X73547619Y-104456904D01*
X73500000Y-104552142D01*
X73452380Y-104599761D01*
X73357142Y-104647380D01*
X73214285Y-104647380D01*
X73976190Y-103980714D02*
X73976190Y-104647380D01*
X73976190Y-104075952D02*
X74023809Y-104028333D01*
X74119047Y-103980714D01*
X74261904Y-103980714D01*
X74357142Y-104028333D01*
X74404761Y-104123571D01*
X74404761Y-104647380D01*
X74880952Y-103980714D02*
X74880952Y-104647380D01*
X74880952Y-104075952D02*
X74928571Y-104028333D01*
X75023809Y-103980714D01*
X75166666Y-103980714D01*
X75261904Y-104028333D01*
X75309523Y-104123571D01*
X75309523Y-104647380D01*
X76166666Y-104599761D02*
X76071428Y-104647380D01*
X75880952Y-104647380D01*
X75785714Y-104599761D01*
X75738095Y-104504523D01*
X75738095Y-104123571D01*
X75785714Y-104028333D01*
X75880952Y-103980714D01*
X76071428Y-103980714D01*
X76166666Y-104028333D01*
X76214285Y-104123571D01*
X76214285Y-104218809D01*
X75738095Y-104314047D01*
X77071428Y-104599761D02*
X76976190Y-104647380D01*
X76785714Y-104647380D01*
X76690476Y-104599761D01*
X76642857Y-104552142D01*
X76595238Y-104456904D01*
X76595238Y-104171190D01*
X76642857Y-104075952D01*
X76690476Y-104028333D01*
X76785714Y-103980714D01*
X76976190Y-103980714D01*
X77071428Y-104028333D01*
X77357142Y-103980714D02*
X77738095Y-103980714D01*
X77500000Y-103647380D02*
X77500000Y-104504523D01*
X77547619Y-104599761D01*
X77642857Y-104647380D01*
X77738095Y-104647380D01*
X78214285Y-104647380D02*
X78119047Y-104599761D01*
X78071428Y-104552142D01*
X78023809Y-104456904D01*
X78023809Y-104171190D01*
X78071428Y-104075952D01*
X78119047Y-104028333D01*
X78214285Y-103980714D01*
X78357142Y-103980714D01*
X78452380Y-104028333D01*
X78500000Y-104075952D01*
X78547619Y-104171190D01*
X78547619Y-104456904D01*
X78500000Y-104552142D01*
X78452380Y-104599761D01*
X78357142Y-104647380D01*
X78214285Y-104647380D01*
X78976190Y-104647380D02*
X78976190Y-103980714D01*
X78976190Y-104171190D02*
X79023809Y-104075952D01*
X79071428Y-104028333D01*
X79166666Y-103980714D01*
X79261904Y-103980714D01*
X79547619Y-104599761D02*
X79642857Y-104647380D01*
X79833333Y-104647380D01*
X79928571Y-104599761D01*
X79976190Y-104504523D01*
X79976190Y-104456904D01*
X79928571Y-104361666D01*
X79833333Y-104314047D01*
X79690476Y-104314047D01*
X79595238Y-104266428D01*
X79547619Y-104171190D01*
X79547619Y-104123571D01*
X79595238Y-104028333D01*
X79690476Y-103980714D01*
X79833333Y-103980714D01*
X79928571Y-104028333D01*
X73547619Y-106257380D02*
X73452380Y-106209761D01*
X73404761Y-106162142D01*
X73357142Y-106066904D01*
X73357142Y-105781190D01*
X73404761Y-105685952D01*
X73452380Y-105638333D01*
X73547619Y-105590714D01*
X73690476Y-105590714D01*
X73785714Y-105638333D01*
X73833333Y-105685952D01*
X73880952Y-105781190D01*
X73880952Y-106066904D01*
X73833333Y-106162142D01*
X73785714Y-106209761D01*
X73690476Y-106257380D01*
X73547619Y-106257380D01*
X74309523Y-105590714D02*
X74309523Y-106257380D01*
X74309523Y-105685952D02*
X74357142Y-105638333D01*
X74452380Y-105590714D01*
X74595238Y-105590714D01*
X74690476Y-105638333D01*
X74738095Y-105733571D01*
X74738095Y-106257380D01*
X75833333Y-105590714D02*
X76214285Y-105590714D01*
X75976190Y-105257380D02*
X75976190Y-106114523D01*
X76023809Y-106209761D01*
X76119047Y-106257380D01*
X76214285Y-106257380D01*
X76547619Y-106257380D02*
X76547619Y-105257380D01*
X76976190Y-106257380D02*
X76976190Y-105733571D01*
X76928571Y-105638333D01*
X76833333Y-105590714D01*
X76690476Y-105590714D01*
X76595238Y-105638333D01*
X76547619Y-105685952D01*
X77833333Y-106209761D02*
X77738095Y-106257380D01*
X77547619Y-106257380D01*
X77452380Y-106209761D01*
X77404761Y-106114523D01*
X77404761Y-105733571D01*
X77452380Y-105638333D01*
X77547619Y-105590714D01*
X77738095Y-105590714D01*
X77833333Y-105638333D01*
X77880952Y-105733571D01*
X77880952Y-105828809D01*
X77404761Y-105924047D01*
X75119047Y-107867380D02*
X75023809Y-107819761D01*
X74976190Y-107724523D01*
X74976190Y-106867380D01*
X75880952Y-107819761D02*
X75785714Y-107867380D01*
X75595238Y-107867380D01*
X75500000Y-107819761D01*
X75452380Y-107724523D01*
X75452380Y-107343571D01*
X75500000Y-107248333D01*
X75595238Y-107200714D01*
X75785714Y-107200714D01*
X75880952Y-107248333D01*
X75928571Y-107343571D01*
X75928571Y-107438809D01*
X75452380Y-107534047D01*
X76214285Y-107200714D02*
X76595238Y-107200714D01*
X76357142Y-107867380D02*
X76357142Y-107010238D01*
X76404761Y-106915000D01*
X76500000Y-106867380D01*
X76595238Y-106867380D01*
X76785714Y-107200714D02*
X77166666Y-107200714D01*
X76928571Y-106867380D02*
X76928571Y-107724523D01*
X76976190Y-107819761D01*
X77071428Y-107867380D01*
X77166666Y-107867380D01*
X73642857Y-110785714D02*
X73642857Y-111595238D01*
X73595238Y-111690476D01*
X73547619Y-111738095D01*
X73452380Y-111785714D01*
X73309523Y-111785714D01*
X73214285Y-111738095D01*
X73642857Y-111404761D02*
X73547619Y-111452380D01*
X73357142Y-111452380D01*
X73261904Y-111404761D01*
X73214285Y-111357142D01*
X73166666Y-111261904D01*
X73166666Y-110976190D01*
X73214285Y-110880952D01*
X73261904Y-110833333D01*
X73357142Y-110785714D01*
X73547619Y-110785714D01*
X73642857Y-110833333D01*
X74119047Y-111452380D02*
X74119047Y-110785714D01*
X74119047Y-110452380D02*
X74071428Y-110500000D01*
X74119047Y-110547619D01*
X74166666Y-110500000D01*
X74119047Y-110452380D01*
X74119047Y-110547619D01*
X74452380Y-110785714D02*
X74833333Y-110785714D01*
X74595238Y-110452380D02*
X74595238Y-111309523D01*
X74642857Y-111404761D01*
X74738095Y-111452380D01*
X74833333Y-111452380D01*
X75166666Y-111452380D02*
X75166666Y-110452380D01*
X75595238Y-111452380D02*
X75595238Y-110928571D01*
X75547619Y-110833333D01*
X75452380Y-110785714D01*
X75309523Y-110785714D01*
X75214285Y-110833333D01*
X75166666Y-110880952D01*
X76500000Y-110785714D02*
X76500000Y-111452380D01*
X76071428Y-110785714D02*
X76071428Y-111309523D01*
X76119047Y-111404761D01*
X76214285Y-111452380D01*
X76357142Y-111452380D01*
X76452380Y-111404761D01*
X76500000Y-111357142D01*
X76976190Y-111452380D02*
X76976190Y-110452380D01*
X76976190Y-110833333D02*
X77071428Y-110785714D01*
X77261904Y-110785714D01*
X77357142Y-110833333D01*
X77404761Y-110880952D01*
X77452380Y-110976190D01*
X77452380Y-111261904D01*
X77404761Y-111357142D01*
X77357142Y-111404761D01*
X77261904Y-111452380D01*
X77071428Y-111452380D01*
X76976190Y-111404761D01*
X77880952Y-111357142D02*
X77928571Y-111404761D01*
X77880952Y-111452380D01*
X77833333Y-111404761D01*
X77880952Y-111357142D01*
X77880952Y-111452380D01*
X78785714Y-111404761D02*
X78690476Y-111452380D01*
X78500000Y-111452380D01*
X78404761Y-111404761D01*
X78357142Y-111357142D01*
X78309523Y-111261904D01*
X78309523Y-110976190D01*
X78357142Y-110880952D01*
X78404761Y-110833333D01*
X78500000Y-110785714D01*
X78690476Y-110785714D01*
X78785714Y-110833333D01*
X79357142Y-111452380D02*
X79261904Y-111404761D01*
X79214285Y-111357142D01*
X79166666Y-111261904D01*
X79166666Y-110976190D01*
X79214285Y-110880952D01*
X79261904Y-110833333D01*
X79357142Y-110785714D01*
X79500000Y-110785714D01*
X79595238Y-110833333D01*
X79642857Y-110880952D01*
X79690476Y-110976190D01*
X79690476Y-111261904D01*
X79642857Y-111357142D01*
X79595238Y-111404761D01*
X79500000Y-111452380D01*
X79357142Y-111452380D01*
X80119047Y-111452380D02*
X80119047Y-110785714D01*
X80119047Y-110880952D02*
X80166666Y-110833333D01*
X80261904Y-110785714D01*
X80404761Y-110785714D01*
X80500000Y-110833333D01*
X80547619Y-110928571D01*
X80547619Y-111452380D01*
X80547619Y-110928571D02*
X80595238Y-110833333D01*
X80690476Y-110785714D01*
X80833333Y-110785714D01*
X80928571Y-110833333D01*
X80976190Y-110928571D01*
X80976190Y-111452380D01*
X82166666Y-110404761D02*
X81309523Y-111690476D01*
X82452380Y-111404761D02*
X82595238Y-111452380D01*
X82833333Y-111452380D01*
X82928571Y-111404761D01*
X82976190Y-111357142D01*
X83023809Y-111261904D01*
X83023809Y-111166666D01*
X82976190Y-111071428D01*
X82928571Y-111023809D01*
X82833333Y-110976190D01*
X82642857Y-110928571D01*
X82547619Y-110880952D01*
X82500000Y-110833333D01*
X82452380Y-110738095D01*
X82452380Y-110642857D01*
X82500000Y-110547619D01*
X82547619Y-110500000D01*
X82642857Y-110452380D01*
X82880952Y-110452380D01*
X83023809Y-110500000D01*
X83880952Y-111452380D02*
X83880952Y-110928571D01*
X83833333Y-110833333D01*
X83738095Y-110785714D01*
X83547619Y-110785714D01*
X83452380Y-110833333D01*
X83880952Y-111404761D02*
X83785714Y-111452380D01*
X83547619Y-111452380D01*
X83452380Y-111404761D01*
X83404761Y-111309523D01*
X83404761Y-111214285D01*
X83452380Y-111119047D01*
X83547619Y-111071428D01*
X83785714Y-111071428D01*
X83880952Y-111023809D01*
X84357142Y-111452380D02*
X84357142Y-110785714D01*
X84357142Y-110880952D02*
X84404761Y-110833333D01*
X84500000Y-110785714D01*
X84642857Y-110785714D01*
X84738095Y-110833333D01*
X84785714Y-110928571D01*
X84785714Y-111452380D01*
X84785714Y-110928571D02*
X84833333Y-110833333D01*
X84928571Y-110785714D01*
X85071428Y-110785714D01*
X85166666Y-110833333D01*
X85214285Y-110928571D01*
X85214285Y-111452380D01*
X85595238Y-110452380D02*
X85833333Y-111452380D01*
X86023809Y-110738095D01*
X86214285Y-111452380D01*
X86452380Y-110452380D01*
X87261904Y-111452380D02*
X87261904Y-110928571D01*
X87214285Y-110833333D01*
X87119047Y-110785714D01*
X86928571Y-110785714D01*
X86833333Y-110833333D01*
X87261904Y-111404761D02*
X87166666Y-111452380D01*
X86928571Y-111452380D01*
X86833333Y-111404761D01*
X86785714Y-111309523D01*
X86785714Y-111214285D01*
X86833333Y-111119047D01*
X86928571Y-111071428D01*
X87166666Y-111071428D01*
X87261904Y-111023809D01*
X87738095Y-110785714D02*
X87738095Y-111452380D01*
X87738095Y-110880952D02*
X87785714Y-110833333D01*
X87880952Y-110785714D01*
X88023809Y-110785714D01*
X88119047Y-110833333D01*
X88166666Y-110928571D01*
X88166666Y-111452380D01*
X89071428Y-110785714D02*
X89071428Y-111595238D01*
X89023809Y-111690476D01*
X88976190Y-111738095D01*
X88880952Y-111785714D01*
X88738095Y-111785714D01*
X88642857Y-111738095D01*
X89071428Y-111404761D02*
X88976190Y-111452380D01*
X88785714Y-111452380D01*
X88690476Y-111404761D01*
X88642857Y-111357142D01*
X88595238Y-111261904D01*
X88595238Y-110976190D01*
X88642857Y-110880952D01*
X88690476Y-110833333D01*
X88785714Y-110785714D01*
X88976190Y-110785714D01*
X89071428Y-110833333D01*
X89690476Y-110880952D02*
X89595238Y-110833333D01*
X89547619Y-110785714D01*
X89500000Y-110690476D01*
X89500000Y-110642857D01*
X89547619Y-110547619D01*
X89595238Y-110500000D01*
X89690476Y-110452380D01*
X89880952Y-110452380D01*
X89976190Y-110500000D01*
X90023809Y-110547619D01*
X90071428Y-110642857D01*
X90071428Y-110690476D01*
X90023809Y-110785714D01*
X89976190Y-110833333D01*
X89880952Y-110880952D01*
X89690476Y-110880952D01*
X89595238Y-110928571D01*
X89547619Y-110976190D01*
X89500000Y-111071428D01*
X89500000Y-111261904D01*
X89547619Y-111357142D01*
X89595238Y-111404761D01*
X89690476Y-111452380D01*
X89880952Y-111452380D01*
X89976190Y-111404761D01*
X90023809Y-111357142D01*
X90071428Y-111261904D01*
X90071428Y-111071428D01*
X90023809Y-110976190D01*
X89976190Y-110928571D01*
X89880952Y-110880952D01*
X90642857Y-110880952D02*
X90547619Y-110833333D01*
X90500000Y-110785714D01*
X90452380Y-110690476D01*
X90452380Y-110642857D01*
X90500000Y-110547619D01*
X90547619Y-110500000D01*
X90642857Y-110452380D01*
X90833333Y-110452380D01*
X90928571Y-110500000D01*
X90976190Y-110547619D01*
X91023809Y-110642857D01*
X91023809Y-110690476D01*
X90976190Y-110785714D01*
X90928571Y-110833333D01*
X90833333Y-110880952D01*
X90642857Y-110880952D01*
X90547619Y-110928571D01*
X90500000Y-110976190D01*
X90452380Y-111071428D01*
X90452380Y-111261904D01*
X90500000Y-111357142D01*
X90547619Y-111404761D01*
X90642857Y-111452380D01*
X90833333Y-111452380D01*
X90928571Y-111404761D01*
X90976190Y-111357142D01*
X91023809Y-111261904D01*
X91023809Y-111071428D01*
X90976190Y-110976190D01*
X90928571Y-110928571D01*
X90833333Y-110880952D01*
X91500000Y-111452380D02*
X91690476Y-111452380D01*
X91785714Y-111404761D01*
X91833333Y-111357142D01*
X91928571Y-111214285D01*
X91976190Y-111023809D01*
X91976190Y-110642857D01*
X91928571Y-110547619D01*
X91880952Y-110500000D01*
X91785714Y-110452380D01*
X91595238Y-110452380D01*
X91500000Y-110500000D01*
X91452380Y-110547619D01*
X91404761Y-110642857D01*
X91404761Y-110880952D01*
X91452380Y-110976190D01*
X91500000Y-111023809D01*
X91595238Y-111071428D01*
X91785714Y-111071428D01*
X91880952Y-111023809D01*
X91928571Y-110976190D01*
X91976190Y-110880952D01*
X92928571Y-111452380D02*
X92357142Y-111452380D01*
X92642857Y-111452380D02*
X92642857Y-110452380D01*
X92547619Y-110595238D01*
X92452380Y-110690476D01*
X92357142Y-110738095D01*
X93214285Y-110452380D02*
X93785714Y-110452380D01*
X93500000Y-111452380D02*
X93500000Y-110452380D01*
X94023809Y-110452380D02*
X94261904Y-111452380D01*
X94452380Y-110738095D01*
X94642857Y-111452380D01*
X94880952Y-110452380D01*
%TO.C,M2*%
X85190476Y-102252380D02*
X85190476Y-101252380D01*
X85523809Y-101966666D01*
X85857142Y-101252380D01*
X85857142Y-102252380D01*
X86285714Y-101347619D02*
X86333333Y-101300000D01*
X86428571Y-101252380D01*
X86666666Y-101252380D01*
X86761904Y-101300000D01*
X86809523Y-101347619D01*
X86857142Y-101442857D01*
X86857142Y-101538095D01*
X86809523Y-101680952D01*
X86238095Y-102252380D01*
X86857142Y-102252380D01*
%TO.C,H1_GND*%
X89333333Y-93452380D02*
X89333333Y-92452380D01*
X89333333Y-92928571D02*
X89904761Y-92928571D01*
X89904761Y-93452380D02*
X89904761Y-92452380D01*
X90904761Y-93452380D02*
X90333333Y-93452380D01*
X90619047Y-93452380D02*
X90619047Y-92452380D01*
X90523809Y-92595238D01*
X90428571Y-92690476D01*
X90333333Y-92738095D01*
X91095238Y-93547619D02*
X91857142Y-93547619D01*
X92619047Y-92500000D02*
X92523809Y-92452380D01*
X92380952Y-92452380D01*
X92238095Y-92500000D01*
X92142857Y-92595238D01*
X92095238Y-92690476D01*
X92047619Y-92880952D01*
X92047619Y-93023809D01*
X92095238Y-93214285D01*
X92142857Y-93309523D01*
X92238095Y-93404761D01*
X92380952Y-93452380D01*
X92476190Y-93452380D01*
X92619047Y-93404761D01*
X92666666Y-93357142D01*
X92666666Y-93023809D01*
X92476190Y-93023809D01*
X93095238Y-93452380D02*
X93095238Y-92452380D01*
X93666666Y-93452380D01*
X93666666Y-92452380D01*
X94142857Y-93452380D02*
X94142857Y-92452380D01*
X94380952Y-92452380D01*
X94523809Y-92500000D01*
X94619047Y-92595238D01*
X94666666Y-92690476D01*
X94714285Y-92880952D01*
X94714285Y-93023809D01*
X94666666Y-93214285D01*
X94619047Y-93309523D01*
X94523809Y-93404761D01*
X94380952Y-93452380D01*
X94142857Y-93452380D01*
%TO.C,J4_LIGHT*%
X124238095Y-111452380D02*
X124238095Y-112166666D01*
X124190476Y-112309523D01*
X124095238Y-112404761D01*
X123952380Y-112452380D01*
X123857142Y-112452380D01*
X125142857Y-111785714D02*
X125142857Y-112452380D01*
X124904761Y-111404761D02*
X124666666Y-112119047D01*
X125285714Y-112119047D01*
X125428571Y-112547619D02*
X126190476Y-112547619D01*
X126904761Y-112452380D02*
X126428571Y-112452380D01*
X126428571Y-111452380D01*
X127238095Y-112452380D02*
X127238095Y-111452380D01*
X128238095Y-111500000D02*
X128142857Y-111452380D01*
X128000000Y-111452380D01*
X127857142Y-111500000D01*
X127761904Y-111595238D01*
X127714285Y-111690476D01*
X127666666Y-111880952D01*
X127666666Y-112023809D01*
X127714285Y-112214285D01*
X127761904Y-112309523D01*
X127857142Y-112404761D01*
X128000000Y-112452380D01*
X128095238Y-112452380D01*
X128238095Y-112404761D01*
X128285714Y-112357142D01*
X128285714Y-112023809D01*
X128095238Y-112023809D01*
X128714285Y-112452380D02*
X128714285Y-111452380D01*
X128714285Y-111928571D02*
X129285714Y-111928571D01*
X129285714Y-112452380D02*
X129285714Y-111452380D01*
X129619047Y-111452380D02*
X130190476Y-111452380D01*
X129904761Y-112452380D02*
X129904761Y-111452380D01*
%TO.C,J2_BTN*%
X106880952Y-68452380D02*
X106880952Y-69166666D01*
X106833333Y-69309523D01*
X106738095Y-69404761D01*
X106595238Y-69452380D01*
X106500000Y-69452380D01*
X107309523Y-68547619D02*
X107357142Y-68500000D01*
X107452380Y-68452380D01*
X107690476Y-68452380D01*
X107785714Y-68500000D01*
X107833333Y-68547619D01*
X107880952Y-68642857D01*
X107880952Y-68738095D01*
X107833333Y-68880952D01*
X107261904Y-69452380D01*
X107880952Y-69452380D01*
X108071428Y-69547619D02*
X108833333Y-69547619D01*
X109404761Y-68928571D02*
X109547619Y-68976190D01*
X109595238Y-69023809D01*
X109642857Y-69119047D01*
X109642857Y-69261904D01*
X109595238Y-69357142D01*
X109547619Y-69404761D01*
X109452380Y-69452380D01*
X109071428Y-69452380D01*
X109071428Y-68452380D01*
X109404761Y-68452380D01*
X109500000Y-68500000D01*
X109547619Y-68547619D01*
X109595238Y-68642857D01*
X109595238Y-68738095D01*
X109547619Y-68833333D01*
X109500000Y-68880952D01*
X109404761Y-68928571D01*
X109071428Y-68928571D01*
X109928571Y-68452380D02*
X110500000Y-68452380D01*
X110214285Y-69452380D02*
X110214285Y-68452380D01*
X110833333Y-69452380D02*
X110833333Y-68452380D01*
X111404761Y-69452380D01*
X111404761Y-68452380D01*
%TO.C,Arduino1*%
X65166666Y-84071428D02*
X65166666Y-83595238D01*
X65452380Y-84166666D02*
X64452380Y-83833333D01*
X65452380Y-83500000D01*
X65452380Y-83166666D02*
X64785714Y-83166666D01*
X64976190Y-83166666D02*
X64880952Y-83119047D01*
X64833333Y-83071428D01*
X64785714Y-82976190D01*
X64785714Y-82880952D01*
X65452380Y-82119047D02*
X64452380Y-82119047D01*
X65404761Y-82119047D02*
X65452380Y-82214285D01*
X65452380Y-82404761D01*
X65404761Y-82500000D01*
X65357142Y-82547619D01*
X65261904Y-82595238D01*
X64976190Y-82595238D01*
X64880952Y-82547619D01*
X64833333Y-82500000D01*
X64785714Y-82404761D01*
X64785714Y-82214285D01*
X64833333Y-82119047D01*
X64785714Y-81214285D02*
X65452380Y-81214285D01*
X64785714Y-81642857D02*
X65309523Y-81642857D01*
X65404761Y-81595238D01*
X65452380Y-81500000D01*
X65452380Y-81357142D01*
X65404761Y-81261904D01*
X65357142Y-81214285D01*
X65452380Y-80738095D02*
X64785714Y-80738095D01*
X64452380Y-80738095D02*
X64500000Y-80785714D01*
X64547619Y-80738095D01*
X64500000Y-80690476D01*
X64452380Y-80738095D01*
X64547619Y-80738095D01*
X64785714Y-80261904D02*
X65452380Y-80261904D01*
X64880952Y-80261904D02*
X64833333Y-80214285D01*
X64785714Y-80119047D01*
X64785714Y-79976190D01*
X64833333Y-79880952D01*
X64928571Y-79833333D01*
X65452380Y-79833333D01*
X65452380Y-79214285D02*
X65404761Y-79309523D01*
X65357142Y-79357142D01*
X65261904Y-79404761D01*
X64976190Y-79404761D01*
X64880952Y-79357142D01*
X64833333Y-79309523D01*
X64785714Y-79214285D01*
X64785714Y-79071428D01*
X64833333Y-78976190D01*
X64880952Y-78928571D01*
X64976190Y-78880952D01*
X65261904Y-78880952D01*
X65357142Y-78928571D01*
X65404761Y-78976190D01*
X65452380Y-79071428D01*
X65452380Y-79214285D01*
X65452380Y-77928571D02*
X65452380Y-78500000D01*
X65452380Y-78214285D02*
X64452380Y-78214285D01*
X64595238Y-78309523D01*
X64690476Y-78404761D01*
X64738095Y-78500000D01*
%TO.C,TR1*%
X122738095Y-98452380D02*
X123309523Y-98452380D01*
X123023809Y-99452380D02*
X123023809Y-98452380D01*
X124214285Y-99452380D02*
X123880952Y-98976190D01*
X123642857Y-99452380D02*
X123642857Y-98452380D01*
X124023809Y-98452380D01*
X124119047Y-98500000D01*
X124166666Y-98547619D01*
X124214285Y-98642857D01*
X124214285Y-98785714D01*
X124166666Y-98880952D01*
X124119047Y-98928571D01*
X124023809Y-98976190D01*
X123642857Y-98976190D01*
X125166666Y-99452380D02*
X124595238Y-99452380D01*
X124880952Y-99452380D02*
X124880952Y-98452380D01*
X124785714Y-98595238D01*
X124690476Y-98690476D01*
X124595238Y-98738095D01*
%TO.C,K2*%
X117169404Y-112609880D02*
X117169404Y-111609880D01*
X117740833Y-112609880D02*
X117312261Y-112038452D01*
X117740833Y-111609880D02*
X117169404Y-112181309D01*
X118121785Y-111705119D02*
X118169404Y-111657500D01*
X118264642Y-111609880D01*
X118502738Y-111609880D01*
X118597976Y-111657500D01*
X118645595Y-111705119D01*
X118693214Y-111800357D01*
X118693214Y-111895595D01*
X118645595Y-112038452D01*
X118074166Y-112609880D01*
X118693214Y-112609880D01*
%TO.C,M2*%
X71190476Y-69452380D02*
X71190476Y-68452380D01*
X71523809Y-69166666D01*
X71857142Y-68452380D01*
X71857142Y-69452380D01*
X72285714Y-68547619D02*
X72333333Y-68500000D01*
X72428571Y-68452380D01*
X72666666Y-68452380D01*
X72761904Y-68500000D01*
X72809523Y-68547619D01*
X72857142Y-68642857D01*
X72857142Y-68738095D01*
X72809523Y-68880952D01*
X72238095Y-69452380D01*
X72857142Y-69452380D01*
X88190476Y-78252380D02*
X88190476Y-77252380D01*
X88523809Y-77966666D01*
X88857142Y-77252380D01*
X88857142Y-78252380D01*
X89285714Y-77347619D02*
X89333333Y-77300000D01*
X89428571Y-77252380D01*
X89666666Y-77252380D01*
X89761904Y-77300000D01*
X89809523Y-77347619D01*
X89857142Y-77442857D01*
X89857142Y-77538095D01*
X89809523Y-77680952D01*
X89238095Y-78252380D01*
X89857142Y-78252380D01*
%TO.C,K1*%
X97294880Y-107645595D02*
X96294880Y-107645595D01*
X97294880Y-107074166D02*
X96723452Y-107502738D01*
X96294880Y-107074166D02*
X96866309Y-107645595D01*
X97294880Y-106121785D02*
X97294880Y-106693214D01*
X97294880Y-106407500D02*
X96294880Y-106407500D01*
X96437738Y-106502738D01*
X96532976Y-106597976D01*
X96580595Y-106693214D01*
%TO.C,J3_2.4G*%
X65325238Y-97452380D02*
X65325238Y-98166666D01*
X65277619Y-98309523D01*
X65182380Y-98404761D01*
X65039523Y-98452380D01*
X64944285Y-98452380D01*
X65706190Y-97452380D02*
X66325238Y-97452380D01*
X65991904Y-97833333D01*
X66134761Y-97833333D01*
X66230000Y-97880952D01*
X66277619Y-97928571D01*
X66325238Y-98023809D01*
X66325238Y-98261904D01*
X66277619Y-98357142D01*
X66230000Y-98404761D01*
X66134761Y-98452380D01*
X65849047Y-98452380D01*
X65753809Y-98404761D01*
X65706190Y-98357142D01*
X66515714Y-98547619D02*
X67277619Y-98547619D01*
X67468095Y-97547619D02*
X67515714Y-97500000D01*
X67610952Y-97452380D01*
X67849047Y-97452380D01*
X67944285Y-97500000D01*
X67991904Y-97547619D01*
X68039523Y-97642857D01*
X68039523Y-97738095D01*
X67991904Y-97880952D01*
X67420476Y-98452380D01*
X68039523Y-98452380D01*
X68468095Y-98357142D02*
X68515714Y-98404761D01*
X68468095Y-98452380D01*
X68420476Y-98404761D01*
X68468095Y-98357142D01*
X68468095Y-98452380D01*
X69372857Y-97785714D02*
X69372857Y-98452380D01*
X69134761Y-97404761D02*
X68896666Y-98119047D01*
X69515714Y-98119047D01*
X70420476Y-97500000D02*
X70325238Y-97452380D01*
X70182380Y-97452380D01*
X70039523Y-97500000D01*
X69944285Y-97595238D01*
X69896666Y-97690476D01*
X69849047Y-97880952D01*
X69849047Y-98023809D01*
X69896666Y-98214285D01*
X69944285Y-98309523D01*
X70039523Y-98404761D01*
X70182380Y-98452380D01*
X70277619Y-98452380D01*
X70420476Y-98404761D01*
X70468095Y-98357142D01*
X70468095Y-98023809D01*
X70277619Y-98023809D01*
%TO.C,J6_PWR*%
X74444285Y-98452380D02*
X74444285Y-99166666D01*
X74396666Y-99309523D01*
X74301428Y-99404761D01*
X74158571Y-99452380D01*
X74063333Y-99452380D01*
X75349047Y-98452380D02*
X75158571Y-98452380D01*
X75063333Y-98500000D01*
X75015714Y-98547619D01*
X74920476Y-98690476D01*
X74872857Y-98880952D01*
X74872857Y-99261904D01*
X74920476Y-99357142D01*
X74968095Y-99404761D01*
X75063333Y-99452380D01*
X75253809Y-99452380D01*
X75349047Y-99404761D01*
X75396666Y-99357142D01*
X75444285Y-99261904D01*
X75444285Y-99023809D01*
X75396666Y-98928571D01*
X75349047Y-98880952D01*
X75253809Y-98833333D01*
X75063333Y-98833333D01*
X74968095Y-98880952D01*
X74920476Y-98928571D01*
X74872857Y-99023809D01*
X75634761Y-99547619D02*
X76396666Y-99547619D01*
X76634761Y-99452380D02*
X76634761Y-98452380D01*
X77015714Y-98452380D01*
X77110952Y-98500000D01*
X77158571Y-98547619D01*
X77206190Y-98642857D01*
X77206190Y-98785714D01*
X77158571Y-98880952D01*
X77110952Y-98928571D01*
X77015714Y-98976190D01*
X76634761Y-98976190D01*
X77539523Y-98452380D02*
X77777619Y-99452380D01*
X77968095Y-98738095D01*
X78158571Y-99452380D01*
X78396666Y-98452380D01*
X79349047Y-99452380D02*
X79015714Y-98976190D01*
X78777619Y-99452380D02*
X78777619Y-98452380D01*
X79158571Y-98452380D01*
X79253809Y-98500000D01*
X79301428Y-98547619D01*
X79349047Y-98642857D01*
X79349047Y-98785714D01*
X79301428Y-98880952D01*
X79253809Y-98928571D01*
X79158571Y-98976190D01*
X78777619Y-98976190D01*
%TO.C,H2_BAT*%
X83547619Y-93452380D02*
X83547619Y-92452380D01*
X83547619Y-92928571D02*
X84119047Y-92928571D01*
X84119047Y-93452380D02*
X84119047Y-92452380D01*
X84547619Y-92547619D02*
X84595238Y-92500000D01*
X84690476Y-92452380D01*
X84928571Y-92452380D01*
X85023809Y-92500000D01*
X85071428Y-92547619D01*
X85119047Y-92642857D01*
X85119047Y-92738095D01*
X85071428Y-92880952D01*
X84500000Y-93452380D01*
X85119047Y-93452380D01*
X85309523Y-93547619D02*
X86071428Y-93547619D01*
X86642857Y-92928571D02*
X86785714Y-92976190D01*
X86833333Y-93023809D01*
X86880952Y-93119047D01*
X86880952Y-93261904D01*
X86833333Y-93357142D01*
X86785714Y-93404761D01*
X86690476Y-93452380D01*
X86309523Y-93452380D01*
X86309523Y-92452380D01*
X86642857Y-92452380D01*
X86738095Y-92500000D01*
X86785714Y-92547619D01*
X86833333Y-92642857D01*
X86833333Y-92738095D01*
X86785714Y-92833333D01*
X86738095Y-92880952D01*
X86642857Y-92928571D01*
X86309523Y-92928571D01*
X87261904Y-93166666D02*
X87738095Y-93166666D01*
X87166666Y-93452380D02*
X87500000Y-92452380D01*
X87833333Y-93452380D01*
X88023809Y-92452380D02*
X88595238Y-92452380D01*
X88309523Y-93452380D02*
X88309523Y-92452380D01*
%TO.C,J1_LED*%
X86928571Y-70452380D02*
X86928571Y-71166666D01*
X86880952Y-71309523D01*
X86785714Y-71404761D01*
X86642857Y-71452380D01*
X86547619Y-71452380D01*
X87928571Y-71452380D02*
X87357142Y-71452380D01*
X87642857Y-71452380D02*
X87642857Y-70452380D01*
X87547619Y-70595238D01*
X87452380Y-70690476D01*
X87357142Y-70738095D01*
X88119047Y-71547619D02*
X88880952Y-71547619D01*
X89595238Y-71452380D02*
X89119047Y-71452380D01*
X89119047Y-70452380D01*
X89928571Y-70928571D02*
X90261904Y-70928571D01*
X90404761Y-71452380D02*
X89928571Y-71452380D01*
X89928571Y-70452380D01*
X90404761Y-70452380D01*
X90833333Y-71452380D02*
X90833333Y-70452380D01*
X91071428Y-70452380D01*
X91214285Y-70500000D01*
X91309523Y-70595238D01*
X91357142Y-70690476D01*
X91404761Y-70880952D01*
X91404761Y-71023809D01*
X91357142Y-71214285D01*
X91309523Y-71309523D01*
X91214285Y-71404761D01*
X91071428Y-71452380D01*
X90833333Y-71452380D01*
%TO.C,K3*%
X97294880Y-98645595D02*
X96294880Y-98645595D01*
X97294880Y-98074166D02*
X96723452Y-98502738D01*
X96294880Y-98074166D02*
X96866309Y-98645595D01*
X96294880Y-97740833D02*
X96294880Y-97121785D01*
X96675833Y-97455119D01*
X96675833Y-97312261D01*
X96723452Y-97217023D01*
X96771071Y-97169404D01*
X96866309Y-97121785D01*
X97104404Y-97121785D01*
X97199642Y-97169404D01*
X97247261Y-97217023D01*
X97294880Y-97312261D01*
X97294880Y-97597976D01*
X97247261Y-97693214D01*
X97199642Y-97740833D01*
%TO.C,M2*%
X120190476Y-82252380D02*
X120190476Y-81252380D01*
X120523809Y-81966666D01*
X120857142Y-81252380D01*
X120857142Y-82252380D01*
X121285714Y-81347619D02*
X121333333Y-81300000D01*
X121428571Y-81252380D01*
X121666666Y-81252380D01*
X121761904Y-81300000D01*
X121809523Y-81347619D01*
X121857142Y-81442857D01*
X121857142Y-81538095D01*
X121809523Y-81680952D01*
X121238095Y-82252380D01*
X121857142Y-82252380D01*
D11*
%TO.C,H1_GND*%
X93750000Y-96000000D02*
G75*
G03*
X93750000Y-96000000I-1750000J0D01*
G01*
%TO.C,J4_LIGHT*%
X125670000Y-101460000D02*
X125670000Y-100130000D01*
X125670000Y-102730000D02*
X125670000Y-110410000D01*
X125670000Y-100130000D02*
X127000000Y-100130000D01*
X128330000Y-102730000D02*
X128330000Y-110410000D01*
X125670000Y-102730000D02*
X128330000Y-102730000D01*
X125670000Y-110410000D02*
X128330000Y-110410000D01*
%TO.C,J2_BTN*%
X104000000Y-67670000D02*
X105330000Y-67670000D01*
X102730000Y-67670000D02*
X100130000Y-67670000D01*
X100130000Y-67670000D02*
X100130000Y-70330000D01*
X102730000Y-67670000D02*
X102730000Y-70330000D01*
X105330000Y-67670000D02*
X105330000Y-69000000D01*
X102730000Y-70330000D02*
X100130000Y-70330000D01*
%TO.C,Arduino1*%
X70220000Y-74660000D02*
X70220000Y-71990000D01*
X110990000Y-90030000D02*
X110990000Y-71990000D01*
X67550000Y-71990000D02*
X67550000Y-90030000D01*
X105780000Y-74660000D02*
X70220000Y-74660000D01*
X105780000Y-74660000D02*
X105780000Y-71990000D01*
X105780000Y-71990000D02*
X67550000Y-71990000D01*
X105780000Y-74660000D02*
X108320000Y-74660000D01*
X108320000Y-87360000D02*
X108320000Y-90030000D01*
X108320000Y-87360000D02*
X70220000Y-87360000D01*
X110990000Y-71990000D02*
X108320000Y-71990000D01*
X70220000Y-87360000D02*
X70220000Y-90030000D01*
X108320000Y-74660000D02*
X108320000Y-71990000D01*
X67550000Y-90030000D02*
X110990000Y-90030000D01*
%TO.C,TR1*%
X112400000Y-67950000D02*
X129600000Y-67950000D01*
X129600000Y-67950000D02*
X129600000Y-98050000D01*
X129600000Y-98050000D02*
X112400000Y-98050000D01*
X112400000Y-98050000D02*
X112400000Y-67950000D01*
%TO.C,K2*%
X114007500Y-98557500D02*
X121807500Y-98557500D01*
X122007500Y-109357500D02*
X122007500Y-111457500D01*
X122007500Y-111457500D02*
X119807500Y-111457500D01*
X118985500Y-106147500D02*
X118985500Y-105131500D01*
X117461500Y-106147500D02*
X118096500Y-105131500D01*
X121807500Y-98557500D02*
X121807500Y-111257500D01*
X119645500Y-106274500D02*
X119645500Y-105639500D01*
X114007500Y-111257500D02*
X114007500Y-98557500D01*
X116445500Y-106274500D02*
X116445500Y-105639500D01*
X117080500Y-106147500D02*
X117080500Y-105131500D01*
X116445500Y-105639500D02*
X117080500Y-105639500D01*
X118985500Y-105131500D02*
X117080500Y-105131500D01*
X121807500Y-111257500D02*
X114007500Y-111257500D01*
X119645500Y-105639500D02*
X118985500Y-105639500D01*
X117080500Y-106147500D02*
X118985500Y-106147500D01*
%TO.C,K1*%
X99642500Y-111007500D02*
X97542500Y-111007500D01*
X102852500Y-106080500D02*
X103868500Y-106080500D01*
X110442500Y-103007500D02*
X110442500Y-110807500D01*
X97742500Y-110807500D02*
X97742500Y-103007500D01*
X102725500Y-108645500D02*
X103360500Y-108645500D01*
X97542500Y-111007500D02*
X97542500Y-108807500D01*
X102725500Y-105445500D02*
X103360500Y-105445500D01*
X97742500Y-103007500D02*
X110442500Y-103007500D01*
X102852500Y-107985500D02*
X103868500Y-107985500D01*
X110442500Y-110807500D02*
X97742500Y-110807500D01*
X103360500Y-105445500D02*
X103360500Y-106080500D01*
X103868500Y-107985500D02*
X103868500Y-106080500D01*
X103360500Y-108645500D02*
X103360500Y-107985500D01*
X102852500Y-106080500D02*
X102852500Y-107985500D01*
X102852500Y-106461500D02*
X103868500Y-107096500D01*
%TO.C,J3_2.4G*%
X65130000Y-110410000D02*
X65130000Y-100130000D01*
X70330000Y-107810000D02*
X67730000Y-107810000D01*
X70330000Y-110410000D02*
X69000000Y-110410000D01*
X67730000Y-107810000D02*
X67730000Y-110410000D01*
X70330000Y-100130000D02*
X65130000Y-100130000D01*
X70330000Y-107810000D02*
X70330000Y-100130000D01*
X70330000Y-109080000D02*
X70330000Y-110410000D01*
X67730000Y-110410000D02*
X65130000Y-110410000D01*
%TO.C,J6_PWR*%
X76730000Y-97330000D02*
X74130000Y-97330000D01*
X76730000Y-94670000D02*
X76730000Y-97330000D01*
X79330000Y-94670000D02*
X79330000Y-96000000D01*
X78000000Y-94670000D02*
X79330000Y-94670000D01*
X76730000Y-94670000D02*
X74130000Y-94670000D01*
X74130000Y-94670000D02*
X74130000Y-97330000D01*
%TO.C,H2_BAT*%
X87750000Y-96000000D02*
G75*
G03*
X87750000Y-96000000I-1750000J0D01*
G01*
%TO.C,J1_LED*%
X85195000Y-69330000D02*
X85195000Y-66670000D01*
X83925000Y-69330000D02*
X82595000Y-69330000D01*
X95415000Y-69330000D02*
X95415000Y-66670000D01*
X85195000Y-69330000D02*
X95415000Y-69330000D01*
X82595000Y-69330000D02*
X82595000Y-68000000D01*
X85195000Y-66670000D02*
X95415000Y-66670000D01*
%TO.C,K3*%
X110442500Y-94007500D02*
X110442500Y-101807500D01*
X102852500Y-97080500D02*
X102852500Y-98985500D01*
X102852500Y-98985500D02*
X103868500Y-98985500D01*
X103360500Y-96445500D02*
X103360500Y-97080500D01*
X99642500Y-102007500D02*
X97542500Y-102007500D01*
X102852500Y-97461500D02*
X103868500Y-98096500D01*
X103868500Y-98985500D02*
X103868500Y-97080500D01*
X97742500Y-101807500D02*
X97742500Y-94007500D01*
X97542500Y-102007500D02*
X97542500Y-99807500D01*
X102725500Y-99645500D02*
X103360500Y-99645500D01*
X102852500Y-97080500D02*
X103868500Y-97080500D01*
X102725500Y-96445500D02*
X103360500Y-96445500D01*
X110442500Y-101807500D02*
X97742500Y-101807500D01*
X103360500Y-99645500D02*
X103360500Y-98985500D01*
X97742500Y-94007500D02*
X110442500Y-94007500D01*
%TD*%
M02*
