%TF.GenerationSoftware,KiCad,Pcbnew,(6.0.6-0)*%
%TF.CreationDate,2022-07-16T17:32:28+08:00*%
%TF.ProjectId,__,8cc82e6b-6963-4616-945f-706362585858,rev?*%
%TF.SameCoordinates,Original*%
%TF.FileFunction,Copper,L2,Bot*%
%TF.FilePolarity,Positive*%
%FSLAX46Y46*%
G04 Gerber Fmt 4.6, Leading zero omitted, Abs format (unit mm)*
G04 Created by KiCad (PCBNEW (6.0.6-0)) date 2022-07-16 17:32:28*
%MOMM*%
%LPD*%
G01*
G04 APERTURE LIST*
G04 Aperture macros list*
%AMRoundRect*
0 Rectangle with rounded corners*
0 $1 Rounding radius*
0 $2 $3 $4 $5 $6 $7 $8 $9 X,Y pos of 4 corners*
0 Add a 4 corners polygon primitive as box body*
4,1,4,$2,$3,$4,$5,$6,$7,$8,$9,$2,$3,0*
0 Add four circle primitives for the rounded corners*
1,1,$1+$1,$2,$3*
1,1,$1+$1,$4,$5*
1,1,$1+$1,$6,$7*
1,1,$1+$1,$8,$9*
0 Add four rect primitives between the rounded corners*
20,1,$1+$1,$2,$3,$4,$5,0*
20,1,$1+$1,$4,$5,$6,$7,0*
20,1,$1+$1,$6,$7,$8,$9,0*
20,1,$1+$1,$8,$9,$2,$3,0*%
G04 Aperture macros list end*
%TA.AperFunction,ComponentPad*%
%ADD10R,1.700000X1.700000*%
%TD*%
%TA.AperFunction,ComponentPad*%
%ADD11O,1.700000X1.700000*%
%TD*%
%TA.AperFunction,ComponentPad*%
%ADD12R,1.600000X1.600000*%
%TD*%
%TA.AperFunction,ComponentPad*%
%ADD13O,1.600000X1.600000*%
%TD*%
%TA.AperFunction,ComponentPad*%
%ADD14C,1.000000*%
%TD*%
%TA.AperFunction,ComponentPad*%
%ADD15R,2.000000X2.000000*%
%TD*%
%TA.AperFunction,ComponentPad*%
%ADD16C,2.000000*%
%TD*%
%TA.AperFunction,SMDPad,CuDef*%
%ADD17RoundRect,0.250000X-0.400000X-0.625000X0.400000X-0.625000X0.400000X0.625000X-0.400000X0.625000X0*%
%TD*%
%TA.AperFunction,SMDPad,CuDef*%
%ADD18RoundRect,0.250000X0.400000X0.625000X-0.400000X0.625000X-0.400000X-0.625000X0.400000X-0.625000X0*%
%TD*%
%TA.AperFunction,ViaPad*%
%ADD19C,0.800000*%
%TD*%
%TA.AperFunction,Conductor*%
%ADD20C,0.250000*%
%TD*%
G04 APERTURE END LIST*
D10*
%TO.P,J4_LIGHT,1,Pin_1*%
%TO.N,Net-(J4-Pad1)*%
X127000000Y-101460000D03*
D11*
%TO.P,J4_LIGHT,2,Pin_2*%
%TO.N,Net-(J4-Pad2)*%
X127000000Y-104000000D03*
%TO.P,J4_LIGHT,3,Pin_3*%
%TO.N,Net-(J4-Pad3)*%
X127000000Y-106540000D03*
%TO.P,J4_LIGHT,4,Pin_4*%
%TO.N,Net-(J4-Pad4)*%
X127000000Y-109080000D03*
%TD*%
D10*
%TO.P,J2_BTN,1,Pin_1*%
%TO.N,Net-(Arduino1-Pad9)*%
X104000000Y-69000000D03*
D11*
%TO.P,J2_BTN,2,Pin_2*%
%TO.N,5V*%
X101460000Y-69000000D03*
%TD*%
D12*
%TO.P,Arduino1,1,TX*%
%TO.N,unconnected-(Arduino1-Pad1)*%
X107050000Y-73390000D03*
D13*
%TO.P,Arduino1,2,RX*%
%TO.N,unconnected-(Arduino1-Pad2)*%
X104510000Y-73390000D03*
%TO.P,Arduino1,3,RST*%
%TO.N,unconnected-(Arduino1-Pad3)*%
X101970000Y-73390000D03*
%TO.P,Arduino1,4,GND*%
%TO.N,unconnected-(Arduino1-Pad4)*%
X99430000Y-73390000D03*
%TO.P,Arduino1,5,D2*%
%TO.N,Net-(Arduino1-Pad5)*%
X96890000Y-73390000D03*
%TO.P,Arduino1,6,D3*%
%TO.N,Net-(Arduino1-Pad6)*%
X94350000Y-73390000D03*
%TO.P,Arduino1,7,D4*%
%TO.N,Net-(Arduino1-Pad7)*%
X91810000Y-73390000D03*
%TO.P,Arduino1,8,D5*%
%TO.N,Net-(Arduino1-Pad8)*%
X89270000Y-73390000D03*
%TO.P,Arduino1,9,D6*%
%TO.N,Net-(Arduino1-Pad9)*%
X86730000Y-73390000D03*
%TO.P,Arduino1,10,D7*%
%TO.N,Net-(Arduino1-Pad10)*%
X84190000Y-73390000D03*
%TO.P,Arduino1,11,D8*%
%TO.N,Net-(Arduino1-Pad11)*%
X81650000Y-73390000D03*
%TO.P,Arduino1,12,D9*%
%TO.N,unconnected-(Arduino1-Pad12)*%
X79110000Y-73390000D03*
%TO.P,Arduino1,13,D10(~{SS})*%
%TO.N,unconnected-(Arduino1-Pad13)*%
X76570000Y-73390000D03*
%TO.P,Arduino1,14,D11(MOSI)*%
%TO.N,Net-(Arduino1-Pad14)*%
X74030000Y-73390000D03*
%TO.P,Arduino1,15,D12(MISO)*%
%TO.N,Net-(Arduino1-Pad15)*%
X71490000Y-73390000D03*
%TO.P,Arduino1,16,D13*%
%TO.N,Net-(Arduino1-Pad16)*%
X71490000Y-88630000D03*
%TO.P,Arduino1,17,3V3*%
%TO.N,Net-(Arduino1-Pad17)*%
X74030000Y-88630000D03*
%TO.P,Arduino1,18,REF*%
%TO.N,unconnected-(Arduino1-Pad18)*%
X76570000Y-88630000D03*
%TO.P,Arduino1,19,A0*%
%TO.N,Net-(Arduino1-Pad19)*%
X79110000Y-88630000D03*
%TO.P,Arduino1,20,A1*%
%TO.N,Net-(Arduino1-Pad20)*%
X81650000Y-88630000D03*
%TO.P,Arduino1,21,A2*%
%TO.N,Net-(Arduino1-Pad21)*%
X84190000Y-88630000D03*
%TO.P,Arduino1,22,A3*%
%TO.N,unconnected-(Arduino1-Pad22)*%
X86730000Y-88630000D03*
%TO.P,Arduino1,23,A4*%
%TO.N,unconnected-(Arduino1-Pad23)*%
X89270000Y-88630000D03*
%TO.P,Arduino1,24,A5*%
%TO.N,unconnected-(Arduino1-Pad24)*%
X91810000Y-88630000D03*
%TO.P,Arduino1,25,A6*%
%TO.N,unconnected-(Arduino1-Pad25)*%
X94350000Y-88630000D03*
%TO.P,Arduino1,26,A7*%
%TO.N,Net-(Arduino1-Pad26)*%
X96890000Y-88630000D03*
%TO.P,Arduino1,27,5V*%
%TO.N,5V*%
X99430000Y-88630000D03*
%TO.P,Arduino1,28,RST*%
%TO.N,unconnected-(Arduino1-Pad28)*%
X101970000Y-88630000D03*
%TO.P,Arduino1,29,GND*%
%TO.N,Earth*%
X104510000Y-88630000D03*
%TO.P,Arduino1,30,VIN*%
%TO.N,VIN*%
X107050000Y-88630000D03*
%TD*%
D14*
%TO.P,TR1,1,Vin(-)*%
%TO.N,Earth*%
X113800000Y-69250000D03*
%TO.P,TR1,2,Vin(+)*%
%TO.N,VIN*%
X128200000Y-69250000D03*
%TO.P,TR1,3,Out(-)*%
%TO.N,Net-(J4-Pad4)*%
X113800000Y-96500000D03*
%TO.P,TR1,4,Out(+)*%
%TO.N,Net-(K1-Pad5)*%
X128200000Y-96500000D03*
%TD*%
D15*
%TO.P,K2,1*%
%TO.N,unconnected-(K2-Pad1)*%
X120407500Y-109957500D03*
D16*
%TO.P,K2,2*%
%TO.N,Earth*%
X120407500Y-107417500D03*
%TO.P,K2,5*%
%TO.N,Net-(K1-Pad5)*%
X120407500Y-99797500D03*
%TO.P,K2,6*%
X115327500Y-99797500D03*
%TO.P,K2,9*%
%TO.N,Net-(Arduino1-Pad20)*%
X115327500Y-107417500D03*
%TO.P,K2,10*%
%TO.N,Net-(J4-Pad2)*%
X115327500Y-109957500D03*
%TD*%
D15*
%TO.P,K1,1*%
%TO.N,unconnected-(K1-Pad1)*%
X99042500Y-109407500D03*
D16*
%TO.P,K1,2*%
%TO.N,Earth*%
X101582500Y-109407500D03*
%TO.P,K1,5*%
%TO.N,Net-(K1-Pad5)*%
X109202500Y-109407500D03*
%TO.P,K1,6*%
X109202500Y-104327500D03*
%TO.P,K1,9*%
%TO.N,Net-(Arduino1-Pad19)*%
X101582500Y-104327500D03*
%TO.P,K1,10*%
%TO.N,Net-(J4-Pad3)*%
X99042500Y-104327500D03*
%TD*%
D10*
%TO.P,J3_2.4G,1,EMPTY*%
%TO.N,unconnected-(J3-Pad1)*%
X69000000Y-109080000D03*
D11*
%TO.P,J3_2.4G,2,MISO*%
%TO.N,Net-(Arduino1-Pad15)*%
X66460000Y-109080000D03*
%TO.P,J3_2.4G,3,MOSI*%
%TO.N,Net-(Arduino1-Pad14)*%
X69000000Y-106540000D03*
%TO.P,J3_2.4G,4,SCLK*%
%TO.N,Net-(Arduino1-Pad16)*%
X66460000Y-106540000D03*
%TO.P,J3_2.4G,5,CSN*%
%TO.N,Net-(Arduino1-Pad11)*%
X69000000Y-104000000D03*
%TO.P,J3_2.4G,6,CE*%
%TO.N,Net-(Arduino1-Pad10)*%
X66460000Y-104000000D03*
%TO.P,J3_2.4G,7,VCC*%
%TO.N,Net-(Arduino1-Pad17)*%
X69000000Y-101460000D03*
%TO.P,J3_2.4G,8,GND*%
%TO.N,Earth*%
X66460000Y-101460000D03*
%TD*%
D10*
%TO.P,J6_PWR,1,Pin_1*%
%TO.N,VIN*%
X78000000Y-96000000D03*
D11*
%TO.P,J6_PWR,2,Pin_2*%
%TO.N,Earth*%
X75460000Y-96000000D03*
%TD*%
D10*
%TO.P,J1_LED,1,Pin_1*%
%TO.N,Net-(J1-Pad1)*%
X83925000Y-68000000D03*
D11*
%TO.P,J1_LED,2,Pin_2*%
%TO.N,Net-(J1-Pad2)*%
X86465000Y-68000000D03*
%TO.P,J1_LED,3,Pin_3*%
%TO.N,Net-(J1-Pad3)*%
X89005000Y-68000000D03*
%TO.P,J1_LED,4,Pin_4*%
%TO.N,Net-(J1-Pad4)*%
X91545000Y-68000000D03*
%TO.P,J1_LED,5,Pin_5*%
%TO.N,Earth*%
X94085000Y-68000000D03*
%TD*%
D15*
%TO.P,K3,1*%
%TO.N,unconnected-(K3-Pad1)*%
X99042500Y-100407500D03*
D16*
%TO.P,K3,2*%
%TO.N,Earth*%
X101582500Y-100407500D03*
%TO.P,K3,5*%
%TO.N,Net-(K1-Pad5)*%
X109202500Y-100407500D03*
%TO.P,K3,6*%
X109202500Y-95327500D03*
%TO.P,K3,9*%
%TO.N,Net-(Arduino1-Pad21)*%
X101582500Y-95327500D03*
%TO.P,K3,10*%
%TO.N,Net-(J4-Pad1)*%
X99042500Y-95327500D03*
%TD*%
D17*
%TO.P,R2,1*%
%TO.N,Net-(J1-Pad4)*%
X94450000Y-70000000D03*
%TO.P,R2,2*%
%TO.N,Net-(Arduino1-Pad5)*%
X97550000Y-70000000D03*
%TD*%
%TO.P,R3,1*%
%TO.N,Net-(J1-Pad3)*%
X89450000Y-70000000D03*
%TO.P,R3,2*%
%TO.N,Net-(Arduino1-Pad6)*%
X92550000Y-70000000D03*
%TD*%
D18*
%TO.P,R1,1*%
%TO.N,Net-(Arduino1-Pad9)*%
X110550000Y-69000000D03*
%TO.P,R1,2*%
%TO.N,Earth*%
X107450000Y-69000000D03*
%TD*%
%TO.P,R6,1*%
%TO.N,VIN*%
X103550000Y-83000000D03*
%TO.P,R6,2*%
%TO.N,Net-(Arduino1-Pad26)*%
X100450000Y-83000000D03*
%TD*%
D17*
%TO.P,R4,1*%
%TO.N,Net-(J1-Pad2)*%
X84450000Y-70000000D03*
%TO.P,R4,2*%
%TO.N,Net-(Arduino1-Pad7)*%
X87550000Y-70000000D03*
%TD*%
%TO.P,R5,1*%
%TO.N,Net-(J1-Pad1)*%
X79450000Y-70000000D03*
%TO.P,R5,2*%
%TO.N,Net-(Arduino1-Pad8)*%
X82550000Y-70000000D03*
%TD*%
D19*
%TO.N,Earth*%
X77000000Y-92000000D03*
X66000000Y-94000000D03*
X115000000Y-91000000D03*
X95000000Y-109000000D03*
X112000000Y-103000000D03*
X126000000Y-90000000D03*
X85000000Y-109000000D03*
X73000000Y-107000000D03*
X124000000Y-108000000D03*
X66000000Y-75000000D03*
X126000000Y-75000000D03*
X85000000Y-81000000D03*
X70000000Y-83000000D03*
X118000000Y-103000000D03*
X116000000Y-72000000D03*
X105000000Y-92000000D03*
X95000000Y-80000000D03*
X90000000Y-102000000D03*
X73000000Y-68000000D03*
%TD*%
D20*
%TO.N,Net-(Arduino1-Pad5)*%
X96890000Y-70660000D02*
X96890000Y-73390000D01*
X97550000Y-70000000D02*
X96890000Y-70660000D01*
%TO.N,Net-(Arduino1-Pad6)*%
X92550000Y-70000000D02*
X94350000Y-71800000D01*
X94350000Y-71800000D02*
X94350000Y-73390000D01*
%TO.N,Net-(Arduino1-Pad7)*%
X87550000Y-70000000D02*
X90940000Y-73390000D01*
X90940000Y-73390000D02*
X91810000Y-73390000D01*
%TO.N,Net-(Arduino1-Pad8)*%
X83750000Y-71200000D02*
X87080000Y-71200000D01*
X87080000Y-71200000D02*
X89270000Y-73390000D01*
X82550000Y-70000000D02*
X83750000Y-71200000D01*
%TO.N,Net-(Arduino1-Pad9)*%
X99000000Y-72000000D02*
X98305000Y-72695000D01*
X99000000Y-72000000D02*
X101000000Y-72000000D01*
X86730000Y-74730000D02*
X86730000Y-73390000D01*
X101000000Y-72000000D02*
X104000000Y-69000000D01*
X97000000Y-75000000D02*
X87000000Y-75000000D01*
X98305000Y-72695000D02*
X98305000Y-73695000D01*
X104000000Y-69000000D02*
X106000000Y-67000000D01*
X98305000Y-73695000D02*
X97000000Y-75000000D01*
X87000000Y-75000000D02*
X86730000Y-74730000D01*
X106000000Y-67000000D02*
X108550000Y-67000000D01*
X108550000Y-67000000D02*
X110550000Y-69000000D01*
%TO.N,Net-(Arduino1-Pad10)*%
X66460000Y-104000000D02*
X67635000Y-102825000D01*
X67635000Y-102825000D02*
X67635000Y-89945000D01*
X67635000Y-89945000D02*
X84190000Y-73390000D01*
%TO.N,Net-(Arduino1-Pad11)*%
X65973299Y-105316699D02*
X67683301Y-105316699D01*
X64823557Y-105644999D02*
X65644999Y-105644999D01*
X64823557Y-90216443D02*
X64823557Y-105644999D01*
X81650000Y-73390000D02*
X64823557Y-90216443D01*
X65644999Y-105644999D02*
X65973299Y-105316699D01*
X67683301Y-105316699D02*
X69000000Y-104000000D01*
%TO.N,Net-(Arduino1-Pad17)*%
X74030000Y-96430000D02*
X74030000Y-88630000D01*
X69000000Y-101460000D02*
X74030000Y-96430000D01*
%TO.N,Net-(Arduino1-Pad20)*%
X112012500Y-110732500D02*
X108653667Y-110732500D01*
X86095000Y-93075000D02*
X94916167Y-93075000D01*
X103181305Y-105260138D02*
X103181305Y-99181305D01*
X103181305Y-99181305D02*
X101079417Y-97079417D01*
X115327500Y-107417500D02*
X112012500Y-110732500D01*
X81650000Y-88630000D02*
X86095000Y-93075000D01*
X101079417Y-97079417D02*
X98920583Y-97079417D01*
X94916167Y-93075000D02*
X98920583Y-97079417D01*
X108653667Y-110732500D02*
X103181305Y-105260138D01*
%TO.N,Net-(Arduino1-Pad21)*%
X101582500Y-95327500D02*
X96521443Y-90266443D01*
X85826443Y-90266443D02*
X84190000Y-88630000D01*
X96521443Y-90266443D02*
X85826443Y-90266443D01*
%TO.N,Net-(Arduino1-Pad26)*%
X100450000Y-83000000D02*
X96890000Y-86560000D01*
X96890000Y-86560000D02*
X96890000Y-88630000D01*
%TO.N,VIN*%
X80235000Y-87765000D02*
X82000000Y-86000000D01*
X82000000Y-86000000D02*
X95000000Y-86000000D01*
X107050000Y-88630000D02*
X108820000Y-88630000D01*
X98000000Y-81000000D02*
X104000000Y-81000000D01*
X98000000Y-83000000D02*
X98000000Y-81000000D01*
X103550000Y-83000000D02*
X107050000Y-86500000D01*
X95000000Y-86000000D02*
X98000000Y-83000000D01*
X107050000Y-86500000D02*
X107050000Y-88630000D01*
X104000000Y-82550000D02*
X103550000Y-83000000D01*
X108820000Y-88630000D02*
X128200000Y-69250000D01*
X80235000Y-93765000D02*
X80235000Y-88765000D01*
X80235000Y-88765000D02*
X80235000Y-87765000D01*
X104000000Y-81000000D02*
X104000000Y-82550000D01*
X78000000Y-96000000D02*
X80235000Y-93765000D01*
%TO.N,Net-(J4-Pad2)*%
X115327500Y-109957500D02*
X121285000Y-104000000D01*
X121285000Y-104000000D02*
X127000000Y-104000000D01*
%TO.N,Net-(K1-Pad5)*%
X115327500Y-99797500D02*
X113672500Y-99797500D01*
X109202500Y-95327500D02*
X109202500Y-100407500D01*
X124902500Y-99797500D02*
X128200000Y-96500000D01*
X109202500Y-104327500D02*
X109202500Y-109407500D01*
X120407500Y-99797500D02*
X124902500Y-99797500D01*
X115327500Y-99797500D02*
X120407500Y-99797500D01*
X113672500Y-99797500D02*
X109202500Y-95327500D01*
X109202500Y-100407500D02*
X109202500Y-104327500D01*
%TO.N,Net-(J1-Pad1)*%
X79450000Y-70000000D02*
X81450000Y-68000000D01*
X81450000Y-68000000D02*
X83925000Y-68000000D01*
%TO.N,Net-(J1-Pad2)*%
X84450000Y-70000000D02*
X84465000Y-70000000D01*
X84465000Y-70000000D02*
X86465000Y-68000000D01*
%TO.N,Net-(J1-Pad3)*%
X89450000Y-68445000D02*
X89005000Y-68000000D01*
X89450000Y-70000000D02*
X89450000Y-68445000D01*
%TO.N,Net-(J1-Pad4)*%
X92388173Y-68000000D02*
X91545000Y-68000000D01*
X94388173Y-70000000D02*
X92388173Y-68000000D01*
%TD*%
%TA.AperFunction,Conductor*%
%TO.N,Earth*%
G36*
X130433621Y-65528502D02*
G01*
X130480114Y-65582158D01*
X130491500Y-65634500D01*
X130491500Y-112365500D01*
X130471498Y-112433621D01*
X130417842Y-112480114D01*
X130365500Y-112491500D01*
X63634500Y-112491500D01*
X63566379Y-112471498D01*
X63519886Y-112417842D01*
X63508500Y-112365500D01*
X63508500Y-110455634D01*
X97534000Y-110455634D01*
X97540755Y-110517816D01*
X97591885Y-110654205D01*
X97679239Y-110770761D01*
X97795795Y-110858115D01*
X97932184Y-110909245D01*
X97994366Y-110916000D01*
X100090634Y-110916000D01*
X100152816Y-110909245D01*
X100289205Y-110858115D01*
X100405761Y-110770761D01*
X100487730Y-110661391D01*
X100487730Y-110661390D01*
X100493115Y-110654205D01*
X100493173Y-110654050D01*
X100540291Y-110607037D01*
X100609682Y-110592022D01*
X100676175Y-110616906D01*
X100682386Y-110621881D01*
X100689617Y-110628057D01*
X100697601Y-110633857D01*
X100891542Y-110752705D01*
X100900337Y-110757187D01*
X101110488Y-110844234D01*
X101119873Y-110847283D01*
X101341054Y-110900385D01*
X101350801Y-110901928D01*
X101577570Y-110919775D01*
X101587430Y-110919775D01*
X101814199Y-110901928D01*
X101823946Y-110900385D01*
X102045127Y-110847283D01*
X102054512Y-110844234D01*
X102264663Y-110757187D01*
X102273458Y-110752705D01*
X102440945Y-110650068D01*
X102450407Y-110639610D01*
X102446624Y-110630834D01*
X101312385Y-109496595D01*
X101278359Y-109434283D01*
X101280194Y-109408632D01*
X101946908Y-109408632D01*
X101947039Y-109410465D01*
X101951290Y-109417080D01*
X102802790Y-110268580D01*
X102815170Y-110275340D01*
X102822820Y-110269613D01*
X102927705Y-110098458D01*
X102932187Y-110089663D01*
X103019234Y-109879512D01*
X103022283Y-109870127D01*
X103075385Y-109648946D01*
X103076928Y-109639199D01*
X103094775Y-109412430D01*
X103094775Y-109402570D01*
X103076928Y-109175801D01*
X103075385Y-109166054D01*
X103022283Y-108944873D01*
X103019234Y-108935488D01*
X102932187Y-108725337D01*
X102927705Y-108716542D01*
X102825068Y-108549055D01*
X102814610Y-108539593D01*
X102805834Y-108543376D01*
X101954522Y-109394688D01*
X101946908Y-109408632D01*
X101280194Y-109408632D01*
X101283424Y-109363468D01*
X101312385Y-109318405D01*
X102443580Y-108187210D01*
X102450340Y-108174830D01*
X102444613Y-108167180D01*
X102273458Y-108062295D01*
X102264663Y-108057813D01*
X102054512Y-107970766D01*
X102045127Y-107967717D01*
X101823946Y-107914615D01*
X101814199Y-107913072D01*
X101587430Y-107895225D01*
X101577570Y-107895225D01*
X101350801Y-107913072D01*
X101341054Y-107914615D01*
X101119873Y-107967717D01*
X101110488Y-107970766D01*
X100900337Y-108057813D01*
X100891542Y-108062295D01*
X100697601Y-108181143D01*
X100689617Y-108186943D01*
X100682386Y-108193119D01*
X100617596Y-108222151D01*
X100547396Y-108211547D01*
X100494812Y-108165323D01*
X100493115Y-108160795D01*
X100487730Y-108153610D01*
X100487729Y-108153608D01*
X100411142Y-108051419D01*
X100405761Y-108044239D01*
X100289205Y-107956885D01*
X100152816Y-107905755D01*
X100090634Y-107899000D01*
X97994366Y-107899000D01*
X97932184Y-107905755D01*
X97795795Y-107956885D01*
X97679239Y-108044239D01*
X97591885Y-108160795D01*
X97540755Y-108297184D01*
X97534000Y-108359366D01*
X97534000Y-110455634D01*
X63508500Y-110455634D01*
X63508500Y-90196386D01*
X64185337Y-90196386D01*
X64186083Y-90204278D01*
X64189498Y-90240404D01*
X64190057Y-90252262D01*
X64190057Y-105573206D01*
X64187825Y-105596815D01*
X64186282Y-105604905D01*
X64189566Y-105657111D01*
X64189808Y-105660950D01*
X64190057Y-105668861D01*
X64190057Y-105684855D01*
X64192063Y-105700729D01*
X64192805Y-105708589D01*
X64196332Y-105764649D01*
X64198782Y-105772190D01*
X64198878Y-105772486D01*
X64204051Y-105795630D01*
X64204089Y-105795934D01*
X64204090Y-105795939D01*
X64205083Y-105803796D01*
X64207999Y-105811161D01*
X64208000Y-105811165D01*
X64225756Y-105856010D01*
X64228428Y-105863429D01*
X64245793Y-105916874D01*
X64250043Y-105923570D01*
X64250043Y-105923571D01*
X64250207Y-105923830D01*
X64260972Y-105944957D01*
X64261086Y-105945245D01*
X64261089Y-105945250D01*
X64264005Y-105952616D01*
X64268661Y-105959024D01*
X64268664Y-105959030D01*
X64297015Y-105998051D01*
X64301458Y-106004588D01*
X64331557Y-106052017D01*
X64337335Y-106057443D01*
X64337336Y-106057444D01*
X64337564Y-106057658D01*
X64353245Y-106075445D01*
X64358085Y-106082106D01*
X64364194Y-106087160D01*
X64364195Y-106087161D01*
X64401353Y-106117902D01*
X64407287Y-106123133D01*
X64442455Y-106156157D01*
X64442458Y-106156159D01*
X64448236Y-106161585D01*
X64455460Y-106165557D01*
X64475063Y-106178880D01*
X64475303Y-106179079D01*
X64475310Y-106179083D01*
X64481413Y-106184132D01*
X64520957Y-106202740D01*
X64532233Y-106208046D01*
X64539265Y-106211628D01*
X64588497Y-106238694D01*
X64596172Y-106240664D01*
X64596178Y-106240667D01*
X64596476Y-106240743D01*
X64618785Y-106248775D01*
X64619060Y-106248905D01*
X64619068Y-106248908D01*
X64626239Y-106252282D01*
X64681406Y-106262805D01*
X64689115Y-106264528D01*
X64723108Y-106273256D01*
X64735850Y-106276528D01*
X64735851Y-106276528D01*
X64743527Y-106278499D01*
X64751764Y-106278499D01*
X64775373Y-106280731D01*
X64775676Y-106280789D01*
X64775680Y-106280789D01*
X64783463Y-106282274D01*
X64839508Y-106278748D01*
X64847419Y-106278499D01*
X64981455Y-106278499D01*
X65049576Y-106298501D01*
X65096069Y-106352157D01*
X65106742Y-106417887D01*
X65104431Y-106439511D01*
X65097800Y-106501562D01*
X65097251Y-106506695D01*
X65097548Y-106511847D01*
X65097548Y-106511851D01*
X65103011Y-106606590D01*
X65110110Y-106729715D01*
X65111247Y-106734761D01*
X65111248Y-106734767D01*
X65131119Y-106822939D01*
X65159222Y-106947639D01*
X65243266Y-107154616D01*
X65294019Y-107237438D01*
X65357291Y-107340688D01*
X65359987Y-107345088D01*
X65506250Y-107513938D01*
X65678126Y-107656632D01*
X65731147Y-107687615D01*
X65751445Y-107699476D01*
X65800169Y-107751114D01*
X65813240Y-107820897D01*
X65786509Y-107886669D01*
X65746055Y-107920027D01*
X65733607Y-107926507D01*
X65729474Y-107929610D01*
X65729471Y-107929612D01*
X65559100Y-108057530D01*
X65554965Y-108060635D01*
X65517669Y-108099663D01*
X65437721Y-108183324D01*
X65400629Y-108222138D01*
X65274743Y-108406680D01*
X65259003Y-108440590D01*
X65184349Y-108601419D01*
X65180688Y-108609305D01*
X65120989Y-108824570D01*
X65097251Y-109046695D01*
X65097548Y-109051848D01*
X65097548Y-109051851D01*
X65104695Y-109175801D01*
X65110110Y-109269715D01*
X65111247Y-109274761D01*
X65111248Y-109274767D01*
X65121083Y-109318405D01*
X65159222Y-109487639D01*
X65243266Y-109694616D01*
X65259305Y-109720789D01*
X65353863Y-109875094D01*
X65359987Y-109885088D01*
X65506250Y-110053938D01*
X65678126Y-110196632D01*
X65871000Y-110309338D01*
X66079692Y-110389030D01*
X66084760Y-110390061D01*
X66084763Y-110390062D01*
X66192017Y-110411883D01*
X66298597Y-110433567D01*
X66303772Y-110433757D01*
X66303774Y-110433757D01*
X66516673Y-110441564D01*
X66516677Y-110441564D01*
X66521837Y-110441753D01*
X66526957Y-110441097D01*
X66526959Y-110441097D01*
X66738288Y-110414025D01*
X66738289Y-110414025D01*
X66743416Y-110413368D01*
X66748366Y-110411883D01*
X66952429Y-110350661D01*
X66952434Y-110350659D01*
X66957384Y-110349174D01*
X67157994Y-110250896D01*
X67339860Y-110121173D01*
X67448091Y-110013319D01*
X67510462Y-109979404D01*
X67581268Y-109984592D01*
X67638030Y-110027238D01*
X67655012Y-110058341D01*
X67662756Y-110078998D01*
X67699385Y-110176705D01*
X67786739Y-110293261D01*
X67903295Y-110380615D01*
X68039684Y-110431745D01*
X68101866Y-110438500D01*
X69898134Y-110438500D01*
X69960316Y-110431745D01*
X70096705Y-110380615D01*
X70213261Y-110293261D01*
X70300615Y-110176705D01*
X70351745Y-110040316D01*
X70358500Y-109978134D01*
X70358500Y-108181866D01*
X70351745Y-108119684D01*
X70300615Y-107983295D01*
X70213261Y-107866739D01*
X70096705Y-107779385D01*
X70069905Y-107769338D01*
X69978203Y-107734960D01*
X69921439Y-107692318D01*
X69896739Y-107625756D01*
X69911947Y-107556408D01*
X69933493Y-107527727D01*
X70034435Y-107427137D01*
X70038096Y-107423489D01*
X70097594Y-107340689D01*
X70165435Y-107246277D01*
X70168453Y-107242077D01*
X70189320Y-107199857D01*
X70265136Y-107046453D01*
X70265137Y-107046451D01*
X70267430Y-107041811D01*
X70332370Y-106828069D01*
X70361529Y-106606590D01*
X70361846Y-106593609D01*
X70363074Y-106543365D01*
X70363074Y-106543361D01*
X70363156Y-106540000D01*
X70344852Y-106317361D01*
X70290431Y-106100702D01*
X70201354Y-105895840D01*
X70128880Y-105783812D01*
X70082822Y-105712617D01*
X70082820Y-105712614D01*
X70080014Y-105708277D01*
X69929670Y-105543051D01*
X69925619Y-105539852D01*
X69925615Y-105539848D01*
X69758414Y-105407800D01*
X69758410Y-105407798D01*
X69754359Y-105404598D01*
X69713053Y-105381796D01*
X69663084Y-105331364D01*
X69648312Y-105261921D01*
X69673428Y-105195516D01*
X69700780Y-105168909D01*
X69744603Y-105137650D01*
X69879860Y-105041173D01*
X69921178Y-105000000D01*
X84386526Y-105000000D01*
X84406391Y-105252403D01*
X84407545Y-105257210D01*
X84407546Y-105257216D01*
X84437455Y-105381797D01*
X84465495Y-105498591D01*
X84467388Y-105503162D01*
X84467389Y-105503164D01*
X84558979Y-105724281D01*
X84562384Y-105732502D01*
X84694672Y-105948376D01*
X84859102Y-106140898D01*
X85051624Y-106305328D01*
X85267498Y-106437616D01*
X85272068Y-106439509D01*
X85272072Y-106439511D01*
X85496836Y-106532611D01*
X85501409Y-106534505D01*
X85524298Y-106540000D01*
X85742784Y-106592454D01*
X85742790Y-106592455D01*
X85747597Y-106593609D01*
X85847416Y-106601465D01*
X85934345Y-106608307D01*
X85934352Y-106608307D01*
X85936801Y-106608500D01*
X86063199Y-106608500D01*
X86065648Y-106608307D01*
X86065655Y-106608307D01*
X86152584Y-106601465D01*
X86252403Y-106593609D01*
X86257210Y-106592455D01*
X86257216Y-106592454D01*
X86475702Y-106540000D01*
X86498591Y-106534505D01*
X86503164Y-106532611D01*
X86727928Y-106439511D01*
X86727932Y-106439509D01*
X86732502Y-106437616D01*
X86948376Y-106305328D01*
X87140898Y-106140898D01*
X87305328Y-105948376D01*
X87437616Y-105732502D01*
X87441022Y-105724281D01*
X87532611Y-105503164D01*
X87532612Y-105503162D01*
X87534505Y-105498591D01*
X87562545Y-105381797D01*
X87592454Y-105257216D01*
X87592455Y-105257210D01*
X87593609Y-105252403D01*
X87613474Y-105000000D01*
X87593609Y-104747597D01*
X87580662Y-104693665D01*
X87535660Y-104506221D01*
X87534505Y-104501409D01*
X87437616Y-104267498D01*
X87305328Y-104051624D01*
X87140898Y-103859102D01*
X86948376Y-103694672D01*
X86732502Y-103562384D01*
X86727932Y-103560491D01*
X86727928Y-103560489D01*
X86503164Y-103467389D01*
X86503162Y-103467388D01*
X86498591Y-103465495D01*
X86382099Y-103437528D01*
X86257216Y-103407546D01*
X86257210Y-103407545D01*
X86252403Y-103406391D01*
X86152584Y-103398535D01*
X86065655Y-103391693D01*
X86065648Y-103391693D01*
X86063199Y-103391500D01*
X85936801Y-103391500D01*
X85934352Y-103391693D01*
X85934345Y-103391693D01*
X85847416Y-103398535D01*
X85747597Y-103406391D01*
X85742790Y-103407545D01*
X85742784Y-103407546D01*
X85617901Y-103437528D01*
X85501409Y-103465495D01*
X85496838Y-103467388D01*
X85496836Y-103467389D01*
X85272072Y-103560489D01*
X85272068Y-103560491D01*
X85267498Y-103562384D01*
X85051624Y-103694672D01*
X84859102Y-103859102D01*
X84694672Y-104051624D01*
X84562384Y-104267498D01*
X84465495Y-104501409D01*
X84464340Y-104506221D01*
X84419339Y-104693665D01*
X84406391Y-104747597D01*
X84386526Y-105000000D01*
X69921178Y-105000000D01*
X69926125Y-104995070D01*
X69975825Y-104945543D01*
X70038096Y-104883489D01*
X70168453Y-104702077D01*
X70172611Y-104693665D01*
X70265136Y-104506453D01*
X70265137Y-104506451D01*
X70267430Y-104501811D01*
X70332370Y-104288069D01*
X70361529Y-104066590D01*
X70363156Y-104000000D01*
X70344852Y-103777361D01*
X70290431Y-103560702D01*
X70201354Y-103355840D01*
X70080014Y-103168277D01*
X69929670Y-103003051D01*
X69925619Y-102999852D01*
X69925615Y-102999848D01*
X69758414Y-102867800D01*
X69758410Y-102867798D01*
X69754359Y-102864598D01*
X69713053Y-102841796D01*
X69663084Y-102791364D01*
X69648312Y-102721921D01*
X69673428Y-102655516D01*
X69700780Y-102628909D01*
X69791956Y-102563874D01*
X69879860Y-102501173D01*
X70038096Y-102343489D01*
X70168453Y-102162077D01*
X70267430Y-101961811D01*
X70313684Y-101809573D01*
X70330865Y-101753023D01*
X70330865Y-101753021D01*
X70332370Y-101748069D01*
X70361529Y-101526590D01*
X70361611Y-101523240D01*
X70363074Y-101463365D01*
X70363074Y-101463361D01*
X70363156Y-101460000D01*
X70344852Y-101237361D01*
X70316821Y-101125765D01*
X70319625Y-101054823D01*
X70349930Y-101005974D01*
X74357486Y-96998418D01*
X74419798Y-96964392D01*
X74490613Y-96969457D01*
X74527066Y-96990569D01*
X74674434Y-97112916D01*
X74682881Y-97118831D01*
X74866756Y-97226279D01*
X74876042Y-97230729D01*
X75075001Y-97306703D01*
X75084899Y-97309579D01*
X75188250Y-97330606D01*
X75202299Y-97329410D01*
X75206000Y-97319065D01*
X75206000Y-94683102D01*
X75202082Y-94669758D01*
X75187806Y-94667771D01*
X75149324Y-94673660D01*
X75139288Y-94676051D01*
X74936868Y-94742212D01*
X74927358Y-94746209D01*
X74847680Y-94787687D01*
X74778020Y-94801400D01*
X74712005Y-94775275D01*
X74670594Y-94717606D01*
X74663500Y-94675924D01*
X74663500Y-89849394D01*
X74683502Y-89781273D01*
X74717229Y-89746181D01*
X74869789Y-89639357D01*
X74869792Y-89639355D01*
X74874300Y-89636198D01*
X75036198Y-89474300D01*
X75047068Y-89458777D01*
X75094098Y-89391611D01*
X75167523Y-89286749D01*
X75169846Y-89281767D01*
X75169849Y-89281762D01*
X75185805Y-89247543D01*
X75232722Y-89194258D01*
X75300999Y-89174797D01*
X75368959Y-89195339D01*
X75414195Y-89247543D01*
X75430151Y-89281762D01*
X75430154Y-89281767D01*
X75432477Y-89286749D01*
X75505902Y-89391611D01*
X75552933Y-89458777D01*
X75563802Y-89474300D01*
X75725700Y-89636198D01*
X75730208Y-89639355D01*
X75730211Y-89639357D01*
X75768246Y-89665989D01*
X75913251Y-89767523D01*
X75918233Y-89769846D01*
X75918238Y-89769849D01*
X76114765Y-89861490D01*
X76120757Y-89864284D01*
X76126065Y-89865706D01*
X76126067Y-89865707D01*
X76336598Y-89922119D01*
X76336600Y-89922119D01*
X76341913Y-89923543D01*
X76570000Y-89943498D01*
X76798087Y-89923543D01*
X76803400Y-89922119D01*
X76803402Y-89922119D01*
X77013933Y-89865707D01*
X77013935Y-89865706D01*
X77019243Y-89864284D01*
X77025235Y-89861490D01*
X77221762Y-89769849D01*
X77221767Y-89769846D01*
X77226749Y-89767523D01*
X77371754Y-89665989D01*
X77409789Y-89639357D01*
X77409792Y-89639355D01*
X77414300Y-89636198D01*
X77576198Y-89474300D01*
X77587068Y-89458777D01*
X77634098Y-89391611D01*
X77707523Y-89286749D01*
X77709846Y-89281767D01*
X77709849Y-89281762D01*
X77725805Y-89247543D01*
X77772722Y-89194258D01*
X77840999Y-89174797D01*
X77908959Y-89195339D01*
X77954195Y-89247543D01*
X77970151Y-89281762D01*
X77970154Y-89281767D01*
X77972477Y-89286749D01*
X78045902Y-89391611D01*
X78092933Y-89458777D01*
X78103802Y-89474300D01*
X78265700Y-89636198D01*
X78270208Y-89639355D01*
X78270211Y-89639357D01*
X78308246Y-89665989D01*
X78453251Y-89767523D01*
X78458233Y-89769846D01*
X78458238Y-89769849D01*
X78654765Y-89861490D01*
X78660757Y-89864284D01*
X78666065Y-89865706D01*
X78666067Y-89865707D01*
X78876598Y-89922119D01*
X78876600Y-89922119D01*
X78881913Y-89923543D01*
X79110000Y-89943498D01*
X79338087Y-89923543D01*
X79442890Y-89895461D01*
X79513865Y-89897151D01*
X79572661Y-89936945D01*
X79600609Y-90002209D01*
X79601500Y-90017168D01*
X79601500Y-93450405D01*
X79581498Y-93518526D01*
X79564595Y-93539500D01*
X78499500Y-94604595D01*
X78437188Y-94638621D01*
X78410405Y-94641500D01*
X77101866Y-94641500D01*
X77039684Y-94648255D01*
X76903295Y-94699385D01*
X76786739Y-94786739D01*
X76699385Y-94903295D01*
X76696233Y-94911704D01*
X76696232Y-94911705D01*
X76654722Y-95022433D01*
X76612081Y-95079198D01*
X76545519Y-95103898D01*
X76476170Y-95088691D01*
X76443546Y-95063004D01*
X76392799Y-95007234D01*
X76385273Y-95000215D01*
X76218139Y-94868222D01*
X76209552Y-94862517D01*
X76023117Y-94759599D01*
X76013705Y-94755369D01*
X75812959Y-94684280D01*
X75802988Y-94681646D01*
X75731837Y-94668972D01*
X75718540Y-94670432D01*
X75714000Y-94684989D01*
X75714000Y-97318517D01*
X75718064Y-97332359D01*
X75731478Y-97334393D01*
X75738184Y-97333534D01*
X75748262Y-97331392D01*
X75952255Y-97270191D01*
X75961842Y-97266433D01*
X76153095Y-97172739D01*
X76161945Y-97167464D01*
X76335328Y-97043792D01*
X76343193Y-97037145D01*
X76447897Y-96932805D01*
X76510268Y-96898889D01*
X76581075Y-96904077D01*
X76637837Y-96946723D01*
X76654819Y-96977826D01*
X76699385Y-97096705D01*
X76786739Y-97213261D01*
X76903295Y-97300615D01*
X77039684Y-97351745D01*
X77101866Y-97358500D01*
X78898134Y-97358500D01*
X78960316Y-97351745D01*
X79096705Y-97300615D01*
X79213261Y-97213261D01*
X79300615Y-97096705D01*
X79351745Y-96960316D01*
X79358500Y-96898134D01*
X79358500Y-95589594D01*
X79378502Y-95521473D01*
X79395405Y-95500499D01*
X80627247Y-94268657D01*
X80635537Y-94261113D01*
X80642018Y-94257000D01*
X80688659Y-94207332D01*
X80691413Y-94204491D01*
X80711134Y-94184770D01*
X80713612Y-94181575D01*
X80721318Y-94172553D01*
X80746158Y-94146101D01*
X80751586Y-94140321D01*
X80761346Y-94122568D01*
X80772199Y-94106045D01*
X80779753Y-94096306D01*
X80784613Y-94090041D01*
X80802176Y-94049457D01*
X80807383Y-94038827D01*
X80828695Y-94000060D01*
X80830666Y-93992383D01*
X80830668Y-93992378D01*
X80833732Y-93980442D01*
X80840138Y-93961730D01*
X80845033Y-93950419D01*
X80848181Y-93943145D01*
X80849421Y-93935317D01*
X80849423Y-93935310D01*
X80855099Y-93899476D01*
X80857505Y-93887856D01*
X80866528Y-93852711D01*
X80866528Y-93852710D01*
X80868500Y-93845030D01*
X80868500Y-93824776D01*
X80870051Y-93805065D01*
X80871980Y-93792886D01*
X80873220Y-93785057D01*
X80869059Y-93741038D01*
X80868500Y-93729181D01*
X80868500Y-89907131D01*
X80888502Y-89839010D01*
X80942158Y-89792517D01*
X81012432Y-89782413D01*
X81047749Y-89792936D01*
X81072684Y-89804563D01*
X81189162Y-89858877D01*
X81200757Y-89864284D01*
X81206065Y-89865706D01*
X81206067Y-89865707D01*
X81416598Y-89922119D01*
X81416600Y-89922119D01*
X81421913Y-89923543D01*
X81650000Y-89943498D01*
X81878087Y-89923543D01*
X81883398Y-89922120D01*
X81883409Y-89922118D01*
X81941541Y-89906541D01*
X82012517Y-89908230D01*
X82063248Y-89939152D01*
X85591343Y-93467247D01*
X85598887Y-93475537D01*
X85603000Y-93482018D01*
X85608777Y-93487443D01*
X85652667Y-93528658D01*
X85655509Y-93531413D01*
X85675230Y-93551134D01*
X85678425Y-93553612D01*
X85687447Y-93561318D01*
X85719679Y-93591586D01*
X85726628Y-93595406D01*
X85737432Y-93601346D01*
X85753956Y-93612199D01*
X85769959Y-93624613D01*
X85810543Y-93642176D01*
X85821173Y-93647383D01*
X85859940Y-93668695D01*
X85867617Y-93670666D01*
X85867622Y-93670668D01*
X85879558Y-93673732D01*
X85898266Y-93680137D01*
X85916855Y-93688181D01*
X85924683Y-93689421D01*
X85924690Y-93689423D01*
X85960524Y-93695099D01*
X85972144Y-93697505D01*
X86007289Y-93706528D01*
X86014970Y-93708500D01*
X86035224Y-93708500D01*
X86054934Y-93710051D01*
X86074943Y-93713220D01*
X86082835Y-93712474D01*
X86118961Y-93709059D01*
X86130819Y-93708500D01*
X94601573Y-93708500D01*
X94669694Y-93728502D01*
X94690668Y-93745405D01*
X98416926Y-97471664D01*
X98424470Y-97479954D01*
X98428583Y-97486435D01*
X98434360Y-97491860D01*
X98478250Y-97533075D01*
X98481092Y-97535830D01*
X98500813Y-97555551D01*
X98504008Y-97558029D01*
X98513030Y-97565735D01*
X98545262Y-97596003D01*
X98552211Y-97599823D01*
X98563015Y-97605763D01*
X98579539Y-97616616D01*
X98595542Y-97629030D01*
X98636126Y-97646593D01*
X98646756Y-97651800D01*
X98685523Y-97673112D01*
X98693200Y-97675083D01*
X98693205Y-97675085D01*
X98705141Y-97678149D01*
X98723849Y-97684554D01*
X98742438Y-97692598D01*
X98750266Y-97693838D01*
X98750273Y-97693840D01*
X98786107Y-97699516D01*
X98797727Y-97701922D01*
X98832872Y-97710945D01*
X98840553Y-97712917D01*
X98860807Y-97712917D01*
X98880517Y-97714468D01*
X98900526Y-97717637D01*
X98908418Y-97716891D01*
X98944544Y-97713476D01*
X98956402Y-97712917D01*
X100764823Y-97712917D01*
X100832944Y-97732919D01*
X100853918Y-97749822D01*
X101793003Y-98688907D01*
X101827029Y-98751219D01*
X101821964Y-98822034D01*
X101779417Y-98878870D01*
X101712897Y-98903681D01*
X101694022Y-98903614D01*
X101587430Y-98895225D01*
X101577570Y-98895225D01*
X101350801Y-98913072D01*
X101341054Y-98914615D01*
X101119873Y-98967717D01*
X101110488Y-98970766D01*
X100900337Y-99057813D01*
X100891542Y-99062295D01*
X100697601Y-99181143D01*
X100689617Y-99186943D01*
X100682386Y-99193119D01*
X100617596Y-99222151D01*
X100547396Y-99211547D01*
X100494812Y-99165323D01*
X100493115Y-99160795D01*
X100487730Y-99153610D01*
X100487729Y-99153608D01*
X100411142Y-99051419D01*
X100405761Y-99044239D01*
X100289205Y-98956885D01*
X100152816Y-98905755D01*
X100090634Y-98899000D01*
X97994366Y-98899000D01*
X97932184Y-98905755D01*
X97795795Y-98956885D01*
X97679239Y-99044239D01*
X97591885Y-99160795D01*
X97540755Y-99297184D01*
X97534000Y-99359366D01*
X97534000Y-101455634D01*
X97540755Y-101517816D01*
X97591885Y-101654205D01*
X97679239Y-101770761D01*
X97795795Y-101858115D01*
X97932184Y-101909245D01*
X97994366Y-101916000D01*
X100090634Y-101916000D01*
X100152816Y-101909245D01*
X100289205Y-101858115D01*
X100405761Y-101770761D01*
X100455003Y-101705058D01*
X100487729Y-101661392D01*
X100487730Y-101661390D01*
X100493115Y-101654205D01*
X100493173Y-101654050D01*
X100540291Y-101607037D01*
X100609682Y-101592022D01*
X100676175Y-101616906D01*
X100682386Y-101621881D01*
X100689617Y-101628057D01*
X100697601Y-101633857D01*
X100891542Y-101752705D01*
X100900337Y-101757187D01*
X101110488Y-101844234D01*
X101119873Y-101847283D01*
X101341054Y-101900385D01*
X101350801Y-101901928D01*
X101577570Y-101919775D01*
X101587430Y-101919775D01*
X101814199Y-101901928D01*
X101823946Y-101900385D01*
X102045127Y-101847283D01*
X102054512Y-101844234D01*
X102264663Y-101757187D01*
X102273458Y-101752705D01*
X102355970Y-101702141D01*
X102424503Y-101683602D01*
X102492180Y-101705058D01*
X102537513Y-101759697D01*
X102547805Y-101809573D01*
X102547805Y-102924839D01*
X102527803Y-102992960D01*
X102474147Y-103039453D01*
X102403873Y-103049557D01*
X102355970Y-103032271D01*
X102273693Y-102981851D01*
X102273682Y-102981845D01*
X102269463Y-102979260D01*
X102264893Y-102977367D01*
X102264889Y-102977365D01*
X102054667Y-102890289D01*
X102054665Y-102890288D01*
X102050094Y-102888395D01*
X101969891Y-102869140D01*
X101824024Y-102834120D01*
X101824018Y-102834119D01*
X101819211Y-102832965D01*
X101582500Y-102814335D01*
X101345789Y-102832965D01*
X101340982Y-102834119D01*
X101340976Y-102834120D01*
X101195109Y-102869140D01*
X101114906Y-102888395D01*
X101110335Y-102890288D01*
X101110333Y-102890289D01*
X100900111Y-102977365D01*
X100900107Y-102977367D01*
X100895537Y-102979260D01*
X100891317Y-102981846D01*
X100697298Y-103100741D01*
X100697292Y-103100745D01*
X100693084Y-103103324D01*
X100512531Y-103257531D01*
X100509323Y-103261287D01*
X100509318Y-103261292D01*
X100408311Y-103379556D01*
X100348861Y-103418366D01*
X100277866Y-103418872D01*
X100216689Y-103379556D01*
X100115682Y-103261292D01*
X100115677Y-103261287D01*
X100112469Y-103257531D01*
X99931916Y-103103324D01*
X99927708Y-103100745D01*
X99927702Y-103100741D01*
X99733683Y-102981846D01*
X99729463Y-102979260D01*
X99724893Y-102977367D01*
X99724889Y-102977365D01*
X99514667Y-102890289D01*
X99514665Y-102890288D01*
X99510094Y-102888395D01*
X99429891Y-102869140D01*
X99284024Y-102834120D01*
X99284018Y-102834119D01*
X99279211Y-102832965D01*
X99042500Y-102814335D01*
X98805789Y-102832965D01*
X98800982Y-102834119D01*
X98800976Y-102834120D01*
X98655109Y-102869140D01*
X98574906Y-102888395D01*
X98570335Y-102890288D01*
X98570333Y-102890289D01*
X98360111Y-102977365D01*
X98360107Y-102977367D01*
X98355537Y-102979260D01*
X98351317Y-102981846D01*
X98157298Y-103100741D01*
X98157292Y-103100745D01*
X98153084Y-103103324D01*
X97972531Y-103257531D01*
X97818324Y-103438084D01*
X97815745Y-103442292D01*
X97815741Y-103442298D01*
X97732967Y-103577373D01*
X97694260Y-103640537D01*
X97692367Y-103645107D01*
X97692365Y-103645111D01*
X97639665Y-103772342D01*
X97603395Y-103859906D01*
X97602240Y-103864718D01*
X97553775Y-104066590D01*
X97547965Y-104090789D01*
X97529335Y-104327500D01*
X97547965Y-104564211D01*
X97603395Y-104795094D01*
X97605288Y-104799665D01*
X97605289Y-104799667D01*
X97675856Y-104970031D01*
X97694260Y-105014463D01*
X97696846Y-105018683D01*
X97815741Y-105212702D01*
X97815745Y-105212708D01*
X97818324Y-105216916D01*
X97972531Y-105397469D01*
X98153084Y-105551676D01*
X98157292Y-105554255D01*
X98157298Y-105554259D01*
X98348835Y-105671633D01*
X98355537Y-105675740D01*
X98360107Y-105677633D01*
X98360111Y-105677635D01*
X98570333Y-105764711D01*
X98574906Y-105766605D01*
X98655109Y-105785860D01*
X98800976Y-105820880D01*
X98800982Y-105820881D01*
X98805789Y-105822035D01*
X99042500Y-105840665D01*
X99279211Y-105822035D01*
X99284018Y-105820881D01*
X99284024Y-105820880D01*
X99429891Y-105785860D01*
X99510094Y-105766605D01*
X99514667Y-105764711D01*
X99724889Y-105677635D01*
X99724893Y-105677633D01*
X99729463Y-105675740D01*
X99736165Y-105671633D01*
X99927702Y-105554259D01*
X99927708Y-105554255D01*
X99931916Y-105551676D01*
X100112469Y-105397469D01*
X100115677Y-105393713D01*
X100115682Y-105393708D01*
X100216689Y-105275444D01*
X100276139Y-105236634D01*
X100347134Y-105236128D01*
X100408311Y-105275444D01*
X100509318Y-105393708D01*
X100509323Y-105393713D01*
X100512531Y-105397469D01*
X100693084Y-105551676D01*
X100697292Y-105554255D01*
X100697298Y-105554259D01*
X100888835Y-105671633D01*
X100895537Y-105675740D01*
X100900107Y-105677633D01*
X100900111Y-105677635D01*
X101110333Y-105764711D01*
X101114906Y-105766605D01*
X101195109Y-105785860D01*
X101340976Y-105820880D01*
X101340982Y-105820881D01*
X101345789Y-105822035D01*
X101582500Y-105840665D01*
X101819211Y-105822035D01*
X101824018Y-105820881D01*
X101824024Y-105820880D01*
X101969891Y-105785860D01*
X102050094Y-105766605D01*
X102054667Y-105764711D01*
X102264889Y-105677635D01*
X102264893Y-105677633D01*
X102269463Y-105675740D01*
X102273683Y-105673154D01*
X102273693Y-105673149D01*
X102468200Y-105553954D01*
X102536733Y-105535415D01*
X102604410Y-105556871D01*
X102635972Y-105587326D01*
X102647741Y-105603525D01*
X102654257Y-105613445D01*
X102676763Y-105651500D01*
X102691084Y-105665821D01*
X102703924Y-105680854D01*
X102715833Y-105697245D01*
X102734415Y-105712617D01*
X102749910Y-105725436D01*
X102758689Y-105733426D01*
X108150010Y-111124747D01*
X108157554Y-111133037D01*
X108161667Y-111139518D01*
X108167444Y-111144943D01*
X108211334Y-111186158D01*
X108214176Y-111188913D01*
X108233898Y-111208635D01*
X108237022Y-111211058D01*
X108237026Y-111211062D01*
X108237091Y-111211112D01*
X108246112Y-111218817D01*
X108278346Y-111249086D01*
X108285294Y-111252905D01*
X108285296Y-111252907D01*
X108296099Y-111258846D01*
X108312626Y-111269702D01*
X108322365Y-111277257D01*
X108322367Y-111277258D01*
X108328627Y-111282114D01*
X108369207Y-111299674D01*
X108379855Y-111304891D01*
X108408723Y-111320761D01*
X108418607Y-111326195D01*
X108426283Y-111328166D01*
X108426286Y-111328167D01*
X108438229Y-111331233D01*
X108456934Y-111337637D01*
X108475522Y-111345681D01*
X108483345Y-111346920D01*
X108483355Y-111346923D01*
X108519191Y-111352599D01*
X108530811Y-111355005D01*
X108562626Y-111363173D01*
X108573637Y-111366000D01*
X108593891Y-111366000D01*
X108613601Y-111367551D01*
X108633610Y-111370720D01*
X108641502Y-111369974D01*
X108660247Y-111368202D01*
X108677629Y-111366559D01*
X108689486Y-111366000D01*
X111933733Y-111366000D01*
X111944916Y-111366527D01*
X111952409Y-111368202D01*
X111960335Y-111367953D01*
X111960336Y-111367953D01*
X112020486Y-111366062D01*
X112024445Y-111366000D01*
X112052356Y-111366000D01*
X112056291Y-111365503D01*
X112056356Y-111365495D01*
X112068193Y-111364562D01*
X112100451Y-111363548D01*
X112104470Y-111363422D01*
X112112389Y-111363173D01*
X112131843Y-111357521D01*
X112151200Y-111353513D01*
X112163430Y-111351968D01*
X112163431Y-111351968D01*
X112171297Y-111350974D01*
X112178668Y-111348055D01*
X112178670Y-111348055D01*
X112212412Y-111334696D01*
X112223642Y-111330851D01*
X112258483Y-111320729D01*
X112258484Y-111320729D01*
X112266093Y-111318518D01*
X112272912Y-111314485D01*
X112272917Y-111314483D01*
X112283528Y-111308207D01*
X112301276Y-111299512D01*
X112320117Y-111292052D01*
X112355887Y-111266064D01*
X112365807Y-111259548D01*
X112397035Y-111241080D01*
X112397038Y-111241078D01*
X112403862Y-111237042D01*
X112418183Y-111222721D01*
X112433217Y-111209880D01*
X112434931Y-111208635D01*
X112449607Y-111197972D01*
X112477798Y-111163895D01*
X112485788Y-111155116D01*
X113611520Y-110029384D01*
X113673832Y-109995358D01*
X113744647Y-110000423D01*
X113801483Y-110042970D01*
X113826227Y-110108593D01*
X113832965Y-110194211D01*
X113834119Y-110199018D01*
X113834120Y-110199024D01*
X113860604Y-110309338D01*
X113888395Y-110425094D01*
X113890288Y-110429665D01*
X113890289Y-110429667D01*
X113977250Y-110639610D01*
X113979260Y-110644463D01*
X113981846Y-110648683D01*
X114100741Y-110842702D01*
X114100745Y-110842708D01*
X114103324Y-110846916D01*
X114257531Y-111027469D01*
X114438084Y-111181676D01*
X114442292Y-111184255D01*
X114442298Y-111184259D01*
X114618200Y-111292052D01*
X114640537Y-111305740D01*
X114645107Y-111307633D01*
X114645111Y-111307635D01*
X114855333Y-111394711D01*
X114859906Y-111396605D01*
X114907849Y-111408115D01*
X115085976Y-111450880D01*
X115085982Y-111450881D01*
X115090789Y-111452035D01*
X115327500Y-111470665D01*
X115564211Y-111452035D01*
X115569018Y-111450881D01*
X115569024Y-111450880D01*
X115747151Y-111408115D01*
X115795094Y-111396605D01*
X115799667Y-111394711D01*
X116009889Y-111307635D01*
X116009893Y-111307633D01*
X116014463Y-111305740D01*
X116036800Y-111292052D01*
X116212702Y-111184259D01*
X116212708Y-111184255D01*
X116216916Y-111181676D01*
X116397469Y-111027469D01*
X116551676Y-110846916D01*
X116554255Y-110842708D01*
X116554259Y-110842702D01*
X116673154Y-110648683D01*
X116675740Y-110644463D01*
X116677751Y-110639610D01*
X116764711Y-110429667D01*
X116764712Y-110429665D01*
X116766605Y-110425094D01*
X116794396Y-110309338D01*
X116820880Y-110199024D01*
X116820881Y-110199018D01*
X116822035Y-110194211D01*
X116840665Y-109957500D01*
X116822035Y-109720789D01*
X116815752Y-109694616D01*
X116768440Y-109497549D01*
X116771987Y-109426641D01*
X116801864Y-109379040D01*
X118691984Y-107488920D01*
X118754296Y-107454894D01*
X118825111Y-107459959D01*
X118881947Y-107502506D01*
X118906691Y-107568129D01*
X118913072Y-107649199D01*
X118914615Y-107658946D01*
X118967717Y-107880127D01*
X118970766Y-107889512D01*
X119057813Y-108099663D01*
X119062295Y-108108458D01*
X119181143Y-108302399D01*
X119186943Y-108310383D01*
X119193119Y-108317614D01*
X119222151Y-108382404D01*
X119211547Y-108452604D01*
X119165323Y-108505188D01*
X119160795Y-108506885D01*
X119153610Y-108512270D01*
X119153608Y-108512271D01*
X119117153Y-108539593D01*
X119044239Y-108594239D01*
X118956885Y-108710795D01*
X118905755Y-108847184D01*
X118899000Y-108909366D01*
X118899000Y-111005634D01*
X118905755Y-111067816D01*
X118956885Y-111204205D01*
X119044239Y-111320761D01*
X119160795Y-111408115D01*
X119297184Y-111459245D01*
X119359366Y-111466000D01*
X121455634Y-111466000D01*
X121517816Y-111459245D01*
X121654205Y-111408115D01*
X121770761Y-111320761D01*
X121858115Y-111204205D01*
X121909245Y-111067816D01*
X121916000Y-111005634D01*
X121916000Y-108909366D01*
X121909245Y-108847184D01*
X121858115Y-108710795D01*
X121770761Y-108594239D01*
X121697847Y-108539593D01*
X121661392Y-108512271D01*
X121661390Y-108512270D01*
X121654205Y-108506885D01*
X121654050Y-108506827D01*
X121607037Y-108459709D01*
X121592022Y-108390318D01*
X121616906Y-108323825D01*
X121621881Y-108317614D01*
X121628057Y-108310383D01*
X121633857Y-108302399D01*
X121752705Y-108108458D01*
X121757187Y-108099663D01*
X121844234Y-107889512D01*
X121847283Y-107880127D01*
X121900385Y-107658946D01*
X121901928Y-107649199D01*
X121919775Y-107422430D01*
X121919775Y-107412570D01*
X121901928Y-107185801D01*
X121900385Y-107176054D01*
X121847283Y-106954873D01*
X121844234Y-106945488D01*
X121757187Y-106735337D01*
X121752705Y-106726542D01*
X121650068Y-106559055D01*
X121639610Y-106549593D01*
X121630834Y-106553376D01*
X120496595Y-107687615D01*
X120434283Y-107721641D01*
X120363468Y-107716576D01*
X120318405Y-107687615D01*
X120137385Y-107506595D01*
X120103359Y-107444283D01*
X120108424Y-107373468D01*
X120137385Y-107328405D01*
X121268580Y-106197210D01*
X121275340Y-106184830D01*
X121269613Y-106177180D01*
X121098458Y-106072295D01*
X121089663Y-106067813D01*
X120879512Y-105980766D01*
X120870127Y-105977717D01*
X120648946Y-105924615D01*
X120639199Y-105923072D01*
X120558129Y-105916691D01*
X120491787Y-105891405D01*
X120449648Y-105834267D01*
X120445089Y-105763417D01*
X120478920Y-105701984D01*
X121510499Y-104670405D01*
X121572811Y-104636379D01*
X121599594Y-104633500D01*
X125724274Y-104633500D01*
X125792395Y-104653502D01*
X125831707Y-104693665D01*
X125899987Y-104805088D01*
X126046250Y-104973938D01*
X126218126Y-105116632D01*
X126288595Y-105157811D01*
X126291445Y-105159476D01*
X126340169Y-105211114D01*
X126353240Y-105280897D01*
X126326509Y-105346669D01*
X126286055Y-105380027D01*
X126273607Y-105386507D01*
X126269474Y-105389610D01*
X126269471Y-105389612D01*
X126118234Y-105503164D01*
X126094965Y-105520635D01*
X125940629Y-105682138D01*
X125937715Y-105686410D01*
X125937714Y-105686411D01*
X125882222Y-105767760D01*
X125814743Y-105866680D01*
X125777200Y-105947560D01*
X125726194Y-106057444D01*
X125720688Y-106069305D01*
X125660989Y-106284570D01*
X125637251Y-106506695D01*
X125637548Y-106511848D01*
X125637548Y-106511851D01*
X125643011Y-106606590D01*
X125650110Y-106729715D01*
X125651247Y-106734761D01*
X125651248Y-106734767D01*
X125671119Y-106822939D01*
X125699222Y-106947639D01*
X125783266Y-107154616D01*
X125834019Y-107237438D01*
X125897291Y-107340688D01*
X125899987Y-107345088D01*
X126046250Y-107513938D01*
X126218126Y-107656632D01*
X126271147Y-107687615D01*
X126291445Y-107699476D01*
X126340169Y-107751114D01*
X126353240Y-107820897D01*
X126326509Y-107886669D01*
X126286055Y-107920027D01*
X126273607Y-107926507D01*
X126269474Y-107929610D01*
X126269471Y-107929612D01*
X126099100Y-108057530D01*
X126094965Y-108060635D01*
X126057669Y-108099663D01*
X125977721Y-108183324D01*
X125940629Y-108222138D01*
X125814743Y-108406680D01*
X125799003Y-108440590D01*
X125724349Y-108601419D01*
X125720688Y-108609305D01*
X125660989Y-108824570D01*
X125637251Y-109046695D01*
X125637548Y-109051848D01*
X125637548Y-109051851D01*
X125644695Y-109175801D01*
X125650110Y-109269715D01*
X125651247Y-109274761D01*
X125651248Y-109274767D01*
X125661083Y-109318405D01*
X125699222Y-109487639D01*
X125783266Y-109694616D01*
X125799305Y-109720789D01*
X125893863Y-109875094D01*
X125899987Y-109885088D01*
X126046250Y-110053938D01*
X126218126Y-110196632D01*
X126411000Y-110309338D01*
X126619692Y-110389030D01*
X126624760Y-110390061D01*
X126624763Y-110390062D01*
X126732017Y-110411883D01*
X126838597Y-110433567D01*
X126843772Y-110433757D01*
X126843774Y-110433757D01*
X127056673Y-110441564D01*
X127056677Y-110441564D01*
X127061837Y-110441753D01*
X127066957Y-110441097D01*
X127066959Y-110441097D01*
X127278288Y-110414025D01*
X127278289Y-110414025D01*
X127283416Y-110413368D01*
X127288366Y-110411883D01*
X127492429Y-110350661D01*
X127492434Y-110350659D01*
X127497384Y-110349174D01*
X127697994Y-110250896D01*
X127879860Y-110121173D01*
X128038096Y-109963489D01*
X128097594Y-109880689D01*
X128165435Y-109786277D01*
X128168453Y-109782077D01*
X128234212Y-109649024D01*
X128265136Y-109586453D01*
X128265137Y-109586451D01*
X128267430Y-109581811D01*
X128332370Y-109368069D01*
X128361529Y-109146590D01*
X128363156Y-109080000D01*
X128344852Y-108857361D01*
X128290431Y-108640702D01*
X128201354Y-108435840D01*
X128115027Y-108302399D01*
X128082822Y-108252617D01*
X128082820Y-108252614D01*
X128080014Y-108248277D01*
X127929670Y-108083051D01*
X127925619Y-108079852D01*
X127925615Y-108079848D01*
X127758414Y-107947800D01*
X127758410Y-107947798D01*
X127754359Y-107944598D01*
X127713053Y-107921796D01*
X127663084Y-107871364D01*
X127648312Y-107801921D01*
X127673428Y-107735516D01*
X127700780Y-107708909D01*
X127744603Y-107677650D01*
X127879860Y-107581173D01*
X127901494Y-107559615D01*
X128034435Y-107427137D01*
X128038096Y-107423489D01*
X128097594Y-107340689D01*
X128165435Y-107246277D01*
X128168453Y-107242077D01*
X128189320Y-107199857D01*
X128265136Y-107046453D01*
X128265137Y-107046451D01*
X128267430Y-107041811D01*
X128332370Y-106828069D01*
X128361529Y-106606590D01*
X128361846Y-106593609D01*
X128363074Y-106543365D01*
X128363074Y-106543361D01*
X128363156Y-106540000D01*
X128344852Y-106317361D01*
X128290431Y-106100702D01*
X128201354Y-105895840D01*
X128128880Y-105783812D01*
X128082822Y-105712617D01*
X128082820Y-105712614D01*
X128080014Y-105708277D01*
X127929670Y-105543051D01*
X127925619Y-105539852D01*
X127925615Y-105539848D01*
X127758414Y-105407800D01*
X127758410Y-105407798D01*
X127754359Y-105404598D01*
X127713053Y-105381796D01*
X127663084Y-105331364D01*
X127648312Y-105261921D01*
X127673428Y-105195516D01*
X127700780Y-105168909D01*
X127744603Y-105137650D01*
X127879860Y-105041173D01*
X127926125Y-104995070D01*
X127975825Y-104945543D01*
X128038096Y-104883489D01*
X128168453Y-104702077D01*
X128172611Y-104693665D01*
X128265136Y-104506453D01*
X128265137Y-104506451D01*
X128267430Y-104501811D01*
X128332370Y-104288069D01*
X128361529Y-104066590D01*
X128363156Y-104000000D01*
X128344852Y-103777361D01*
X128290431Y-103560702D01*
X128201354Y-103355840D01*
X128080014Y-103168277D01*
X128076532Y-103164450D01*
X127932798Y-103006488D01*
X127901746Y-102942642D01*
X127910141Y-102872143D01*
X127955317Y-102817375D01*
X127981761Y-102803706D01*
X128088297Y-102763767D01*
X128096705Y-102760615D01*
X128213261Y-102673261D01*
X128300615Y-102556705D01*
X128351745Y-102420316D01*
X128358500Y-102358134D01*
X128358500Y-100561866D01*
X128351745Y-100499684D01*
X128300615Y-100363295D01*
X128213261Y-100246739D01*
X128096705Y-100159385D01*
X127960316Y-100108255D01*
X127898134Y-100101500D01*
X126101866Y-100101500D01*
X126039684Y-100108255D01*
X125903295Y-100159385D01*
X125786739Y-100246739D01*
X125699385Y-100363295D01*
X125648255Y-100499684D01*
X125641500Y-100561866D01*
X125641500Y-102358134D01*
X125648255Y-102420316D01*
X125699385Y-102556705D01*
X125786739Y-102673261D01*
X125903295Y-102760615D01*
X125911704Y-102763767D01*
X125911705Y-102763768D01*
X126020451Y-102804535D01*
X126077216Y-102847176D01*
X126101916Y-102913738D01*
X126086709Y-102983087D01*
X126067316Y-103009568D01*
X125977721Y-103103324D01*
X125940629Y-103142138D01*
X125937715Y-103146410D01*
X125937714Y-103146411D01*
X125825095Y-103311504D01*
X125770184Y-103356507D01*
X125721007Y-103366500D01*
X121363767Y-103366500D01*
X121352584Y-103365973D01*
X121345091Y-103364298D01*
X121337165Y-103364547D01*
X121337164Y-103364547D01*
X121277014Y-103366438D01*
X121273055Y-103366500D01*
X121245144Y-103366500D01*
X121241210Y-103366997D01*
X121241209Y-103366997D01*
X121241144Y-103367005D01*
X121229307Y-103367938D01*
X121197490Y-103368938D01*
X121193029Y-103369078D01*
X121185110Y-103369327D01*
X121167454Y-103374456D01*
X121165658Y-103374978D01*
X121146306Y-103378986D01*
X121141795Y-103379556D01*
X121126203Y-103381526D01*
X121118834Y-103384443D01*
X121118832Y-103384444D01*
X121085097Y-103397800D01*
X121073869Y-103401645D01*
X121031407Y-103413982D01*
X121024585Y-103418016D01*
X121024579Y-103418019D01*
X121013968Y-103424294D01*
X120996218Y-103432990D01*
X120984756Y-103437528D01*
X120984751Y-103437531D01*
X120977383Y-103440448D01*
X120970968Y-103445109D01*
X120941625Y-103466427D01*
X120931707Y-103472943D01*
X120913019Y-103483995D01*
X120893637Y-103495458D01*
X120879313Y-103509782D01*
X120864281Y-103522621D01*
X120847893Y-103534528D01*
X120822709Y-103564970D01*
X120819712Y-103568593D01*
X120811722Y-103577373D01*
X117043480Y-107345615D01*
X116981168Y-107379641D01*
X116910353Y-107374576D01*
X116853517Y-107332029D01*
X116828773Y-107266406D01*
X116827246Y-107246994D01*
X116822035Y-107180789D01*
X116815752Y-107154616D01*
X116767760Y-106954718D01*
X116766605Y-106949906D01*
X116714014Y-106822939D01*
X116677635Y-106735111D01*
X116677633Y-106735107D01*
X116675740Y-106730537D01*
X116601818Y-106609908D01*
X116554259Y-106532298D01*
X116554255Y-106532292D01*
X116551676Y-106528084D01*
X116397469Y-106347531D01*
X116216916Y-106193324D01*
X116212708Y-106190745D01*
X116212702Y-106190741D01*
X116018683Y-106071846D01*
X116014463Y-106069260D01*
X116009893Y-106067367D01*
X116009889Y-106067365D01*
X115799667Y-105980289D01*
X115799665Y-105980288D01*
X115795094Y-105978395D01*
X115685713Y-105952135D01*
X115569024Y-105924120D01*
X115569018Y-105924119D01*
X115564211Y-105922965D01*
X115327500Y-105904335D01*
X115090789Y-105922965D01*
X115085982Y-105924119D01*
X115085976Y-105924120D01*
X114969287Y-105952135D01*
X114859906Y-105978395D01*
X114855335Y-105980288D01*
X114855333Y-105980289D01*
X114645111Y-106067365D01*
X114645107Y-106067367D01*
X114640537Y-106069260D01*
X114636317Y-106071846D01*
X114442298Y-106190741D01*
X114442292Y-106190745D01*
X114438084Y-106193324D01*
X114257531Y-106347531D01*
X114103324Y-106528084D01*
X114100745Y-106532292D01*
X114100741Y-106532298D01*
X114053182Y-106609908D01*
X113979260Y-106730537D01*
X113977367Y-106735107D01*
X113977365Y-106735111D01*
X113940986Y-106822939D01*
X113888395Y-106949906D01*
X113887240Y-106954718D01*
X113839249Y-107154616D01*
X113832965Y-107180789D01*
X113814335Y-107417500D01*
X113832965Y-107654211D01*
X113834119Y-107659018D01*
X113834120Y-107659024D01*
X113886560Y-107877451D01*
X113883013Y-107948359D01*
X113853136Y-107995960D01*
X111787000Y-110062095D01*
X111724688Y-110096121D01*
X111697905Y-110099000D01*
X110737433Y-110099000D01*
X110669312Y-110078998D01*
X110622819Y-110025342D01*
X110612715Y-109955068D01*
X110621024Y-109924783D01*
X110639709Y-109879672D01*
X110639710Y-109879669D01*
X110641605Y-109875094D01*
X110677466Y-109725723D01*
X110695880Y-109649024D01*
X110695881Y-109649018D01*
X110697035Y-109644211D01*
X110715665Y-109407500D01*
X110697035Y-109170789D01*
X110691226Y-109146590D01*
X110642760Y-108944718D01*
X110641605Y-108939906D01*
X110639711Y-108935333D01*
X110552635Y-108725111D01*
X110552633Y-108725107D01*
X110550740Y-108720537D01*
X110544770Y-108710795D01*
X110429259Y-108522298D01*
X110429255Y-108522292D01*
X110426676Y-108518084D01*
X110272469Y-108337531D01*
X110091916Y-108183324D01*
X110087708Y-108180745D01*
X110087702Y-108180741D01*
X109896165Y-108063367D01*
X109848534Y-108010719D01*
X109836000Y-107955934D01*
X109836000Y-105779066D01*
X109856002Y-105710945D01*
X109896165Y-105671633D01*
X110087702Y-105554259D01*
X110087708Y-105554255D01*
X110091916Y-105551676D01*
X110272469Y-105397469D01*
X110426676Y-105216916D01*
X110429255Y-105212708D01*
X110429259Y-105212702D01*
X110548154Y-105018683D01*
X110550740Y-105014463D01*
X110569144Y-104970031D01*
X110639711Y-104799667D01*
X110639712Y-104799665D01*
X110641605Y-104795094D01*
X110697035Y-104564211D01*
X110715665Y-104327500D01*
X110697035Y-104090789D01*
X110691226Y-104066590D01*
X110642760Y-103864718D01*
X110641605Y-103859906D01*
X110605335Y-103772342D01*
X110552635Y-103645111D01*
X110552633Y-103645107D01*
X110550740Y-103640537D01*
X110512033Y-103577373D01*
X110429259Y-103442298D01*
X110429255Y-103442292D01*
X110426676Y-103438084D01*
X110272469Y-103257531D01*
X110091916Y-103103324D01*
X110087708Y-103100745D01*
X110087702Y-103100741D01*
X109896165Y-102983367D01*
X109848534Y-102930719D01*
X109836000Y-102875934D01*
X109836000Y-101859066D01*
X109856002Y-101790945D01*
X109896165Y-101751633D01*
X110087702Y-101634259D01*
X110087708Y-101634255D01*
X110091916Y-101631676D01*
X110272469Y-101477469D01*
X110426676Y-101296916D01*
X110429255Y-101292708D01*
X110429259Y-101292702D01*
X110548154Y-101098683D01*
X110550740Y-101094463D01*
X110567160Y-101054823D01*
X110639711Y-100879667D01*
X110639712Y-100879665D01*
X110641605Y-100875094D01*
X110685880Y-100690675D01*
X110695880Y-100649024D01*
X110695881Y-100649018D01*
X110697035Y-100644211D01*
X110715665Y-100407500D01*
X110697035Y-100170789D01*
X110695591Y-100164771D01*
X110642760Y-99944718D01*
X110641605Y-99939906D01*
X110550740Y-99720537D01*
X110548154Y-99716317D01*
X110429259Y-99522298D01*
X110429255Y-99522292D01*
X110426676Y-99518084D01*
X110272469Y-99337531D01*
X110091916Y-99183324D01*
X110087708Y-99180745D01*
X110087702Y-99180741D01*
X109896165Y-99063367D01*
X109848534Y-99010719D01*
X109836000Y-98955934D01*
X109836000Y-97161094D01*
X109856002Y-97092973D01*
X109909658Y-97046480D01*
X109979932Y-97036376D01*
X110044512Y-97065870D01*
X110051095Y-97071999D01*
X113168843Y-100189747D01*
X113176387Y-100198037D01*
X113180500Y-100204518D01*
X113186277Y-100209943D01*
X113230167Y-100251158D01*
X113233009Y-100253913D01*
X113252731Y-100273635D01*
X113255855Y-100276058D01*
X113255859Y-100276062D01*
X113255924Y-100276112D01*
X113264945Y-100283817D01*
X113297179Y-100314086D01*
X113304127Y-100317905D01*
X113304129Y-100317907D01*
X113314932Y-100323846D01*
X113331459Y-100334702D01*
X113341198Y-100342257D01*
X113341200Y-100342258D01*
X113347460Y-100347114D01*
X113388040Y-100364674D01*
X113398688Y-100369891D01*
X113423476Y-100383518D01*
X113437440Y-100391195D01*
X113445116Y-100393166D01*
X113445119Y-100393167D01*
X113457062Y-100396233D01*
X113475767Y-100402637D01*
X113494355Y-100410681D01*
X113502178Y-100411920D01*
X113502188Y-100411923D01*
X113538024Y-100417599D01*
X113549644Y-100420005D01*
X113581459Y-100428173D01*
X113592470Y-100431000D01*
X113612724Y-100431000D01*
X113632434Y-100432551D01*
X113652443Y-100435720D01*
X113660335Y-100434974D01*
X113679080Y-100433202D01*
X113696462Y-100431559D01*
X113708319Y-100431000D01*
X113875934Y-100431000D01*
X113944055Y-100451002D01*
X113983367Y-100491165D01*
X114100741Y-100682702D01*
X114100745Y-100682708D01*
X114103324Y-100686916D01*
X114257531Y-100867469D01*
X114438084Y-101021676D01*
X114442292Y-101024255D01*
X114442298Y-101024259D01*
X114556861Y-101094463D01*
X114640537Y-101145740D01*
X114645107Y-101147633D01*
X114645111Y-101147635D01*
X114849614Y-101232342D01*
X114859906Y-101236605D01*
X114940109Y-101255860D01*
X115085976Y-101290880D01*
X115085982Y-101290881D01*
X115090789Y-101292035D01*
X115327500Y-101310665D01*
X115564211Y-101292035D01*
X115569018Y-101290881D01*
X115569024Y-101290880D01*
X115714891Y-101255860D01*
X115795094Y-101236605D01*
X115805386Y-101232342D01*
X116009889Y-101147635D01*
X116009893Y-101147633D01*
X116014463Y-101145740D01*
X116098139Y-101094463D01*
X116212702Y-101024259D01*
X116212708Y-101024255D01*
X116216916Y-101021676D01*
X116397469Y-100867469D01*
X116551676Y-100686916D01*
X116554255Y-100682708D01*
X116554259Y-100682702D01*
X116671633Y-100491165D01*
X116724281Y-100443534D01*
X116779066Y-100431000D01*
X118955934Y-100431000D01*
X119024055Y-100451002D01*
X119063367Y-100491165D01*
X119180741Y-100682702D01*
X119180745Y-100682708D01*
X119183324Y-100686916D01*
X119337531Y-100867469D01*
X119518084Y-101021676D01*
X119522292Y-101024255D01*
X119522298Y-101024259D01*
X119636861Y-101094463D01*
X119720537Y-101145740D01*
X119725107Y-101147633D01*
X119725111Y-101147635D01*
X119929614Y-101232342D01*
X119939906Y-101236605D01*
X120020109Y-101255860D01*
X120165976Y-101290880D01*
X120165982Y-101290881D01*
X120170789Y-101292035D01*
X120407500Y-101310665D01*
X120644211Y-101292035D01*
X120649018Y-101290881D01*
X120649024Y-101290880D01*
X120794891Y-101255860D01*
X120875094Y-101236605D01*
X120885386Y-101232342D01*
X121089889Y-101147635D01*
X121089893Y-101147633D01*
X121094463Y-101145740D01*
X121178139Y-101094463D01*
X121292702Y-101024259D01*
X121292708Y-101024255D01*
X121296916Y-101021676D01*
X121477469Y-100867469D01*
X121631676Y-100686916D01*
X121634255Y-100682708D01*
X121634259Y-100682702D01*
X121751633Y-100491165D01*
X121804281Y-100443534D01*
X121859066Y-100431000D01*
X124823733Y-100431000D01*
X124834916Y-100431527D01*
X124842409Y-100433202D01*
X124850335Y-100432953D01*
X124850336Y-100432953D01*
X124910486Y-100431062D01*
X124914445Y-100431000D01*
X124942356Y-100431000D01*
X124946291Y-100430503D01*
X124946356Y-100430495D01*
X124958193Y-100429562D01*
X124990451Y-100428548D01*
X124994470Y-100428422D01*
X125002389Y-100428173D01*
X125021843Y-100422521D01*
X125041200Y-100418513D01*
X125053430Y-100416968D01*
X125053431Y-100416968D01*
X125061297Y-100415974D01*
X125068668Y-100413055D01*
X125068670Y-100413055D01*
X125102412Y-100399696D01*
X125113642Y-100395851D01*
X125148483Y-100385729D01*
X125148484Y-100385729D01*
X125156093Y-100383518D01*
X125162912Y-100379485D01*
X125162917Y-100379483D01*
X125173528Y-100373207D01*
X125191276Y-100364512D01*
X125210117Y-100357052D01*
X125245887Y-100331064D01*
X125255807Y-100324548D01*
X125287035Y-100306080D01*
X125287038Y-100306078D01*
X125293862Y-100302042D01*
X125308183Y-100287721D01*
X125323217Y-100274880D01*
X125324931Y-100273635D01*
X125339607Y-100262972D01*
X125367798Y-100228895D01*
X125375788Y-100220116D01*
X128049714Y-97546190D01*
X128112026Y-97512164D01*
X128153727Y-97510171D01*
X128178777Y-97513158D01*
X128184912Y-97512686D01*
X128184914Y-97512686D01*
X128369830Y-97498457D01*
X128369834Y-97498456D01*
X128375972Y-97497984D01*
X128566463Y-97444798D01*
X128571967Y-97442018D01*
X128571969Y-97442017D01*
X128737495Y-97358404D01*
X128737497Y-97358403D01*
X128742996Y-97355625D01*
X128813406Y-97300615D01*
X128893991Y-97237655D01*
X128898847Y-97233861D01*
X129028078Y-97084145D01*
X129125769Y-96912179D01*
X129188197Y-96724513D01*
X129212985Y-96528295D01*
X129213380Y-96500000D01*
X129194080Y-96303167D01*
X129136916Y-96113831D01*
X129044066Y-95939204D01*
X128970135Y-95848556D01*
X128922960Y-95790713D01*
X128922957Y-95790710D01*
X128919065Y-95785938D01*
X128912724Y-95780692D01*
X128771425Y-95663799D01*
X128771421Y-95663797D01*
X128766675Y-95659870D01*
X128592701Y-95565802D01*
X128403768Y-95507318D01*
X128397643Y-95506674D01*
X128397642Y-95506674D01*
X128213204Y-95487289D01*
X128213202Y-95487289D01*
X128207075Y-95486645D01*
X128124576Y-95494153D01*
X128016251Y-95504011D01*
X128016248Y-95504012D01*
X128010112Y-95504570D01*
X128004206Y-95506308D01*
X128004202Y-95506309D01*
X127899076Y-95537249D01*
X127820381Y-95560410D01*
X127814923Y-95563263D01*
X127814919Y-95563265D01*
X127764557Y-95589594D01*
X127645110Y-95652040D01*
X127490975Y-95775968D01*
X127363846Y-95927474D01*
X127360879Y-95932872D01*
X127360875Y-95932877D01*
X127282095Y-96076180D01*
X127268567Y-96100787D01*
X127266706Y-96106654D01*
X127266705Y-96106656D01*
X127230536Y-96220675D01*
X127208765Y-96289306D01*
X127186719Y-96485851D01*
X127191977Y-96548465D01*
X127192014Y-96548905D01*
X127177783Y-96618461D01*
X127155551Y-96648544D01*
X124677000Y-99127095D01*
X124614688Y-99161121D01*
X124587905Y-99164000D01*
X121859066Y-99164000D01*
X121790945Y-99143998D01*
X121751633Y-99103835D01*
X121634258Y-98912297D01*
X121634256Y-98912295D01*
X121631676Y-98908084D01*
X121477469Y-98727531D01*
X121296916Y-98573324D01*
X121292708Y-98570745D01*
X121292702Y-98570741D01*
X121098683Y-98451846D01*
X121094463Y-98449260D01*
X121089893Y-98447367D01*
X121089889Y-98447365D01*
X120879667Y-98360289D01*
X120879665Y-98360288D01*
X120875094Y-98358395D01*
X120794891Y-98339140D01*
X120649024Y-98304120D01*
X120649018Y-98304119D01*
X120644211Y-98302965D01*
X120407500Y-98284335D01*
X120170789Y-98302965D01*
X120165982Y-98304119D01*
X120165976Y-98304120D01*
X120020109Y-98339140D01*
X119939906Y-98358395D01*
X119935335Y-98360288D01*
X119935333Y-98360289D01*
X119725111Y-98447365D01*
X119725107Y-98447367D01*
X119720537Y-98449260D01*
X119716317Y-98451846D01*
X119522298Y-98570741D01*
X119522292Y-98570745D01*
X119518084Y-98573324D01*
X119337531Y-98727531D01*
X119183324Y-98908084D01*
X119180744Y-98912295D01*
X119180742Y-98912297D01*
X119063367Y-99103835D01*
X119010719Y-99151466D01*
X118955934Y-99164000D01*
X116779066Y-99164000D01*
X116710945Y-99143998D01*
X116671633Y-99103835D01*
X116554258Y-98912297D01*
X116554256Y-98912295D01*
X116551676Y-98908084D01*
X116397469Y-98727531D01*
X116216916Y-98573324D01*
X116212708Y-98570745D01*
X116212702Y-98570741D01*
X116018683Y-98451846D01*
X116014463Y-98449260D01*
X116009893Y-98447367D01*
X116009889Y-98447365D01*
X115799667Y-98360289D01*
X115799665Y-98360288D01*
X115795094Y-98358395D01*
X115714891Y-98339140D01*
X115569024Y-98304120D01*
X115569018Y-98304119D01*
X115564211Y-98302965D01*
X115327500Y-98284335D01*
X115090789Y-98302965D01*
X115085982Y-98304119D01*
X115085976Y-98304120D01*
X114940109Y-98339140D01*
X114859906Y-98358395D01*
X114855335Y-98360288D01*
X114855333Y-98360289D01*
X114645111Y-98447365D01*
X114645107Y-98447367D01*
X114640537Y-98449260D01*
X114636317Y-98451846D01*
X114442298Y-98570741D01*
X114442292Y-98570745D01*
X114438084Y-98573324D01*
X114257531Y-98727531D01*
X114103324Y-98908084D01*
X114025602Y-99034913D01*
X113972956Y-99082543D01*
X113902915Y-99094150D01*
X113837717Y-99066047D01*
X113829076Y-99058172D01*
X112273832Y-97502927D01*
X111256756Y-96485851D01*
X112786719Y-96485851D01*
X112787235Y-96491994D01*
X112787235Y-96491995D01*
X112802447Y-96673154D01*
X112803268Y-96682934D01*
X112804967Y-96688858D01*
X112851108Y-96849770D01*
X112857783Y-96873050D01*
X112860602Y-96878535D01*
X112906435Y-96967715D01*
X112948187Y-97048956D01*
X113071035Y-97203953D01*
X113075728Y-97207947D01*
X113075729Y-97207948D01*
X113206292Y-97319065D01*
X113221650Y-97332136D01*
X113394294Y-97428624D01*
X113582392Y-97489740D01*
X113778777Y-97513158D01*
X113784912Y-97512686D01*
X113784914Y-97512686D01*
X113969830Y-97498457D01*
X113969834Y-97498456D01*
X113975972Y-97497984D01*
X114166463Y-97444798D01*
X114171967Y-97442018D01*
X114171969Y-97442017D01*
X114337495Y-97358404D01*
X114337497Y-97358403D01*
X114342996Y-97355625D01*
X114413406Y-97300615D01*
X114493991Y-97237655D01*
X114498847Y-97233861D01*
X114628078Y-97084145D01*
X114725769Y-96912179D01*
X114788197Y-96724513D01*
X114812985Y-96528295D01*
X114813380Y-96500000D01*
X114794080Y-96303167D01*
X114736916Y-96113831D01*
X114644066Y-95939204D01*
X114570135Y-95848556D01*
X114522960Y-95790713D01*
X114522957Y-95790710D01*
X114519065Y-95785938D01*
X114512724Y-95780692D01*
X114371425Y-95663799D01*
X114371421Y-95663797D01*
X114366675Y-95659870D01*
X114192701Y-95565802D01*
X114003768Y-95507318D01*
X113997643Y-95506674D01*
X113997642Y-95506674D01*
X113813204Y-95487289D01*
X113813202Y-95487289D01*
X113807075Y-95486645D01*
X113724576Y-95494153D01*
X113616251Y-95504011D01*
X113616248Y-95504012D01*
X113610112Y-95504570D01*
X113604206Y-95506308D01*
X113604202Y-95506309D01*
X113499076Y-95537249D01*
X113420381Y-95560410D01*
X113414923Y-95563263D01*
X113414919Y-95563265D01*
X113364557Y-95589594D01*
X113245110Y-95652040D01*
X113090975Y-95775968D01*
X112963846Y-95927474D01*
X112960879Y-95932872D01*
X112960875Y-95932877D01*
X112882095Y-96076180D01*
X112868567Y-96100787D01*
X112866706Y-96106654D01*
X112866705Y-96106656D01*
X112830536Y-96220675D01*
X112808765Y-96289306D01*
X112786719Y-96485851D01*
X111256756Y-96485851D01*
X110676864Y-95905959D01*
X110642838Y-95843647D01*
X110643440Y-95787450D01*
X110645063Y-95780692D01*
X110673126Y-95663799D01*
X110695880Y-95569024D01*
X110695881Y-95569018D01*
X110697035Y-95564211D01*
X110715665Y-95327500D01*
X110697035Y-95090789D01*
X110694253Y-95079198D01*
X110652022Y-94903295D01*
X110641605Y-94859906D01*
X110617371Y-94801400D01*
X110552635Y-94645111D01*
X110552633Y-94645107D01*
X110550740Y-94640537D01*
X110528715Y-94604595D01*
X110429259Y-94442298D01*
X110429255Y-94442292D01*
X110426676Y-94438084D01*
X110272469Y-94257531D01*
X110091916Y-94103324D01*
X110087708Y-94100745D01*
X110087702Y-94100741D01*
X109893683Y-93981846D01*
X109889463Y-93979260D01*
X109884893Y-93977367D01*
X109884889Y-93977365D01*
X109674667Y-93890289D01*
X109674665Y-93890288D01*
X109670094Y-93888395D01*
X109589891Y-93869140D01*
X109444024Y-93834120D01*
X109444018Y-93834119D01*
X109439211Y-93832965D01*
X109202500Y-93814335D01*
X108965789Y-93832965D01*
X108960982Y-93834119D01*
X108960976Y-93834120D01*
X108815109Y-93869140D01*
X108734906Y-93888395D01*
X108730335Y-93890288D01*
X108730333Y-93890289D01*
X108520111Y-93977365D01*
X108520107Y-93977367D01*
X108515537Y-93979260D01*
X108511317Y-93981846D01*
X108317298Y-94100741D01*
X108317292Y-94100745D01*
X108313084Y-94103324D01*
X108132531Y-94257531D01*
X107978324Y-94438084D01*
X107975745Y-94442292D01*
X107975741Y-94442298D01*
X107876285Y-94604595D01*
X107854260Y-94640537D01*
X107852367Y-94645107D01*
X107852365Y-94645111D01*
X107787629Y-94801400D01*
X107763395Y-94859906D01*
X107752978Y-94903295D01*
X107710748Y-95079198D01*
X107707965Y-95090789D01*
X107689335Y-95327500D01*
X107707965Y-95564211D01*
X107709119Y-95569018D01*
X107709120Y-95569024D01*
X107731874Y-95663799D01*
X107763395Y-95795094D01*
X107765288Y-95799665D01*
X107765289Y-95799667D01*
X107825341Y-95944645D01*
X107854260Y-96014463D01*
X107856846Y-96018683D01*
X107975741Y-96212702D01*
X107975745Y-96212708D01*
X107978324Y-96216916D01*
X108132531Y-96397469D01*
X108313084Y-96551676D01*
X108317292Y-96554255D01*
X108317298Y-96554259D01*
X108508835Y-96671633D01*
X108556466Y-96724281D01*
X108569000Y-96779066D01*
X108569000Y-98955934D01*
X108548998Y-99024055D01*
X108508835Y-99063367D01*
X108317298Y-99180741D01*
X108317292Y-99180745D01*
X108313084Y-99183324D01*
X108132531Y-99337531D01*
X107978324Y-99518084D01*
X107975745Y-99522292D01*
X107975741Y-99522298D01*
X107856846Y-99716317D01*
X107854260Y-99720537D01*
X107763395Y-99939906D01*
X107762240Y-99944718D01*
X107709410Y-100164771D01*
X107707965Y-100170789D01*
X107689335Y-100407500D01*
X107707965Y-100644211D01*
X107709119Y-100649018D01*
X107709120Y-100649024D01*
X107719120Y-100690675D01*
X107763395Y-100875094D01*
X107765288Y-100879665D01*
X107765289Y-100879667D01*
X107837841Y-101054823D01*
X107854260Y-101094463D01*
X107856846Y-101098683D01*
X107975741Y-101292702D01*
X107975745Y-101292708D01*
X107978324Y-101296916D01*
X108132531Y-101477469D01*
X108313084Y-101631676D01*
X108317292Y-101634255D01*
X108317298Y-101634259D01*
X108508835Y-101751633D01*
X108556466Y-101804281D01*
X108569000Y-101859066D01*
X108569000Y-102875934D01*
X108548998Y-102944055D01*
X108508835Y-102983367D01*
X108317298Y-103100741D01*
X108317292Y-103100745D01*
X108313084Y-103103324D01*
X108132531Y-103257531D01*
X107978324Y-103438084D01*
X107975745Y-103442292D01*
X107975741Y-103442298D01*
X107892967Y-103577373D01*
X107854260Y-103640537D01*
X107852367Y-103645107D01*
X107852365Y-103645111D01*
X107799665Y-103772342D01*
X107763395Y-103859906D01*
X107762240Y-103864718D01*
X107713775Y-104066590D01*
X107707965Y-104090789D01*
X107689335Y-104327500D01*
X107707965Y-104564211D01*
X107763395Y-104795094D01*
X107765288Y-104799665D01*
X107765289Y-104799667D01*
X107835856Y-104970031D01*
X107854260Y-105014463D01*
X107856846Y-105018683D01*
X107975741Y-105212702D01*
X107975745Y-105212708D01*
X107978324Y-105216916D01*
X108132531Y-105397469D01*
X108313084Y-105551676D01*
X108317292Y-105554255D01*
X108317298Y-105554259D01*
X108508835Y-105671633D01*
X108556466Y-105724281D01*
X108569000Y-105779066D01*
X108569000Y-107955934D01*
X108548998Y-108024055D01*
X108508835Y-108063367D01*
X108317298Y-108180741D01*
X108317292Y-108180745D01*
X108313084Y-108183324D01*
X108132531Y-108337531D01*
X107978324Y-108518084D01*
X107975745Y-108522292D01*
X107975741Y-108522298D01*
X107860230Y-108710795D01*
X107854260Y-108720537D01*
X107852365Y-108725113D01*
X107852362Y-108725118D01*
X107833677Y-108770226D01*
X107789129Y-108825507D01*
X107721765Y-108847927D01*
X107652974Y-108830368D01*
X107628174Y-108811102D01*
X103851710Y-105034638D01*
X103817684Y-104972326D01*
X103814805Y-104945543D01*
X103814805Y-99260073D01*
X103815332Y-99248890D01*
X103817007Y-99241397D01*
X103814867Y-99173306D01*
X103814805Y-99169349D01*
X103814805Y-99141449D01*
X103814301Y-99137458D01*
X103813368Y-99125616D01*
X103812684Y-99103835D01*
X103811979Y-99081416D01*
X103807514Y-99066047D01*
X103806326Y-99061957D01*
X103802317Y-99042598D01*
X103801346Y-99034912D01*
X103799779Y-99022508D01*
X103796863Y-99015142D01*
X103796861Y-99015136D01*
X103783505Y-98981403D01*
X103779660Y-98970173D01*
X103769535Y-98935322D01*
X103769535Y-98935321D01*
X103767324Y-98927712D01*
X103757010Y-98910271D01*
X103748313Y-98892518D01*
X103743777Y-98881063D01*
X103740857Y-98873688D01*
X103714868Y-98837917D01*
X103708352Y-98827997D01*
X103685847Y-98789943D01*
X103671526Y-98775622D01*
X103658685Y-98760588D01*
X103651436Y-98750611D01*
X103646777Y-98744198D01*
X103612700Y-98716007D01*
X103603921Y-98708017D01*
X101896637Y-97000732D01*
X101862611Y-96938420D01*
X101867676Y-96867604D01*
X101910223Y-96810769D01*
X101956318Y-96789119D01*
X102050094Y-96766605D01*
X102054667Y-96764711D01*
X102264889Y-96677635D01*
X102264893Y-96677633D01*
X102269463Y-96675740D01*
X102334585Y-96635833D01*
X102467702Y-96554259D01*
X102467708Y-96554255D01*
X102471916Y-96551676D01*
X102652469Y-96397469D01*
X102806676Y-96216916D01*
X102809255Y-96212708D01*
X102809259Y-96212702D01*
X102928154Y-96018683D01*
X102930740Y-96014463D01*
X102959660Y-95944645D01*
X103019711Y-95799667D01*
X103019712Y-95799665D01*
X103021605Y-95795094D01*
X103053126Y-95663799D01*
X103075880Y-95569024D01*
X103075881Y-95569018D01*
X103077035Y-95564211D01*
X103095665Y-95327500D01*
X103077035Y-95090789D01*
X103074253Y-95079198D01*
X103032022Y-94903295D01*
X103021605Y-94859906D01*
X102997371Y-94801400D01*
X102932635Y-94645111D01*
X102932633Y-94645107D01*
X102930740Y-94640537D01*
X102908715Y-94604595D01*
X102809259Y-94442298D01*
X102809255Y-94442292D01*
X102806676Y-94438084D01*
X102652469Y-94257531D01*
X102471916Y-94103324D01*
X102467708Y-94100745D01*
X102467702Y-94100741D01*
X102273683Y-93981846D01*
X102269463Y-93979260D01*
X102264893Y-93977367D01*
X102264889Y-93977365D01*
X102054667Y-93890289D01*
X102054665Y-93890288D01*
X102050094Y-93888395D01*
X101969891Y-93869140D01*
X101824024Y-93834120D01*
X101824018Y-93834119D01*
X101819211Y-93832965D01*
X101582500Y-93814335D01*
X101345789Y-93832965D01*
X101340982Y-93834119D01*
X101340976Y-93834120D01*
X101175396Y-93873873D01*
X101122549Y-93886560D01*
X101051642Y-93883013D01*
X101004041Y-93853136D01*
X97237988Y-90087083D01*
X97203962Y-90024771D01*
X97209027Y-89953956D01*
X97251574Y-89897120D01*
X97294470Y-89876282D01*
X97333927Y-89865709D01*
X97333933Y-89865707D01*
X97339243Y-89864284D01*
X97345235Y-89861490D01*
X97541762Y-89769849D01*
X97541767Y-89769846D01*
X97546749Y-89767523D01*
X97691754Y-89665989D01*
X97729789Y-89639357D01*
X97729792Y-89639355D01*
X97734300Y-89636198D01*
X97896198Y-89474300D01*
X97907068Y-89458777D01*
X97954098Y-89391611D01*
X98027523Y-89286749D01*
X98029846Y-89281767D01*
X98029849Y-89281762D01*
X98045805Y-89247543D01*
X98092722Y-89194258D01*
X98160999Y-89174797D01*
X98228959Y-89195339D01*
X98274195Y-89247543D01*
X98290151Y-89281762D01*
X98290154Y-89281767D01*
X98292477Y-89286749D01*
X98365902Y-89391611D01*
X98412933Y-89458777D01*
X98423802Y-89474300D01*
X98585700Y-89636198D01*
X98590208Y-89639355D01*
X98590211Y-89639357D01*
X98628246Y-89665989D01*
X98773251Y-89767523D01*
X98778233Y-89769846D01*
X98778238Y-89769849D01*
X98974765Y-89861490D01*
X98980757Y-89864284D01*
X98986065Y-89865706D01*
X98986067Y-89865707D01*
X99196598Y-89922119D01*
X99196600Y-89922119D01*
X99201913Y-89923543D01*
X99430000Y-89943498D01*
X99658087Y-89923543D01*
X99663400Y-89922119D01*
X99663402Y-89922119D01*
X99873933Y-89865707D01*
X99873935Y-89865706D01*
X99879243Y-89864284D01*
X99885235Y-89861490D01*
X100081762Y-89769849D01*
X100081767Y-89769846D01*
X100086749Y-89767523D01*
X100231754Y-89665989D01*
X100269789Y-89639357D01*
X100269792Y-89639355D01*
X100274300Y-89636198D01*
X100436198Y-89474300D01*
X100447068Y-89458777D01*
X100494098Y-89391611D01*
X100567523Y-89286749D01*
X100569846Y-89281767D01*
X100569849Y-89281762D01*
X100585805Y-89247543D01*
X100632722Y-89194258D01*
X100700999Y-89174797D01*
X100768959Y-89195339D01*
X100814195Y-89247543D01*
X100830151Y-89281762D01*
X100830154Y-89281767D01*
X100832477Y-89286749D01*
X100905902Y-89391611D01*
X100952933Y-89458777D01*
X100963802Y-89474300D01*
X101125700Y-89636198D01*
X101130208Y-89639355D01*
X101130211Y-89639357D01*
X101168246Y-89665989D01*
X101313251Y-89767523D01*
X101318233Y-89769846D01*
X101318238Y-89769849D01*
X101514765Y-89861490D01*
X101520757Y-89864284D01*
X101526065Y-89865706D01*
X101526067Y-89865707D01*
X101736598Y-89922119D01*
X101736600Y-89922119D01*
X101741913Y-89923543D01*
X101970000Y-89943498D01*
X102198087Y-89923543D01*
X102203400Y-89922119D01*
X102203402Y-89922119D01*
X102413933Y-89865707D01*
X102413935Y-89865706D01*
X102419243Y-89864284D01*
X102425235Y-89861490D01*
X102621762Y-89769849D01*
X102621767Y-89769846D01*
X102626749Y-89767523D01*
X102771754Y-89665989D01*
X102809789Y-89639357D01*
X102809792Y-89639355D01*
X102814300Y-89636198D01*
X102976198Y-89474300D01*
X102987068Y-89458777D01*
X103034098Y-89391611D01*
X103107523Y-89286749D01*
X103109846Y-89281767D01*
X103109849Y-89281762D01*
X103126081Y-89246951D01*
X103172998Y-89193666D01*
X103241275Y-89174205D01*
X103309235Y-89194747D01*
X103354471Y-89246951D01*
X103370586Y-89281511D01*
X103376069Y-89291007D01*
X103501028Y-89469467D01*
X103508084Y-89477875D01*
X103662125Y-89631916D01*
X103670533Y-89638972D01*
X103848993Y-89763931D01*
X103858489Y-89769414D01*
X104055947Y-89861490D01*
X104066239Y-89865236D01*
X104238503Y-89911394D01*
X104252599Y-89911058D01*
X104256000Y-89903116D01*
X104256000Y-87362033D01*
X104252027Y-87348502D01*
X104243478Y-87347273D01*
X104066239Y-87394764D01*
X104055947Y-87398510D01*
X103858489Y-87490586D01*
X103848993Y-87496069D01*
X103670533Y-87621028D01*
X103662125Y-87628084D01*
X103508084Y-87782125D01*
X103501028Y-87790533D01*
X103376069Y-87968993D01*
X103370586Y-87978489D01*
X103354471Y-88013049D01*
X103307554Y-88066334D01*
X103239277Y-88085795D01*
X103171317Y-88065253D01*
X103126081Y-88013049D01*
X103109849Y-87978238D01*
X103109846Y-87978233D01*
X103107523Y-87973251D01*
X102976198Y-87785700D01*
X102814300Y-87623802D01*
X102809792Y-87620645D01*
X102809789Y-87620643D01*
X102657228Y-87513819D01*
X102626749Y-87492477D01*
X102621767Y-87490154D01*
X102621762Y-87490151D01*
X102424225Y-87398039D01*
X102424224Y-87398039D01*
X102419243Y-87395716D01*
X102413935Y-87394294D01*
X102413933Y-87394293D01*
X102203402Y-87337881D01*
X102203400Y-87337881D01*
X102198087Y-87336457D01*
X101970000Y-87316502D01*
X101741913Y-87336457D01*
X101736600Y-87337881D01*
X101736598Y-87337881D01*
X101526067Y-87394293D01*
X101526065Y-87394294D01*
X101520757Y-87395716D01*
X101515776Y-87398039D01*
X101515775Y-87398039D01*
X101318238Y-87490151D01*
X101318233Y-87490154D01*
X101313251Y-87492477D01*
X101282772Y-87513819D01*
X101130211Y-87620643D01*
X101130208Y-87620645D01*
X101125700Y-87623802D01*
X100963802Y-87785700D01*
X100832477Y-87973251D01*
X100830154Y-87978233D01*
X100830151Y-87978238D01*
X100814195Y-88012457D01*
X100767278Y-88065742D01*
X100699001Y-88085203D01*
X100631041Y-88064661D01*
X100585805Y-88012457D01*
X100569849Y-87978238D01*
X100569846Y-87978233D01*
X100567523Y-87973251D01*
X100436198Y-87785700D01*
X100274300Y-87623802D01*
X100269792Y-87620645D01*
X100269789Y-87620643D01*
X100117228Y-87513819D01*
X100086749Y-87492477D01*
X100081767Y-87490154D01*
X100081762Y-87490151D01*
X99884225Y-87398039D01*
X99884224Y-87398039D01*
X99879243Y-87395716D01*
X99873935Y-87394294D01*
X99873933Y-87394293D01*
X99663402Y-87337881D01*
X99663400Y-87337881D01*
X99658087Y-87336457D01*
X99430000Y-87316502D01*
X99201913Y-87336457D01*
X99196600Y-87337881D01*
X99196598Y-87337881D01*
X98986067Y-87394293D01*
X98986065Y-87394294D01*
X98980757Y-87395716D01*
X98975776Y-87398039D01*
X98975775Y-87398039D01*
X98778238Y-87490151D01*
X98778233Y-87490154D01*
X98773251Y-87492477D01*
X98742772Y-87513819D01*
X98590211Y-87620643D01*
X98590208Y-87620645D01*
X98585700Y-87623802D01*
X98423802Y-87785700D01*
X98292477Y-87973251D01*
X98290154Y-87978233D01*
X98290151Y-87978238D01*
X98274195Y-88012457D01*
X98227278Y-88065742D01*
X98159001Y-88085203D01*
X98091041Y-88064661D01*
X98045805Y-88012457D01*
X98029849Y-87978238D01*
X98029846Y-87978233D01*
X98027523Y-87973251D01*
X97896198Y-87785700D01*
X97734300Y-87623802D01*
X97729792Y-87620645D01*
X97729789Y-87620643D01*
X97577229Y-87513819D01*
X97532901Y-87458362D01*
X97523500Y-87410606D01*
X97523500Y-86874594D01*
X97543502Y-86806473D01*
X97560405Y-86785499D01*
X99925499Y-84420405D01*
X99987811Y-84386379D01*
X100014594Y-84383500D01*
X100900400Y-84383500D01*
X100903646Y-84383163D01*
X100903650Y-84383163D01*
X100999308Y-84373238D01*
X100999312Y-84373237D01*
X101006166Y-84372526D01*
X101012702Y-84370345D01*
X101012704Y-84370345D01*
X101144806Y-84326272D01*
X101173946Y-84316550D01*
X101324348Y-84223478D01*
X101449305Y-84098303D01*
X101475481Y-84055838D01*
X101538275Y-83953968D01*
X101538276Y-83953966D01*
X101542115Y-83947738D01*
X101597797Y-83779861D01*
X101608500Y-83675400D01*
X101608500Y-82324600D01*
X101608163Y-82321350D01*
X101598238Y-82225692D01*
X101598237Y-82225688D01*
X101597526Y-82218834D01*
X101571525Y-82140898D01*
X101543868Y-82058002D01*
X101541550Y-82051054D01*
X101448478Y-81900652D01*
X101443296Y-81895479D01*
X101443292Y-81895474D01*
X101396409Y-81848673D01*
X101362329Y-81786391D01*
X101367332Y-81715571D01*
X101409829Y-81658698D01*
X101476327Y-81633829D01*
X101485426Y-81633500D01*
X102514608Y-81633500D01*
X102582729Y-81653502D01*
X102629222Y-81707158D01*
X102639326Y-81777432D01*
X102609832Y-81842012D01*
X102603781Y-81848517D01*
X102555870Y-81896512D01*
X102555866Y-81896517D01*
X102550695Y-81901697D01*
X102546855Y-81907927D01*
X102546854Y-81907928D01*
X102466649Y-82038045D01*
X102457885Y-82052262D01*
X102402203Y-82220139D01*
X102391500Y-82324600D01*
X102391500Y-83675400D01*
X102391837Y-83678646D01*
X102391837Y-83678650D01*
X102393500Y-83694672D01*
X102402474Y-83781166D01*
X102404655Y-83787702D01*
X102404655Y-83787704D01*
X102429729Y-83862858D01*
X102458450Y-83948946D01*
X102551522Y-84099348D01*
X102676697Y-84224305D01*
X102682927Y-84228145D01*
X102682928Y-84228146D01*
X102820090Y-84312694D01*
X102827262Y-84317115D01*
X102907005Y-84343564D01*
X102988611Y-84370632D01*
X102988613Y-84370632D01*
X102995139Y-84372797D01*
X103001975Y-84373497D01*
X103001978Y-84373498D01*
X103045031Y-84377909D01*
X103099600Y-84383500D01*
X103985406Y-84383500D01*
X104053527Y-84403502D01*
X104074501Y-84420405D01*
X106379595Y-86725499D01*
X106413621Y-86787811D01*
X106416500Y-86814594D01*
X106416500Y-87410606D01*
X106396498Y-87478727D01*
X106362771Y-87513819D01*
X106210211Y-87620643D01*
X106210208Y-87620645D01*
X106205700Y-87623802D01*
X106043802Y-87785700D01*
X105912477Y-87973251D01*
X105910154Y-87978233D01*
X105910151Y-87978238D01*
X105893919Y-88013049D01*
X105847002Y-88066334D01*
X105778725Y-88085795D01*
X105710765Y-88065253D01*
X105665529Y-88013049D01*
X105649414Y-87978489D01*
X105643931Y-87968993D01*
X105518972Y-87790533D01*
X105511916Y-87782125D01*
X105357875Y-87628084D01*
X105349467Y-87621028D01*
X105171007Y-87496069D01*
X105161511Y-87490586D01*
X104964053Y-87398510D01*
X104953761Y-87394764D01*
X104781497Y-87348606D01*
X104767401Y-87348942D01*
X104764000Y-87356884D01*
X104764000Y-89897967D01*
X104767973Y-89911498D01*
X104776522Y-89912727D01*
X104953761Y-89865236D01*
X104964053Y-89861490D01*
X105161511Y-89769414D01*
X105171007Y-89763931D01*
X105349467Y-89638972D01*
X105357875Y-89631916D01*
X105511916Y-89477875D01*
X105518972Y-89469467D01*
X105643931Y-89291007D01*
X105649414Y-89281511D01*
X105665529Y-89246951D01*
X105712446Y-89193666D01*
X105780723Y-89174205D01*
X105848683Y-89194747D01*
X105893919Y-89246951D01*
X105910151Y-89281762D01*
X105910154Y-89281767D01*
X105912477Y-89286749D01*
X105985902Y-89391611D01*
X106032933Y-89458777D01*
X106043802Y-89474300D01*
X106205700Y-89636198D01*
X106210208Y-89639355D01*
X106210211Y-89639357D01*
X106248246Y-89665989D01*
X106393251Y-89767523D01*
X106398233Y-89769846D01*
X106398238Y-89769849D01*
X106594765Y-89861490D01*
X106600757Y-89864284D01*
X106606065Y-89865706D01*
X106606067Y-89865707D01*
X106816598Y-89922119D01*
X106816600Y-89922119D01*
X106821913Y-89923543D01*
X107050000Y-89943498D01*
X107278087Y-89923543D01*
X107283400Y-89922119D01*
X107283402Y-89922119D01*
X107493933Y-89865707D01*
X107493935Y-89865706D01*
X107499243Y-89864284D01*
X107505235Y-89861490D01*
X107701762Y-89769849D01*
X107701767Y-89769846D01*
X107706749Y-89767523D01*
X107851754Y-89665989D01*
X107889789Y-89639357D01*
X107889792Y-89639355D01*
X107894300Y-89636198D01*
X108056198Y-89474300D01*
X108059582Y-89469467D01*
X108166181Y-89317229D01*
X108221638Y-89272901D01*
X108269394Y-89263500D01*
X108741233Y-89263500D01*
X108752416Y-89264027D01*
X108759909Y-89265702D01*
X108767835Y-89265453D01*
X108767836Y-89265453D01*
X108827986Y-89263562D01*
X108831945Y-89263500D01*
X108859856Y-89263500D01*
X108863791Y-89263003D01*
X108863856Y-89262995D01*
X108875693Y-89262062D01*
X108907951Y-89261048D01*
X108911970Y-89260922D01*
X108919889Y-89260673D01*
X108939343Y-89255021D01*
X108958700Y-89251013D01*
X108970930Y-89249468D01*
X108970931Y-89249468D01*
X108978797Y-89248474D01*
X108986168Y-89245555D01*
X108986170Y-89245555D01*
X109019912Y-89232196D01*
X109031142Y-89228351D01*
X109065983Y-89218229D01*
X109065984Y-89218229D01*
X109073593Y-89216018D01*
X109080412Y-89211985D01*
X109080417Y-89211983D01*
X109091028Y-89205707D01*
X109108776Y-89197012D01*
X109127617Y-89189552D01*
X109163387Y-89163564D01*
X109173307Y-89157048D01*
X109204535Y-89138580D01*
X109204538Y-89138578D01*
X109211362Y-89134542D01*
X109225683Y-89120221D01*
X109240717Y-89107380D01*
X109250694Y-89100131D01*
X109257107Y-89095472D01*
X109285298Y-89061395D01*
X109293288Y-89052616D01*
X113345904Y-85000000D01*
X119386526Y-85000000D01*
X119406391Y-85252403D01*
X119465495Y-85498591D01*
X119467388Y-85503162D01*
X119467389Y-85503164D01*
X119494496Y-85568605D01*
X119562384Y-85732502D01*
X119694672Y-85948376D01*
X119859102Y-86140898D01*
X120051624Y-86305328D01*
X120267498Y-86437616D01*
X120272068Y-86439509D01*
X120272072Y-86439511D01*
X120496836Y-86532611D01*
X120501409Y-86534505D01*
X120556933Y-86547835D01*
X120742784Y-86592454D01*
X120742790Y-86592455D01*
X120747597Y-86593609D01*
X120828928Y-86600010D01*
X120934345Y-86608307D01*
X120934352Y-86608307D01*
X120936801Y-86608500D01*
X121063199Y-86608500D01*
X121065648Y-86608307D01*
X121065655Y-86608307D01*
X121171072Y-86600010D01*
X121252403Y-86593609D01*
X121257210Y-86592455D01*
X121257216Y-86592454D01*
X121443067Y-86547835D01*
X121498591Y-86534505D01*
X121503164Y-86532611D01*
X121727928Y-86439511D01*
X121727932Y-86439509D01*
X121732502Y-86437616D01*
X121948376Y-86305328D01*
X122140898Y-86140898D01*
X122305328Y-85948376D01*
X122437616Y-85732502D01*
X122505505Y-85568605D01*
X122532611Y-85503164D01*
X122532612Y-85503162D01*
X122534505Y-85498591D01*
X122593609Y-85252403D01*
X122613474Y-85000000D01*
X122593609Y-84747597D01*
X122534505Y-84501409D01*
X122481415Y-84373238D01*
X122439511Y-84272072D01*
X122439509Y-84272068D01*
X122437616Y-84267498D01*
X122305328Y-84051624D01*
X122140898Y-83859102D01*
X121948376Y-83694672D01*
X121732502Y-83562384D01*
X121727932Y-83560491D01*
X121727928Y-83560489D01*
X121503164Y-83467389D01*
X121503162Y-83467388D01*
X121498591Y-83465495D01*
X121413968Y-83445179D01*
X121257216Y-83407546D01*
X121257210Y-83407545D01*
X121252403Y-83406391D01*
X121152584Y-83398535D01*
X121065655Y-83391693D01*
X121065648Y-83391693D01*
X121063199Y-83391500D01*
X120936801Y-83391500D01*
X120934352Y-83391693D01*
X120934345Y-83391693D01*
X120847416Y-83398535D01*
X120747597Y-83406391D01*
X120742790Y-83407545D01*
X120742784Y-83407546D01*
X120586032Y-83445179D01*
X120501409Y-83465495D01*
X120496838Y-83467388D01*
X120496836Y-83467389D01*
X120272072Y-83560489D01*
X120272068Y-83560491D01*
X120267498Y-83562384D01*
X120051624Y-83694672D01*
X119859102Y-83859102D01*
X119694672Y-84051624D01*
X119562384Y-84267498D01*
X119560491Y-84272068D01*
X119560489Y-84272072D01*
X119518585Y-84373238D01*
X119465495Y-84501409D01*
X119406391Y-84747597D01*
X119386526Y-85000000D01*
X113345904Y-85000000D01*
X128049715Y-70296190D01*
X128112027Y-70262164D01*
X128153728Y-70260171D01*
X128178777Y-70263158D01*
X128184912Y-70262686D01*
X128184914Y-70262686D01*
X128369830Y-70248457D01*
X128369834Y-70248456D01*
X128375972Y-70247984D01*
X128566463Y-70194798D01*
X128571967Y-70192018D01*
X128571969Y-70192017D01*
X128737495Y-70108404D01*
X128737497Y-70108403D01*
X128742996Y-70105625D01*
X128898847Y-69983861D01*
X129028078Y-69834145D01*
X129125769Y-69662179D01*
X129188197Y-69474513D01*
X129212985Y-69278295D01*
X129213380Y-69250000D01*
X129194080Y-69053167D01*
X129176540Y-68995070D01*
X129166423Y-68961562D01*
X129136916Y-68863831D01*
X129044066Y-68689204D01*
X128954671Y-68579595D01*
X128922960Y-68540713D01*
X128922957Y-68540710D01*
X128919065Y-68535938D01*
X128911047Y-68529305D01*
X128771425Y-68413799D01*
X128771421Y-68413797D01*
X128766675Y-68409870D01*
X128592701Y-68315802D01*
X128403768Y-68257318D01*
X128397643Y-68256674D01*
X128397642Y-68256674D01*
X128213204Y-68237289D01*
X128213202Y-68237289D01*
X128207075Y-68236645D01*
X128124576Y-68244153D01*
X128016251Y-68254011D01*
X128016248Y-68254012D01*
X128010112Y-68254570D01*
X128004206Y-68256308D01*
X128004202Y-68256309D01*
X127950644Y-68272072D01*
X127820381Y-68310410D01*
X127814923Y-68313263D01*
X127814919Y-68313265D01*
X127724147Y-68360720D01*
X127645110Y-68402040D01*
X127490975Y-68525968D01*
X127363846Y-68677474D01*
X127360879Y-68682872D01*
X127360875Y-68682877D01*
X127308003Y-68779052D01*
X127268567Y-68850787D01*
X127266706Y-68856654D01*
X127266705Y-68856656D01*
X127221234Y-69000000D01*
X127208765Y-69039306D01*
X127200244Y-69115275D01*
X127187859Y-69225692D01*
X127186719Y-69235851D01*
X127187235Y-69241995D01*
X127192014Y-69298907D01*
X127177782Y-69368462D01*
X127155551Y-69398545D01*
X108594500Y-87959595D01*
X108532188Y-87993621D01*
X108505405Y-87996500D01*
X108269394Y-87996500D01*
X108201273Y-87976498D01*
X108166181Y-87942771D01*
X108059357Y-87790211D01*
X108059355Y-87790208D01*
X108056198Y-87785700D01*
X107894300Y-87623802D01*
X107889792Y-87620645D01*
X107889789Y-87620643D01*
X107737229Y-87513819D01*
X107692901Y-87458362D01*
X107683500Y-87410606D01*
X107683500Y-86578763D01*
X107684027Y-86567579D01*
X107685701Y-86560091D01*
X107683562Y-86492032D01*
X107683500Y-86488075D01*
X107683500Y-86460144D01*
X107682994Y-86456138D01*
X107682061Y-86444292D01*
X107681837Y-86437144D01*
X107680673Y-86400110D01*
X107675022Y-86380658D01*
X107671014Y-86361306D01*
X107669468Y-86349068D01*
X107669467Y-86349066D01*
X107668474Y-86341203D01*
X107652194Y-86300086D01*
X107648359Y-86288885D01*
X107636018Y-86246406D01*
X107631985Y-86239587D01*
X107631983Y-86239582D01*
X107625707Y-86228971D01*
X107617010Y-86211221D01*
X107609552Y-86192383D01*
X107583571Y-86156623D01*
X107577053Y-86146701D01*
X107558578Y-86115460D01*
X107558574Y-86115455D01*
X107554542Y-86108637D01*
X107540218Y-86094313D01*
X107527376Y-86079278D01*
X107515472Y-86062893D01*
X107481406Y-86034711D01*
X107472627Y-86026722D01*
X104745405Y-83299500D01*
X104711379Y-83237188D01*
X104708500Y-83210405D01*
X104708500Y-82324600D01*
X104708163Y-82321350D01*
X104698238Y-82225692D01*
X104698237Y-82225688D01*
X104697526Y-82218834D01*
X104671525Y-82140898D01*
X104641550Y-82051054D01*
X104643016Y-82050565D01*
X104633500Y-82007818D01*
X104633500Y-81071793D01*
X104635732Y-81048184D01*
X104635790Y-81047881D01*
X104635790Y-81047877D01*
X104637275Y-81040094D01*
X104633749Y-80984049D01*
X104633500Y-80976138D01*
X104633500Y-80960144D01*
X104631494Y-80944270D01*
X104630751Y-80936402D01*
X104629718Y-80919970D01*
X104627225Y-80880350D01*
X104624679Y-80872513D01*
X104619506Y-80849369D01*
X104619468Y-80849065D01*
X104619467Y-80849060D01*
X104618474Y-80841203D01*
X104615558Y-80833838D01*
X104615557Y-80833834D01*
X104597801Y-80788989D01*
X104595129Y-80781570D01*
X104577764Y-80728125D01*
X104573514Y-80721428D01*
X104573350Y-80721169D01*
X104562585Y-80700042D01*
X104562471Y-80699754D01*
X104562468Y-80699749D01*
X104559552Y-80692383D01*
X104554896Y-80685975D01*
X104554893Y-80685969D01*
X104526542Y-80646948D01*
X104522092Y-80640401D01*
X104492000Y-80592982D01*
X104485993Y-80587341D01*
X104470312Y-80569554D01*
X104470134Y-80569309D01*
X104470132Y-80569307D01*
X104465472Y-80562893D01*
X104459362Y-80557838D01*
X104422204Y-80527097D01*
X104416270Y-80521866D01*
X104381102Y-80488842D01*
X104381099Y-80488840D01*
X104375321Y-80483414D01*
X104368097Y-80479442D01*
X104348494Y-80466119D01*
X104348254Y-80465920D01*
X104348247Y-80465916D01*
X104342144Y-80460867D01*
X104291324Y-80436953D01*
X104284292Y-80433371D01*
X104235060Y-80406305D01*
X104227385Y-80404335D01*
X104227379Y-80404332D01*
X104227081Y-80404256D01*
X104204772Y-80396224D01*
X104204497Y-80396094D01*
X104204489Y-80396091D01*
X104197318Y-80392717D01*
X104142151Y-80382194D01*
X104134442Y-80380471D01*
X104100449Y-80371743D01*
X104087707Y-80368471D01*
X104087706Y-80368471D01*
X104080030Y-80366500D01*
X104071793Y-80366500D01*
X104048184Y-80364268D01*
X104047881Y-80364210D01*
X104047877Y-80364210D01*
X104040094Y-80362725D01*
X103984049Y-80366251D01*
X103976138Y-80366500D01*
X98071793Y-80366500D01*
X98048184Y-80364268D01*
X98047881Y-80364210D01*
X98047877Y-80364210D01*
X98040094Y-80362725D01*
X97984049Y-80366251D01*
X97976138Y-80366500D01*
X97960144Y-80366500D01*
X97944270Y-80368506D01*
X97936410Y-80369248D01*
X97908951Y-80370976D01*
X97888263Y-80372277D01*
X97888262Y-80372277D01*
X97880350Y-80372775D01*
X97872809Y-80375225D01*
X97872513Y-80375321D01*
X97849369Y-80380494D01*
X97849065Y-80380532D01*
X97849060Y-80380533D01*
X97841203Y-80381526D01*
X97833838Y-80384442D01*
X97833834Y-80384443D01*
X97788989Y-80402199D01*
X97781570Y-80404871D01*
X97728125Y-80422236D01*
X97721429Y-80426486D01*
X97721428Y-80426486D01*
X97721169Y-80426650D01*
X97700042Y-80437415D01*
X97699754Y-80437529D01*
X97699749Y-80437532D01*
X97692383Y-80440448D01*
X97685975Y-80445104D01*
X97685969Y-80445107D01*
X97646948Y-80473458D01*
X97640411Y-80477901D01*
X97592982Y-80508000D01*
X97587556Y-80513778D01*
X97587555Y-80513779D01*
X97587341Y-80514007D01*
X97569554Y-80529688D01*
X97569309Y-80529866D01*
X97569307Y-80529868D01*
X97562893Y-80534528D01*
X97557839Y-80540637D01*
X97557838Y-80540638D01*
X97527097Y-80577796D01*
X97521866Y-80583730D01*
X97488842Y-80618898D01*
X97488840Y-80618901D01*
X97483414Y-80624679D01*
X97479445Y-80631899D01*
X97466119Y-80651506D01*
X97465920Y-80651746D01*
X97465916Y-80651753D01*
X97460867Y-80657856D01*
X97457493Y-80665027D01*
X97436953Y-80708676D01*
X97433371Y-80715708D01*
X97406305Y-80764940D01*
X97404335Y-80772615D01*
X97404332Y-80772621D01*
X97404256Y-80772919D01*
X97396224Y-80795228D01*
X97396094Y-80795503D01*
X97396091Y-80795511D01*
X97392717Y-80802682D01*
X97391231Y-80810474D01*
X97382195Y-80857843D01*
X97380471Y-80865558D01*
X97366500Y-80919970D01*
X97366500Y-80928207D01*
X97364268Y-80951816D01*
X97362725Y-80959906D01*
X97365558Y-81004930D01*
X97366251Y-81015951D01*
X97366500Y-81023862D01*
X97366500Y-82685406D01*
X97346498Y-82753527D01*
X97329595Y-82774501D01*
X94774500Y-85329595D01*
X94712188Y-85363621D01*
X94685405Y-85366500D01*
X82078767Y-85366500D01*
X82067584Y-85365973D01*
X82060091Y-85364298D01*
X82052165Y-85364547D01*
X82052164Y-85364547D01*
X81992001Y-85366438D01*
X81988043Y-85366500D01*
X81960144Y-85366500D01*
X81956154Y-85367004D01*
X81944320Y-85367936D01*
X81900111Y-85369326D01*
X81892497Y-85371538D01*
X81892492Y-85371539D01*
X81880659Y-85374977D01*
X81861296Y-85378988D01*
X81841203Y-85381526D01*
X81833836Y-85384443D01*
X81833831Y-85384444D01*
X81800092Y-85397802D01*
X81788865Y-85401646D01*
X81746407Y-85413982D01*
X81739581Y-85418019D01*
X81728972Y-85424293D01*
X81711224Y-85432988D01*
X81692383Y-85440448D01*
X81685967Y-85445110D01*
X81685966Y-85445110D01*
X81656613Y-85466436D01*
X81646693Y-85472952D01*
X81615465Y-85491420D01*
X81615462Y-85491422D01*
X81608638Y-85495458D01*
X81594317Y-85509779D01*
X81579284Y-85522619D01*
X81562893Y-85534528D01*
X81557842Y-85540634D01*
X81534702Y-85568605D01*
X81526712Y-85577384D01*
X79842747Y-87261348D01*
X79834461Y-87268888D01*
X79827982Y-87273000D01*
X79822557Y-87278777D01*
X79781357Y-87322651D01*
X79778602Y-87325493D01*
X79758865Y-87345230D01*
X79756385Y-87348427D01*
X79748678Y-87357451D01*
X79728432Y-87379010D01*
X79667219Y-87414974D01*
X79596279Y-87412135D01*
X79583335Y-87406950D01*
X79564232Y-87398042D01*
X79564228Y-87398041D01*
X79559243Y-87395716D01*
X79400274Y-87353120D01*
X79343402Y-87337881D01*
X79343400Y-87337881D01*
X79338087Y-87336457D01*
X79110000Y-87316502D01*
X78881913Y-87336457D01*
X78876600Y-87337881D01*
X78876598Y-87337881D01*
X78666067Y-87394293D01*
X78666065Y-87394294D01*
X78660757Y-87395716D01*
X78655776Y-87398039D01*
X78655775Y-87398039D01*
X78458238Y-87490151D01*
X78458233Y-87490154D01*
X78453251Y-87492477D01*
X78422772Y-87513819D01*
X78270211Y-87620643D01*
X78270208Y-87620645D01*
X78265700Y-87623802D01*
X78103802Y-87785700D01*
X77972477Y-87973251D01*
X77970154Y-87978233D01*
X77970151Y-87978238D01*
X77954195Y-88012457D01*
X77907278Y-88065742D01*
X77839001Y-88085203D01*
X77771041Y-88064661D01*
X77725805Y-88012457D01*
X77709849Y-87978238D01*
X77709846Y-87978233D01*
X77707523Y-87973251D01*
X77576198Y-87785700D01*
X77414300Y-87623802D01*
X77409792Y-87620645D01*
X77409789Y-87620643D01*
X77257228Y-87513819D01*
X77226749Y-87492477D01*
X77221767Y-87490154D01*
X77221762Y-87490151D01*
X77024225Y-87398039D01*
X77024224Y-87398039D01*
X77019243Y-87395716D01*
X77013935Y-87394294D01*
X77013933Y-87394293D01*
X76803402Y-87337881D01*
X76803400Y-87337881D01*
X76798087Y-87336457D01*
X76570000Y-87316502D01*
X76341913Y-87336457D01*
X76336600Y-87337881D01*
X76336598Y-87337881D01*
X76126067Y-87394293D01*
X76126065Y-87394294D01*
X76120757Y-87395716D01*
X76115776Y-87398039D01*
X76115775Y-87398039D01*
X75918238Y-87490151D01*
X75918233Y-87490154D01*
X75913251Y-87492477D01*
X75882772Y-87513819D01*
X75730211Y-87620643D01*
X75730208Y-87620645D01*
X75725700Y-87623802D01*
X75563802Y-87785700D01*
X75432477Y-87973251D01*
X75430154Y-87978233D01*
X75430151Y-87978238D01*
X75414195Y-88012457D01*
X75367278Y-88065742D01*
X75299001Y-88085203D01*
X75231041Y-88064661D01*
X75185805Y-88012457D01*
X75169849Y-87978238D01*
X75169846Y-87978233D01*
X75167523Y-87973251D01*
X75036198Y-87785700D01*
X74874300Y-87623802D01*
X74869792Y-87620645D01*
X74869789Y-87620643D01*
X74717228Y-87513819D01*
X74686749Y-87492477D01*
X74681767Y-87490154D01*
X74681762Y-87490151D01*
X74484225Y-87398039D01*
X74484224Y-87398039D01*
X74479243Y-87395716D01*
X74473935Y-87394294D01*
X74473933Y-87394293D01*
X74263402Y-87337881D01*
X74263400Y-87337881D01*
X74258087Y-87336457D01*
X74030000Y-87316502D01*
X73801913Y-87336457D01*
X73796600Y-87337881D01*
X73796598Y-87337881D01*
X73586067Y-87394293D01*
X73586065Y-87394294D01*
X73580757Y-87395716D01*
X73575776Y-87398039D01*
X73575775Y-87398039D01*
X73378238Y-87490151D01*
X73378233Y-87490154D01*
X73373251Y-87492477D01*
X73342772Y-87513819D01*
X73190211Y-87620643D01*
X73190208Y-87620645D01*
X73185700Y-87623802D01*
X73023802Y-87785700D01*
X72892477Y-87973251D01*
X72890154Y-87978233D01*
X72890151Y-87978238D01*
X72874195Y-88012457D01*
X72827278Y-88065742D01*
X72759001Y-88085203D01*
X72691041Y-88064661D01*
X72645805Y-88012457D01*
X72629849Y-87978238D01*
X72629846Y-87978233D01*
X72627523Y-87973251D01*
X72496198Y-87785700D01*
X72334300Y-87623802D01*
X72329792Y-87620645D01*
X72329789Y-87620643D01*
X72177228Y-87513819D01*
X72146749Y-87492477D01*
X72141767Y-87490154D01*
X72141762Y-87490151D01*
X71944225Y-87398039D01*
X71944224Y-87398039D01*
X71939243Y-87395716D01*
X71933935Y-87394294D01*
X71933933Y-87394293D01*
X71723402Y-87337881D01*
X71723400Y-87337881D01*
X71718087Y-87336457D01*
X71490000Y-87316502D01*
X71484525Y-87316981D01*
X71484514Y-87316981D01*
X71472570Y-87318026D01*
X71402965Y-87304038D01*
X71351973Y-87254639D01*
X71335782Y-87185513D01*
X71359534Y-87118607D01*
X71372493Y-87103411D01*
X77475904Y-81000000D01*
X87386526Y-81000000D01*
X87406391Y-81252403D01*
X87465495Y-81498591D01*
X87562384Y-81732502D01*
X87694672Y-81948376D01*
X87859102Y-82140898D01*
X88051624Y-82305328D01*
X88267498Y-82437616D01*
X88272068Y-82439509D01*
X88272072Y-82439511D01*
X88496836Y-82532611D01*
X88501409Y-82534505D01*
X88586032Y-82554821D01*
X88742784Y-82592454D01*
X88742790Y-82592455D01*
X88747597Y-82593609D01*
X88847416Y-82601465D01*
X88934345Y-82608307D01*
X88934352Y-82608307D01*
X88936801Y-82608500D01*
X89063199Y-82608500D01*
X89065648Y-82608307D01*
X89065655Y-82608307D01*
X89152584Y-82601465D01*
X89252403Y-82593609D01*
X89257210Y-82592455D01*
X89257216Y-82592454D01*
X89413968Y-82554821D01*
X89498591Y-82534505D01*
X89503164Y-82532611D01*
X89727928Y-82439511D01*
X89727932Y-82439509D01*
X89732502Y-82437616D01*
X89948376Y-82305328D01*
X90140898Y-82140898D01*
X90305328Y-81948376D01*
X90437616Y-81732502D01*
X90534505Y-81498591D01*
X90593609Y-81252403D01*
X90613474Y-81000000D01*
X90593609Y-80747597D01*
X90590744Y-80735661D01*
X90540066Y-80524573D01*
X90534505Y-80501409D01*
X90523031Y-80473708D01*
X90439511Y-80272072D01*
X90439509Y-80272068D01*
X90437616Y-80267498D01*
X90305328Y-80051624D01*
X90140898Y-79859102D01*
X89948376Y-79694672D01*
X89732502Y-79562384D01*
X89727932Y-79560491D01*
X89727928Y-79560489D01*
X89503164Y-79467389D01*
X89503162Y-79467388D01*
X89498591Y-79465495D01*
X89413968Y-79445179D01*
X89257216Y-79407546D01*
X89257210Y-79407545D01*
X89252403Y-79406391D01*
X89152584Y-79398535D01*
X89065655Y-79391693D01*
X89065648Y-79391693D01*
X89063199Y-79391500D01*
X88936801Y-79391500D01*
X88934352Y-79391693D01*
X88934345Y-79391693D01*
X88847416Y-79398535D01*
X88747597Y-79406391D01*
X88742790Y-79407545D01*
X88742784Y-79407546D01*
X88586032Y-79445179D01*
X88501409Y-79465495D01*
X88496838Y-79467388D01*
X88496836Y-79467389D01*
X88272072Y-79560489D01*
X88272068Y-79560491D01*
X88267498Y-79562384D01*
X88051624Y-79694672D01*
X87859102Y-79859102D01*
X87694672Y-80051624D01*
X87562384Y-80267498D01*
X87560491Y-80272068D01*
X87560489Y-80272072D01*
X87476969Y-80473708D01*
X87465495Y-80501409D01*
X87459934Y-80524573D01*
X87409257Y-80735661D01*
X87406391Y-80747597D01*
X87386526Y-81000000D01*
X77475904Y-81000000D01*
X83776752Y-74699152D01*
X83839064Y-74665126D01*
X83898459Y-74666541D01*
X83956591Y-74682118D01*
X83956602Y-74682120D01*
X83961913Y-74683543D01*
X84190000Y-74703498D01*
X84418087Y-74683543D01*
X84423400Y-74682119D01*
X84423402Y-74682119D01*
X84633933Y-74625707D01*
X84633935Y-74625706D01*
X84639243Y-74624284D01*
X84671175Y-74609394D01*
X84841762Y-74529849D01*
X84841767Y-74529846D01*
X84846749Y-74527523D01*
X84988458Y-74428297D01*
X85029789Y-74399357D01*
X85029792Y-74399355D01*
X85034300Y-74396198D01*
X85196198Y-74234300D01*
X85327523Y-74046749D01*
X85329846Y-74041767D01*
X85329849Y-74041762D01*
X85345805Y-74007543D01*
X85392722Y-73954258D01*
X85460999Y-73934797D01*
X85528959Y-73955339D01*
X85574195Y-74007543D01*
X85590151Y-74041762D01*
X85590154Y-74041767D01*
X85592477Y-74046749D01*
X85723802Y-74234300D01*
X85885700Y-74396198D01*
X85890208Y-74399355D01*
X85890211Y-74399357D01*
X86042771Y-74506181D01*
X86087099Y-74561638D01*
X86096500Y-74609394D01*
X86096500Y-74651233D01*
X86095973Y-74662416D01*
X86094298Y-74669909D01*
X86094547Y-74677835D01*
X86094547Y-74677836D01*
X86096438Y-74737986D01*
X86096500Y-74741945D01*
X86096500Y-74769856D01*
X86096997Y-74773790D01*
X86096997Y-74773791D01*
X86097005Y-74773856D01*
X86097938Y-74785693D01*
X86099327Y-74829889D01*
X86104978Y-74849339D01*
X86108987Y-74868700D01*
X86111526Y-74888797D01*
X86114445Y-74896168D01*
X86114445Y-74896170D01*
X86127804Y-74929912D01*
X86131649Y-74941142D01*
X86143982Y-74983593D01*
X86148015Y-74990412D01*
X86148017Y-74990417D01*
X86154293Y-75001028D01*
X86162988Y-75018776D01*
X86170448Y-75037617D01*
X86175110Y-75044033D01*
X86175110Y-75044034D01*
X86196436Y-75073387D01*
X86202952Y-75083307D01*
X86225458Y-75121362D01*
X86239779Y-75135683D01*
X86252619Y-75150716D01*
X86264528Y-75167107D01*
X86270634Y-75172158D01*
X86298605Y-75195298D01*
X86307384Y-75203288D01*
X86496343Y-75392247D01*
X86503887Y-75400537D01*
X86508000Y-75407018D01*
X86513777Y-75412443D01*
X86557667Y-75453658D01*
X86560509Y-75456413D01*
X86580231Y-75476135D01*
X86583355Y-75478558D01*
X86583359Y-75478562D01*
X86583424Y-75478612D01*
X86592445Y-75486317D01*
X86624679Y-75516586D01*
X86631627Y-75520405D01*
X86631629Y-75520407D01*
X86642432Y-75526346D01*
X86658959Y-75537202D01*
X86668698Y-75544757D01*
X86668700Y-75544758D01*
X86674960Y-75549614D01*
X86715540Y-75567174D01*
X86726188Y-75572391D01*
X86750976Y-75586018D01*
X86764940Y-75593695D01*
X86772616Y-75595666D01*
X86772619Y-75595667D01*
X86784562Y-75598733D01*
X86803267Y-75605137D01*
X86821855Y-75613181D01*
X86829678Y-75614420D01*
X86829688Y-75614423D01*
X86865524Y-75620099D01*
X86877144Y-75622505D01*
X86908959Y-75630673D01*
X86919970Y-75633500D01*
X86940224Y-75633500D01*
X86959934Y-75635051D01*
X86979943Y-75638220D01*
X86987835Y-75637474D01*
X87006580Y-75635702D01*
X87023962Y-75634059D01*
X87035819Y-75633500D01*
X96921233Y-75633500D01*
X96932416Y-75634027D01*
X96939909Y-75635702D01*
X96947835Y-75635453D01*
X96947836Y-75635453D01*
X97007986Y-75633562D01*
X97011945Y-75633500D01*
X97039856Y-75633500D01*
X97043791Y-75633003D01*
X97043856Y-75632995D01*
X97055693Y-75632062D01*
X97087951Y-75631048D01*
X97091970Y-75630922D01*
X97099889Y-75630673D01*
X97119343Y-75625021D01*
X97138700Y-75621013D01*
X97150930Y-75619468D01*
X97150931Y-75619468D01*
X97158797Y-75618474D01*
X97166168Y-75615555D01*
X97166170Y-75615555D01*
X97199912Y-75602196D01*
X97211142Y-75598351D01*
X97245983Y-75588229D01*
X97245984Y-75588229D01*
X97253593Y-75586018D01*
X97260412Y-75581985D01*
X97260417Y-75581983D01*
X97271028Y-75575707D01*
X97288776Y-75567012D01*
X97307617Y-75559552D01*
X97343387Y-75533564D01*
X97353307Y-75527048D01*
X97384535Y-75508580D01*
X97384538Y-75508578D01*
X97391362Y-75504542D01*
X97405683Y-75490221D01*
X97420717Y-75477380D01*
X97422431Y-75476135D01*
X97437107Y-75465472D01*
X97465298Y-75431395D01*
X97473288Y-75422616D01*
X98460361Y-74435543D01*
X98522673Y-74401517D01*
X98593488Y-74406582D01*
X98621727Y-74421425D01*
X98768742Y-74524366D01*
X98773251Y-74527523D01*
X98778233Y-74529846D01*
X98778238Y-74529849D01*
X98948825Y-74609394D01*
X98980757Y-74624284D01*
X98986065Y-74625706D01*
X98986067Y-74625707D01*
X99196598Y-74682119D01*
X99196600Y-74682119D01*
X99201913Y-74683543D01*
X99430000Y-74703498D01*
X99658087Y-74683543D01*
X99663400Y-74682119D01*
X99663402Y-74682119D01*
X99873933Y-74625707D01*
X99873935Y-74625706D01*
X99879243Y-74624284D01*
X99911175Y-74609394D01*
X100081762Y-74529849D01*
X100081767Y-74529846D01*
X100086749Y-74527523D01*
X100228458Y-74428297D01*
X100269789Y-74399357D01*
X100269792Y-74399355D01*
X100274300Y-74396198D01*
X100436198Y-74234300D01*
X100567523Y-74046749D01*
X100569846Y-74041767D01*
X100569849Y-74041762D01*
X100585805Y-74007543D01*
X100632722Y-73954258D01*
X100700999Y-73934797D01*
X100768959Y-73955339D01*
X100814195Y-74007543D01*
X100830151Y-74041762D01*
X100830154Y-74041767D01*
X100832477Y-74046749D01*
X100963802Y-74234300D01*
X101125700Y-74396198D01*
X101130208Y-74399355D01*
X101130211Y-74399357D01*
X101171542Y-74428297D01*
X101313251Y-74527523D01*
X101318233Y-74529846D01*
X101318238Y-74529849D01*
X101488825Y-74609394D01*
X101520757Y-74624284D01*
X101526065Y-74625706D01*
X101526067Y-74625707D01*
X101736598Y-74682119D01*
X101736600Y-74682119D01*
X101741913Y-74683543D01*
X101970000Y-74703498D01*
X102198087Y-74683543D01*
X102203400Y-74682119D01*
X102203402Y-74682119D01*
X102413933Y-74625707D01*
X102413935Y-74625706D01*
X102419243Y-74624284D01*
X102451175Y-74609394D01*
X102621762Y-74529849D01*
X102621767Y-74529846D01*
X102626749Y-74527523D01*
X102768458Y-74428297D01*
X102809789Y-74399357D01*
X102809792Y-74399355D01*
X102814300Y-74396198D01*
X102976198Y-74234300D01*
X103107523Y-74046749D01*
X103109846Y-74041767D01*
X103109849Y-74041762D01*
X103125805Y-74007543D01*
X103172722Y-73954258D01*
X103240999Y-73934797D01*
X103308959Y-73955339D01*
X103354195Y-74007543D01*
X103370151Y-74041762D01*
X103370154Y-74041767D01*
X103372477Y-74046749D01*
X103503802Y-74234300D01*
X103665700Y-74396198D01*
X103670208Y-74399355D01*
X103670211Y-74399357D01*
X103711542Y-74428297D01*
X103853251Y-74527523D01*
X103858233Y-74529846D01*
X103858238Y-74529849D01*
X104028825Y-74609394D01*
X104060757Y-74624284D01*
X104066065Y-74625706D01*
X104066067Y-74625707D01*
X104276598Y-74682119D01*
X104276600Y-74682119D01*
X104281913Y-74683543D01*
X104510000Y-74703498D01*
X104738087Y-74683543D01*
X104743400Y-74682119D01*
X104743402Y-74682119D01*
X104953933Y-74625707D01*
X104953935Y-74625706D01*
X104959243Y-74624284D01*
X104991175Y-74609394D01*
X105161762Y-74529849D01*
X105161767Y-74529846D01*
X105166749Y-74527523D01*
X105308458Y-74428297D01*
X105349789Y-74399357D01*
X105349792Y-74399355D01*
X105354300Y-74396198D01*
X105516198Y-74234300D01*
X105519357Y-74229789D01*
X105522892Y-74225576D01*
X105524026Y-74226527D01*
X105574071Y-74186529D01*
X105644690Y-74179224D01*
X105708049Y-74211258D01*
X105744030Y-74272462D01*
X105747082Y-74289517D01*
X105748255Y-74300316D01*
X105799385Y-74436705D01*
X105886739Y-74553261D01*
X106003295Y-74640615D01*
X106139684Y-74691745D01*
X106201866Y-74698500D01*
X107898134Y-74698500D01*
X107960316Y-74691745D01*
X108096705Y-74640615D01*
X108213261Y-74553261D01*
X108300615Y-74436705D01*
X108351745Y-74300316D01*
X108358500Y-74238134D01*
X108358500Y-72541866D01*
X108351745Y-72479684D01*
X108300615Y-72343295D01*
X108213261Y-72226739D01*
X108096705Y-72139385D01*
X107960316Y-72088255D01*
X107898134Y-72081500D01*
X106201866Y-72081500D01*
X106139684Y-72088255D01*
X106003295Y-72139385D01*
X105886739Y-72226739D01*
X105799385Y-72343295D01*
X105748255Y-72479684D01*
X105747083Y-72490474D01*
X105746197Y-72492606D01*
X105745575Y-72495222D01*
X105745152Y-72495121D01*
X105719845Y-72556035D01*
X105661483Y-72596463D01*
X105590529Y-72598922D01*
X105529510Y-72562629D01*
X105522511Y-72553969D01*
X105519354Y-72550207D01*
X105516198Y-72545700D01*
X105354300Y-72383802D01*
X105349792Y-72380645D01*
X105349789Y-72380643D01*
X105216694Y-72287449D01*
X105166749Y-72252477D01*
X105161767Y-72250154D01*
X105161762Y-72250151D01*
X104964225Y-72158039D01*
X104964224Y-72158039D01*
X104959243Y-72155716D01*
X104953935Y-72154294D01*
X104953933Y-72154293D01*
X104743402Y-72097881D01*
X104743400Y-72097881D01*
X104738087Y-72096457D01*
X104510000Y-72076502D01*
X104281913Y-72096457D01*
X104276600Y-72097881D01*
X104276598Y-72097881D01*
X104066067Y-72154293D01*
X104066065Y-72154294D01*
X104060757Y-72155716D01*
X104055776Y-72158039D01*
X104055775Y-72158039D01*
X103858238Y-72250151D01*
X103858233Y-72250154D01*
X103853251Y-72252477D01*
X103803306Y-72287449D01*
X103670211Y-72380643D01*
X103670208Y-72380645D01*
X103665700Y-72383802D01*
X103503802Y-72545700D01*
X103372477Y-72733251D01*
X103370154Y-72738233D01*
X103370151Y-72738238D01*
X103354195Y-72772457D01*
X103307278Y-72825742D01*
X103239001Y-72845203D01*
X103171041Y-72824661D01*
X103125805Y-72772457D01*
X103109849Y-72738238D01*
X103109846Y-72738233D01*
X103107523Y-72733251D01*
X102976198Y-72545700D01*
X102814300Y-72383802D01*
X102809792Y-72380645D01*
X102809789Y-72380643D01*
X102676694Y-72287449D01*
X102626749Y-72252477D01*
X102621767Y-72250154D01*
X102621762Y-72250151D01*
X102424225Y-72158039D01*
X102424224Y-72158039D01*
X102419243Y-72155716D01*
X102413935Y-72154294D01*
X102413933Y-72154293D01*
X102203402Y-72097881D01*
X102203400Y-72097881D01*
X102198087Y-72096457D01*
X102192601Y-72095977D01*
X102192595Y-72095976D01*
X102100697Y-72087935D01*
X102034579Y-72062072D01*
X101992939Y-72004568D01*
X101988999Y-71933681D01*
X102022584Y-71873320D01*
X103500499Y-70395405D01*
X103562811Y-70361379D01*
X103589594Y-70358500D01*
X104898134Y-70358500D01*
X104960316Y-70351745D01*
X105096705Y-70300615D01*
X105213261Y-70213261D01*
X105300615Y-70096705D01*
X105351745Y-69960316D01*
X105358500Y-69898134D01*
X105358500Y-69672095D01*
X106292001Y-69672095D01*
X106292338Y-69678614D01*
X106302257Y-69774206D01*
X106305149Y-69787600D01*
X106356588Y-69941784D01*
X106362761Y-69954962D01*
X106448063Y-70092807D01*
X106457099Y-70104208D01*
X106571829Y-70218739D01*
X106583240Y-70227751D01*
X106721243Y-70312816D01*
X106734424Y-70318963D01*
X106888710Y-70370138D01*
X106902086Y-70373005D01*
X106996438Y-70382672D01*
X107002854Y-70383000D01*
X107177885Y-70383000D01*
X107193124Y-70378525D01*
X107194329Y-70377135D01*
X107196000Y-70369452D01*
X107196000Y-70364884D01*
X107704000Y-70364884D01*
X107708475Y-70380123D01*
X107709865Y-70381328D01*
X107717548Y-70382999D01*
X107897095Y-70382999D01*
X107903614Y-70382662D01*
X107999206Y-70372743D01*
X108012600Y-70369851D01*
X108166784Y-70318412D01*
X108179962Y-70312239D01*
X108317807Y-70226937D01*
X108329208Y-70217901D01*
X108443739Y-70103171D01*
X108452751Y-70091760D01*
X108537816Y-69953757D01*
X108543963Y-69940576D01*
X108595138Y-69786290D01*
X108598005Y-69772914D01*
X108607672Y-69678562D01*
X108608000Y-69672146D01*
X108608000Y-69272115D01*
X108603525Y-69256876D01*
X108602135Y-69255671D01*
X108594452Y-69254000D01*
X107722115Y-69254000D01*
X107706876Y-69258475D01*
X107705671Y-69259865D01*
X107704000Y-69267548D01*
X107704000Y-70364884D01*
X107196000Y-70364884D01*
X107196000Y-69272115D01*
X107191525Y-69256876D01*
X107190135Y-69255671D01*
X107182452Y-69254000D01*
X106310116Y-69254000D01*
X106294877Y-69258475D01*
X106293672Y-69259865D01*
X106292001Y-69267548D01*
X106292001Y-69672095D01*
X105358500Y-69672095D01*
X105358500Y-68589595D01*
X105378502Y-68521474D01*
X105395405Y-68500499D01*
X106225501Y-67670404D01*
X106287813Y-67636379D01*
X106314596Y-67633500D01*
X106415315Y-67633500D01*
X106483436Y-67653502D01*
X106529929Y-67707158D01*
X106540033Y-67777432D01*
X106510539Y-67842012D01*
X106504488Y-67848518D01*
X106456261Y-67896829D01*
X106447249Y-67908240D01*
X106362184Y-68046243D01*
X106356037Y-68059424D01*
X106304862Y-68213710D01*
X106301995Y-68227086D01*
X106292328Y-68321438D01*
X106292000Y-68327854D01*
X106292000Y-68727885D01*
X106296475Y-68743124D01*
X106297865Y-68744329D01*
X106305548Y-68746000D01*
X108589884Y-68746000D01*
X108605123Y-68741525D01*
X108606328Y-68740135D01*
X108607999Y-68732452D01*
X108607999Y-68327905D01*
X108607662Y-68321386D01*
X108601723Y-68264147D01*
X108614588Y-68194326D01*
X108663159Y-68142544D01*
X108732015Y-68125242D01*
X108799295Y-68147913D01*
X108816137Y-68162041D01*
X109354597Y-68700502D01*
X109388621Y-68762812D01*
X109391500Y-68789595D01*
X109391500Y-69675400D01*
X109391837Y-69678646D01*
X109391837Y-69678650D01*
X109401752Y-69774206D01*
X109402474Y-69781166D01*
X109404655Y-69787702D01*
X109404655Y-69787704D01*
X109440358Y-69894717D01*
X109458450Y-69948946D01*
X109551522Y-70099348D01*
X109556704Y-70104521D01*
X109571451Y-70119242D01*
X109676697Y-70224305D01*
X109682927Y-70228145D01*
X109682928Y-70228146D01*
X109820288Y-70312816D01*
X109827262Y-70317115D01*
X109902988Y-70342232D01*
X109988611Y-70370632D01*
X109988613Y-70370632D01*
X109995139Y-70372797D01*
X110001975Y-70373497D01*
X110001978Y-70373498D01*
X110045031Y-70377909D01*
X110099600Y-70383500D01*
X111000400Y-70383500D01*
X111003646Y-70383163D01*
X111003650Y-70383163D01*
X111099308Y-70373238D01*
X111099312Y-70373237D01*
X111106166Y-70372526D01*
X111112702Y-70370345D01*
X111112704Y-70370345D01*
X111244806Y-70326272D01*
X111273946Y-70316550D01*
X111424348Y-70223478D01*
X111528512Y-70119132D01*
X113295698Y-70119132D01*
X113300607Y-70125690D01*
X113389118Y-70175157D01*
X113400357Y-70180067D01*
X113576641Y-70237345D01*
X113588615Y-70239978D01*
X113772676Y-70261926D01*
X113784925Y-70262183D01*
X113969742Y-70247962D01*
X113981822Y-70245831D01*
X114160345Y-70195986D01*
X114171778Y-70191552D01*
X114295507Y-70129052D01*
X114305791Y-70119407D01*
X114303553Y-70112763D01*
X113812812Y-69622022D01*
X113798868Y-69614408D01*
X113797035Y-69614539D01*
X113790420Y-69618790D01*
X113302458Y-70106752D01*
X113295698Y-70119132D01*
X111528512Y-70119132D01*
X111549305Y-70098303D01*
X111617510Y-69987655D01*
X111638275Y-69953968D01*
X111638276Y-69953966D01*
X111642115Y-69947738D01*
X111681570Y-69828784D01*
X111695632Y-69786389D01*
X111695632Y-69786387D01*
X111697797Y-69779861D01*
X111700537Y-69753124D01*
X111708167Y-69678650D01*
X111708500Y-69675400D01*
X111708500Y-69242002D01*
X112787738Y-69242002D01*
X112803248Y-69426705D01*
X112805461Y-69438764D01*
X112856554Y-69616945D01*
X112861066Y-69628342D01*
X112921148Y-69745250D01*
X112930865Y-69755468D01*
X112937666Y-69753124D01*
X113427978Y-69262812D01*
X113434356Y-69251132D01*
X114164408Y-69251132D01*
X114164539Y-69252965D01*
X114168790Y-69259580D01*
X114656661Y-69747451D01*
X114669041Y-69754211D01*
X114675775Y-69749170D01*
X114722262Y-69667337D01*
X114727256Y-69656121D01*
X114785759Y-69480253D01*
X114788479Y-69468281D01*
X114812039Y-69281784D01*
X114812531Y-69274757D01*
X114812828Y-69253523D01*
X114812533Y-69246494D01*
X114794188Y-69059397D01*
X114791805Y-69047362D01*
X114738233Y-68869924D01*
X114733559Y-68858584D01*
X114678562Y-68755148D01*
X114668702Y-68745067D01*
X114661575Y-68747635D01*
X114172022Y-69237188D01*
X114164408Y-69251132D01*
X113434356Y-69251132D01*
X113435592Y-69248868D01*
X113435461Y-69247035D01*
X113431210Y-69240420D01*
X112943121Y-68752331D01*
X112930741Y-68745571D01*
X112924353Y-68750353D01*
X112871997Y-68845586D01*
X112867166Y-68856858D01*
X112811120Y-69033538D01*
X112808570Y-69045532D01*
X112787909Y-69229733D01*
X112787738Y-69242002D01*
X111708500Y-69242002D01*
X111708500Y-68381101D01*
X113294820Y-68381101D01*
X113297274Y-68388064D01*
X113787188Y-68877978D01*
X113801132Y-68885592D01*
X113802965Y-68885461D01*
X113809580Y-68881210D01*
X114297834Y-68392956D01*
X114304594Y-68380576D01*
X114299935Y-68374353D01*
X114197924Y-68319196D01*
X114186619Y-68314444D01*
X114009554Y-68259633D01*
X113997541Y-68257167D01*
X113813199Y-68237792D01*
X113800931Y-68237707D01*
X113616345Y-68254505D01*
X113604296Y-68256803D01*
X113426483Y-68309137D01*
X113415108Y-68313732D01*
X113304969Y-68371312D01*
X113294820Y-68381101D01*
X111708500Y-68381101D01*
X111708500Y-68324600D01*
X111708163Y-68321350D01*
X111698238Y-68225692D01*
X111698237Y-68225688D01*
X111697526Y-68218834D01*
X111689350Y-68194326D01*
X111643868Y-68058002D01*
X111641550Y-68051054D01*
X111548478Y-67900652D01*
X111423303Y-67775695D01*
X111372418Y-67744329D01*
X111278968Y-67686725D01*
X111278966Y-67686724D01*
X111272738Y-67682885D01*
X111192995Y-67656436D01*
X111111389Y-67629368D01*
X111111387Y-67629368D01*
X111104861Y-67627203D01*
X111098025Y-67626503D01*
X111098022Y-67626502D01*
X111054969Y-67622091D01*
X111000400Y-67616500D01*
X110114594Y-67616500D01*
X110046473Y-67596498D01*
X110025503Y-67579599D01*
X109053641Y-66607736D01*
X109046112Y-66599462D01*
X109042000Y-66592982D01*
X108992348Y-66546356D01*
X108989507Y-66543602D01*
X108969770Y-66523865D01*
X108966573Y-66521385D01*
X108957551Y-66513680D01*
X108944122Y-66501069D01*
X108925321Y-66483414D01*
X108918375Y-66479595D01*
X108918372Y-66479593D01*
X108907566Y-66473652D01*
X108891047Y-66462801D01*
X108890583Y-66462441D01*
X108875041Y-66450386D01*
X108867772Y-66447241D01*
X108867768Y-66447238D01*
X108834463Y-66432826D01*
X108823813Y-66427609D01*
X108785060Y-66406305D01*
X108765437Y-66401267D01*
X108746734Y-66394863D01*
X108735420Y-66389967D01*
X108735419Y-66389967D01*
X108728145Y-66386819D01*
X108720322Y-66385580D01*
X108720312Y-66385577D01*
X108684476Y-66379901D01*
X108672856Y-66377495D01*
X108637711Y-66368472D01*
X108637710Y-66368472D01*
X108630030Y-66366500D01*
X108609776Y-66366500D01*
X108590065Y-66364949D01*
X108577886Y-66363020D01*
X108570057Y-66361780D01*
X108540786Y-66364547D01*
X108526039Y-66365941D01*
X108514181Y-66366500D01*
X106078767Y-66366500D01*
X106067584Y-66365973D01*
X106060091Y-66364298D01*
X106052165Y-66364547D01*
X106052164Y-66364547D01*
X105992014Y-66366438D01*
X105988055Y-66366500D01*
X105960144Y-66366500D01*
X105956210Y-66366997D01*
X105956209Y-66366997D01*
X105956144Y-66367005D01*
X105944307Y-66367938D01*
X105912490Y-66368938D01*
X105908029Y-66369078D01*
X105900110Y-66369327D01*
X105882454Y-66374456D01*
X105880658Y-66374978D01*
X105861306Y-66378986D01*
X105854235Y-66379880D01*
X105841203Y-66381526D01*
X105833834Y-66384443D01*
X105833832Y-66384444D01*
X105800097Y-66397800D01*
X105788869Y-66401645D01*
X105746407Y-66413982D01*
X105739584Y-66418017D01*
X105739582Y-66418018D01*
X105728972Y-66424293D01*
X105711224Y-66432988D01*
X105692383Y-66440448D01*
X105685967Y-66445110D01*
X105685966Y-66445110D01*
X105656613Y-66466436D01*
X105646693Y-66472952D01*
X105615465Y-66491420D01*
X105615462Y-66491422D01*
X105608638Y-66495458D01*
X105594317Y-66509779D01*
X105579284Y-66522619D01*
X105562893Y-66534528D01*
X105554217Y-66545016D01*
X105534702Y-66568605D01*
X105526712Y-66577384D01*
X104499500Y-67604595D01*
X104437188Y-67638621D01*
X104410405Y-67641500D01*
X103101866Y-67641500D01*
X103039684Y-67648255D01*
X102903295Y-67699385D01*
X102786739Y-67786739D01*
X102699385Y-67903295D01*
X102696233Y-67911703D01*
X102654919Y-68021907D01*
X102612277Y-68078671D01*
X102545716Y-68103371D01*
X102476367Y-68088163D01*
X102443743Y-68062476D01*
X102393151Y-68006875D01*
X102393142Y-68006866D01*
X102389670Y-68003051D01*
X102385619Y-67999852D01*
X102385615Y-67999848D01*
X102218414Y-67867800D01*
X102218410Y-67867798D01*
X102214359Y-67864598D01*
X102018789Y-67756638D01*
X102013920Y-67754914D01*
X102013916Y-67754912D01*
X101813087Y-67683795D01*
X101813083Y-67683794D01*
X101808212Y-67682069D01*
X101803119Y-67681162D01*
X101803116Y-67681161D01*
X101593373Y-67643800D01*
X101593367Y-67643799D01*
X101588284Y-67642894D01*
X101514452Y-67641992D01*
X101370081Y-67640228D01*
X101370079Y-67640228D01*
X101364911Y-67640165D01*
X101144091Y-67673955D01*
X100931756Y-67743357D01*
X100733607Y-67846507D01*
X100729474Y-67849610D01*
X100729471Y-67849612D01*
X100559100Y-67977530D01*
X100554965Y-67980635D01*
X100515525Y-68021907D01*
X100414140Y-68128000D01*
X100400629Y-68142138D01*
X100397715Y-68146410D01*
X100397714Y-68146411D01*
X100343632Y-68225692D01*
X100274743Y-68326680D01*
X100249482Y-68381101D01*
X100184031Y-68522104D01*
X100180688Y-68529305D01*
X100120989Y-68744570D01*
X100097251Y-68966695D01*
X100097548Y-68971848D01*
X100097548Y-68971851D01*
X100108552Y-69162699D01*
X100110110Y-69189715D01*
X100111247Y-69194761D01*
X100111248Y-69194767D01*
X100125322Y-69257216D01*
X100159222Y-69407639D01*
X100243266Y-69614616D01*
X100251677Y-69628342D01*
X100348468Y-69786290D01*
X100359987Y-69805088D01*
X100506250Y-69973938D01*
X100678126Y-70116632D01*
X100871000Y-70229338D01*
X100875825Y-70231180D01*
X100875826Y-70231181D01*
X100932773Y-70252927D01*
X101079692Y-70309030D01*
X101084760Y-70310061D01*
X101084763Y-70310062D01*
X101192379Y-70331957D01*
X101298597Y-70353567D01*
X101303771Y-70353757D01*
X101303773Y-70353757D01*
X101371293Y-70356233D01*
X101445649Y-70358959D01*
X101512990Y-70381443D01*
X101557486Y-70436767D01*
X101565008Y-70507364D01*
X101530126Y-70573969D01*
X100774500Y-71329595D01*
X100712188Y-71363621D01*
X100685405Y-71366500D01*
X99078763Y-71366500D01*
X99067579Y-71365973D01*
X99060091Y-71364299D01*
X99052168Y-71364548D01*
X98992033Y-71366438D01*
X98988075Y-71366500D01*
X98960144Y-71366500D01*
X98956229Y-71366995D01*
X98956225Y-71366995D01*
X98956167Y-71367003D01*
X98956138Y-71367006D01*
X98944296Y-71367939D01*
X98900110Y-71369327D01*
X98888166Y-71372797D01*
X98880658Y-71374978D01*
X98861306Y-71378986D01*
X98849068Y-71380532D01*
X98849066Y-71380533D01*
X98841203Y-71381526D01*
X98800086Y-71397806D01*
X98788885Y-71401641D01*
X98746406Y-71413982D01*
X98739587Y-71418015D01*
X98739582Y-71418017D01*
X98728971Y-71424293D01*
X98711221Y-71432990D01*
X98692383Y-71440448D01*
X98685967Y-71445109D01*
X98685966Y-71445110D01*
X98656625Y-71466428D01*
X98646701Y-71472947D01*
X98615460Y-71491422D01*
X98615455Y-71491426D01*
X98608637Y-71495458D01*
X98594313Y-71509782D01*
X98579281Y-71522621D01*
X98562893Y-71534528D01*
X98538836Y-71563608D01*
X98534712Y-71568593D01*
X98526722Y-71577373D01*
X97912747Y-72191348D01*
X97904461Y-72198888D01*
X97897982Y-72203000D01*
X97892557Y-72208777D01*
X97851357Y-72252651D01*
X97848602Y-72255493D01*
X97828865Y-72275230D01*
X97826385Y-72278427D01*
X97818680Y-72287449D01*
X97805334Y-72301661D01*
X97744121Y-72337627D01*
X97673181Y-72334788D01*
X97641213Y-72318621D01*
X97577229Y-72273819D01*
X97532901Y-72218362D01*
X97523500Y-72170606D01*
X97523500Y-71509500D01*
X97543502Y-71441379D01*
X97597158Y-71394886D01*
X97649500Y-71383500D01*
X98000400Y-71383500D01*
X98003646Y-71383163D01*
X98003650Y-71383163D01*
X98099308Y-71373238D01*
X98099312Y-71373237D01*
X98106166Y-71372526D01*
X98112702Y-71370345D01*
X98112704Y-71370345D01*
X98244806Y-71326272D01*
X98273946Y-71316550D01*
X98424348Y-71223478D01*
X98549305Y-71098303D01*
X98642115Y-70947738D01*
X98697797Y-70779861D01*
X98708500Y-70675400D01*
X98708500Y-69324600D01*
X98706992Y-69310062D01*
X98698238Y-69225692D01*
X98698237Y-69225688D01*
X98697526Y-69218834D01*
X98641550Y-69051054D01*
X98548478Y-68900652D01*
X98533261Y-68885461D01*
X98428483Y-68780866D01*
X98423303Y-68775695D01*
X98381143Y-68749707D01*
X98278968Y-68686725D01*
X98278966Y-68686724D01*
X98272738Y-68682885D01*
X98192995Y-68656436D01*
X98111389Y-68629368D01*
X98111387Y-68629368D01*
X98104861Y-68627203D01*
X98098025Y-68626503D01*
X98098022Y-68626502D01*
X98054969Y-68622091D01*
X98000400Y-68616500D01*
X97099600Y-68616500D01*
X97096354Y-68616837D01*
X97096350Y-68616837D01*
X97000692Y-68626762D01*
X97000688Y-68626763D01*
X96993834Y-68627474D01*
X96987298Y-68629655D01*
X96987296Y-68629655D01*
X96925671Y-68650215D01*
X96826054Y-68683450D01*
X96675652Y-68776522D01*
X96550695Y-68901697D01*
X96546855Y-68907927D01*
X96546854Y-68907928D01*
X96469427Y-69033538D01*
X96457885Y-69052262D01*
X96402203Y-69220139D01*
X96401503Y-69226975D01*
X96401502Y-69226978D01*
X96397091Y-69270031D01*
X96391500Y-69324600D01*
X96391500Y-70220535D01*
X96371076Y-70283395D01*
X96373413Y-70284680D01*
X96363652Y-70302434D01*
X96352801Y-70318953D01*
X96340386Y-70334959D01*
X96337241Y-70342228D01*
X96337238Y-70342232D01*
X96322826Y-70375537D01*
X96317609Y-70386187D01*
X96296305Y-70424940D01*
X96294334Y-70432615D01*
X96294334Y-70432616D01*
X96291267Y-70444562D01*
X96284863Y-70463266D01*
X96276819Y-70481855D01*
X96275580Y-70489678D01*
X96275577Y-70489688D01*
X96269901Y-70525524D01*
X96267495Y-70537144D01*
X96259958Y-70566500D01*
X96256500Y-70579970D01*
X96256500Y-70600224D01*
X96254949Y-70619934D01*
X96251780Y-70639943D01*
X96252526Y-70647835D01*
X96255941Y-70683961D01*
X96256500Y-70695819D01*
X96256500Y-72170606D01*
X96236498Y-72238727D01*
X96202771Y-72273819D01*
X96050211Y-72380643D01*
X96050208Y-72380645D01*
X96045700Y-72383802D01*
X95883802Y-72545700D01*
X95752477Y-72733251D01*
X95750154Y-72738233D01*
X95750151Y-72738238D01*
X95734195Y-72772457D01*
X95687278Y-72825742D01*
X95619001Y-72845203D01*
X95551041Y-72824661D01*
X95505805Y-72772457D01*
X95489849Y-72738238D01*
X95489846Y-72738233D01*
X95487523Y-72733251D01*
X95356198Y-72545700D01*
X95194300Y-72383802D01*
X95189792Y-72380645D01*
X95189789Y-72380643D01*
X95037229Y-72273819D01*
X94992901Y-72218362D01*
X94983500Y-72170606D01*
X94983500Y-71878763D01*
X94984027Y-71867579D01*
X94985701Y-71860091D01*
X94983562Y-71792032D01*
X94983500Y-71788075D01*
X94983500Y-71760144D01*
X94982994Y-71756138D01*
X94982061Y-71744292D01*
X94980922Y-71708037D01*
X94980673Y-71700110D01*
X94975022Y-71680658D01*
X94971014Y-71661306D01*
X94969468Y-71649068D01*
X94969467Y-71649066D01*
X94968474Y-71641203D01*
X94952194Y-71600086D01*
X94948359Y-71588885D01*
X94936018Y-71546406D01*
X94932660Y-71540727D01*
X94924035Y-71470852D01*
X94954813Y-71406874D01*
X95008492Y-71371751D01*
X95166993Y-71318870D01*
X95166995Y-71318869D01*
X95173946Y-71316550D01*
X95324348Y-71223478D01*
X95449305Y-71098303D01*
X95542115Y-70947738D01*
X95597797Y-70779861D01*
X95608500Y-70675400D01*
X95608500Y-69324600D01*
X95606992Y-69310062D01*
X95598238Y-69225692D01*
X95598237Y-69225688D01*
X95597526Y-69218834D01*
X95541550Y-69051054D01*
X95448478Y-68900652D01*
X95433261Y-68885461D01*
X95328486Y-68780869D01*
X95323303Y-68775695D01*
X95323596Y-68775401D01*
X95285119Y-68721137D01*
X95281884Y-68650215D01*
X95291315Y-68624339D01*
X95349670Y-68506267D01*
X95353469Y-68496672D01*
X95415377Y-68292910D01*
X95417555Y-68282837D01*
X95418986Y-68271962D01*
X95416775Y-68257778D01*
X95403617Y-68254000D01*
X93957000Y-68254000D01*
X93888879Y-68233998D01*
X93842386Y-68180342D01*
X93831000Y-68128000D01*
X93831000Y-67727885D01*
X94339000Y-67727885D01*
X94343475Y-67743124D01*
X94344865Y-67744329D01*
X94352548Y-67746000D01*
X95403344Y-67746000D01*
X95416875Y-67742027D01*
X95418180Y-67732947D01*
X95376214Y-67565875D01*
X95372894Y-67556124D01*
X95287972Y-67360814D01*
X95283105Y-67351739D01*
X95167426Y-67172926D01*
X95161136Y-67164757D01*
X95017806Y-67007240D01*
X95010273Y-67000215D01*
X94843139Y-66868222D01*
X94834552Y-66862517D01*
X94648117Y-66759599D01*
X94638705Y-66755369D01*
X94437959Y-66684280D01*
X94427988Y-66681646D01*
X94356837Y-66668972D01*
X94343540Y-66670432D01*
X94339000Y-66684989D01*
X94339000Y-67727885D01*
X93831000Y-67727885D01*
X93831000Y-66683102D01*
X93827082Y-66669758D01*
X93812806Y-66667771D01*
X93774324Y-66673660D01*
X93764288Y-66676051D01*
X93561868Y-66742212D01*
X93552359Y-66746209D01*
X93363463Y-66844542D01*
X93354738Y-66850036D01*
X93184433Y-66977905D01*
X93176726Y-66984748D01*
X93029590Y-67138717D01*
X93023109Y-67146722D01*
X92918498Y-67300074D01*
X92863587Y-67345076D01*
X92793062Y-67353247D01*
X92729315Y-67321993D01*
X92708618Y-67297509D01*
X92627822Y-67172617D01*
X92627820Y-67172614D01*
X92625014Y-67168277D01*
X92474670Y-67003051D01*
X92470619Y-66999852D01*
X92470615Y-66999848D01*
X92303414Y-66867800D01*
X92303410Y-66867798D01*
X92299359Y-66864598D01*
X92263028Y-66844542D01*
X92247136Y-66835769D01*
X92103789Y-66756638D01*
X92098920Y-66754914D01*
X92098916Y-66754912D01*
X91898087Y-66683795D01*
X91898083Y-66683794D01*
X91893212Y-66682069D01*
X91888119Y-66681162D01*
X91888116Y-66681161D01*
X91678373Y-66643800D01*
X91678367Y-66643799D01*
X91673284Y-66642894D01*
X91599452Y-66641992D01*
X91455081Y-66640228D01*
X91455079Y-66640228D01*
X91449911Y-66640165D01*
X91229091Y-66673955D01*
X91016756Y-66743357D01*
X90818607Y-66846507D01*
X90814474Y-66849610D01*
X90814471Y-66849612D01*
X90644100Y-66977530D01*
X90639965Y-66980635D01*
X90636393Y-66984373D01*
X90528729Y-67097037D01*
X90485629Y-67142138D01*
X90378201Y-67299621D01*
X90323293Y-67344621D01*
X90252768Y-67352792D01*
X90189021Y-67321538D01*
X90168324Y-67297054D01*
X90087822Y-67172617D01*
X90087820Y-67172614D01*
X90085014Y-67168277D01*
X89934670Y-67003051D01*
X89930619Y-66999852D01*
X89930615Y-66999848D01*
X89763414Y-66867800D01*
X89763410Y-66867798D01*
X89759359Y-66864598D01*
X89723028Y-66844542D01*
X89707136Y-66835769D01*
X89563789Y-66756638D01*
X89558920Y-66754914D01*
X89558916Y-66754912D01*
X89358087Y-66683795D01*
X89358083Y-66683794D01*
X89353212Y-66682069D01*
X89348119Y-66681162D01*
X89348116Y-66681161D01*
X89138373Y-66643800D01*
X89138367Y-66643799D01*
X89133284Y-66642894D01*
X89059452Y-66641992D01*
X88915081Y-66640228D01*
X88915079Y-66640228D01*
X88909911Y-66640165D01*
X88689091Y-66673955D01*
X88476756Y-66743357D01*
X88278607Y-66846507D01*
X88274474Y-66849610D01*
X88274471Y-66849612D01*
X88104100Y-66977530D01*
X88099965Y-66980635D01*
X88096393Y-66984373D01*
X87988729Y-67097037D01*
X87945629Y-67142138D01*
X87838201Y-67299621D01*
X87783293Y-67344621D01*
X87712768Y-67352792D01*
X87649021Y-67321538D01*
X87628324Y-67297054D01*
X87547822Y-67172617D01*
X87547820Y-67172614D01*
X87545014Y-67168277D01*
X87394670Y-67003051D01*
X87390619Y-66999852D01*
X87390615Y-66999848D01*
X87223414Y-66867800D01*
X87223410Y-66867798D01*
X87219359Y-66864598D01*
X87183028Y-66844542D01*
X87167136Y-66835769D01*
X87023789Y-66756638D01*
X87018920Y-66754914D01*
X87018916Y-66754912D01*
X86818087Y-66683795D01*
X86818083Y-66683794D01*
X86813212Y-66682069D01*
X86808119Y-66681162D01*
X86808116Y-66681161D01*
X86598373Y-66643800D01*
X86598367Y-66643799D01*
X86593284Y-66642894D01*
X86519452Y-66641992D01*
X86375081Y-66640228D01*
X86375079Y-66640228D01*
X86369911Y-66640165D01*
X86149091Y-66673955D01*
X85936756Y-66743357D01*
X85738607Y-66846507D01*
X85734474Y-66849610D01*
X85734471Y-66849612D01*
X85564100Y-66977530D01*
X85559965Y-66980635D01*
X85503537Y-67039684D01*
X85479283Y-67065064D01*
X85417759Y-67100494D01*
X85346846Y-67097037D01*
X85289060Y-67055791D01*
X85270207Y-67022243D01*
X85228767Y-66911703D01*
X85225615Y-66903295D01*
X85138261Y-66786739D01*
X85021705Y-66699385D01*
X84885316Y-66648255D01*
X84823134Y-66641500D01*
X83026866Y-66641500D01*
X82964684Y-66648255D01*
X82828295Y-66699385D01*
X82711739Y-66786739D01*
X82624385Y-66903295D01*
X82573255Y-67039684D01*
X82566500Y-67101866D01*
X82566500Y-67240500D01*
X82546498Y-67308621D01*
X82492842Y-67355114D01*
X82440500Y-67366500D01*
X81528767Y-67366500D01*
X81517584Y-67365973D01*
X81510091Y-67364298D01*
X81502165Y-67364547D01*
X81502164Y-67364547D01*
X81442014Y-67366438D01*
X81438055Y-67366500D01*
X81410144Y-67366500D01*
X81406210Y-67366997D01*
X81406209Y-67366997D01*
X81406144Y-67367005D01*
X81394307Y-67367938D01*
X81362490Y-67368938D01*
X81358029Y-67369078D01*
X81350110Y-67369327D01*
X81332454Y-67374456D01*
X81330658Y-67374978D01*
X81311306Y-67378986D01*
X81304235Y-67379880D01*
X81291203Y-67381526D01*
X81283834Y-67384443D01*
X81283832Y-67384444D01*
X81250097Y-67397800D01*
X81238869Y-67401645D01*
X81196407Y-67413982D01*
X81189584Y-67418017D01*
X81189582Y-67418018D01*
X81178972Y-67424293D01*
X81161224Y-67432988D01*
X81142383Y-67440448D01*
X81135967Y-67445110D01*
X81135966Y-67445110D01*
X81106613Y-67466436D01*
X81096693Y-67472952D01*
X81065465Y-67491420D01*
X81065462Y-67491422D01*
X81058638Y-67495458D01*
X81044317Y-67509779D01*
X81029284Y-67522619D01*
X81012893Y-67534528D01*
X80987709Y-67564970D01*
X80984702Y-67568605D01*
X80976712Y-67577384D01*
X79974501Y-68579595D01*
X79912189Y-68613621D01*
X79885406Y-68616500D01*
X78999600Y-68616500D01*
X78996354Y-68616837D01*
X78996350Y-68616837D01*
X78900692Y-68626762D01*
X78900688Y-68626763D01*
X78893834Y-68627474D01*
X78887298Y-68629655D01*
X78887296Y-68629655D01*
X78825671Y-68650215D01*
X78726054Y-68683450D01*
X78575652Y-68776522D01*
X78450695Y-68901697D01*
X78446855Y-68907927D01*
X78446854Y-68907928D01*
X78369427Y-69033538D01*
X78357885Y-69052262D01*
X78302203Y-69220139D01*
X78301503Y-69226975D01*
X78301502Y-69226978D01*
X78297091Y-69270031D01*
X78291500Y-69324600D01*
X78291500Y-70675400D01*
X78291837Y-70678646D01*
X78291837Y-70678650D01*
X78293619Y-70695819D01*
X78302474Y-70781166D01*
X78358450Y-70948946D01*
X78451522Y-71099348D01*
X78576697Y-71224305D01*
X78582927Y-71228145D01*
X78582928Y-71228146D01*
X78720090Y-71312694D01*
X78727262Y-71317115D01*
X78807005Y-71343564D01*
X78888611Y-71370632D01*
X78888613Y-71370632D01*
X78895139Y-71372797D01*
X78901975Y-71373497D01*
X78901978Y-71373498D01*
X78945031Y-71377909D01*
X78999600Y-71383500D01*
X79900400Y-71383500D01*
X79903646Y-71383163D01*
X79903650Y-71383163D01*
X79999308Y-71373238D01*
X79999312Y-71373237D01*
X80006166Y-71372526D01*
X80012702Y-71370345D01*
X80012704Y-71370345D01*
X80144806Y-71326272D01*
X80173946Y-71316550D01*
X80324348Y-71223478D01*
X80449305Y-71098303D01*
X80542115Y-70947738D01*
X80597797Y-70779861D01*
X80608500Y-70675400D01*
X80608500Y-69789594D01*
X80628502Y-69721473D01*
X80645401Y-69700503D01*
X81183206Y-69162698D01*
X81245517Y-69128674D01*
X81316333Y-69133739D01*
X81373168Y-69176286D01*
X81397979Y-69242806D01*
X81397644Y-69264634D01*
X81391500Y-69324600D01*
X81391500Y-70675400D01*
X81391837Y-70678646D01*
X81391837Y-70678650D01*
X81393619Y-70695819D01*
X81402474Y-70781166D01*
X81458450Y-70948946D01*
X81551522Y-71099348D01*
X81676697Y-71224305D01*
X81682927Y-71228145D01*
X81682928Y-71228146D01*
X81820090Y-71312694D01*
X81827262Y-71317115D01*
X81907005Y-71343564D01*
X81988611Y-71370632D01*
X81988613Y-71370632D01*
X81995139Y-71372797D01*
X82001975Y-71373497D01*
X82001978Y-71373498D01*
X82045031Y-71377909D01*
X82099600Y-71383500D01*
X82985406Y-71383500D01*
X83053527Y-71403502D01*
X83074501Y-71420405D01*
X83246343Y-71592247D01*
X83253887Y-71600537D01*
X83258000Y-71607018D01*
X83263777Y-71612443D01*
X83307667Y-71653658D01*
X83310509Y-71656413D01*
X83330230Y-71676134D01*
X83333425Y-71678612D01*
X83342447Y-71686318D01*
X83374679Y-71716586D01*
X83381628Y-71720406D01*
X83392432Y-71726346D01*
X83408956Y-71737199D01*
X83424959Y-71749613D01*
X83465543Y-71767176D01*
X83476173Y-71772383D01*
X83514940Y-71793695D01*
X83522617Y-71795666D01*
X83522622Y-71795668D01*
X83534558Y-71798732D01*
X83553266Y-71805137D01*
X83571855Y-71813181D01*
X83579683Y-71814421D01*
X83579690Y-71814423D01*
X83615524Y-71820099D01*
X83627144Y-71822505D01*
X83662289Y-71831528D01*
X83669970Y-71833500D01*
X83690224Y-71833500D01*
X83709934Y-71835051D01*
X83729943Y-71838220D01*
X83737835Y-71837474D01*
X83773961Y-71834059D01*
X83785819Y-71833500D01*
X84081645Y-71833500D01*
X84149766Y-71853502D01*
X84191905Y-71902133D01*
X84210684Y-71869002D01*
X84273529Y-71835970D01*
X84298355Y-71833500D01*
X86621645Y-71833500D01*
X86689766Y-71853502D01*
X86736259Y-71907158D01*
X86746363Y-71977432D01*
X86716869Y-72042012D01*
X86657143Y-72080396D01*
X86632627Y-72085021D01*
X86501913Y-72096457D01*
X86496600Y-72097881D01*
X86496598Y-72097881D01*
X86286067Y-72154293D01*
X86286065Y-72154294D01*
X86280757Y-72155716D01*
X86275776Y-72158039D01*
X86275775Y-72158039D01*
X86078238Y-72250151D01*
X86078233Y-72250154D01*
X86073251Y-72252477D01*
X86023306Y-72287449D01*
X85890211Y-72380643D01*
X85890208Y-72380645D01*
X85885700Y-72383802D01*
X85723802Y-72545700D01*
X85592477Y-72733251D01*
X85590154Y-72738233D01*
X85590151Y-72738238D01*
X85574195Y-72772457D01*
X85527278Y-72825742D01*
X85459001Y-72845203D01*
X85391041Y-72824661D01*
X85345805Y-72772457D01*
X85329849Y-72738238D01*
X85329846Y-72738233D01*
X85327523Y-72733251D01*
X85196198Y-72545700D01*
X85034300Y-72383802D01*
X85029792Y-72380645D01*
X85029789Y-72380643D01*
X84896694Y-72287449D01*
X84846749Y-72252477D01*
X84841767Y-72250154D01*
X84841762Y-72250151D01*
X84644225Y-72158039D01*
X84644224Y-72158039D01*
X84639243Y-72155716D01*
X84633935Y-72154294D01*
X84633933Y-72154293D01*
X84423402Y-72097881D01*
X84423400Y-72097881D01*
X84418087Y-72096457D01*
X84287373Y-72085021D01*
X84221255Y-72059157D01*
X84189234Y-72014937D01*
X84176869Y-72042012D01*
X84117143Y-72080396D01*
X84092627Y-72085021D01*
X83961913Y-72096457D01*
X83956600Y-72097881D01*
X83956598Y-72097881D01*
X83746067Y-72154293D01*
X83746065Y-72154294D01*
X83740757Y-72155716D01*
X83735776Y-72158039D01*
X83735775Y-72158039D01*
X83538238Y-72250151D01*
X83538233Y-72250154D01*
X83533251Y-72252477D01*
X83483306Y-72287449D01*
X83350211Y-72380643D01*
X83350208Y-72380645D01*
X83345700Y-72383802D01*
X83183802Y-72545700D01*
X83052477Y-72733251D01*
X83050154Y-72738233D01*
X83050151Y-72738238D01*
X83034195Y-72772457D01*
X82987278Y-72825742D01*
X82919001Y-72845203D01*
X82851041Y-72824661D01*
X82805805Y-72772457D01*
X82789849Y-72738238D01*
X82789846Y-72738233D01*
X82787523Y-72733251D01*
X82656198Y-72545700D01*
X82494300Y-72383802D01*
X82489792Y-72380645D01*
X82489789Y-72380643D01*
X82356694Y-72287449D01*
X82306749Y-72252477D01*
X82301767Y-72250154D01*
X82301762Y-72250151D01*
X82104225Y-72158039D01*
X82104224Y-72158039D01*
X82099243Y-72155716D01*
X82093935Y-72154294D01*
X82093933Y-72154293D01*
X81883402Y-72097881D01*
X81883400Y-72097881D01*
X81878087Y-72096457D01*
X81650000Y-72076502D01*
X81421913Y-72096457D01*
X81416600Y-72097881D01*
X81416598Y-72097881D01*
X81206067Y-72154293D01*
X81206065Y-72154294D01*
X81200757Y-72155716D01*
X81195776Y-72158039D01*
X81195775Y-72158039D01*
X80998238Y-72250151D01*
X80998233Y-72250154D01*
X80993251Y-72252477D01*
X80943306Y-72287449D01*
X80810211Y-72380643D01*
X80810208Y-72380645D01*
X80805700Y-72383802D01*
X80643802Y-72545700D01*
X80512477Y-72733251D01*
X80510154Y-72738233D01*
X80510151Y-72738238D01*
X80494195Y-72772457D01*
X80447278Y-72825742D01*
X80379001Y-72845203D01*
X80311041Y-72824661D01*
X80265805Y-72772457D01*
X80249849Y-72738238D01*
X80249846Y-72738233D01*
X80247523Y-72733251D01*
X80116198Y-72545700D01*
X79954300Y-72383802D01*
X79949792Y-72380645D01*
X79949789Y-72380643D01*
X79816694Y-72287449D01*
X79766749Y-72252477D01*
X79761767Y-72250154D01*
X79761762Y-72250151D01*
X79564225Y-72158039D01*
X79564224Y-72158039D01*
X79559243Y-72155716D01*
X79553935Y-72154294D01*
X79553933Y-72154293D01*
X79343402Y-72097881D01*
X79343400Y-72097881D01*
X79338087Y-72096457D01*
X79110000Y-72076502D01*
X78881913Y-72096457D01*
X78876600Y-72097881D01*
X78876598Y-72097881D01*
X78666067Y-72154293D01*
X78666065Y-72154294D01*
X78660757Y-72155716D01*
X78655776Y-72158039D01*
X78655775Y-72158039D01*
X78458238Y-72250151D01*
X78458233Y-72250154D01*
X78453251Y-72252477D01*
X78403306Y-72287449D01*
X78270211Y-72380643D01*
X78270208Y-72380645D01*
X78265700Y-72383802D01*
X78103802Y-72545700D01*
X77972477Y-72733251D01*
X77970154Y-72738233D01*
X77970151Y-72738238D01*
X77954195Y-72772457D01*
X77907278Y-72825742D01*
X77839001Y-72845203D01*
X77771041Y-72824661D01*
X77725805Y-72772457D01*
X77709849Y-72738238D01*
X77709846Y-72738233D01*
X77707523Y-72733251D01*
X77576198Y-72545700D01*
X77414300Y-72383802D01*
X77409792Y-72380645D01*
X77409789Y-72380643D01*
X77276694Y-72287449D01*
X77226749Y-72252477D01*
X77221767Y-72250154D01*
X77221762Y-72250151D01*
X77024225Y-72158039D01*
X77024224Y-72158039D01*
X77019243Y-72155716D01*
X77013935Y-72154294D01*
X77013933Y-72154293D01*
X76803402Y-72097881D01*
X76803400Y-72097881D01*
X76798087Y-72096457D01*
X76570000Y-72076502D01*
X76341913Y-72096457D01*
X76336600Y-72097881D01*
X76336598Y-72097881D01*
X76126067Y-72154293D01*
X76126065Y-72154294D01*
X76120757Y-72155716D01*
X76115776Y-72158039D01*
X76115775Y-72158039D01*
X75918238Y-72250151D01*
X75918233Y-72250154D01*
X75913251Y-72252477D01*
X75863306Y-72287449D01*
X75730211Y-72380643D01*
X75730208Y-72380645D01*
X75725700Y-72383802D01*
X75563802Y-72545700D01*
X75432477Y-72733251D01*
X75430154Y-72738233D01*
X75430151Y-72738238D01*
X75414195Y-72772457D01*
X75367278Y-72825742D01*
X75299001Y-72845203D01*
X75231041Y-72824661D01*
X75185805Y-72772457D01*
X75169849Y-72738238D01*
X75169846Y-72738233D01*
X75167523Y-72733251D01*
X75036198Y-72545700D01*
X74874300Y-72383802D01*
X74869792Y-72380645D01*
X74869789Y-72380643D01*
X74736694Y-72287449D01*
X74686749Y-72252477D01*
X74681767Y-72250154D01*
X74681762Y-72250151D01*
X74484225Y-72158039D01*
X74484224Y-72158039D01*
X74479243Y-72155716D01*
X74473935Y-72154294D01*
X74473933Y-72154293D01*
X74263402Y-72097881D01*
X74263400Y-72097881D01*
X74258087Y-72096457D01*
X74030000Y-72076502D01*
X73801913Y-72096457D01*
X73796600Y-72097881D01*
X73796598Y-72097881D01*
X73586067Y-72154293D01*
X73586065Y-72154294D01*
X73580757Y-72155716D01*
X73575776Y-72158039D01*
X73575775Y-72158039D01*
X73378238Y-72250151D01*
X73378233Y-72250154D01*
X73373251Y-72252477D01*
X73323306Y-72287449D01*
X73190211Y-72380643D01*
X73190208Y-72380645D01*
X73185700Y-72383802D01*
X73023802Y-72545700D01*
X72892477Y-72733251D01*
X72890154Y-72738233D01*
X72890151Y-72738238D01*
X72874195Y-72772457D01*
X72827278Y-72825742D01*
X72759001Y-72845203D01*
X72691041Y-72824661D01*
X72645805Y-72772457D01*
X72629849Y-72738238D01*
X72629846Y-72738233D01*
X72627523Y-72733251D01*
X72496198Y-72545700D01*
X72334300Y-72383802D01*
X72329792Y-72380645D01*
X72329789Y-72380643D01*
X72196694Y-72287449D01*
X72146749Y-72252477D01*
X72141767Y-72250154D01*
X72141762Y-72250151D01*
X71944225Y-72158039D01*
X71944224Y-72158039D01*
X71939243Y-72155716D01*
X71933935Y-72154294D01*
X71933933Y-72154293D01*
X71723402Y-72097881D01*
X71723400Y-72097881D01*
X71718087Y-72096457D01*
X71490000Y-72076502D01*
X71261913Y-72096457D01*
X71256600Y-72097881D01*
X71256598Y-72097881D01*
X71046067Y-72154293D01*
X71046065Y-72154294D01*
X71040757Y-72155716D01*
X71035776Y-72158039D01*
X71035775Y-72158039D01*
X70838238Y-72250151D01*
X70838233Y-72250154D01*
X70833251Y-72252477D01*
X70783306Y-72287449D01*
X70650211Y-72380643D01*
X70650208Y-72380645D01*
X70645700Y-72383802D01*
X70483802Y-72545700D01*
X70352477Y-72733251D01*
X70350154Y-72738233D01*
X70350151Y-72738238D01*
X70334195Y-72772457D01*
X70255716Y-72940757D01*
X70196457Y-73161913D01*
X70176502Y-73390000D01*
X70196457Y-73618087D01*
X70255716Y-73839243D01*
X70258039Y-73844224D01*
X70258039Y-73844225D01*
X70350151Y-74041762D01*
X70350154Y-74041767D01*
X70352477Y-74046749D01*
X70483802Y-74234300D01*
X70645700Y-74396198D01*
X70650208Y-74399355D01*
X70650211Y-74399357D01*
X70691542Y-74428297D01*
X70833251Y-74527523D01*
X70838233Y-74529846D01*
X70838238Y-74529849D01*
X71008825Y-74609394D01*
X71040757Y-74624284D01*
X71046065Y-74625706D01*
X71046067Y-74625707D01*
X71256598Y-74682119D01*
X71256600Y-74682119D01*
X71261913Y-74683543D01*
X71490000Y-74703498D01*
X71718087Y-74683543D01*
X71723400Y-74682119D01*
X71723402Y-74682119D01*
X71933933Y-74625707D01*
X71933935Y-74625706D01*
X71939243Y-74624284D01*
X71971175Y-74609394D01*
X72141762Y-74529849D01*
X72141767Y-74529846D01*
X72146749Y-74527523D01*
X72288458Y-74428297D01*
X72329789Y-74399357D01*
X72329792Y-74399355D01*
X72334300Y-74396198D01*
X72496198Y-74234300D01*
X72627523Y-74046749D01*
X72629846Y-74041767D01*
X72629849Y-74041762D01*
X72645805Y-74007543D01*
X72692722Y-73954258D01*
X72760999Y-73934797D01*
X72828959Y-73955339D01*
X72874195Y-74007543D01*
X72890151Y-74041762D01*
X72890154Y-74041767D01*
X72892477Y-74046749D01*
X73023802Y-74234300D01*
X73185700Y-74396198D01*
X73190208Y-74399355D01*
X73190211Y-74399357D01*
X73231542Y-74428297D01*
X73373251Y-74527523D01*
X73378233Y-74529846D01*
X73378238Y-74529849D01*
X73548825Y-74609394D01*
X73580757Y-74624284D01*
X73586065Y-74625706D01*
X73586067Y-74625707D01*
X73796598Y-74682119D01*
X73796600Y-74682119D01*
X73801913Y-74683543D01*
X74030000Y-74703498D01*
X74258087Y-74683543D01*
X74263400Y-74682119D01*
X74263402Y-74682119D01*
X74473933Y-74625707D01*
X74473935Y-74625706D01*
X74479243Y-74624284D01*
X74511175Y-74609394D01*
X74681762Y-74529849D01*
X74681767Y-74529846D01*
X74686749Y-74527523D01*
X74828458Y-74428297D01*
X74869789Y-74399357D01*
X74869792Y-74399355D01*
X74874300Y-74396198D01*
X75036198Y-74234300D01*
X75167523Y-74046749D01*
X75169846Y-74041767D01*
X75169849Y-74041762D01*
X75185805Y-74007543D01*
X75232722Y-73954258D01*
X75300999Y-73934797D01*
X75368959Y-73955339D01*
X75414195Y-74007543D01*
X75430151Y-74041762D01*
X75430154Y-74041767D01*
X75432477Y-74046749D01*
X75563802Y-74234300D01*
X75725700Y-74396198D01*
X75730208Y-74399355D01*
X75730211Y-74399357D01*
X75771542Y-74428297D01*
X75913251Y-74527523D01*
X75918233Y-74529846D01*
X75918238Y-74529849D01*
X76088825Y-74609394D01*
X76120757Y-74624284D01*
X76126065Y-74625706D01*
X76126067Y-74625707D01*
X76336598Y-74682119D01*
X76336600Y-74682119D01*
X76341913Y-74683543D01*
X76570000Y-74703498D01*
X76798087Y-74683543D01*
X76803400Y-74682119D01*
X76803402Y-74682119D01*
X77013933Y-74625707D01*
X77013935Y-74625706D01*
X77019243Y-74624284D01*
X77051175Y-74609394D01*
X77221762Y-74529849D01*
X77221767Y-74529846D01*
X77226749Y-74527523D01*
X77368458Y-74428297D01*
X77409789Y-74399357D01*
X77409792Y-74399355D01*
X77414300Y-74396198D01*
X77576198Y-74234300D01*
X77707523Y-74046749D01*
X77709846Y-74041767D01*
X77709849Y-74041762D01*
X77725805Y-74007543D01*
X77772722Y-73954258D01*
X77840999Y-73934797D01*
X77908959Y-73955339D01*
X77954195Y-74007543D01*
X77970151Y-74041762D01*
X77970154Y-74041767D01*
X77972477Y-74046749D01*
X78103802Y-74234300D01*
X78265700Y-74396198D01*
X78270208Y-74399355D01*
X78270211Y-74399357D01*
X78311542Y-74428297D01*
X78453251Y-74527523D01*
X78458233Y-74529846D01*
X78458238Y-74529849D01*
X78628825Y-74609394D01*
X78660757Y-74624284D01*
X78666065Y-74625706D01*
X78666067Y-74625707D01*
X78876598Y-74682119D01*
X78876600Y-74682119D01*
X78881913Y-74683543D01*
X79110000Y-74703498D01*
X79115475Y-74703019D01*
X79115486Y-74703019D01*
X79127430Y-74701974D01*
X79197035Y-74715962D01*
X79248027Y-74765361D01*
X79264218Y-74834487D01*
X79240466Y-74901393D01*
X79227507Y-74916589D01*
X71822745Y-82321350D01*
X64431304Y-89712791D01*
X64423018Y-89720331D01*
X64416539Y-89724443D01*
X64411114Y-89730220D01*
X64369914Y-89774094D01*
X64367159Y-89776936D01*
X64347422Y-89796673D01*
X64344942Y-89799870D01*
X64337239Y-89808890D01*
X64306971Y-89841122D01*
X64303152Y-89848068D01*
X64303150Y-89848071D01*
X64297209Y-89858877D01*
X64286358Y-89875396D01*
X64273943Y-89891402D01*
X64270798Y-89898671D01*
X64270795Y-89898675D01*
X64256383Y-89931980D01*
X64251166Y-89942630D01*
X64229862Y-89981383D01*
X64227891Y-89989058D01*
X64227891Y-89989059D01*
X64224824Y-90001005D01*
X64218420Y-90019709D01*
X64216230Y-90024771D01*
X64210376Y-90038298D01*
X64209137Y-90046121D01*
X64209134Y-90046131D01*
X64203458Y-90081967D01*
X64201052Y-90093587D01*
X64190057Y-90136413D01*
X64190057Y-90156667D01*
X64188506Y-90176377D01*
X64185337Y-90196386D01*
X63508500Y-90196386D01*
X63508500Y-69000000D01*
X65386526Y-69000000D01*
X65406391Y-69252403D01*
X65407545Y-69257210D01*
X65407546Y-69257216D01*
X65422944Y-69321352D01*
X65465495Y-69498591D01*
X65467388Y-69503162D01*
X65467389Y-69503164D01*
X65557816Y-69721473D01*
X65562384Y-69732502D01*
X65694672Y-69948376D01*
X65822722Y-70098303D01*
X65848985Y-70129052D01*
X65859102Y-70140898D01*
X66051624Y-70305328D01*
X66267498Y-70437616D01*
X66272068Y-70439509D01*
X66272072Y-70439511D01*
X66493886Y-70531389D01*
X66501409Y-70534505D01*
X66551364Y-70546498D01*
X66742784Y-70592454D01*
X66742790Y-70592455D01*
X66747597Y-70593609D01*
X66831647Y-70600224D01*
X66934345Y-70608307D01*
X66934352Y-70608307D01*
X66936801Y-70608500D01*
X67063199Y-70608500D01*
X67065648Y-70608307D01*
X67065655Y-70608307D01*
X67168353Y-70600224D01*
X67252403Y-70593609D01*
X67257210Y-70592455D01*
X67257216Y-70592454D01*
X67448636Y-70546498D01*
X67498591Y-70534505D01*
X67506114Y-70531389D01*
X67727928Y-70439511D01*
X67727932Y-70439509D01*
X67732502Y-70437616D01*
X67948376Y-70305328D01*
X68140898Y-70140898D01*
X68151016Y-70129052D01*
X68177278Y-70098303D01*
X68305328Y-69948376D01*
X68437616Y-69732502D01*
X68442185Y-69721473D01*
X68532611Y-69503164D01*
X68532612Y-69503162D01*
X68534505Y-69498591D01*
X68577056Y-69321352D01*
X68592454Y-69257216D01*
X68592455Y-69257210D01*
X68593609Y-69252403D01*
X68613474Y-69000000D01*
X68593609Y-68747597D01*
X68592152Y-68741525D01*
X68543941Y-68540713D01*
X68534505Y-68501409D01*
X68498216Y-68413799D01*
X68439511Y-68272072D01*
X68439509Y-68272068D01*
X68437616Y-68267498D01*
X68305328Y-68051624D01*
X68140898Y-67859102D01*
X67948376Y-67694672D01*
X67732502Y-67562384D01*
X67727932Y-67560491D01*
X67727928Y-67560489D01*
X67503164Y-67467389D01*
X67503162Y-67467388D01*
X67498591Y-67465495D01*
X67382112Y-67437531D01*
X67257216Y-67407546D01*
X67257210Y-67407545D01*
X67252403Y-67406391D01*
X67152584Y-67398535D01*
X67065655Y-67391693D01*
X67065648Y-67391693D01*
X67063199Y-67391500D01*
X66936801Y-67391500D01*
X66934352Y-67391693D01*
X66934345Y-67391693D01*
X66847416Y-67398535D01*
X66747597Y-67406391D01*
X66742790Y-67407545D01*
X66742784Y-67407546D01*
X66617888Y-67437531D01*
X66501409Y-67465495D01*
X66496838Y-67467388D01*
X66496836Y-67467389D01*
X66272072Y-67560489D01*
X66272068Y-67560491D01*
X66267498Y-67562384D01*
X66051624Y-67694672D01*
X65859102Y-67859102D01*
X65694672Y-68051624D01*
X65562384Y-68267498D01*
X65560491Y-68272068D01*
X65560489Y-68272072D01*
X65501784Y-68413799D01*
X65465495Y-68501409D01*
X65456059Y-68540713D01*
X65407849Y-68741525D01*
X65406391Y-68747597D01*
X65386526Y-69000000D01*
X63508500Y-69000000D01*
X63508500Y-65634500D01*
X63528502Y-65566379D01*
X63582158Y-65519886D01*
X63634500Y-65508500D01*
X130365500Y-65508500D01*
X130433621Y-65528502D01*
G37*
%TD.AperFunction*%
%TA.AperFunction,Conductor*%
G36*
X81358458Y-74666540D02*
G01*
X81421913Y-74683543D01*
X81650000Y-74703498D01*
X81655475Y-74703019D01*
X81655486Y-74703019D01*
X81667430Y-74701974D01*
X81737035Y-74715962D01*
X81788027Y-74765361D01*
X81804218Y-74834487D01*
X81780466Y-74901393D01*
X81767507Y-74916589D01*
X74471799Y-82212296D01*
X67242747Y-89441348D01*
X67234461Y-89448888D01*
X67227982Y-89453000D01*
X67222557Y-89458777D01*
X67181357Y-89502651D01*
X67178602Y-89505493D01*
X67158865Y-89525230D01*
X67156385Y-89528427D01*
X67148682Y-89537447D01*
X67118414Y-89569679D01*
X67114595Y-89576625D01*
X67114593Y-89576628D01*
X67108652Y-89587434D01*
X67097801Y-89603953D01*
X67085386Y-89619959D01*
X67082241Y-89627228D01*
X67082238Y-89627232D01*
X67067826Y-89660537D01*
X67062609Y-89671187D01*
X67041305Y-89709940D01*
X67039334Y-89717615D01*
X67039334Y-89717616D01*
X67036267Y-89729562D01*
X67029863Y-89748266D01*
X67021819Y-89766855D01*
X67020580Y-89774678D01*
X67020577Y-89774688D01*
X67014901Y-89810524D01*
X67012495Y-89822144D01*
X67008165Y-89839010D01*
X67001500Y-89864970D01*
X67001500Y-89885224D01*
X66999949Y-89904934D01*
X66996780Y-89924943D01*
X66997526Y-89932835D01*
X67000941Y-89968961D01*
X67001500Y-89980819D01*
X67001500Y-100032760D01*
X66981498Y-100100881D01*
X66927842Y-100147374D01*
X66857568Y-100157478D01*
X66833440Y-100151533D01*
X66812959Y-100144280D01*
X66802988Y-100141646D01*
X66731837Y-100128972D01*
X66718540Y-100130432D01*
X66714000Y-100144989D01*
X66714000Y-101588000D01*
X66693998Y-101656121D01*
X66640342Y-101702614D01*
X66588000Y-101714000D01*
X66332000Y-101714000D01*
X66263879Y-101693998D01*
X66217386Y-101640342D01*
X66206000Y-101588000D01*
X66206000Y-100143102D01*
X66202082Y-100129758D01*
X66187806Y-100127771D01*
X66149324Y-100133660D01*
X66139288Y-100136051D01*
X65936868Y-100202212D01*
X65927359Y-100206209D01*
X65738463Y-100304542D01*
X65729738Y-100310036D01*
X65658710Y-100363366D01*
X65592225Y-100388272D01*
X65522830Y-100373280D01*
X65472556Y-100323149D01*
X65457057Y-100262606D01*
X65457057Y-90531037D01*
X65477059Y-90462916D01*
X65493962Y-90441942D01*
X81236753Y-74699152D01*
X81299065Y-74665126D01*
X81358458Y-74666540D01*
G37*
%TD.AperFunction*%
%TD*%
M02*
