%TF.GenerationSoftware,KiCad,Pcbnew,(6.0.6-0)*%
%TF.CreationDate,2022-07-04T00:08:46+08:00*%
%TF.ProjectId,__,8cc82e6b-6963-4616-945f-706362585858,rev?*%
%TF.SameCoordinates,Original*%
%TF.FileFunction,Legend,Top*%
%TF.FilePolarity,Positive*%
%FSLAX46Y46*%
G04 Gerber Fmt 4.6, Leading zero omitted, Abs format (unit mm)*
G04 Created by KiCad (PCBNEW (6.0.6-0)) date 2022-07-04 00:08:46*
%MOMM*%
%LPD*%
G01*
G04 APERTURE LIST*
%ADD10C,0.150000*%
%ADD11C,0.120000*%
G04 APERTURE END LIST*
D10*
X72261904Y-79647380D02*
X72261904Y-80456904D01*
X72309523Y-80552142D01*
X72357142Y-80599761D01*
X72452380Y-80647380D01*
X72642857Y-80647380D01*
X72738095Y-80599761D01*
X72785714Y-80552142D01*
X72833333Y-80456904D01*
X72833333Y-79647380D01*
X73261904Y-80599761D02*
X73404761Y-80647380D01*
X73642857Y-80647380D01*
X73738095Y-80599761D01*
X73785714Y-80552142D01*
X73833333Y-80456904D01*
X73833333Y-80361666D01*
X73785714Y-80266428D01*
X73738095Y-80218809D01*
X73642857Y-80171190D01*
X73452380Y-80123571D01*
X73357142Y-80075952D01*
X73309523Y-80028333D01*
X73261904Y-79933095D01*
X73261904Y-79837857D01*
X73309523Y-79742619D01*
X73357142Y-79695000D01*
X73452380Y-79647380D01*
X73690476Y-79647380D01*
X73833333Y-79695000D01*
X74595238Y-80123571D02*
X74738095Y-80171190D01*
X74785714Y-80218809D01*
X74833333Y-80314047D01*
X74833333Y-80456904D01*
X74785714Y-80552142D01*
X74738095Y-80599761D01*
X74642857Y-80647380D01*
X74261904Y-80647380D01*
X74261904Y-79647380D01*
X74595238Y-79647380D01*
X74690476Y-79695000D01*
X74738095Y-79742619D01*
X74785714Y-79837857D01*
X74785714Y-79933095D01*
X74738095Y-80028333D01*
X74690476Y-80075952D01*
X74595238Y-80123571D01*
X74261904Y-80123571D01*
X75119047Y-79742619D02*
X76357142Y-79742619D01*
X75595238Y-80171190D02*
X76261904Y-80171190D01*
X75547619Y-80647380D02*
X76309523Y-80647380D01*
X75404761Y-80028333D02*
X75404761Y-80647380D01*
X75928571Y-79837857D02*
X75928571Y-80647380D01*
X75642857Y-79504523D02*
X75404761Y-80028333D01*
X75119047Y-80218809D01*
X76642857Y-79790238D02*
X77833333Y-79790238D01*
X76976190Y-80123571D02*
X77738095Y-80123571D01*
X76833333Y-80647380D02*
X77833333Y-80647380D01*
X77357142Y-80123571D02*
X77357142Y-80647380D01*
X77071428Y-79552142D02*
X76976190Y-80075952D01*
X76785714Y-80409285D01*
X76595238Y-80599761D01*
X69261904Y-81257380D02*
X69261904Y-82066904D01*
X69309523Y-82162142D01*
X69357142Y-82209761D01*
X69452380Y-82257380D01*
X69642857Y-82257380D01*
X69738095Y-82209761D01*
X69785714Y-82162142D01*
X69833333Y-82066904D01*
X69833333Y-81257380D01*
X70261904Y-82209761D02*
X70404761Y-82257380D01*
X70642857Y-82257380D01*
X70738095Y-82209761D01*
X70785714Y-82162142D01*
X70833333Y-82066904D01*
X70833333Y-81971666D01*
X70785714Y-81876428D01*
X70738095Y-81828809D01*
X70642857Y-81781190D01*
X70452380Y-81733571D01*
X70357142Y-81685952D01*
X70309523Y-81638333D01*
X70261904Y-81543095D01*
X70261904Y-81447857D01*
X70309523Y-81352619D01*
X70357142Y-81305000D01*
X70452380Y-81257380D01*
X70690476Y-81257380D01*
X70833333Y-81305000D01*
X71595238Y-81733571D02*
X71738095Y-81781190D01*
X71785714Y-81828809D01*
X71833333Y-81924047D01*
X71833333Y-82066904D01*
X71785714Y-82162142D01*
X71738095Y-82209761D01*
X71642857Y-82257380D01*
X71261904Y-82257380D01*
X71261904Y-81257380D01*
X71595238Y-81257380D01*
X71690476Y-81305000D01*
X71738095Y-81352619D01*
X71785714Y-81447857D01*
X71785714Y-81543095D01*
X71738095Y-81638333D01*
X71690476Y-81685952D01*
X71595238Y-81733571D01*
X71261904Y-81733571D01*
X73166666Y-82257380D02*
X73071428Y-82209761D01*
X73023809Y-82162142D01*
X72976190Y-82066904D01*
X72976190Y-81781190D01*
X73023809Y-81685952D01*
X73071428Y-81638333D01*
X73166666Y-81590714D01*
X73309523Y-81590714D01*
X73404761Y-81638333D01*
X73452380Y-81685952D01*
X73500000Y-81781190D01*
X73500000Y-82066904D01*
X73452380Y-82162142D01*
X73404761Y-82209761D01*
X73309523Y-82257380D01*
X73166666Y-82257380D01*
X73928571Y-81590714D02*
X73928571Y-82257380D01*
X73928571Y-81685952D02*
X73976190Y-81638333D01*
X74071428Y-81590714D01*
X74214285Y-81590714D01*
X74309523Y-81638333D01*
X74357142Y-81733571D01*
X74357142Y-82257380D01*
X75452380Y-81590714D02*
X75833333Y-81590714D01*
X75595238Y-81257380D02*
X75595238Y-82114523D01*
X75642857Y-82209761D01*
X75738095Y-82257380D01*
X75833333Y-82257380D01*
X76166666Y-82257380D02*
X76166666Y-81257380D01*
X76595238Y-82257380D02*
X76595238Y-81733571D01*
X76547619Y-81638333D01*
X76452380Y-81590714D01*
X76309523Y-81590714D01*
X76214285Y-81638333D01*
X76166666Y-81685952D01*
X77452380Y-82209761D02*
X77357142Y-82257380D01*
X77166666Y-82257380D01*
X77071428Y-82209761D01*
X77023809Y-82114523D01*
X77023809Y-81733571D01*
X77071428Y-81638333D01*
X77166666Y-81590714D01*
X77357142Y-81590714D01*
X77452380Y-81638333D01*
X77500000Y-81733571D01*
X77500000Y-81828809D01*
X77023809Y-81924047D01*
X78833333Y-82257380D02*
X78738095Y-82209761D01*
X78690476Y-82114523D01*
X78690476Y-81257380D01*
X79595238Y-82209761D02*
X79500000Y-82257380D01*
X79309523Y-82257380D01*
X79214285Y-82209761D01*
X79166666Y-82114523D01*
X79166666Y-81733571D01*
X79214285Y-81638333D01*
X79309523Y-81590714D01*
X79500000Y-81590714D01*
X79595238Y-81638333D01*
X79642857Y-81733571D01*
X79642857Y-81828809D01*
X79166666Y-81924047D01*
X79928571Y-81590714D02*
X80309523Y-81590714D01*
X80071428Y-82257380D02*
X80071428Y-81400238D01*
X80119047Y-81305000D01*
X80214285Y-81257380D01*
X80309523Y-81257380D01*
X80500000Y-81590714D02*
X80880952Y-81590714D01*
X80642857Y-81257380D02*
X80642857Y-82114523D01*
X80690476Y-82209761D01*
X80785714Y-82257380D01*
X80880952Y-82257380D01*
X66571428Y-92222428D02*
X67000000Y-92222428D01*
X66285714Y-92308142D02*
X66514285Y-92308142D01*
X66542857Y-92422428D02*
X67028571Y-92422428D01*
X66542857Y-92536714D02*
X67028571Y-92536714D01*
X66314285Y-92822428D02*
X66428571Y-92822428D01*
X66428571Y-92136714D02*
X66428571Y-92822428D01*
X66800000Y-92136714D02*
X66800000Y-92251000D01*
X66914285Y-92251000D02*
X66885714Y-92393857D01*
X66685714Y-92279571D02*
X66714285Y-92422428D01*
X66628571Y-92679571D01*
X67000000Y-92822428D01*
X66514285Y-92508142D02*
X66285714Y-92565285D01*
X66914285Y-92536714D02*
X66857142Y-92679571D01*
X66800000Y-92736714D01*
X66542857Y-92822428D01*
X67714285Y-92336714D02*
X67914285Y-92336714D01*
X67200000Y-92422428D02*
X67485714Y-92422428D01*
X67200000Y-92508142D02*
X67514285Y-92508142D01*
X67285714Y-92622428D02*
X67514285Y-92622428D01*
X67200000Y-92622428D02*
X67457142Y-92622428D01*
X67600000Y-92793857D02*
X67885714Y-92793857D01*
X67200000Y-92165285D02*
X67200000Y-92393857D01*
X67285714Y-92251000D02*
X67285714Y-92336714D01*
X67285714Y-92679571D02*
X67314285Y-92793857D01*
X67342857Y-92165285D02*
X67342857Y-92622428D01*
X67200000Y-92165285D02*
X67485714Y-92165285D01*
X67485714Y-92393857D01*
X67600000Y-92508142D02*
X67600000Y-92822428D01*
X67714285Y-92136714D02*
X67714285Y-92508142D01*
X67600000Y-92508142D02*
X67885714Y-92508142D01*
X67885714Y-92822428D01*
X67485714Y-92679571D02*
X67514285Y-92765285D01*
X67371428Y-92679571D02*
X67428571Y-92793857D01*
X67428571Y-92251000D02*
X67400000Y-92365285D01*
X67200000Y-92708142D02*
X67200000Y-92822428D01*
X68057142Y-92279571D02*
X68800000Y-92279571D01*
X68342857Y-92536714D02*
X68742857Y-92536714D01*
X68314285Y-92822428D02*
X68771428Y-92822428D01*
X68228571Y-92451000D02*
X68228571Y-92822428D01*
X68542857Y-92336714D02*
X68542857Y-92822428D01*
X68371428Y-92136714D02*
X68228571Y-92451000D01*
X68057142Y-92565285D01*
X68971428Y-92308142D02*
X69685714Y-92308142D01*
X69171428Y-92508142D02*
X69628571Y-92508142D01*
X69085714Y-92822428D02*
X69685714Y-92822428D01*
X69400000Y-92508142D02*
X69400000Y-92822428D01*
X69228571Y-92165285D02*
X69171428Y-92479571D01*
X69057142Y-92679571D01*
X68942857Y-92793857D01*
X65985714Y-93731285D02*
X65957142Y-93759857D01*
X65871428Y-93788428D01*
X65814285Y-93788428D01*
X65728571Y-93759857D01*
X65671428Y-93702714D01*
X65642857Y-93645571D01*
X65614285Y-93531285D01*
X65614285Y-93445571D01*
X65642857Y-93331285D01*
X65671428Y-93274142D01*
X65728571Y-93217000D01*
X65814285Y-93188428D01*
X65871428Y-93188428D01*
X65957142Y-93217000D01*
X65985714Y-93245571D01*
X66328571Y-93788428D02*
X66271428Y-93759857D01*
X66242857Y-93731285D01*
X66214285Y-93674142D01*
X66214285Y-93502714D01*
X66242857Y-93445571D01*
X66271428Y-93417000D01*
X66328571Y-93388428D01*
X66414285Y-93388428D01*
X66471428Y-93417000D01*
X66500000Y-93445571D01*
X66528571Y-93502714D01*
X66528571Y-93674142D01*
X66500000Y-93731285D01*
X66471428Y-93759857D01*
X66414285Y-93788428D01*
X66328571Y-93788428D01*
X66785714Y-93388428D02*
X66785714Y-93788428D01*
X66785714Y-93445571D02*
X66814285Y-93417000D01*
X66871428Y-93388428D01*
X66957142Y-93388428D01*
X67014285Y-93417000D01*
X67042857Y-93474142D01*
X67042857Y-93788428D01*
X67328571Y-93388428D02*
X67328571Y-93788428D01*
X67328571Y-93445571D02*
X67357142Y-93417000D01*
X67414285Y-93388428D01*
X67500000Y-93388428D01*
X67557142Y-93417000D01*
X67585714Y-93474142D01*
X67585714Y-93788428D01*
X68100000Y-93759857D02*
X68042857Y-93788428D01*
X67928571Y-93788428D01*
X67871428Y-93759857D01*
X67842857Y-93702714D01*
X67842857Y-93474142D01*
X67871428Y-93417000D01*
X67928571Y-93388428D01*
X68042857Y-93388428D01*
X68100000Y-93417000D01*
X68128571Y-93474142D01*
X68128571Y-93531285D01*
X67842857Y-93588428D01*
X68642857Y-93759857D02*
X68585714Y-93788428D01*
X68471428Y-93788428D01*
X68414285Y-93759857D01*
X68385714Y-93731285D01*
X68357142Y-93674142D01*
X68357142Y-93502714D01*
X68385714Y-93445571D01*
X68414285Y-93417000D01*
X68471428Y-93388428D01*
X68585714Y-93388428D01*
X68642857Y-93417000D01*
X68814285Y-93388428D02*
X69042857Y-93388428D01*
X68900000Y-93188428D02*
X68900000Y-93702714D01*
X68928571Y-93759857D01*
X68985714Y-93788428D01*
X69042857Y-93788428D01*
X69328571Y-93788428D02*
X69271428Y-93759857D01*
X69242857Y-93731285D01*
X69214285Y-93674142D01*
X69214285Y-93502714D01*
X69242857Y-93445571D01*
X69271428Y-93417000D01*
X69328571Y-93388428D01*
X69414285Y-93388428D01*
X69471428Y-93417000D01*
X69500000Y-93445571D01*
X69528571Y-93502714D01*
X69528571Y-93674142D01*
X69500000Y-93731285D01*
X69471428Y-93759857D01*
X69414285Y-93788428D01*
X69328571Y-93788428D01*
X69785714Y-93788428D02*
X69785714Y-93388428D01*
X69785714Y-93502714D02*
X69814285Y-93445571D01*
X69842857Y-93417000D01*
X69900000Y-93388428D01*
X69957142Y-93388428D01*
X70128571Y-93759857D02*
X70185714Y-93788428D01*
X70300000Y-93788428D01*
X70357142Y-93759857D01*
X70385714Y-93702714D01*
X70385714Y-93674142D01*
X70357142Y-93617000D01*
X70300000Y-93588428D01*
X70214285Y-93588428D01*
X70157142Y-93559857D01*
X70128571Y-93502714D01*
X70128571Y-93474142D01*
X70157142Y-93417000D01*
X70214285Y-93388428D01*
X70300000Y-93388428D01*
X70357142Y-93417000D01*
X66528571Y-94754428D02*
X66471428Y-94725857D01*
X66442857Y-94697285D01*
X66414285Y-94640142D01*
X66414285Y-94468714D01*
X66442857Y-94411571D01*
X66471428Y-94383000D01*
X66528571Y-94354428D01*
X66614285Y-94354428D01*
X66671428Y-94383000D01*
X66700000Y-94411571D01*
X66728571Y-94468714D01*
X66728571Y-94640142D01*
X66700000Y-94697285D01*
X66671428Y-94725857D01*
X66614285Y-94754428D01*
X66528571Y-94754428D01*
X66985714Y-94354428D02*
X66985714Y-94754428D01*
X66985714Y-94411571D02*
X67014285Y-94383000D01*
X67071428Y-94354428D01*
X67157142Y-94354428D01*
X67214285Y-94383000D01*
X67242857Y-94440142D01*
X67242857Y-94754428D01*
X67900000Y-94354428D02*
X68128571Y-94354428D01*
X67985714Y-94154428D02*
X67985714Y-94668714D01*
X68014285Y-94725857D01*
X68071428Y-94754428D01*
X68128571Y-94754428D01*
X68328571Y-94754428D02*
X68328571Y-94154428D01*
X68585714Y-94754428D02*
X68585714Y-94440142D01*
X68557142Y-94383000D01*
X68500000Y-94354428D01*
X68414285Y-94354428D01*
X68357142Y-94383000D01*
X68328571Y-94411571D01*
X69100000Y-94725857D02*
X69042857Y-94754428D01*
X68928571Y-94754428D01*
X68871428Y-94725857D01*
X68842857Y-94668714D01*
X68842857Y-94440142D01*
X68871428Y-94383000D01*
X68928571Y-94354428D01*
X69042857Y-94354428D01*
X69100000Y-94383000D01*
X69128571Y-94440142D01*
X69128571Y-94497285D01*
X68842857Y-94554428D01*
X67471428Y-95720428D02*
X67414285Y-95691857D01*
X67385714Y-95634714D01*
X67385714Y-95120428D01*
X67928571Y-95691857D02*
X67871428Y-95720428D01*
X67757142Y-95720428D01*
X67700000Y-95691857D01*
X67671428Y-95634714D01*
X67671428Y-95406142D01*
X67700000Y-95349000D01*
X67757142Y-95320428D01*
X67871428Y-95320428D01*
X67928571Y-95349000D01*
X67957142Y-95406142D01*
X67957142Y-95463285D01*
X67671428Y-95520428D01*
X68128571Y-95320428D02*
X68357142Y-95320428D01*
X68214285Y-95720428D02*
X68214285Y-95206142D01*
X68242857Y-95149000D01*
X68300000Y-95120428D01*
X68357142Y-95120428D01*
X68471428Y-95320428D02*
X68700000Y-95320428D01*
X68557142Y-95120428D02*
X68557142Y-95634714D01*
X68585714Y-95691857D01*
X68642857Y-95720428D01*
X68700000Y-95720428D01*
X73642857Y-110785714D02*
X73642857Y-111595238D01*
X73595238Y-111690476D01*
X73547619Y-111738095D01*
X73452380Y-111785714D01*
X73309523Y-111785714D01*
X73214285Y-111738095D01*
X73642857Y-111404761D02*
X73547619Y-111452380D01*
X73357142Y-111452380D01*
X73261904Y-111404761D01*
X73214285Y-111357142D01*
X73166666Y-111261904D01*
X73166666Y-110976190D01*
X73214285Y-110880952D01*
X73261904Y-110833333D01*
X73357142Y-110785714D01*
X73547619Y-110785714D01*
X73642857Y-110833333D01*
X74119047Y-111452380D02*
X74119047Y-110785714D01*
X74119047Y-110452380D02*
X74071428Y-110500000D01*
X74119047Y-110547619D01*
X74166666Y-110500000D01*
X74119047Y-110452380D01*
X74119047Y-110547619D01*
X74452380Y-110785714D02*
X74833333Y-110785714D01*
X74595238Y-110452380D02*
X74595238Y-111309523D01*
X74642857Y-111404761D01*
X74738095Y-111452380D01*
X74833333Y-111452380D01*
X75166666Y-111452380D02*
X75166666Y-110452380D01*
X75595238Y-111452380D02*
X75595238Y-110928571D01*
X75547619Y-110833333D01*
X75452380Y-110785714D01*
X75309523Y-110785714D01*
X75214285Y-110833333D01*
X75166666Y-110880952D01*
X76500000Y-110785714D02*
X76500000Y-111452380D01*
X76071428Y-110785714D02*
X76071428Y-111309523D01*
X76119047Y-111404761D01*
X76214285Y-111452380D01*
X76357142Y-111452380D01*
X76452380Y-111404761D01*
X76500000Y-111357142D01*
X76976190Y-111452380D02*
X76976190Y-110452380D01*
X76976190Y-110833333D02*
X77071428Y-110785714D01*
X77261904Y-110785714D01*
X77357142Y-110833333D01*
X77404761Y-110880952D01*
X77452380Y-110976190D01*
X77452380Y-111261904D01*
X77404761Y-111357142D01*
X77357142Y-111404761D01*
X77261904Y-111452380D01*
X77071428Y-111452380D01*
X76976190Y-111404761D01*
X77880952Y-111357142D02*
X77928571Y-111404761D01*
X77880952Y-111452380D01*
X77833333Y-111404761D01*
X77880952Y-111357142D01*
X77880952Y-111452380D01*
X78785714Y-111404761D02*
X78690476Y-111452380D01*
X78500000Y-111452380D01*
X78404761Y-111404761D01*
X78357142Y-111357142D01*
X78309523Y-111261904D01*
X78309523Y-110976190D01*
X78357142Y-110880952D01*
X78404761Y-110833333D01*
X78500000Y-110785714D01*
X78690476Y-110785714D01*
X78785714Y-110833333D01*
X79357142Y-111452380D02*
X79261904Y-111404761D01*
X79214285Y-111357142D01*
X79166666Y-111261904D01*
X79166666Y-110976190D01*
X79214285Y-110880952D01*
X79261904Y-110833333D01*
X79357142Y-110785714D01*
X79500000Y-110785714D01*
X79595238Y-110833333D01*
X79642857Y-110880952D01*
X79690476Y-110976190D01*
X79690476Y-111261904D01*
X79642857Y-111357142D01*
X79595238Y-111404761D01*
X79500000Y-111452380D01*
X79357142Y-111452380D01*
X80119047Y-111452380D02*
X80119047Y-110785714D01*
X80119047Y-110880952D02*
X80166666Y-110833333D01*
X80261904Y-110785714D01*
X80404761Y-110785714D01*
X80500000Y-110833333D01*
X80547619Y-110928571D01*
X80547619Y-111452380D01*
X80547619Y-110928571D02*
X80595238Y-110833333D01*
X80690476Y-110785714D01*
X80833333Y-110785714D01*
X80928571Y-110833333D01*
X80976190Y-110928571D01*
X80976190Y-111452380D01*
X82166666Y-110404761D02*
X81309523Y-111690476D01*
X82452380Y-111404761D02*
X82595238Y-111452380D01*
X82833333Y-111452380D01*
X82928571Y-111404761D01*
X82976190Y-111357142D01*
X83023809Y-111261904D01*
X83023809Y-111166666D01*
X82976190Y-111071428D01*
X82928571Y-111023809D01*
X82833333Y-110976190D01*
X82642857Y-110928571D01*
X82547619Y-110880952D01*
X82500000Y-110833333D01*
X82452380Y-110738095D01*
X82452380Y-110642857D01*
X82500000Y-110547619D01*
X82547619Y-110500000D01*
X82642857Y-110452380D01*
X82880952Y-110452380D01*
X83023809Y-110500000D01*
X83880952Y-111452380D02*
X83880952Y-110928571D01*
X83833333Y-110833333D01*
X83738095Y-110785714D01*
X83547619Y-110785714D01*
X83452380Y-110833333D01*
X83880952Y-111404761D02*
X83785714Y-111452380D01*
X83547619Y-111452380D01*
X83452380Y-111404761D01*
X83404761Y-111309523D01*
X83404761Y-111214285D01*
X83452380Y-111119047D01*
X83547619Y-111071428D01*
X83785714Y-111071428D01*
X83880952Y-111023809D01*
X84357142Y-111452380D02*
X84357142Y-110785714D01*
X84357142Y-110880952D02*
X84404761Y-110833333D01*
X84500000Y-110785714D01*
X84642857Y-110785714D01*
X84738095Y-110833333D01*
X84785714Y-110928571D01*
X84785714Y-111452380D01*
X84785714Y-110928571D02*
X84833333Y-110833333D01*
X84928571Y-110785714D01*
X85071428Y-110785714D01*
X85166666Y-110833333D01*
X85214285Y-110928571D01*
X85214285Y-111452380D01*
X85595238Y-110452380D02*
X85833333Y-111452380D01*
X86023809Y-110738095D01*
X86214285Y-111452380D01*
X86452380Y-110452380D01*
X87261904Y-111452380D02*
X87261904Y-110928571D01*
X87214285Y-110833333D01*
X87119047Y-110785714D01*
X86928571Y-110785714D01*
X86833333Y-110833333D01*
X87261904Y-111404761D02*
X87166666Y-111452380D01*
X86928571Y-111452380D01*
X86833333Y-111404761D01*
X86785714Y-111309523D01*
X86785714Y-111214285D01*
X86833333Y-111119047D01*
X86928571Y-111071428D01*
X87166666Y-111071428D01*
X87261904Y-111023809D01*
X87738095Y-110785714D02*
X87738095Y-111452380D01*
X87738095Y-110880952D02*
X87785714Y-110833333D01*
X87880952Y-110785714D01*
X88023809Y-110785714D01*
X88119047Y-110833333D01*
X88166666Y-110928571D01*
X88166666Y-111452380D01*
X89071428Y-110785714D02*
X89071428Y-111595238D01*
X89023809Y-111690476D01*
X88976190Y-111738095D01*
X88880952Y-111785714D01*
X88738095Y-111785714D01*
X88642857Y-111738095D01*
X89071428Y-111404761D02*
X88976190Y-111452380D01*
X88785714Y-111452380D01*
X88690476Y-111404761D01*
X88642857Y-111357142D01*
X88595238Y-111261904D01*
X88595238Y-110976190D01*
X88642857Y-110880952D01*
X88690476Y-110833333D01*
X88785714Y-110785714D01*
X88976190Y-110785714D01*
X89071428Y-110833333D01*
X89690476Y-110880952D02*
X89595238Y-110833333D01*
X89547619Y-110785714D01*
X89500000Y-110690476D01*
X89500000Y-110642857D01*
X89547619Y-110547619D01*
X89595238Y-110500000D01*
X89690476Y-110452380D01*
X89880952Y-110452380D01*
X89976190Y-110500000D01*
X90023809Y-110547619D01*
X90071428Y-110642857D01*
X90071428Y-110690476D01*
X90023809Y-110785714D01*
X89976190Y-110833333D01*
X89880952Y-110880952D01*
X89690476Y-110880952D01*
X89595238Y-110928571D01*
X89547619Y-110976190D01*
X89500000Y-111071428D01*
X89500000Y-111261904D01*
X89547619Y-111357142D01*
X89595238Y-111404761D01*
X89690476Y-111452380D01*
X89880952Y-111452380D01*
X89976190Y-111404761D01*
X90023809Y-111357142D01*
X90071428Y-111261904D01*
X90071428Y-111071428D01*
X90023809Y-110976190D01*
X89976190Y-110928571D01*
X89880952Y-110880952D01*
X90642857Y-110880952D02*
X90547619Y-110833333D01*
X90500000Y-110785714D01*
X90452380Y-110690476D01*
X90452380Y-110642857D01*
X90500000Y-110547619D01*
X90547619Y-110500000D01*
X90642857Y-110452380D01*
X90833333Y-110452380D01*
X90928571Y-110500000D01*
X90976190Y-110547619D01*
X91023809Y-110642857D01*
X91023809Y-110690476D01*
X90976190Y-110785714D01*
X90928571Y-110833333D01*
X90833333Y-110880952D01*
X90642857Y-110880952D01*
X90547619Y-110928571D01*
X90500000Y-110976190D01*
X90452380Y-111071428D01*
X90452380Y-111261904D01*
X90500000Y-111357142D01*
X90547619Y-111404761D01*
X90642857Y-111452380D01*
X90833333Y-111452380D01*
X90928571Y-111404761D01*
X90976190Y-111357142D01*
X91023809Y-111261904D01*
X91023809Y-111071428D01*
X90976190Y-110976190D01*
X90928571Y-110928571D01*
X90833333Y-110880952D01*
X91500000Y-111452380D02*
X91690476Y-111452380D01*
X91785714Y-111404761D01*
X91833333Y-111357142D01*
X91928571Y-111214285D01*
X91976190Y-111023809D01*
X91976190Y-110642857D01*
X91928571Y-110547619D01*
X91880952Y-110500000D01*
X91785714Y-110452380D01*
X91595238Y-110452380D01*
X91500000Y-110500000D01*
X91452380Y-110547619D01*
X91404761Y-110642857D01*
X91404761Y-110880952D01*
X91452380Y-110976190D01*
X91500000Y-111023809D01*
X91595238Y-111071428D01*
X91785714Y-111071428D01*
X91880952Y-111023809D01*
X91928571Y-110976190D01*
X91976190Y-110880952D01*
X92928571Y-111452380D02*
X92357142Y-111452380D01*
X92642857Y-111452380D02*
X92642857Y-110452380D01*
X92547619Y-110595238D01*
X92452380Y-110690476D01*
X92357142Y-110738095D01*
X93214285Y-110452380D02*
X93785714Y-110452380D01*
X93500000Y-111452380D02*
X93500000Y-110452380D01*
X94023809Y-110452380D02*
X94261904Y-111452380D01*
X94452380Y-110738095D01*
X94642857Y-111452380D01*
X94880952Y-110452380D01*
%TO.C,M2*%
X85190476Y-102252380D02*
X85190476Y-101252380D01*
X85523809Y-101966666D01*
X85857142Y-101252380D01*
X85857142Y-102252380D01*
X86285714Y-101347619D02*
X86333333Y-101300000D01*
X86428571Y-101252380D01*
X86666666Y-101252380D01*
X86761904Y-101300000D01*
X86809523Y-101347619D01*
X86857142Y-101442857D01*
X86857142Y-101538095D01*
X86809523Y-101680952D01*
X86238095Y-102252380D01*
X86857142Y-102252380D01*
%TO.C,H2_GND*%
X89333333Y-94054380D02*
X89333333Y-93054380D01*
X89333333Y-93530571D02*
X89904761Y-93530571D01*
X89904761Y-94054380D02*
X89904761Y-93054380D01*
X90333333Y-93149619D02*
X90380952Y-93102000D01*
X90476190Y-93054380D01*
X90714285Y-93054380D01*
X90809523Y-93102000D01*
X90857142Y-93149619D01*
X90904761Y-93244857D01*
X90904761Y-93340095D01*
X90857142Y-93482952D01*
X90285714Y-94054380D01*
X90904761Y-94054380D01*
X91095238Y-94149619D02*
X91857142Y-94149619D01*
X92619047Y-93102000D02*
X92523809Y-93054380D01*
X92380952Y-93054380D01*
X92238095Y-93102000D01*
X92142857Y-93197238D01*
X92095238Y-93292476D01*
X92047619Y-93482952D01*
X92047619Y-93625809D01*
X92095238Y-93816285D01*
X92142857Y-93911523D01*
X92238095Y-94006761D01*
X92380952Y-94054380D01*
X92476190Y-94054380D01*
X92619047Y-94006761D01*
X92666666Y-93959142D01*
X92666666Y-93625809D01*
X92476190Y-93625809D01*
X93095238Y-94054380D02*
X93095238Y-93054380D01*
X93666666Y-94054380D01*
X93666666Y-93054380D01*
X94142857Y-94054380D02*
X94142857Y-93054380D01*
X94380952Y-93054380D01*
X94523809Y-93102000D01*
X94619047Y-93197238D01*
X94666666Y-93292476D01*
X94714285Y-93482952D01*
X94714285Y-93625809D01*
X94666666Y-93816285D01*
X94619047Y-93911523D01*
X94523809Y-94006761D01*
X94380952Y-94054380D01*
X94142857Y-94054380D01*
%TO.C,J4_LIGHT*%
X124238095Y-111452380D02*
X124238095Y-112166666D01*
X124190476Y-112309523D01*
X124095238Y-112404761D01*
X123952380Y-112452380D01*
X123857142Y-112452380D01*
X125142857Y-111785714D02*
X125142857Y-112452380D01*
X124904761Y-111404761D02*
X124666666Y-112119047D01*
X125285714Y-112119047D01*
X125428571Y-112547619D02*
X126190476Y-112547619D01*
X126904761Y-112452380D02*
X126428571Y-112452380D01*
X126428571Y-111452380D01*
X127238095Y-112452380D02*
X127238095Y-111452380D01*
X128238095Y-111500000D02*
X128142857Y-111452380D01*
X128000000Y-111452380D01*
X127857142Y-111500000D01*
X127761904Y-111595238D01*
X127714285Y-111690476D01*
X127666666Y-111880952D01*
X127666666Y-112023809D01*
X127714285Y-112214285D01*
X127761904Y-112309523D01*
X127857142Y-112404761D01*
X128000000Y-112452380D01*
X128095238Y-112452380D01*
X128238095Y-112404761D01*
X128285714Y-112357142D01*
X128285714Y-112023809D01*
X128095238Y-112023809D01*
X128714285Y-112452380D02*
X128714285Y-111452380D01*
X128714285Y-111928571D02*
X129285714Y-111928571D01*
X129285714Y-112452380D02*
X129285714Y-111452380D01*
X129619047Y-111452380D02*
X130190476Y-111452380D01*
X129904761Y-112452380D02*
X129904761Y-111452380D01*
%TO.C,J2_BUTTON*%
X106452380Y-66452380D02*
X106452380Y-67166666D01*
X106404761Y-67309523D01*
X106309523Y-67404761D01*
X106166666Y-67452380D01*
X106071428Y-67452380D01*
X106880952Y-66547619D02*
X106928571Y-66500000D01*
X107023809Y-66452380D01*
X107261904Y-66452380D01*
X107357142Y-66500000D01*
X107404761Y-66547619D01*
X107452380Y-66642857D01*
X107452380Y-66738095D01*
X107404761Y-66880952D01*
X106833333Y-67452380D01*
X107452380Y-67452380D01*
X107642857Y-67547619D02*
X108404761Y-67547619D01*
X108976190Y-66928571D02*
X109119047Y-66976190D01*
X109166666Y-67023809D01*
X109214285Y-67119047D01*
X109214285Y-67261904D01*
X109166666Y-67357142D01*
X109119047Y-67404761D01*
X109023809Y-67452380D01*
X108642857Y-67452380D01*
X108642857Y-66452380D01*
X108976190Y-66452380D01*
X109071428Y-66500000D01*
X109119047Y-66547619D01*
X109166666Y-66642857D01*
X109166666Y-66738095D01*
X109119047Y-66833333D01*
X109071428Y-66880952D01*
X108976190Y-66928571D01*
X108642857Y-66928571D01*
X109642857Y-66452380D02*
X109642857Y-67261904D01*
X109690476Y-67357142D01*
X109738095Y-67404761D01*
X109833333Y-67452380D01*
X110023809Y-67452380D01*
X110119047Y-67404761D01*
X110166666Y-67357142D01*
X110214285Y-67261904D01*
X110214285Y-66452380D01*
X110547619Y-66452380D02*
X111119047Y-66452380D01*
X110833333Y-67452380D02*
X110833333Y-66452380D01*
X111309523Y-66452380D02*
X111880952Y-66452380D01*
X111595238Y-67452380D02*
X111595238Y-66452380D01*
X112404761Y-66452380D02*
X112595238Y-66452380D01*
X112690476Y-66500000D01*
X112785714Y-66595238D01*
X112833333Y-66785714D01*
X112833333Y-67119047D01*
X112785714Y-67309523D01*
X112690476Y-67404761D01*
X112595238Y-67452380D01*
X112404761Y-67452380D01*
X112309523Y-67404761D01*
X112214285Y-67309523D01*
X112166666Y-67119047D01*
X112166666Y-66785714D01*
X112214285Y-66595238D01*
X112309523Y-66500000D01*
X112404761Y-66452380D01*
X113261904Y-67452380D02*
X113261904Y-66452380D01*
X113833333Y-67452380D01*
X113833333Y-66452380D01*
%TO.C,Arduino1*%
X65166666Y-84071428D02*
X65166666Y-83595238D01*
X65452380Y-84166666D02*
X64452380Y-83833333D01*
X65452380Y-83500000D01*
X65452380Y-83166666D02*
X64785714Y-83166666D01*
X64976190Y-83166666D02*
X64880952Y-83119047D01*
X64833333Y-83071428D01*
X64785714Y-82976190D01*
X64785714Y-82880952D01*
X65452380Y-82119047D02*
X64452380Y-82119047D01*
X65404761Y-82119047D02*
X65452380Y-82214285D01*
X65452380Y-82404761D01*
X65404761Y-82500000D01*
X65357142Y-82547619D01*
X65261904Y-82595238D01*
X64976190Y-82595238D01*
X64880952Y-82547619D01*
X64833333Y-82500000D01*
X64785714Y-82404761D01*
X64785714Y-82214285D01*
X64833333Y-82119047D01*
X64785714Y-81214285D02*
X65452380Y-81214285D01*
X64785714Y-81642857D02*
X65309523Y-81642857D01*
X65404761Y-81595238D01*
X65452380Y-81500000D01*
X65452380Y-81357142D01*
X65404761Y-81261904D01*
X65357142Y-81214285D01*
X65452380Y-80738095D02*
X64785714Y-80738095D01*
X64452380Y-80738095D02*
X64500000Y-80785714D01*
X64547619Y-80738095D01*
X64500000Y-80690476D01*
X64452380Y-80738095D01*
X64547619Y-80738095D01*
X64785714Y-80261904D02*
X65452380Y-80261904D01*
X64880952Y-80261904D02*
X64833333Y-80214285D01*
X64785714Y-80119047D01*
X64785714Y-79976190D01*
X64833333Y-79880952D01*
X64928571Y-79833333D01*
X65452380Y-79833333D01*
X65452380Y-79214285D02*
X65404761Y-79309523D01*
X65357142Y-79357142D01*
X65261904Y-79404761D01*
X64976190Y-79404761D01*
X64880952Y-79357142D01*
X64833333Y-79309523D01*
X64785714Y-79214285D01*
X64785714Y-79071428D01*
X64833333Y-78976190D01*
X64880952Y-78928571D01*
X64976190Y-78880952D01*
X65261904Y-78880952D01*
X65357142Y-78928571D01*
X65404761Y-78976190D01*
X65452380Y-79071428D01*
X65452380Y-79214285D01*
X65452380Y-77928571D02*
X65452380Y-78500000D01*
X65452380Y-78214285D02*
X64452380Y-78214285D01*
X64595238Y-78309523D01*
X64690476Y-78404761D01*
X64738095Y-78500000D01*
%TO.C,TR1*%
X122738095Y-98452380D02*
X123309523Y-98452380D01*
X123023809Y-99452380D02*
X123023809Y-98452380D01*
X124214285Y-99452380D02*
X123880952Y-98976190D01*
X123642857Y-99452380D02*
X123642857Y-98452380D01*
X124023809Y-98452380D01*
X124119047Y-98500000D01*
X124166666Y-98547619D01*
X124214285Y-98642857D01*
X124214285Y-98785714D01*
X124166666Y-98880952D01*
X124119047Y-98928571D01*
X124023809Y-98976190D01*
X123642857Y-98976190D01*
X125166666Y-99452380D02*
X124595238Y-99452380D01*
X124880952Y-99452380D02*
X124880952Y-98452380D01*
X124785714Y-98595238D01*
X124690476Y-98690476D01*
X124595238Y-98738095D01*
%TO.C,K2*%
X117169404Y-112609880D02*
X117169404Y-111609880D01*
X117740833Y-112609880D02*
X117312261Y-112038452D01*
X117740833Y-111609880D02*
X117169404Y-112181309D01*
X118121785Y-111705119D02*
X118169404Y-111657500D01*
X118264642Y-111609880D01*
X118502738Y-111609880D01*
X118597976Y-111657500D01*
X118645595Y-111705119D01*
X118693214Y-111800357D01*
X118693214Y-111895595D01*
X118645595Y-112038452D01*
X118074166Y-112609880D01*
X118693214Y-112609880D01*
%TO.C,R7*%
X76833333Y-109272380D02*
X76500000Y-108796190D01*
X76261904Y-109272380D02*
X76261904Y-108272380D01*
X76642857Y-108272380D01*
X76738095Y-108320000D01*
X76785714Y-108367619D01*
X76833333Y-108462857D01*
X76833333Y-108605714D01*
X76785714Y-108700952D01*
X76738095Y-108748571D01*
X76642857Y-108796190D01*
X76261904Y-108796190D01*
X77166666Y-108272380D02*
X77833333Y-108272380D01*
X77404761Y-109272380D01*
%TO.C,M2*%
X71190476Y-69452380D02*
X71190476Y-68452380D01*
X71523809Y-69166666D01*
X71857142Y-68452380D01*
X71857142Y-69452380D01*
X72285714Y-68547619D02*
X72333333Y-68500000D01*
X72428571Y-68452380D01*
X72666666Y-68452380D01*
X72761904Y-68500000D01*
X72809523Y-68547619D01*
X72857142Y-68642857D01*
X72857142Y-68738095D01*
X72809523Y-68880952D01*
X72238095Y-69452380D01*
X72857142Y-69452380D01*
X88190476Y-78252380D02*
X88190476Y-77252380D01*
X88523809Y-77966666D01*
X88857142Y-77252380D01*
X88857142Y-78252380D01*
X89285714Y-77347619D02*
X89333333Y-77300000D01*
X89428571Y-77252380D01*
X89666666Y-77252380D01*
X89761904Y-77300000D01*
X89809523Y-77347619D01*
X89857142Y-77442857D01*
X89857142Y-77538095D01*
X89809523Y-77680952D01*
X89238095Y-78252380D01*
X89857142Y-78252380D01*
%TO.C,Q1*%
X76634761Y-99107619D02*
X76539523Y-99060000D01*
X76444285Y-98964761D01*
X76301428Y-98821904D01*
X76206190Y-98774285D01*
X76110952Y-98774285D01*
X76158571Y-99012380D02*
X76063333Y-98964761D01*
X75968095Y-98869523D01*
X75920476Y-98679047D01*
X75920476Y-98345714D01*
X75968095Y-98155238D01*
X76063333Y-98060000D01*
X76158571Y-98012380D01*
X76349047Y-98012380D01*
X76444285Y-98060000D01*
X76539523Y-98155238D01*
X76587142Y-98345714D01*
X76587142Y-98679047D01*
X76539523Y-98869523D01*
X76444285Y-98964761D01*
X76349047Y-99012380D01*
X76158571Y-99012380D01*
X77539523Y-99012380D02*
X76968095Y-99012380D01*
X77253809Y-99012380D02*
X77253809Y-98012380D01*
X77158571Y-98155238D01*
X77063333Y-98250476D01*
X76968095Y-98298095D01*
%TO.C,H1_SIG*%
X79642857Y-94054380D02*
X79642857Y-93054380D01*
X79642857Y-93530571D02*
X80214285Y-93530571D01*
X80214285Y-94054380D02*
X80214285Y-93054380D01*
X81214285Y-94054380D02*
X80642857Y-94054380D01*
X80928571Y-94054380D02*
X80928571Y-93054380D01*
X80833333Y-93197238D01*
X80738095Y-93292476D01*
X80642857Y-93340095D01*
X81404761Y-94149619D02*
X82166666Y-94149619D01*
X82357142Y-94006761D02*
X82500000Y-94054380D01*
X82738095Y-94054380D01*
X82833333Y-94006761D01*
X82880952Y-93959142D01*
X82928571Y-93863904D01*
X82928571Y-93768666D01*
X82880952Y-93673428D01*
X82833333Y-93625809D01*
X82738095Y-93578190D01*
X82547619Y-93530571D01*
X82452380Y-93482952D01*
X82404761Y-93435333D01*
X82357142Y-93340095D01*
X82357142Y-93244857D01*
X82404761Y-93149619D01*
X82452380Y-93102000D01*
X82547619Y-93054380D01*
X82785714Y-93054380D01*
X82928571Y-93102000D01*
X83357142Y-94054380D02*
X83357142Y-93054380D01*
X84357142Y-93102000D02*
X84261904Y-93054380D01*
X84119047Y-93054380D01*
X83976190Y-93102000D01*
X83880952Y-93197238D01*
X83833333Y-93292476D01*
X83785714Y-93482952D01*
X83785714Y-93625809D01*
X83833333Y-93816285D01*
X83880952Y-93911523D01*
X83976190Y-94006761D01*
X84119047Y-94054380D01*
X84214285Y-94054380D01*
X84357142Y-94006761D01*
X84404761Y-93959142D01*
X84404761Y-93625809D01*
X84214285Y-93625809D01*
%TO.C,K1*%
X97294880Y-107645595D02*
X96294880Y-107645595D01*
X97294880Y-107074166D02*
X96723452Y-107502738D01*
X96294880Y-107074166D02*
X96866309Y-107645595D01*
X97294880Y-106121785D02*
X97294880Y-106693214D01*
X97294880Y-106407500D02*
X96294880Y-106407500D01*
X96437738Y-106502738D01*
X96532976Y-106597976D01*
X96580595Y-106693214D01*
%TO.C,R6*%
X76833333Y-104452380D02*
X76500000Y-103976190D01*
X76261904Y-104452380D02*
X76261904Y-103452380D01*
X76642857Y-103452380D01*
X76738095Y-103500000D01*
X76785714Y-103547619D01*
X76833333Y-103642857D01*
X76833333Y-103785714D01*
X76785714Y-103880952D01*
X76738095Y-103928571D01*
X76642857Y-103976190D01*
X76261904Y-103976190D01*
X77690476Y-103452380D02*
X77500000Y-103452380D01*
X77404761Y-103500000D01*
X77357142Y-103547619D01*
X77261904Y-103690476D01*
X77214285Y-103880952D01*
X77214285Y-104261904D01*
X77261904Y-104357142D01*
X77309523Y-104404761D01*
X77404761Y-104452380D01*
X77595238Y-104452380D01*
X77690476Y-104404761D01*
X77738095Y-104357142D01*
X77785714Y-104261904D01*
X77785714Y-104023809D01*
X77738095Y-103928571D01*
X77690476Y-103880952D01*
X77595238Y-103833333D01*
X77404761Y-103833333D01*
X77309523Y-103880952D01*
X77261904Y-103928571D01*
X77214285Y-104023809D01*
%TO.C,J3_2.4G*%
X65325238Y-97452380D02*
X65325238Y-98166666D01*
X65277619Y-98309523D01*
X65182380Y-98404761D01*
X65039523Y-98452380D01*
X64944285Y-98452380D01*
X65706190Y-97452380D02*
X66325238Y-97452380D01*
X65991904Y-97833333D01*
X66134761Y-97833333D01*
X66230000Y-97880952D01*
X66277619Y-97928571D01*
X66325238Y-98023809D01*
X66325238Y-98261904D01*
X66277619Y-98357142D01*
X66230000Y-98404761D01*
X66134761Y-98452380D01*
X65849047Y-98452380D01*
X65753809Y-98404761D01*
X65706190Y-98357142D01*
X66515714Y-98547619D02*
X67277619Y-98547619D01*
X67468095Y-97547619D02*
X67515714Y-97500000D01*
X67610952Y-97452380D01*
X67849047Y-97452380D01*
X67944285Y-97500000D01*
X67991904Y-97547619D01*
X68039523Y-97642857D01*
X68039523Y-97738095D01*
X67991904Y-97880952D01*
X67420476Y-98452380D01*
X68039523Y-98452380D01*
X68468095Y-98357142D02*
X68515714Y-98404761D01*
X68468095Y-98452380D01*
X68420476Y-98404761D01*
X68468095Y-98357142D01*
X68468095Y-98452380D01*
X69372857Y-97785714D02*
X69372857Y-98452380D01*
X69134761Y-97404761D02*
X68896666Y-98119047D01*
X69515714Y-98119047D01*
X70420476Y-97500000D02*
X70325238Y-97452380D01*
X70182380Y-97452380D01*
X70039523Y-97500000D01*
X69944285Y-97595238D01*
X69896666Y-97690476D01*
X69849047Y-97880952D01*
X69849047Y-98023809D01*
X69896666Y-98214285D01*
X69944285Y-98309523D01*
X70039523Y-98404761D01*
X70182380Y-98452380D01*
X70277619Y-98452380D01*
X70420476Y-98404761D01*
X70468095Y-98357142D01*
X70468095Y-98023809D01*
X70277619Y-98023809D01*
%TO.C,H3_BAT*%
X84547619Y-92452380D02*
X84547619Y-91452380D01*
X84547619Y-91928571D02*
X85119047Y-91928571D01*
X85119047Y-92452380D02*
X85119047Y-91452380D01*
X85500000Y-91452380D02*
X86119047Y-91452380D01*
X85785714Y-91833333D01*
X85928571Y-91833333D01*
X86023809Y-91880952D01*
X86071428Y-91928571D01*
X86119047Y-92023809D01*
X86119047Y-92261904D01*
X86071428Y-92357142D01*
X86023809Y-92404761D01*
X85928571Y-92452380D01*
X85642857Y-92452380D01*
X85547619Y-92404761D01*
X85500000Y-92357142D01*
X86309523Y-92547619D02*
X87071428Y-92547619D01*
X87642857Y-91928571D02*
X87785714Y-91976190D01*
X87833333Y-92023809D01*
X87880952Y-92119047D01*
X87880952Y-92261904D01*
X87833333Y-92357142D01*
X87785714Y-92404761D01*
X87690476Y-92452380D01*
X87309523Y-92452380D01*
X87309523Y-91452380D01*
X87642857Y-91452380D01*
X87738095Y-91500000D01*
X87785714Y-91547619D01*
X87833333Y-91642857D01*
X87833333Y-91738095D01*
X87785714Y-91833333D01*
X87738095Y-91880952D01*
X87642857Y-91928571D01*
X87309523Y-91928571D01*
X88261904Y-92166666D02*
X88738095Y-92166666D01*
X88166666Y-92452380D02*
X88500000Y-91452380D01*
X88833333Y-92452380D01*
X89023809Y-91452380D02*
X89595238Y-91452380D01*
X89309523Y-92452380D02*
X89309523Y-91452380D01*
%TO.C,J1_LED*%
X86928571Y-70452380D02*
X86928571Y-71166666D01*
X86880952Y-71309523D01*
X86785714Y-71404761D01*
X86642857Y-71452380D01*
X86547619Y-71452380D01*
X87928571Y-71452380D02*
X87357142Y-71452380D01*
X87642857Y-71452380D02*
X87642857Y-70452380D01*
X87547619Y-70595238D01*
X87452380Y-70690476D01*
X87357142Y-70738095D01*
X88119047Y-71547619D02*
X88880952Y-71547619D01*
X89595238Y-71452380D02*
X89119047Y-71452380D01*
X89119047Y-70452380D01*
X89928571Y-70928571D02*
X90261904Y-70928571D01*
X90404761Y-71452380D02*
X89928571Y-71452380D01*
X89928571Y-70452380D01*
X90404761Y-70452380D01*
X90833333Y-71452380D02*
X90833333Y-70452380D01*
X91071428Y-70452380D01*
X91214285Y-70500000D01*
X91309523Y-70595238D01*
X91357142Y-70690476D01*
X91404761Y-70880952D01*
X91404761Y-71023809D01*
X91357142Y-71214285D01*
X91309523Y-71309523D01*
X91214285Y-71404761D01*
X91071428Y-71452380D01*
X90833333Y-71452380D01*
%TO.C,K3*%
X97294880Y-98645595D02*
X96294880Y-98645595D01*
X97294880Y-98074166D02*
X96723452Y-98502738D01*
X96294880Y-98074166D02*
X96866309Y-98645595D01*
X96294880Y-97740833D02*
X96294880Y-97121785D01*
X96675833Y-97455119D01*
X96675833Y-97312261D01*
X96723452Y-97217023D01*
X96771071Y-97169404D01*
X96866309Y-97121785D01*
X97104404Y-97121785D01*
X97199642Y-97169404D01*
X97247261Y-97217023D01*
X97294880Y-97312261D01*
X97294880Y-97597976D01*
X97247261Y-97693214D01*
X97199642Y-97740833D01*
%TO.C,M2*%
X119190476Y-74252380D02*
X119190476Y-73252380D01*
X119523809Y-73966666D01*
X119857142Y-73252380D01*
X119857142Y-74252380D01*
X120285714Y-73347619D02*
X120333333Y-73300000D01*
X120428571Y-73252380D01*
X120666666Y-73252380D01*
X120761904Y-73300000D01*
X120809523Y-73347619D01*
X120857142Y-73442857D01*
X120857142Y-73538095D01*
X120809523Y-73680952D01*
X120238095Y-74252380D01*
X120857142Y-74252380D01*
D11*
%TO.C,H2_GND*%
X93750000Y-96000000D02*
G75*
G03*
X93750000Y-96000000I-1750000J0D01*
G01*
%TO.C,J4_LIGHT*%
X125670000Y-101460000D02*
X125670000Y-100130000D01*
X125670000Y-102730000D02*
X125670000Y-110410000D01*
X125670000Y-100130000D02*
X127000000Y-100130000D01*
X128330000Y-102730000D02*
X128330000Y-110410000D01*
X125670000Y-102730000D02*
X128330000Y-102730000D01*
X125670000Y-110410000D02*
X128330000Y-110410000D01*
%TO.C,J2_BUTTON*%
X104000000Y-67670000D02*
X105330000Y-67670000D01*
X102730000Y-67670000D02*
X100130000Y-67670000D01*
X100130000Y-67670000D02*
X100130000Y-70330000D01*
X102730000Y-67670000D02*
X102730000Y-70330000D01*
X105330000Y-67670000D02*
X105330000Y-69000000D01*
X102730000Y-70330000D02*
X100130000Y-70330000D01*
%TO.C,Arduino1*%
X70220000Y-74660000D02*
X70220000Y-71990000D01*
X110990000Y-90030000D02*
X110990000Y-71990000D01*
X67550000Y-71990000D02*
X67550000Y-90030000D01*
X105780000Y-74660000D02*
X70220000Y-74660000D01*
X105780000Y-74660000D02*
X105780000Y-71990000D01*
X105780000Y-71990000D02*
X67550000Y-71990000D01*
X105780000Y-74660000D02*
X108320000Y-74660000D01*
X108320000Y-87360000D02*
X108320000Y-90030000D01*
X108320000Y-87360000D02*
X70220000Y-87360000D01*
X110990000Y-71990000D02*
X108320000Y-71990000D01*
X70220000Y-87360000D02*
X70220000Y-90030000D01*
X108320000Y-74660000D02*
X108320000Y-71990000D01*
X67550000Y-90030000D02*
X110990000Y-90030000D01*
%TO.C,TR1*%
X112400000Y-67950000D02*
X129600000Y-67950000D01*
X129600000Y-67950000D02*
X129600000Y-98050000D01*
X129600000Y-98050000D02*
X112400000Y-98050000D01*
X112400000Y-98050000D02*
X112400000Y-67950000D01*
%TO.C,K2*%
X114007500Y-98557500D02*
X121807500Y-98557500D01*
X122007500Y-109357500D02*
X122007500Y-111457500D01*
X122007500Y-111457500D02*
X119807500Y-111457500D01*
X118985500Y-106147500D02*
X118985500Y-105131500D01*
X117461500Y-106147500D02*
X118096500Y-105131500D01*
X121807500Y-98557500D02*
X121807500Y-111257500D01*
X119645500Y-106274500D02*
X119645500Y-105639500D01*
X114007500Y-111257500D02*
X114007500Y-98557500D01*
X116445500Y-106274500D02*
X116445500Y-105639500D01*
X117080500Y-106147500D02*
X117080500Y-105131500D01*
X116445500Y-105639500D02*
X117080500Y-105639500D01*
X118985500Y-105131500D02*
X117080500Y-105131500D01*
X121807500Y-111257500D02*
X114007500Y-111257500D01*
X119645500Y-105639500D02*
X118985500Y-105639500D01*
X117080500Y-106147500D02*
X118985500Y-106147500D01*
%TO.C,R7*%
X77727064Y-106090000D02*
X76272936Y-106090000D01*
X77727064Y-107910000D02*
X76272936Y-107910000D01*
%TO.C,Q1*%
X78530000Y-93150000D02*
X74930000Y-93150000D01*
X74891522Y-93161522D02*
G75*
G03*
X76730000Y-97600000I1838478J-1838478D01*
G01*
X76730000Y-97600001D02*
G75*
G03*
X78568478Y-93161522I0J2600001D01*
G01*
%TO.C,H1_SIG*%
X83750000Y-96000000D02*
G75*
G03*
X83750000Y-96000000I-1750000J0D01*
G01*
%TO.C,K1*%
X99642500Y-111007500D02*
X97542500Y-111007500D01*
X102852500Y-106080500D02*
X103868500Y-106080500D01*
X110442500Y-103007500D02*
X110442500Y-110807500D01*
X97742500Y-110807500D02*
X97742500Y-103007500D01*
X102725500Y-108645500D02*
X103360500Y-108645500D01*
X97542500Y-111007500D02*
X97542500Y-108807500D01*
X102725500Y-105445500D02*
X103360500Y-105445500D01*
X97742500Y-103007500D02*
X110442500Y-103007500D01*
X102852500Y-107985500D02*
X103868500Y-107985500D01*
X110442500Y-110807500D02*
X97742500Y-110807500D01*
X103360500Y-105445500D02*
X103360500Y-106080500D01*
X103868500Y-107985500D02*
X103868500Y-106080500D01*
X103360500Y-108645500D02*
X103360500Y-107985500D01*
X102852500Y-106080500D02*
X102852500Y-107985500D01*
X102852500Y-106461500D02*
X103868500Y-107096500D01*
%TO.C,R6*%
X76272936Y-101090000D02*
X77727064Y-101090000D01*
X76272936Y-102910000D02*
X77727064Y-102910000D01*
%TO.C,J3_2.4G*%
X65130000Y-110410000D02*
X65130000Y-100130000D01*
X70330000Y-107810000D02*
X67730000Y-107810000D01*
X70330000Y-110410000D02*
X69000000Y-110410000D01*
X67730000Y-107810000D02*
X67730000Y-110410000D01*
X70330000Y-100130000D02*
X65130000Y-100130000D01*
X70330000Y-107810000D02*
X70330000Y-100130000D01*
X70330000Y-109080000D02*
X70330000Y-110410000D01*
X67730000Y-110410000D02*
X65130000Y-110410000D01*
%TO.C,H3_BAT*%
X88750000Y-96000000D02*
G75*
G03*
X88750000Y-96000000I-1750000J0D01*
G01*
%TO.C,J1_LED*%
X85195000Y-69330000D02*
X85195000Y-66670000D01*
X83925000Y-69330000D02*
X82595000Y-69330000D01*
X95415000Y-69330000D02*
X95415000Y-66670000D01*
X85195000Y-69330000D02*
X95415000Y-69330000D01*
X82595000Y-69330000D02*
X82595000Y-68000000D01*
X85195000Y-66670000D02*
X95415000Y-66670000D01*
%TO.C,K3*%
X110442500Y-94007500D02*
X110442500Y-101807500D01*
X102852500Y-97080500D02*
X102852500Y-98985500D01*
X102852500Y-98985500D02*
X103868500Y-98985500D01*
X103360500Y-96445500D02*
X103360500Y-97080500D01*
X99642500Y-102007500D02*
X97542500Y-102007500D01*
X102852500Y-97461500D02*
X103868500Y-98096500D01*
X103868500Y-98985500D02*
X103868500Y-97080500D01*
X97742500Y-101807500D02*
X97742500Y-94007500D01*
X97542500Y-102007500D02*
X97542500Y-99807500D01*
X102725500Y-99645500D02*
X103360500Y-99645500D01*
X102852500Y-97080500D02*
X103868500Y-97080500D01*
X102725500Y-96445500D02*
X103360500Y-96445500D01*
X110442500Y-101807500D02*
X97742500Y-101807500D01*
X103360500Y-99645500D02*
X103360500Y-98985500D01*
X97742500Y-94007500D02*
X110442500Y-94007500D01*
%TD*%
M02*
