%TF.GenerationSoftware,KiCad,Pcbnew,(6.0.6-0)*%
%TF.CreationDate,2022-07-04T00:08:46+08:00*%
%TF.ProjectId,__,8cc82e6b-6963-4616-945f-706362585858,rev?*%
%TF.SameCoordinates,Original*%
%TF.FileFunction,Soldermask,Top*%
%TF.FilePolarity,Negative*%
%FSLAX46Y46*%
G04 Gerber Fmt 4.6, Leading zero omitted, Abs format (unit mm)*
G04 Created by KiCad (PCBNEW (6.0.6-0)) date 2022-07-04 00:08:46*
%MOMM*%
%LPD*%
G01*
G04 APERTURE LIST*
G04 Aperture macros list*
%AMRoundRect*
0 Rectangle with rounded corners*
0 $1 Rounding radius*
0 $2 $3 $4 $5 $6 $7 $8 $9 X,Y pos of 4 corners*
0 Add a 4 corners polygon primitive as box body*
4,1,4,$2,$3,$4,$5,$6,$7,$8,$9,$2,$3,0*
0 Add four circle primitives for the rounded corners*
1,1,$1+$1,$2,$3*
1,1,$1+$1,$4,$5*
1,1,$1+$1,$6,$7*
1,1,$1+$1,$8,$9*
0 Add four rect primitives between the rounded corners*
20,1,$1+$1,$2,$3,$4,$5,0*
20,1,$1+$1,$4,$5,$6,$7,0*
20,1,$1+$1,$6,$7,$8,$9,0*
20,1,$1+$1,$8,$9,$2,$3,0*%
G04 Aperture macros list end*
%ADD10C,2.200000*%
%ADD11C,3.000000*%
%ADD12R,1.700000X1.700000*%
%ADD13O,1.700000X1.700000*%
%ADD14R,1.600000X1.600000*%
%ADD15O,1.600000X1.600000*%
%ADD16C,1.000000*%
%ADD17R,2.000000X2.000000*%
%ADD18C,2.000000*%
%ADD19RoundRect,0.250000X0.400000X0.625000X-0.400000X0.625000X-0.400000X-0.625000X0.400000X-0.625000X0*%
%ADD20R,1.050000X1.500000*%
%ADD21O,1.050000X1.500000*%
%ADD22RoundRect,0.250000X-0.400000X-0.625000X0.400000X-0.625000X0.400000X0.625000X-0.400000X0.625000X0*%
G04 APERTURE END LIST*
D10*
%TO.C,M2*%
X86000000Y-105000000D03*
%TD*%
D11*
%TO.C,H2_GND*%
X92000000Y-96000000D03*
%TD*%
D12*
%TO.C,J4_LIGHT*%
X127000000Y-101460000D03*
D13*
X127000000Y-104000000D03*
X127000000Y-106540000D03*
X127000000Y-109080000D03*
%TD*%
D12*
%TO.C,J2_BUTTON*%
X104000000Y-69000000D03*
D13*
X101460000Y-69000000D03*
%TD*%
D14*
%TO.C,Arduino1*%
X107050000Y-73390000D03*
D15*
X104510000Y-73390000D03*
X101970000Y-73390000D03*
X99430000Y-73390000D03*
X96890000Y-73390000D03*
X94350000Y-73390000D03*
X91810000Y-73390000D03*
X89270000Y-73390000D03*
X86730000Y-73390000D03*
X84190000Y-73390000D03*
X81650000Y-73390000D03*
X79110000Y-73390000D03*
X76570000Y-73390000D03*
X74030000Y-73390000D03*
X71490000Y-73390000D03*
X71490000Y-88630000D03*
X74030000Y-88630000D03*
X76570000Y-88630000D03*
X79110000Y-88630000D03*
X81650000Y-88630000D03*
X84190000Y-88630000D03*
X86730000Y-88630000D03*
X89270000Y-88630000D03*
X91810000Y-88630000D03*
X94350000Y-88630000D03*
X96890000Y-88630000D03*
X99430000Y-88630000D03*
X101970000Y-88630000D03*
X104510000Y-88630000D03*
X107050000Y-88630000D03*
%TD*%
D16*
%TO.C,TR1*%
X113800000Y-69250000D03*
X128200000Y-69250000D03*
X113800000Y-96500000D03*
X128200000Y-96500000D03*
%TD*%
D17*
%TO.C,K2*%
X120407500Y-109957500D03*
D18*
X120407500Y-107417500D03*
X120407500Y-99797500D03*
X115327500Y-99797500D03*
X115327500Y-107417500D03*
X115327500Y-109957500D03*
%TD*%
D19*
%TO.C,R7*%
X78550000Y-107000000D03*
X75450000Y-107000000D03*
%TD*%
D10*
%TO.C,M2*%
X67000000Y-69000000D03*
%TD*%
%TO.C,M2*%
X89000000Y-81000000D03*
%TD*%
D20*
%TO.C,Q1*%
X78000000Y-95000000D03*
D21*
X76730000Y-95000000D03*
X75460000Y-95000000D03*
%TD*%
D11*
%TO.C,H1_SIG*%
X82000000Y-96000000D03*
%TD*%
D17*
%TO.C,K1*%
X99042500Y-109407500D03*
D18*
X101582500Y-109407500D03*
X109202500Y-109407500D03*
X109202500Y-104327500D03*
X101582500Y-104327500D03*
X99042500Y-104327500D03*
%TD*%
D22*
%TO.C,R6*%
X75450000Y-102000000D03*
X78550000Y-102000000D03*
%TD*%
D12*
%TO.C,J3_2.4G*%
X69000000Y-109080000D03*
D13*
X66460000Y-109080000D03*
X69000000Y-106540000D03*
X66460000Y-106540000D03*
X69000000Y-104000000D03*
X66460000Y-104000000D03*
X69000000Y-101460000D03*
X66460000Y-101460000D03*
%TD*%
D11*
%TO.C,H3_BAT*%
X87000000Y-96000000D03*
%TD*%
D12*
%TO.C,J1_LED*%
X83925000Y-68000000D03*
D13*
X86465000Y-68000000D03*
X89005000Y-68000000D03*
X91545000Y-68000000D03*
X94085000Y-68000000D03*
%TD*%
D17*
%TO.C,K3*%
X99042500Y-100407500D03*
D18*
X101582500Y-100407500D03*
X109202500Y-100407500D03*
X109202500Y-95327500D03*
X101582500Y-95327500D03*
X99042500Y-95327500D03*
%TD*%
D10*
%TO.C,M2*%
X120000000Y-77000000D03*
%TD*%
M02*
