%TF.GenerationSoftware,KiCad,Pcbnew,(6.0.6-0)*%
%TF.CreationDate,2022-07-04T00:08:46+08:00*%
%TF.ProjectId,__,8cc82e6b-6963-4616-945f-706362585858,rev?*%
%TF.SameCoordinates,Original*%
%TF.FileFunction,Legend,Bot*%
%TF.FilePolarity,Positive*%
%FSLAX46Y46*%
G04 Gerber Fmt 4.6, Leading zero omitted, Abs format (unit mm)*
G04 Created by KiCad (PCBNEW (6.0.6-0)) date 2022-07-04 00:08:46*
%MOMM*%
%LPD*%
G01*
G04 APERTURE LIST*
%ADD10C,0.150000*%
%ADD11C,0.120000*%
G04 APERTURE END LIST*
D10*
%TO.C,R2*%
X96166666Y-72272380D02*
X96500000Y-71796190D01*
X96738095Y-72272380D02*
X96738095Y-71272380D01*
X96357142Y-71272380D01*
X96261904Y-71320000D01*
X96214285Y-71367619D01*
X96166666Y-71462857D01*
X96166666Y-71605714D01*
X96214285Y-71700952D01*
X96261904Y-71748571D01*
X96357142Y-71796190D01*
X96738095Y-71796190D01*
X95785714Y-71367619D02*
X95738095Y-71320000D01*
X95642857Y-71272380D01*
X95404761Y-71272380D01*
X95309523Y-71320000D01*
X95261904Y-71367619D01*
X95214285Y-71462857D01*
X95214285Y-71558095D01*
X95261904Y-71700952D01*
X95833333Y-72272380D01*
X95214285Y-72272380D01*
%TO.C,R3*%
X91166666Y-72272380D02*
X91500000Y-71796190D01*
X91738095Y-72272380D02*
X91738095Y-71272380D01*
X91357142Y-71272380D01*
X91261904Y-71320000D01*
X91214285Y-71367619D01*
X91166666Y-71462857D01*
X91166666Y-71605714D01*
X91214285Y-71700952D01*
X91261904Y-71748571D01*
X91357142Y-71796190D01*
X91738095Y-71796190D01*
X90833333Y-71272380D02*
X90214285Y-71272380D01*
X90547619Y-71653333D01*
X90404761Y-71653333D01*
X90309523Y-71700952D01*
X90261904Y-71748571D01*
X90214285Y-71843809D01*
X90214285Y-72081904D01*
X90261904Y-72177142D01*
X90309523Y-72224761D01*
X90404761Y-72272380D01*
X90690476Y-72272380D01*
X90785714Y-72224761D01*
X90833333Y-72177142D01*
%TO.C,R1*%
X109166666Y-71452380D02*
X109500000Y-70976190D01*
X109738095Y-71452380D02*
X109738095Y-70452380D01*
X109357142Y-70452380D01*
X109261904Y-70500000D01*
X109214285Y-70547619D01*
X109166666Y-70642857D01*
X109166666Y-70785714D01*
X109214285Y-70880952D01*
X109261904Y-70928571D01*
X109357142Y-70976190D01*
X109738095Y-70976190D01*
X108214285Y-71452380D02*
X108785714Y-71452380D01*
X108500000Y-71452380D02*
X108500000Y-70452380D01*
X108595238Y-70595238D01*
X108690476Y-70690476D01*
X108785714Y-70738095D01*
%TO.C,R4*%
X86166666Y-72272380D02*
X86500000Y-71796190D01*
X86738095Y-72272380D02*
X86738095Y-71272380D01*
X86357142Y-71272380D01*
X86261904Y-71320000D01*
X86214285Y-71367619D01*
X86166666Y-71462857D01*
X86166666Y-71605714D01*
X86214285Y-71700952D01*
X86261904Y-71748571D01*
X86357142Y-71796190D01*
X86738095Y-71796190D01*
X85309523Y-71605714D02*
X85309523Y-72272380D01*
X85547619Y-71224761D02*
X85785714Y-71939047D01*
X85166666Y-71939047D01*
%TO.C,R5*%
X81166666Y-72272380D02*
X81500000Y-71796190D01*
X81738095Y-72272380D02*
X81738095Y-71272380D01*
X81357142Y-71272380D01*
X81261904Y-71320000D01*
X81214285Y-71367619D01*
X81166666Y-71462857D01*
X81166666Y-71605714D01*
X81214285Y-71700952D01*
X81261904Y-71748571D01*
X81357142Y-71796190D01*
X81738095Y-71796190D01*
X80261904Y-71272380D02*
X80738095Y-71272380D01*
X80785714Y-71748571D01*
X80738095Y-71700952D01*
X80642857Y-71653333D01*
X80404761Y-71653333D01*
X80309523Y-71700952D01*
X80261904Y-71748571D01*
X80214285Y-71843809D01*
X80214285Y-72081904D01*
X80261904Y-72177142D01*
X80309523Y-72224761D01*
X80404761Y-72272380D01*
X80642857Y-72272380D01*
X80738095Y-72224761D01*
X80785714Y-72177142D01*
D11*
%TO.C,R2*%
X95272936Y-69090000D02*
X96727064Y-69090000D01*
X95272936Y-70910000D02*
X96727064Y-70910000D01*
%TO.C,R3*%
X90272936Y-69090000D02*
X91727064Y-69090000D01*
X90272936Y-70910000D02*
X91727064Y-70910000D01*
%TO.C,R1*%
X109727064Y-68090000D02*
X108272936Y-68090000D01*
X109727064Y-69910000D02*
X108272936Y-69910000D01*
%TO.C,R4*%
X85272936Y-69090000D02*
X86727064Y-69090000D01*
X85272936Y-70910000D02*
X86727064Y-70910000D01*
%TO.C,R5*%
X80272936Y-70910000D02*
X81727064Y-70910000D01*
X80272936Y-69090000D02*
X81727064Y-69090000D01*
%TD*%
M02*
