M48
; DRILL file {KiCad (6.0.6-0)} date Monday, 04 July 2022 at 11:11:14
; FORMAT={-:-/ absolute / inch / decimal}
; #@! TF.CreationDate,2022-07-04T11:11:14+08:00
; #@! TF.GenerationSoftware,Kicad,Pcbnew,(6.0.6-0)
; #@! TF.FileFunction,Plated,1,2,PTH
FMAT,2
INCH
; #@! TA.AperFunction,Plated,PTH,ViaDrill
T1C0.0157
; #@! TA.AperFunction,Plated,PTH,ComponentDrill
T2C0.0295
; #@! TA.AperFunction,Plated,PTH,ComponentDrill
T3C0.0300
; #@! TA.AperFunction,Plated,PTH,ComponentDrill
T4C0.0394
%
G90
G05
T1
X2.5984Y-2.9528
X2.7559Y-3.2677
X2.874Y-2.6772
X2.874Y-4.2126
X3.0315Y-3.622
X3.3465Y-3.189
X3.3465Y-4.2913
X3.5433Y-4.0157
X3.7402Y-3.1496
X3.7402Y-4.2913
X4.1339Y-3.622
X4.4094Y-4.0551
X4.5276Y-3.5827
X4.5669Y-2.8346
X4.6457Y-4.0551
X4.8819Y-4.252
X4.9606Y-2.9528
X4.9606Y-3.5433
T2
X2.9709Y-3.7402
X3.0209Y-3.7402
X3.0709Y-3.7402
T3
X4.4803Y-2.7264
X4.4803Y-3.7992
X5.0472Y-2.7264
X5.0472Y-3.7992
T4
X2.6165Y-3.9945
X2.6165Y-4.0945
X2.6165Y-4.1945
X2.6165Y-4.2945
X2.7165Y-3.9945
X2.7165Y-4.0945
X2.7165Y-4.1945
X2.7165Y-4.2945
X2.8146Y-2.8894
X2.8146Y-3.4894
X2.9146Y-2.8894
X2.9146Y-3.4894
X3.0146Y-2.8894
X3.0146Y-3.4894
X3.1146Y-2.8894
X3.1146Y-3.4894
X3.2146Y-2.8894
X3.2146Y-3.4894
X3.3041Y-2.6772
X3.3146Y-2.8894
X3.3146Y-3.4894
X3.4041Y-2.6772
X3.4146Y-2.8894
X3.4146Y-3.4894
X3.5041Y-2.6772
X3.5146Y-2.8894
X3.5146Y-3.4894
X3.6041Y-2.6772
X3.6146Y-2.8894
X3.6146Y-3.4894
X3.7041Y-2.6772
X3.7146Y-2.8894
X3.7146Y-3.4894
X3.8146Y-2.8894
X3.8146Y-3.4894
X3.8993Y-3.7531
X3.8993Y-3.9531
X3.8993Y-4.1074
X3.8993Y-4.3074
X3.9146Y-2.8894
X3.9146Y-3.4894
X3.9945Y-2.7165
X3.9993Y-3.7531
X3.9993Y-3.9531
X3.9993Y-4.1074
X3.9993Y-4.3074
X4.0146Y-2.8894
X4.0146Y-3.4894
X4.0945Y-2.7165
X4.1146Y-2.8894
X4.1146Y-3.4894
X4.2146Y-2.8894
X4.2146Y-3.4894
X4.2993Y-3.7531
X4.2993Y-3.9531
X4.2993Y-4.1074
X4.2993Y-4.3074
X4.5405Y-3.929
X4.5405Y-4.229
X4.5405Y-4.329
X4.7405Y-3.929
X4.7405Y-4.229
X4.7405Y-4.329
X5.0Y-3.9945
X5.0Y-4.0945
X5.0Y-4.1945
X5.0Y-4.2945
T0
M30
