%TF.GenerationSoftware,KiCad,Pcbnew,(6.0.6-0)*%
%TF.CreationDate,2022-07-04T00:10:09+08:00*%
%TF.ProjectId,test,74657374-2e6b-4696-9361-645f70636258,rev?*%
%TF.SameCoordinates,Original*%
%TF.FileFunction,Copper,L2,Bot*%
%TF.FilePolarity,Positive*%
%FSLAX46Y46*%
G04 Gerber Fmt 4.6, Leading zero omitted, Abs format (unit mm)*
G04 Created by KiCad (PCBNEW (6.0.6-0)) date 2022-07-04 00:10:09*
%MOMM*%
%LPD*%
G01*
G04 APERTURE LIST*
G04 Aperture macros list*
%AMRoundRect*
0 Rectangle with rounded corners*
0 $1 Rounding radius*
0 $2 $3 $4 $5 $6 $7 $8 $9 X,Y pos of 4 corners*
0 Add a 4 corners polygon primitive as box body*
4,1,4,$2,$3,$4,$5,$6,$7,$8,$9,$2,$3,0*
0 Add four circle primitives for the rounded corners*
1,1,$1+$1,$2,$3*
1,1,$1+$1,$4,$5*
1,1,$1+$1,$6,$7*
1,1,$1+$1,$8,$9*
0 Add four rect primitives between the rounded corners*
20,1,$1+$1,$2,$3,$4,$5,0*
20,1,$1+$1,$4,$5,$6,$7,0*
20,1,$1+$1,$6,$7,$8,$9,0*
20,1,$1+$1,$8,$9,$2,$3,0*%
G04 Aperture macros list end*
%TA.AperFunction,ComponentPad*%
%ADD10R,1.050000X1.500000*%
%TD*%
%TA.AperFunction,ComponentPad*%
%ADD11O,1.050000X1.500000*%
%TD*%
%TA.AperFunction,ComponentPad*%
%ADD12R,1.700000X1.700000*%
%TD*%
%TA.AperFunction,ComponentPad*%
%ADD13O,1.700000X1.700000*%
%TD*%
%TA.AperFunction,ComponentPad*%
%ADD14R,1.600000X1.600000*%
%TD*%
%TA.AperFunction,ComponentPad*%
%ADD15O,1.600000X1.600000*%
%TD*%
%TA.AperFunction,ComponentPad*%
%ADD16R,2.000000X2.000000*%
%TD*%
%TA.AperFunction,ComponentPad*%
%ADD17C,2.000000*%
%TD*%
%TA.AperFunction,SMDPad,CuDef*%
%ADD18RoundRect,0.250000X0.400000X0.625000X-0.400000X0.625000X-0.400000X-0.625000X0.400000X-0.625000X0*%
%TD*%
%TA.AperFunction,SMDPad,CuDef*%
%ADD19RoundRect,0.250000X-0.400000X-0.625000X0.400000X-0.625000X0.400000X0.625000X-0.400000X0.625000X0*%
%TD*%
%TA.AperFunction,ViaPad*%
%ADD20C,0.800000*%
%TD*%
%TA.AperFunction,Conductor*%
%ADD21C,0.250000*%
%TD*%
G04 APERTURE END LIST*
D10*
%TO.P,Q1,1,E*%
%TO.N,Net-(H3-Pad1)*%
X157000000Y-121000000D03*
D11*
%TO.P,Q1,2,B*%
%TO.N,Net-(Q1-Pad2)*%
X158270000Y-121000000D03*
%TO.P,Q1,3,C*%
%TO.N,Net-(Arduino1-Pad30)*%
X159540000Y-121000000D03*
%TD*%
D12*
%TO.P,J1_PWR,1,Power*%
%TO.N,Net-(H3-Pad1)*%
X167000000Y-115000000D03*
D13*
%TO.P,J1_PWR,2,Ground*%
%TO.N,Earth*%
X167000000Y-117540000D03*
%TO.P,J1_PWR,3,Charging_Signal*%
%TO.N,SIG*%
X167000000Y-120080000D03*
%TD*%
D12*
%TO.P,J2_2.4G,1,EMPTY*%
%TO.N,unconnected-(J2-Pad1)*%
X129275000Y-125800000D03*
D13*
%TO.P,J2_2.4G,2,MISO*%
%TO.N,Net-(Arduino1-Pad15)*%
X126735000Y-125800000D03*
%TO.P,J2_2.4G,3,MOSI*%
%TO.N,Net-(Arduino1-Pad14)*%
X129275000Y-123260000D03*
%TO.P,J2_2.4G,4,SCLK*%
%TO.N,Net-(Arduino1-Pad16)*%
X126735000Y-123260000D03*
%TO.P,J2_2.4G,5,CSN*%
%TO.N,Net-(Arduino1-Pad11)*%
X129275000Y-120720000D03*
%TO.P,J2_2.4G,6,CE*%
%TO.N,Net-(Arduino1-Pad10)*%
X126735000Y-120720000D03*
%TO.P,J2_2.4G,7,VCC*%
%TO.N,Net-(Arduino1-Pad17)*%
X129275000Y-118180000D03*
%TO.P,J2_2.4G,8,GND*%
%TO.N,Earth*%
X126735000Y-118180000D03*
%TD*%
D14*
%TO.P,Arduino1,1,TX*%
%TO.N,unconnected-(Arduino1-Pad1)*%
X166000000Y-95000000D03*
D15*
%TO.P,Arduino1,2,RX*%
%TO.N,unconnected-(Arduino1-Pad2)*%
X163460000Y-95000000D03*
%TO.P,Arduino1,3,RST*%
%TO.N,unconnected-(Arduino1-Pad3)*%
X160920000Y-95000000D03*
%TO.P,Arduino1,4,GND*%
%TO.N,Earth*%
X158380000Y-95000000D03*
%TO.P,Arduino1,5,D2*%
%TO.N,Net-(Arduino1-Pad5)*%
X155840000Y-95000000D03*
%TO.P,Arduino1,6,D3*%
%TO.N,Net-(Arduino1-Pad6)*%
X153300000Y-95000000D03*
%TO.P,Arduino1,7,D4*%
%TO.N,Net-(Arduino1-Pad7)*%
X150760000Y-95000000D03*
%TO.P,Arduino1,8,D5*%
%TO.N,Net-(Arduino1-Pad8)*%
X148220000Y-95000000D03*
%TO.P,Arduino1,9,D6*%
%TO.N,Net-(Arduino1-Pad9)*%
X145680000Y-95000000D03*
%TO.P,Arduino1,10,D7*%
%TO.N,Net-(Arduino1-Pad10)*%
X143140000Y-95000000D03*
%TO.P,Arduino1,11,D8*%
%TO.N,Net-(Arduino1-Pad11)*%
X140600000Y-95000000D03*
%TO.P,Arduino1,12,D9*%
%TO.N,unconnected-(Arduino1-Pad12)*%
X138060000Y-95000000D03*
%TO.P,Arduino1,13,D10(~{SS})*%
%TO.N,unconnected-(Arduino1-Pad13)*%
X135520000Y-95000000D03*
%TO.P,Arduino1,14,D11(MOSI)*%
%TO.N,Net-(Arduino1-Pad14)*%
X132980000Y-95000000D03*
%TO.P,Arduino1,15,D12(MISO)*%
%TO.N,Net-(Arduino1-Pad15)*%
X130440000Y-95000000D03*
%TO.P,Arduino1,16,D13*%
%TO.N,Net-(Arduino1-Pad16)*%
X130440000Y-110240000D03*
%TO.P,Arduino1,17,3V3*%
%TO.N,Net-(Arduino1-Pad17)*%
X132980000Y-110240000D03*
%TO.P,Arduino1,18,REF*%
%TO.N,unconnected-(Arduino1-Pad18)*%
X135520000Y-110240000D03*
%TO.P,Arduino1,19,A0*%
%TO.N,Net-(Arduino1-Pad19)*%
X138060000Y-110240000D03*
%TO.P,Arduino1,20,A1*%
%TO.N,Net-(Arduino1-Pad20)*%
X140600000Y-110240000D03*
%TO.P,Arduino1,21,A2*%
%TO.N,Net-(Arduino1-Pad21)*%
X143140000Y-110240000D03*
%TO.P,Arduino1,22,A3*%
%TO.N,Net-(Arduino1-Pad22)*%
X145680000Y-110240000D03*
%TO.P,Arduino1,23,A4*%
%TO.N,SIG*%
X148220000Y-110240000D03*
%TO.P,Arduino1,24,A5*%
%TO.N,Net-(Arduino1-Pad24)*%
X150760000Y-110240000D03*
%TO.P,Arduino1,25,A6*%
%TO.N,unconnected-(Arduino1-Pad25)*%
X153300000Y-110240000D03*
%TO.P,Arduino1,26,A7*%
%TO.N,unconnected-(Arduino1-Pad26)*%
X155840000Y-110240000D03*
%TO.P,Arduino1,27,5V*%
%TO.N,5V*%
X158380000Y-110240000D03*
%TO.P,Arduino1,28,RST*%
%TO.N,unconnected-(Arduino1-Pad28)*%
X160920000Y-110240000D03*
%TO.P,Arduino1,29,GND*%
%TO.N,Earth*%
X163460000Y-110240000D03*
%TO.P,Arduino1,30,VIN*%
%TO.N,Net-(Arduino1-Pad30)*%
X166000000Y-110240000D03*
%TD*%
D16*
%TO.P,BZ1,1,-*%
%TO.N,Net-(Arduino1-Pad5)*%
X127200000Y-87000000D03*
D17*
%TO.P,BZ1,2,+*%
%TO.N,Earth*%
X134800000Y-87000000D03*
%TD*%
D12*
%TO.P,J3_LED,1,Pin_1*%
%TO.N,Earth*%
X154350000Y-115000000D03*
D13*
%TO.P,J3_LED,2,Pin_2*%
%TO.N,Net-(J3-Pad2)*%
X151810000Y-115000000D03*
%TO.P,J3_LED,3,Pin_3*%
%TO.N,Net-(J3-Pad3)*%
X149270000Y-115000000D03*
%TO.P,J3_LED,4,Pin_4*%
%TO.N,Net-(J3-Pad4)*%
X146730000Y-115000000D03*
%TO.P,J3_LED,5,Pin_5*%
%TO.N,Net-(J3-Pad5)*%
X144190000Y-115000000D03*
%TO.P,J3_LED,6,Pin_6*%
%TO.N,Net-(J3-Pad6)*%
X141650000Y-115000000D03*
%TD*%
D12*
%TO.P,J5_BUTTON,1,Pin_1*%
%TO.N,5V*%
X147000000Y-88000000D03*
D13*
%TO.P,J5_BUTTON,2,Pin_2*%
%TO.N,Net-(Arduino1-Pad9)*%
X149540000Y-88000000D03*
%TO.P,J5_BUTTON,3,Pin_3*%
%TO.N,Net-(Arduino1-Pad8)*%
X152080000Y-88000000D03*
%TO.P,J5_BUTTON,4,Pin_4*%
%TO.N,Net-(Arduino1-Pad7)*%
X154620000Y-88000000D03*
%TO.P,J5_BUTTON,5,Pin_5*%
%TO.N,Net-(Arduino1-Pad6)*%
X157160000Y-88000000D03*
%TD*%
D18*
%TO.P,R12,1*%
%TO.N,Net-(Q1-Pad2)*%
X153545238Y-121000000D03*
%TO.P,R12,2*%
%TO.N,SIG*%
X150445238Y-121000000D03*
%TD*%
D19*
%TO.P,R11,1*%
%TO.N,Net-(Arduino1-Pad24)*%
X156450000Y-105000000D03*
%TO.P,R11,2*%
%TO.N,Earth*%
X159550000Y-105000000D03*
%TD*%
D18*
%TO.P,R10,1*%
%TO.N,Net-(J3-Pad2)*%
X161550000Y-118000000D03*
%TO.P,R10,2*%
%TO.N,SIG*%
X158450000Y-118000000D03*
%TD*%
D19*
%TO.P,R2,1*%
%TO.N,Net-(Arduino1-Pad7)*%
X155450000Y-92000000D03*
%TO.P,R2,2*%
%TO.N,Earth*%
X158550000Y-92000000D03*
%TD*%
D18*
%TO.P,R5,1*%
%TO.N,Net-(J3-Pad6)*%
X141550000Y-118000000D03*
%TO.P,R5,2*%
%TO.N,Net-(Arduino1-Pad19)*%
X138450000Y-118000000D03*
%TD*%
%TO.P,R13,1*%
%TO.N,SIG*%
X146545238Y-121000000D03*
%TO.P,R13,2*%
%TO.N,Earth*%
X143445238Y-121000000D03*
%TD*%
D19*
%TO.P,R7,1*%
%TO.N,Net-(Arduino1-Pad21)*%
X148450000Y-118000000D03*
%TO.P,R7,2*%
%TO.N,Net-(J3-Pad4)*%
X151550000Y-118000000D03*
%TD*%
%TO.P,R1,1*%
%TO.N,Net-(Arduino1-Pad6)*%
X160450000Y-92000000D03*
%TO.P,R1,2*%
%TO.N,Earth*%
X163550000Y-92000000D03*
%TD*%
%TO.P,R4,1*%
%TO.N,Net-(Arduino1-Pad9)*%
X145450000Y-92000000D03*
%TO.P,R4,2*%
%TO.N,Earth*%
X148550000Y-92000000D03*
%TD*%
D18*
%TO.P,R8,1*%
%TO.N,Net-(Arduino1-Pad30)*%
X165550000Y-105000000D03*
%TO.P,R8,2*%
%TO.N,Net-(Arduino1-Pad24)*%
X162450000Y-105000000D03*
%TD*%
D19*
%TO.P,R3,1*%
%TO.N,Net-(Arduino1-Pad8)*%
X150450000Y-92000000D03*
%TO.P,R3,2*%
%TO.N,Earth*%
X153550000Y-92000000D03*
%TD*%
D18*
%TO.P,R6,1*%
%TO.N,Net-(J3-Pad5)*%
X146550000Y-118000000D03*
%TO.P,R6,2*%
%TO.N,Net-(Arduino1-Pad20)*%
X143450000Y-118000000D03*
%TD*%
D19*
%TO.P,R9,1*%
%TO.N,Net-(Arduino1-Pad22)*%
X153450000Y-118000000D03*
%TO.P,R9,2*%
%TO.N,Net-(J3-Pad3)*%
X156550000Y-118000000D03*
%TD*%
D20*
%TO.N,Earth*%
X133000000Y-99000000D03*
X132000000Y-122000000D03*
X153000000Y-90000000D03*
X154000000Y-103000000D03*
X142000000Y-103000000D03*
X150000000Y-90000000D03*
X165000000Y-88000000D03*
X157000000Y-90000000D03*
X164000000Y-126000000D03*
X124000000Y-91000000D03*
X170000000Y-127000000D03*
X164000000Y-101000000D03*
X125000000Y-101000000D03*
X137000000Y-122000000D03*
%TO.N,Net-(Arduino1-Pad11)*%
X135000000Y-116000000D03*
X130000000Y-113000000D03*
%TO.N,Net-(Arduino1-Pad17)*%
X133000000Y-117000000D03*
X130000000Y-115000000D03*
%TO.N,Net-(Arduino1-Pad22)*%
X150000000Y-119000000D03*
%TO.N,SIG*%
X141000000Y-108000000D03*
X148000000Y-122000000D03*
%TO.N,Net-(Arduino1-Pad24)*%
X153000000Y-107000000D03*
%TO.N,Net-(Q1-Pad2)*%
X155000000Y-120000000D03*
%TD*%
D21*
%TO.N,Net-(Arduino1-Pad6)*%
X155100000Y-93200000D02*
X153300000Y-95000000D01*
X159250000Y-93200000D02*
X155100000Y-93200000D01*
X160450000Y-92000000D02*
X159250000Y-93200000D01*
X157160000Y-88000000D02*
X160450000Y-91290000D01*
X160450000Y-91290000D02*
X160450000Y-92000000D01*
%TO.N,Net-(Arduino1-Pad7)*%
X154620000Y-91170000D02*
X155450000Y-92000000D01*
X152560000Y-93200000D02*
X150760000Y-95000000D01*
X154620000Y-88000000D02*
X154620000Y-91170000D01*
X154250000Y-93200000D02*
X152560000Y-93200000D01*
X155450000Y-92000000D02*
X154250000Y-93200000D01*
%TO.N,Net-(Arduino1-Pad8)*%
X150450000Y-92000000D02*
X150450000Y-92770000D01*
X152080000Y-90370000D02*
X150450000Y-92000000D01*
X150450000Y-92770000D02*
X148220000Y-95000000D01*
X152080000Y-88000000D02*
X152080000Y-90370000D01*
%TO.N,Net-(Arduino1-Pad9)*%
X149540000Y-88000000D02*
X145540000Y-92000000D01*
X145540000Y-92000000D02*
X145450000Y-92000000D01*
X145450000Y-92000000D02*
X145680000Y-92230000D01*
X145680000Y-92230000D02*
X145680000Y-95000000D01*
%TO.N,Net-(Arduino1-Pad10)*%
X136645000Y-119645000D02*
X136645000Y-101495000D01*
X136645000Y-101495000D02*
X143140000Y-95000000D01*
X131756778Y-124533222D02*
X136645000Y-119645000D01*
X128009278Y-123784280D02*
X128758220Y-124533222D01*
X128758220Y-124533222D02*
X131756778Y-124533222D01*
X126735000Y-120720000D02*
X128009278Y-121994278D01*
X128009278Y-121994278D02*
X128009278Y-123784280D01*
%TO.N,Net-(Arduino1-Pad11)*%
X135000000Y-116000000D02*
X134395000Y-115395000D01*
X140600000Y-95000000D02*
X136300000Y-99300000D01*
X134395000Y-101205000D02*
X136300000Y-99300000D01*
X128100000Y-119545000D02*
X128100000Y-114900000D01*
X129275000Y-120720000D02*
X128100000Y-119545000D01*
X128100000Y-114900000D02*
X130000000Y-113000000D01*
X134395000Y-115395000D02*
X134395000Y-101205000D01*
%TO.N,Net-(Arduino1-Pad14)*%
X129275000Y-123260000D02*
X131565000Y-120970000D01*
X131565000Y-120970000D02*
X131565000Y-96415000D01*
X131565000Y-96415000D02*
X132980000Y-95000000D01*
%TO.N,Net-(Arduino1-Pad15)*%
X130440000Y-105560000D02*
X130440000Y-95000000D01*
X130440000Y-105560000D02*
X124550000Y-111450000D01*
X124550000Y-123615000D02*
X126735000Y-125800000D01*
X124550000Y-111450000D02*
X124550000Y-123615000D01*
%TO.N,Net-(Arduino1-Pad16)*%
X126735000Y-123260000D02*
X125000000Y-121525000D01*
X125000000Y-121525000D02*
X125000000Y-115680000D01*
X125000000Y-115680000D02*
X130440000Y-110240000D01*
%TO.N,Net-(Arduino1-Pad17)*%
X129275000Y-115725000D02*
X130000000Y-115000000D01*
X132980000Y-110240000D02*
X132980000Y-116980000D01*
X132980000Y-116980000D02*
X133000000Y-117000000D01*
X129275000Y-118180000D02*
X129275000Y-115725000D01*
%TO.N,Net-(Arduino1-Pad19)*%
X138450000Y-118000000D02*
X138060000Y-117610000D01*
X138060000Y-117610000D02*
X138060000Y-110240000D01*
%TO.N,Net-(Arduino1-Pad20)*%
X142360000Y-112000000D02*
X140600000Y-110240000D01*
X143000000Y-112000000D02*
X142360000Y-112000000D01*
X143000000Y-117550000D02*
X143000000Y-112000000D01*
X143000000Y-117550000D02*
X143450000Y-118000000D01*
%TO.N,Net-(Arduino1-Pad21)*%
X146175000Y-116175000D02*
X145555000Y-115555000D01*
X145555000Y-112655000D02*
X143140000Y-110240000D01*
X148450000Y-118000000D02*
X146625000Y-116175000D01*
X145555000Y-115555000D02*
X145555000Y-112655000D01*
X146625000Y-116175000D02*
X146175000Y-116175000D01*
%TO.N,Net-(Arduino1-Pad22)*%
X151565360Y-119853533D02*
X151596467Y-119853533D01*
X150711827Y-119000000D02*
X151565360Y-119853533D01*
X151596467Y-119853533D02*
X153450000Y-118000000D01*
X150000000Y-119000000D02*
X150711827Y-119000000D01*
X153450000Y-118000000D02*
X153450000Y-117450000D01*
%TO.N,SIG*%
X166120000Y-119200000D02*
X167000000Y-120080000D01*
X146545238Y-121000000D02*
X150445238Y-121000000D01*
X159650000Y-119200000D02*
X166120000Y-119200000D01*
X145980000Y-108000000D02*
X141000000Y-108000000D01*
X158450000Y-118000000D02*
X159650000Y-119200000D01*
X147000000Y-121000000D02*
X148000000Y-122000000D01*
X146545238Y-121000000D02*
X147000000Y-121000000D01*
X148220000Y-110240000D02*
X145980000Y-108000000D01*
%TO.N,Net-(Arduino1-Pad24)*%
X157650000Y-106200000D02*
X156450000Y-105000000D01*
X154450000Y-107000000D02*
X153000000Y-107000000D01*
X162450000Y-105000000D02*
X161250000Y-106200000D01*
X161250000Y-106200000D02*
X157650000Y-106200000D01*
X156450000Y-105000000D02*
X154450000Y-107000000D01*
%TO.N,Net-(Arduino1-Pad30)*%
X165550000Y-105000000D02*
X166000000Y-105450000D01*
X166000000Y-105450000D02*
X166000000Y-110240000D01*
%TO.N,Net-(J3-Pad2)*%
X156375000Y-112825000D02*
X161550000Y-118000000D01*
X153985000Y-112825000D02*
X156375000Y-112825000D01*
X151810000Y-115000000D02*
X153985000Y-112825000D01*
%TO.N,Net-(J3-Pad3)*%
X150445000Y-116175000D02*
X154725000Y-116175000D01*
X154725000Y-116175000D02*
X156550000Y-118000000D01*
X149270000Y-115000000D02*
X150445000Y-116175000D01*
%TO.N,Net-(J3-Pad4)*%
X147905000Y-116175000D02*
X149725000Y-116175000D01*
X146730000Y-115000000D02*
X147905000Y-116175000D01*
X149725000Y-116175000D02*
X151550000Y-118000000D01*
%TO.N,Net-(J3-Pad5)*%
X146550000Y-117360000D02*
X146550000Y-118000000D01*
X144190000Y-115000000D02*
X146550000Y-117360000D01*
%TO.N,Net-(J3-Pad6)*%
X141650000Y-115000000D02*
X141650000Y-117900000D01*
X141650000Y-117900000D02*
X141550000Y-118000000D01*
%TO.N,Net-(Q1-Pad2)*%
X154000000Y-121000000D02*
X155000000Y-120000000D01*
X153545238Y-121000000D02*
X154000000Y-121000000D01*
%TD*%
%TA.AperFunction,Conductor*%
%TO.N,Earth*%
G36*
X171433621Y-80528502D02*
G01*
X171480114Y-80582158D01*
X171491500Y-80634500D01*
X171491500Y-128365500D01*
X171471498Y-128433621D01*
X171417842Y-128480114D01*
X171365500Y-128491500D01*
X122634500Y-128491500D01*
X122566379Y-128471498D01*
X122519886Y-128417842D01*
X122508500Y-128365500D01*
X122508500Y-111429943D01*
X123911780Y-111429943D01*
X123912526Y-111437835D01*
X123915941Y-111473961D01*
X123916500Y-111485819D01*
X123916500Y-123536233D01*
X123915973Y-123547416D01*
X123914298Y-123554909D01*
X123914547Y-123562835D01*
X123914547Y-123562836D01*
X123916438Y-123622986D01*
X123916500Y-123626945D01*
X123916500Y-123654856D01*
X123916997Y-123658790D01*
X123916997Y-123658791D01*
X123917005Y-123658856D01*
X123917938Y-123670693D01*
X123919327Y-123714889D01*
X123924978Y-123734339D01*
X123928987Y-123753700D01*
X123931526Y-123773797D01*
X123934445Y-123781168D01*
X123934445Y-123781170D01*
X123947804Y-123814912D01*
X123951649Y-123826142D01*
X123963982Y-123868593D01*
X123968015Y-123875412D01*
X123968017Y-123875417D01*
X123974293Y-123886028D01*
X123982988Y-123903776D01*
X123990448Y-123922617D01*
X123995110Y-123929033D01*
X123995110Y-123929034D01*
X124016436Y-123958387D01*
X124022952Y-123968307D01*
X124045458Y-124006362D01*
X124059779Y-124020683D01*
X124072619Y-124035716D01*
X124084528Y-124052107D01*
X124090634Y-124057158D01*
X124118605Y-124080298D01*
X124127384Y-124088288D01*
X125384778Y-125345682D01*
X125418804Y-125407994D01*
X125417100Y-125468448D01*
X125395989Y-125544570D01*
X125372251Y-125766695D01*
X125385110Y-125989715D01*
X125386247Y-125994761D01*
X125386248Y-125994767D01*
X125410304Y-126101508D01*
X125434222Y-126207639D01*
X125518266Y-126414616D01*
X125634987Y-126605088D01*
X125781250Y-126773938D01*
X125953126Y-126916632D01*
X126146000Y-127029338D01*
X126354692Y-127109030D01*
X126359760Y-127110061D01*
X126359763Y-127110062D01*
X126467017Y-127131883D01*
X126573597Y-127153567D01*
X126578772Y-127153757D01*
X126578774Y-127153757D01*
X126791673Y-127161564D01*
X126791677Y-127161564D01*
X126796837Y-127161753D01*
X126801957Y-127161097D01*
X126801959Y-127161097D01*
X127013288Y-127134025D01*
X127013289Y-127134025D01*
X127018416Y-127133368D01*
X127023366Y-127131883D01*
X127227429Y-127070661D01*
X127227434Y-127070659D01*
X127232384Y-127069174D01*
X127432994Y-126970896D01*
X127614860Y-126841173D01*
X127723091Y-126733319D01*
X127785462Y-126699404D01*
X127856268Y-126704592D01*
X127913030Y-126747238D01*
X127930012Y-126778341D01*
X127974385Y-126896705D01*
X128061739Y-127013261D01*
X128178295Y-127100615D01*
X128314684Y-127151745D01*
X128376866Y-127158500D01*
X130173134Y-127158500D01*
X130235316Y-127151745D01*
X130371705Y-127100615D01*
X130488261Y-127013261D01*
X130575615Y-126896705D01*
X130626745Y-126760316D01*
X130633500Y-126698134D01*
X130633500Y-126000000D01*
X133386526Y-126000000D01*
X133406391Y-126252403D01*
X133465495Y-126498591D01*
X133467388Y-126503162D01*
X133467389Y-126503164D01*
X133511224Y-126608990D01*
X133562384Y-126732502D01*
X133694672Y-126948376D01*
X133859102Y-127140898D01*
X134051624Y-127305328D01*
X134267498Y-127437616D01*
X134272068Y-127439509D01*
X134272072Y-127439511D01*
X134496836Y-127532611D01*
X134501409Y-127534505D01*
X134586032Y-127554821D01*
X134742784Y-127592454D01*
X134742790Y-127592455D01*
X134747597Y-127593609D01*
X134847416Y-127601465D01*
X134934345Y-127608307D01*
X134934352Y-127608307D01*
X134936801Y-127608500D01*
X135063199Y-127608500D01*
X135065648Y-127608307D01*
X135065655Y-127608307D01*
X135152584Y-127601465D01*
X135252403Y-127593609D01*
X135257210Y-127592455D01*
X135257216Y-127592454D01*
X135413968Y-127554821D01*
X135498591Y-127534505D01*
X135503164Y-127532611D01*
X135727928Y-127439511D01*
X135727932Y-127439509D01*
X135732502Y-127437616D01*
X135948376Y-127305328D01*
X136140898Y-127140898D01*
X136305328Y-126948376D01*
X136437616Y-126732502D01*
X136488777Y-126608990D01*
X136532611Y-126503164D01*
X136532612Y-126503162D01*
X136534505Y-126498591D01*
X136593609Y-126252403D01*
X136613474Y-126000000D01*
X165386526Y-126000000D01*
X165406391Y-126252403D01*
X165465495Y-126498591D01*
X165467388Y-126503162D01*
X165467389Y-126503164D01*
X165511224Y-126608990D01*
X165562384Y-126732502D01*
X165694672Y-126948376D01*
X165859102Y-127140898D01*
X166051624Y-127305328D01*
X166267498Y-127437616D01*
X166272068Y-127439509D01*
X166272072Y-127439511D01*
X166496836Y-127532611D01*
X166501409Y-127534505D01*
X166586032Y-127554821D01*
X166742784Y-127592454D01*
X166742790Y-127592455D01*
X166747597Y-127593609D01*
X166847416Y-127601465D01*
X166934345Y-127608307D01*
X166934352Y-127608307D01*
X166936801Y-127608500D01*
X167063199Y-127608500D01*
X167065648Y-127608307D01*
X167065655Y-127608307D01*
X167152584Y-127601465D01*
X167252403Y-127593609D01*
X167257210Y-127592455D01*
X167257216Y-127592454D01*
X167413968Y-127554821D01*
X167498591Y-127534505D01*
X167503164Y-127532611D01*
X167727928Y-127439511D01*
X167727932Y-127439509D01*
X167732502Y-127437616D01*
X167948376Y-127305328D01*
X168140898Y-127140898D01*
X168305328Y-126948376D01*
X168437616Y-126732502D01*
X168488777Y-126608990D01*
X168532611Y-126503164D01*
X168532612Y-126503162D01*
X168534505Y-126498591D01*
X168593609Y-126252403D01*
X168613474Y-126000000D01*
X168593609Y-125747597D01*
X168534505Y-125501409D01*
X168532611Y-125496836D01*
X168439511Y-125272072D01*
X168439509Y-125272068D01*
X168437616Y-125267498D01*
X168305328Y-125051624D01*
X168140898Y-124859102D01*
X167948376Y-124694672D01*
X167732502Y-124562384D01*
X167727932Y-124560491D01*
X167727928Y-124560489D01*
X167503164Y-124467389D01*
X167503162Y-124467388D01*
X167498591Y-124465495D01*
X167354475Y-124430896D01*
X167257216Y-124407546D01*
X167257210Y-124407545D01*
X167252403Y-124406391D01*
X167152584Y-124398535D01*
X167065655Y-124391693D01*
X167065648Y-124391693D01*
X167063199Y-124391500D01*
X166936801Y-124391500D01*
X166934352Y-124391693D01*
X166934345Y-124391693D01*
X166847416Y-124398535D01*
X166747597Y-124406391D01*
X166742790Y-124407545D01*
X166742784Y-124407546D01*
X166645525Y-124430896D01*
X166501409Y-124465495D01*
X166496838Y-124467388D01*
X166496836Y-124467389D01*
X166272072Y-124560489D01*
X166272068Y-124560491D01*
X166267498Y-124562384D01*
X166051624Y-124694672D01*
X165859102Y-124859102D01*
X165694672Y-125051624D01*
X165562384Y-125267498D01*
X165560491Y-125272068D01*
X165560489Y-125272072D01*
X165467389Y-125496836D01*
X165465495Y-125501409D01*
X165406391Y-125747597D01*
X165386526Y-126000000D01*
X136613474Y-126000000D01*
X136593609Y-125747597D01*
X136534505Y-125501409D01*
X136532611Y-125496836D01*
X136439511Y-125272072D01*
X136439509Y-125272068D01*
X136437616Y-125267498D01*
X136305328Y-125051624D01*
X136140898Y-124859102D01*
X135948376Y-124694672D01*
X135732502Y-124562384D01*
X135727932Y-124560491D01*
X135727928Y-124560489D01*
X135503164Y-124467389D01*
X135503162Y-124467388D01*
X135498591Y-124465495D01*
X135354475Y-124430896D01*
X135257216Y-124407546D01*
X135257210Y-124407545D01*
X135252403Y-124406391D01*
X135152584Y-124398535D01*
X135065655Y-124391693D01*
X135065648Y-124391693D01*
X135063199Y-124391500D01*
X134936801Y-124391500D01*
X134934352Y-124391693D01*
X134934345Y-124391693D01*
X134847416Y-124398535D01*
X134747597Y-124406391D01*
X134742790Y-124407545D01*
X134742784Y-124407546D01*
X134645525Y-124430896D01*
X134501409Y-124465495D01*
X134496838Y-124467388D01*
X134496836Y-124467389D01*
X134272072Y-124560489D01*
X134272068Y-124560491D01*
X134267498Y-124562384D01*
X134051624Y-124694672D01*
X133859102Y-124859102D01*
X133694672Y-125051624D01*
X133562384Y-125267498D01*
X133560491Y-125272068D01*
X133560489Y-125272072D01*
X133467389Y-125496836D01*
X133465495Y-125501409D01*
X133406391Y-125747597D01*
X133386526Y-126000000D01*
X130633500Y-126000000D01*
X130633500Y-125292722D01*
X130653502Y-125224601D01*
X130707158Y-125178108D01*
X130759500Y-125166722D01*
X131678011Y-125166722D01*
X131689194Y-125167249D01*
X131696687Y-125168924D01*
X131704613Y-125168675D01*
X131704614Y-125168675D01*
X131764764Y-125166784D01*
X131768723Y-125166722D01*
X131796634Y-125166722D01*
X131800569Y-125166225D01*
X131800634Y-125166217D01*
X131812471Y-125165284D01*
X131844729Y-125164270D01*
X131848748Y-125164144D01*
X131856667Y-125163895D01*
X131876121Y-125158243D01*
X131895478Y-125154235D01*
X131907708Y-125152690D01*
X131907709Y-125152690D01*
X131915575Y-125151696D01*
X131922946Y-125148777D01*
X131922948Y-125148777D01*
X131956690Y-125135418D01*
X131967920Y-125131573D01*
X132002761Y-125121451D01*
X132002762Y-125121451D01*
X132010371Y-125119240D01*
X132017190Y-125115207D01*
X132017195Y-125115205D01*
X132027806Y-125108929D01*
X132045554Y-125100234D01*
X132064395Y-125092774D01*
X132100165Y-125066786D01*
X132110085Y-125060270D01*
X132141313Y-125041802D01*
X132141316Y-125041800D01*
X132148140Y-125037764D01*
X132162461Y-125023443D01*
X132177495Y-125010602D01*
X132187472Y-125003353D01*
X132193885Y-124998694D01*
X132222076Y-124964617D01*
X132230066Y-124955838D01*
X135513810Y-121672095D01*
X142287239Y-121672095D01*
X142287576Y-121678614D01*
X142297495Y-121774206D01*
X142300387Y-121787600D01*
X142351826Y-121941784D01*
X142357999Y-121954962D01*
X142443301Y-122092807D01*
X142452337Y-122104208D01*
X142567067Y-122218739D01*
X142578478Y-122227751D01*
X142716481Y-122312816D01*
X142729662Y-122318963D01*
X142883948Y-122370138D01*
X142897324Y-122373005D01*
X142991676Y-122382672D01*
X142998092Y-122383000D01*
X143173123Y-122383000D01*
X143188362Y-122378525D01*
X143189567Y-122377135D01*
X143191238Y-122369452D01*
X143191238Y-122364884D01*
X143699238Y-122364884D01*
X143703713Y-122380123D01*
X143705103Y-122381328D01*
X143712786Y-122382999D01*
X143892333Y-122382999D01*
X143898852Y-122382662D01*
X143994444Y-122372743D01*
X144007838Y-122369851D01*
X144162022Y-122318412D01*
X144175200Y-122312239D01*
X144313045Y-122226937D01*
X144324446Y-122217901D01*
X144438977Y-122103171D01*
X144447989Y-122091760D01*
X144533054Y-121953757D01*
X144539201Y-121940576D01*
X144590376Y-121786290D01*
X144593243Y-121772914D01*
X144602910Y-121678562D01*
X144603238Y-121672146D01*
X144603238Y-121272115D01*
X144598763Y-121256876D01*
X144597373Y-121255671D01*
X144589690Y-121254000D01*
X143717353Y-121254000D01*
X143702114Y-121258475D01*
X143700909Y-121259865D01*
X143699238Y-121267548D01*
X143699238Y-122364884D01*
X143191238Y-122364884D01*
X143191238Y-121272115D01*
X143186763Y-121256876D01*
X143185373Y-121255671D01*
X143177690Y-121254000D01*
X142305354Y-121254000D01*
X142290115Y-121258475D01*
X142288910Y-121259865D01*
X142287239Y-121267548D01*
X142287239Y-121672095D01*
X135513810Y-121672095D01*
X137037253Y-120148652D01*
X137045539Y-120141112D01*
X137052018Y-120137000D01*
X137098644Y-120087348D01*
X137101398Y-120084507D01*
X137121135Y-120064770D01*
X137123615Y-120061573D01*
X137131320Y-120052551D01*
X137161586Y-120020321D01*
X137165405Y-120013375D01*
X137165407Y-120013372D01*
X137171348Y-120002566D01*
X137182199Y-119986047D01*
X137189758Y-119976301D01*
X137194614Y-119970041D01*
X137197759Y-119962772D01*
X137197762Y-119962768D01*
X137212174Y-119929463D01*
X137217391Y-119918813D01*
X137238695Y-119880060D01*
X137243733Y-119860437D01*
X137250137Y-119841734D01*
X137255033Y-119830420D01*
X137255033Y-119830419D01*
X137258181Y-119823145D01*
X137259420Y-119815322D01*
X137259423Y-119815312D01*
X137265099Y-119779476D01*
X137267505Y-119767856D01*
X137276528Y-119732711D01*
X137276528Y-119732710D01*
X137278500Y-119725030D01*
X137278500Y-119704776D01*
X137280051Y-119685065D01*
X137280419Y-119682745D01*
X137283220Y-119665057D01*
X137279059Y-119621038D01*
X137278500Y-119609181D01*
X137278500Y-119230444D01*
X137298502Y-119162323D01*
X137352158Y-119115830D01*
X137422432Y-119105726D01*
X137487012Y-119135220D01*
X137493518Y-119141271D01*
X137576697Y-119224305D01*
X137582927Y-119228145D01*
X137582928Y-119228146D01*
X137720090Y-119312694D01*
X137727262Y-119317115D01*
X137793856Y-119339203D01*
X137888611Y-119370632D01*
X137888613Y-119370632D01*
X137895139Y-119372797D01*
X137901975Y-119373497D01*
X137901978Y-119373498D01*
X137945031Y-119377909D01*
X137999600Y-119383500D01*
X138900400Y-119383500D01*
X138903646Y-119383163D01*
X138903650Y-119383163D01*
X138999308Y-119373238D01*
X138999312Y-119373237D01*
X139006166Y-119372526D01*
X139012702Y-119370345D01*
X139012704Y-119370345D01*
X139160206Y-119321134D01*
X139173946Y-119316550D01*
X139324348Y-119223478D01*
X139449305Y-119098303D01*
X139453146Y-119092072D01*
X139538275Y-118953968D01*
X139538276Y-118953966D01*
X139542115Y-118947738D01*
X139597797Y-118779861D01*
X139608500Y-118675400D01*
X139608500Y-117324600D01*
X139603141Y-117272947D01*
X139598238Y-117225692D01*
X139598237Y-117225688D01*
X139597526Y-117218834D01*
X139589539Y-117194892D01*
X139543868Y-117058002D01*
X139541550Y-117051054D01*
X139448478Y-116900652D01*
X139410863Y-116863102D01*
X139328483Y-116780866D01*
X139323303Y-116775695D01*
X139266500Y-116740681D01*
X139178968Y-116686725D01*
X139178966Y-116686724D01*
X139172738Y-116682885D01*
X139054704Y-116643735D01*
X139011389Y-116629368D01*
X139011387Y-116629368D01*
X139004861Y-116627203D01*
X138998025Y-116626503D01*
X138998022Y-116626502D01*
X138954969Y-116622091D01*
X138900400Y-116616500D01*
X138819500Y-116616500D01*
X138751379Y-116596498D01*
X138704886Y-116542842D01*
X138693500Y-116490500D01*
X138693500Y-111459394D01*
X138713502Y-111391273D01*
X138747229Y-111356181D01*
X138899789Y-111249357D01*
X138899792Y-111249355D01*
X138904300Y-111246198D01*
X139066198Y-111084300D01*
X139076982Y-111068900D01*
X139194366Y-110901257D01*
X139197523Y-110896749D01*
X139199846Y-110891767D01*
X139199849Y-110891762D01*
X139215805Y-110857543D01*
X139262722Y-110804258D01*
X139330999Y-110784797D01*
X139398959Y-110805339D01*
X139444195Y-110857543D01*
X139460151Y-110891762D01*
X139460154Y-110891767D01*
X139462477Y-110896749D01*
X139465634Y-110901257D01*
X139583019Y-111068900D01*
X139593802Y-111084300D01*
X139755700Y-111246198D01*
X139760208Y-111249355D01*
X139760211Y-111249357D01*
X139818500Y-111290171D01*
X139943251Y-111377523D01*
X139948233Y-111379846D01*
X139948238Y-111379849D01*
X140072591Y-111437835D01*
X140150757Y-111474284D01*
X140156065Y-111475706D01*
X140156067Y-111475707D01*
X140366598Y-111532119D01*
X140366600Y-111532119D01*
X140371913Y-111533543D01*
X140600000Y-111553498D01*
X140828087Y-111533543D01*
X140833392Y-111532121D01*
X140833406Y-111532119D01*
X140891539Y-111516541D01*
X140962516Y-111518229D01*
X141013248Y-111549152D01*
X141440233Y-111976138D01*
X141856353Y-112392258D01*
X141863887Y-112400537D01*
X141868000Y-112407018D01*
X141913316Y-112449572D01*
X141917651Y-112453643D01*
X141920493Y-112456398D01*
X141940230Y-112476135D01*
X141943427Y-112478615D01*
X141952447Y-112486318D01*
X141984679Y-112516586D01*
X141991625Y-112520405D01*
X141991628Y-112520407D01*
X142002434Y-112526348D01*
X142018953Y-112537199D01*
X142034959Y-112549614D01*
X142042228Y-112552759D01*
X142042232Y-112552762D01*
X142075537Y-112567174D01*
X142086187Y-112572391D01*
X142124940Y-112593695D01*
X142132615Y-112595666D01*
X142132616Y-112595666D01*
X142144562Y-112598733D01*
X142163267Y-112605137D01*
X142181855Y-112613181D01*
X142189678Y-112614420D01*
X142189688Y-112614423D01*
X142225524Y-112620099D01*
X142237144Y-112622505D01*
X142271833Y-112631411D01*
X142332840Y-112667725D01*
X142364529Y-112731256D01*
X142366500Y-112753453D01*
X142366500Y-113634200D01*
X142346498Y-113702321D01*
X142292842Y-113748814D01*
X142222568Y-113758918D01*
X142198441Y-113752973D01*
X142003091Y-113683796D01*
X142003083Y-113683794D01*
X141998212Y-113682069D01*
X141993119Y-113681162D01*
X141993116Y-113681161D01*
X141783373Y-113643800D01*
X141783367Y-113643799D01*
X141778284Y-113642894D01*
X141704452Y-113641992D01*
X141560081Y-113640228D01*
X141560079Y-113640228D01*
X141554911Y-113640165D01*
X141334091Y-113673955D01*
X141121756Y-113743357D01*
X140923607Y-113846507D01*
X140919474Y-113849610D01*
X140919471Y-113849612D01*
X140749100Y-113977530D01*
X140744965Y-113980635D01*
X140590629Y-114142138D01*
X140464743Y-114326680D01*
X140443746Y-114371914D01*
X140403949Y-114457651D01*
X140370688Y-114529305D01*
X140310989Y-114744570D01*
X140287251Y-114966695D01*
X140287548Y-114971848D01*
X140287548Y-114971851D01*
X140292904Y-115064746D01*
X140300110Y-115189715D01*
X140301247Y-115194761D01*
X140301248Y-115194767D01*
X140318680Y-115272115D01*
X140349222Y-115407639D01*
X140433266Y-115614616D01*
X140472638Y-115678866D01*
X140547288Y-115800683D01*
X140549987Y-115805088D01*
X140696250Y-115973938D01*
X140868126Y-116116632D01*
X140954070Y-116166853D01*
X141002794Y-116218491D01*
X141016500Y-116275641D01*
X141016500Y-116529121D01*
X140996498Y-116597242D01*
X140942842Y-116643735D01*
X140930377Y-116648644D01*
X140833007Y-116681130D01*
X140833005Y-116681131D01*
X140826054Y-116683450D01*
X140675652Y-116776522D01*
X140550695Y-116901697D01*
X140546855Y-116907927D01*
X140546854Y-116907928D01*
X140494147Y-116993435D01*
X140457885Y-117052262D01*
X140436363Y-117117148D01*
X140404369Y-117213610D01*
X140402203Y-117220139D01*
X140391500Y-117324600D01*
X140391500Y-118675400D01*
X140391837Y-118678646D01*
X140391837Y-118678650D01*
X140400493Y-118762069D01*
X140402474Y-118781166D01*
X140458450Y-118948946D01*
X140551522Y-119099348D01*
X140676697Y-119224305D01*
X140682927Y-119228145D01*
X140682928Y-119228146D01*
X140820090Y-119312694D01*
X140827262Y-119317115D01*
X140893856Y-119339203D01*
X140988611Y-119370632D01*
X140988613Y-119370632D01*
X140995139Y-119372797D01*
X141001975Y-119373497D01*
X141001978Y-119373498D01*
X141045031Y-119377909D01*
X141099600Y-119383500D01*
X142000400Y-119383500D01*
X142003646Y-119383163D01*
X142003650Y-119383163D01*
X142099308Y-119373238D01*
X142099312Y-119373237D01*
X142106166Y-119372526D01*
X142112702Y-119370345D01*
X142112704Y-119370345D01*
X142260206Y-119321134D01*
X142273946Y-119316550D01*
X142424348Y-119223478D01*
X142424464Y-119223362D01*
X142487543Y-119197827D01*
X142557308Y-119210996D01*
X142574251Y-119221864D01*
X142576697Y-119224305D01*
X142651979Y-119270710D01*
X142720090Y-119312694D01*
X142727262Y-119317115D01*
X142793856Y-119339203D01*
X142888611Y-119370632D01*
X142888613Y-119370632D01*
X142895139Y-119372797D01*
X142901979Y-119373498D01*
X142901980Y-119373498D01*
X142913878Y-119374717D01*
X142979606Y-119401558D01*
X143020388Y-119459672D01*
X143023278Y-119530610D01*
X142987356Y-119591849D01*
X142924029Y-119623945D01*
X142914041Y-119625388D01*
X142896032Y-119627257D01*
X142882638Y-119630149D01*
X142728454Y-119681588D01*
X142715276Y-119687761D01*
X142577431Y-119773063D01*
X142566030Y-119782099D01*
X142451499Y-119896829D01*
X142442487Y-119908240D01*
X142357422Y-120046243D01*
X142351275Y-120059424D01*
X142300100Y-120213710D01*
X142297233Y-120227086D01*
X142287566Y-120321438D01*
X142287238Y-120327855D01*
X142287238Y-120727885D01*
X142291713Y-120743124D01*
X142293103Y-120744329D01*
X142300786Y-120746000D01*
X144585122Y-120746000D01*
X144600361Y-120741525D01*
X144601566Y-120740135D01*
X144603237Y-120732452D01*
X144603237Y-120327905D01*
X144602900Y-120321386D01*
X144592981Y-120225794D01*
X144590089Y-120212400D01*
X144538650Y-120058216D01*
X144532477Y-120045038D01*
X144447175Y-119907193D01*
X144438139Y-119895792D01*
X144323409Y-119781261D01*
X144311998Y-119772249D01*
X144173995Y-119687184D01*
X144160814Y-119681037D01*
X144006528Y-119629862D01*
X143993152Y-119626995D01*
X143981365Y-119625787D01*
X143915637Y-119598946D01*
X143874855Y-119540831D01*
X143871967Y-119469893D01*
X143907889Y-119408655D01*
X143971216Y-119376558D01*
X143981204Y-119375116D01*
X143999307Y-119373238D01*
X143999310Y-119373237D01*
X144006166Y-119372526D01*
X144012702Y-119370345D01*
X144012704Y-119370345D01*
X144160206Y-119321134D01*
X144173946Y-119316550D01*
X144324348Y-119223478D01*
X144449305Y-119098303D01*
X144453146Y-119092072D01*
X144538275Y-118953968D01*
X144538276Y-118953966D01*
X144542115Y-118947738D01*
X144597797Y-118779861D01*
X144608500Y-118675400D01*
X144608500Y-117324600D01*
X144603141Y-117272947D01*
X144598238Y-117225692D01*
X144598237Y-117225688D01*
X144597526Y-117218834D01*
X144589539Y-117194892D01*
X144543868Y-117058002D01*
X144541550Y-117051054D01*
X144448478Y-116900652D01*
X144410863Y-116863102D01*
X144328483Y-116780866D01*
X144323303Y-116775695D01*
X144266500Y-116740681D01*
X144178968Y-116686725D01*
X144178966Y-116686724D01*
X144172738Y-116682885D01*
X144054704Y-116643735D01*
X144011389Y-116629368D01*
X144011387Y-116629368D01*
X144004861Y-116627203D01*
X143998025Y-116626503D01*
X143998022Y-116626502D01*
X143954969Y-116622091D01*
X143900400Y-116616500D01*
X143759500Y-116616500D01*
X143691379Y-116596498D01*
X143644886Y-116542842D01*
X143633500Y-116490500D01*
X143633500Y-116424738D01*
X143653502Y-116356617D01*
X143707158Y-116310124D01*
X143777432Y-116300020D01*
X143799865Y-116305839D01*
X143799893Y-116305742D01*
X143803228Y-116306711D01*
X143804447Y-116307027D01*
X143804862Y-116307186D01*
X143804866Y-116307187D01*
X143809692Y-116309030D01*
X143814760Y-116310061D01*
X143814763Y-116310062D01*
X143922012Y-116331882D01*
X144028597Y-116353567D01*
X144033772Y-116353757D01*
X144033774Y-116353757D01*
X144246673Y-116361564D01*
X144246677Y-116361564D01*
X144251837Y-116361753D01*
X144256957Y-116361097D01*
X144256959Y-116361097D01*
X144468288Y-116334025D01*
X144468289Y-116334025D01*
X144473416Y-116333368D01*
X144478367Y-116331883D01*
X144478370Y-116331882D01*
X144519829Y-116319444D01*
X144590825Y-116319028D01*
X144645131Y-116351035D01*
X145375134Y-117081038D01*
X145409160Y-117143350D01*
X145405788Y-117206881D01*
X145405810Y-117206886D01*
X145405780Y-117207025D01*
X145405633Y-117209797D01*
X145404368Y-117213610D01*
X145404368Y-117213611D01*
X145402203Y-117220139D01*
X145391500Y-117324600D01*
X145391500Y-118675400D01*
X145391837Y-118678646D01*
X145391837Y-118678650D01*
X145400493Y-118762069D01*
X145402474Y-118781166D01*
X145458450Y-118948946D01*
X145551522Y-119099348D01*
X145676697Y-119224305D01*
X145682927Y-119228145D01*
X145682928Y-119228146D01*
X145820090Y-119312694D01*
X145827262Y-119317115D01*
X145893856Y-119339203D01*
X145988611Y-119370632D01*
X145988613Y-119370632D01*
X145995139Y-119372797D01*
X146001979Y-119373498D01*
X146001980Y-119373498D01*
X146007189Y-119374032D01*
X146011429Y-119374466D01*
X146077157Y-119401306D01*
X146117940Y-119459420D01*
X146120830Y-119530357D01*
X146084909Y-119591597D01*
X146021583Y-119623694D01*
X146011594Y-119625137D01*
X145995930Y-119626762D01*
X145995926Y-119626763D01*
X145989072Y-119627474D01*
X145982536Y-119629655D01*
X145982534Y-119629655D01*
X145876422Y-119665057D01*
X145821292Y-119683450D01*
X145670890Y-119776522D01*
X145545933Y-119901697D01*
X145542093Y-119907927D01*
X145542092Y-119907928D01*
X145469250Y-120026100D01*
X145453123Y-120052262D01*
X145450032Y-120061581D01*
X145404021Y-120200302D01*
X145397441Y-120220139D01*
X145396741Y-120226975D01*
X145396740Y-120226978D01*
X145392891Y-120264547D01*
X145386738Y-120324600D01*
X145386738Y-121675400D01*
X145387075Y-121678646D01*
X145387075Y-121678650D01*
X145396990Y-121774206D01*
X145397712Y-121781166D01*
X145399893Y-121787702D01*
X145399893Y-121787704D01*
X145426587Y-121867715D01*
X145453688Y-121948946D01*
X145546760Y-122099348D01*
X145671935Y-122224305D01*
X145678165Y-122228145D01*
X145678166Y-122228146D01*
X145815526Y-122312816D01*
X145822500Y-122317115D01*
X145902243Y-122343564D01*
X145983849Y-122370632D01*
X145983851Y-122370632D01*
X145990377Y-122372797D01*
X145997213Y-122373497D01*
X145997216Y-122373498D01*
X146034121Y-122377279D01*
X146094838Y-122383500D01*
X146995638Y-122383500D01*
X146998882Y-122383163D01*
X146998890Y-122383163D01*
X147081111Y-122374632D01*
X147150932Y-122387497D01*
X147203233Y-122436958D01*
X147260960Y-122536944D01*
X147388747Y-122678866D01*
X147543248Y-122791118D01*
X147549276Y-122793802D01*
X147549278Y-122793803D01*
X147711681Y-122866109D01*
X147717712Y-122868794D01*
X147811112Y-122888647D01*
X147898056Y-122907128D01*
X147898061Y-122907128D01*
X147904513Y-122908500D01*
X148095487Y-122908500D01*
X148101939Y-122907128D01*
X148101944Y-122907128D01*
X148188888Y-122888647D01*
X148282288Y-122868794D01*
X148288319Y-122866109D01*
X148450722Y-122793803D01*
X148450724Y-122793802D01*
X148456752Y-122791118D01*
X148611253Y-122678866D01*
X148739040Y-122536944D01*
X148797314Y-122436010D01*
X148831223Y-122377279D01*
X148831224Y-122377278D01*
X148834527Y-122371556D01*
X148893542Y-122189928D01*
X148894594Y-122179924D01*
X148912814Y-122006565D01*
X148913504Y-122000000D01*
X148905406Y-121922954D01*
X148894232Y-121816635D01*
X148894232Y-121816633D01*
X148893542Y-121810072D01*
X148891503Y-121803797D01*
X148891502Y-121803792D01*
X148889762Y-121798438D01*
X148887733Y-121727471D01*
X148924394Y-121666672D01*
X148988106Y-121635346D01*
X149009594Y-121633500D01*
X149168788Y-121633500D01*
X149236909Y-121653502D01*
X149283402Y-121707158D01*
X149294115Y-121746497D01*
X149296990Y-121774206D01*
X149297712Y-121781166D01*
X149299893Y-121787702D01*
X149299893Y-121787704D01*
X149326587Y-121867715D01*
X149353688Y-121948946D01*
X149446760Y-122099348D01*
X149571935Y-122224305D01*
X149578165Y-122228145D01*
X149578166Y-122228146D01*
X149715526Y-122312816D01*
X149722500Y-122317115D01*
X149802243Y-122343564D01*
X149883849Y-122370632D01*
X149883851Y-122370632D01*
X149890377Y-122372797D01*
X149897213Y-122373497D01*
X149897216Y-122373498D01*
X149934121Y-122377279D01*
X149994838Y-122383500D01*
X150895638Y-122383500D01*
X150898884Y-122383163D01*
X150898888Y-122383163D01*
X150994546Y-122373238D01*
X150994550Y-122373237D01*
X151001404Y-122372526D01*
X151007940Y-122370345D01*
X151007942Y-122370345D01*
X151140044Y-122326272D01*
X151169184Y-122316550D01*
X151319586Y-122223478D01*
X151444543Y-122098303D01*
X151448576Y-122091760D01*
X151533513Y-121953968D01*
X151533514Y-121953966D01*
X151537353Y-121947738D01*
X151584258Y-121806323D01*
X151590870Y-121786389D01*
X151590870Y-121786387D01*
X151593035Y-121779861D01*
X151596454Y-121746497D01*
X151603405Y-121678650D01*
X151603738Y-121675400D01*
X151603738Y-120605483D01*
X151623740Y-120537362D01*
X151677396Y-120490869D01*
X151696609Y-120485081D01*
X151696355Y-120484206D01*
X151696356Y-120484206D01*
X151715810Y-120478554D01*
X151735167Y-120474546D01*
X151747397Y-120473001D01*
X151747398Y-120473001D01*
X151755264Y-120472007D01*
X151762635Y-120469088D01*
X151762637Y-120469088D01*
X151796379Y-120455729D01*
X151807609Y-120451884D01*
X151842450Y-120441762D01*
X151842451Y-120441762D01*
X151850060Y-120439551D01*
X151856879Y-120435518D01*
X151856884Y-120435516D01*
X151867495Y-120429240D01*
X151885243Y-120420545D01*
X151904084Y-120413085D01*
X151939854Y-120387097D01*
X151949774Y-120380581D01*
X151981002Y-120362113D01*
X151981005Y-120362111D01*
X151987829Y-120358075D01*
X152002150Y-120343754D01*
X152017184Y-120330913D01*
X152027161Y-120323664D01*
X152033574Y-120319005D01*
X152061765Y-120284928D01*
X152069755Y-120276149D01*
X152177899Y-120168005D01*
X152240211Y-120133979D01*
X152311026Y-120139044D01*
X152367862Y-120181591D01*
X152392673Y-120248111D01*
X152392338Y-120269942D01*
X152386738Y-120324600D01*
X152386738Y-121675400D01*
X152387075Y-121678646D01*
X152387075Y-121678650D01*
X152396990Y-121774206D01*
X152397712Y-121781166D01*
X152399893Y-121787702D01*
X152399893Y-121787704D01*
X152426587Y-121867715D01*
X152453688Y-121948946D01*
X152546760Y-122099348D01*
X152671935Y-122224305D01*
X152678165Y-122228145D01*
X152678166Y-122228146D01*
X152815526Y-122312816D01*
X152822500Y-122317115D01*
X152902243Y-122343564D01*
X152983849Y-122370632D01*
X152983851Y-122370632D01*
X152990377Y-122372797D01*
X152997213Y-122373497D01*
X152997216Y-122373498D01*
X153034121Y-122377279D01*
X153094838Y-122383500D01*
X153995638Y-122383500D01*
X153998884Y-122383163D01*
X153998888Y-122383163D01*
X154094546Y-122373238D01*
X154094550Y-122373237D01*
X154101404Y-122372526D01*
X154107940Y-122370345D01*
X154107942Y-122370345D01*
X154240044Y-122326272D01*
X154269184Y-122316550D01*
X154419586Y-122223478D01*
X154544543Y-122098303D01*
X154548576Y-122091760D01*
X154633513Y-121953968D01*
X154633514Y-121953966D01*
X154637353Y-121947738D01*
X154684258Y-121806323D01*
X154690870Y-121786389D01*
X154690870Y-121786387D01*
X154693035Y-121779861D01*
X154696454Y-121746497D01*
X154703405Y-121678650D01*
X154703738Y-121675400D01*
X154703738Y-121244356D01*
X154723740Y-121176235D01*
X154740643Y-121155261D01*
X154950499Y-120945405D01*
X155012811Y-120911379D01*
X155039594Y-120908500D01*
X155095487Y-120908500D01*
X155101939Y-120907128D01*
X155101944Y-120907128D01*
X155205631Y-120885088D01*
X155282288Y-120868794D01*
X155288319Y-120866109D01*
X155450722Y-120793803D01*
X155450724Y-120793802D01*
X155456752Y-120791118D01*
X155462119Y-120787219D01*
X155518851Y-120746000D01*
X155611253Y-120678866D01*
X155632377Y-120655406D01*
X155698521Y-120581945D01*
X155739040Y-120536944D01*
X155739963Y-120535346D01*
X155794785Y-120493071D01*
X155865521Y-120486994D01*
X155928313Y-120520126D01*
X155963225Y-120581945D01*
X155966500Y-120610485D01*
X155966500Y-121798134D01*
X155973255Y-121860316D01*
X156024385Y-121996705D01*
X156111739Y-122113261D01*
X156228295Y-122200615D01*
X156364684Y-122251745D01*
X156426866Y-122258500D01*
X157573134Y-122258500D01*
X157635316Y-122251745D01*
X157676623Y-122236260D01*
X157763296Y-122203768D01*
X157763299Y-122203766D01*
X157771705Y-122200615D01*
X157778894Y-122195227D01*
X157779137Y-122195094D01*
X157848494Y-122179924D01*
X157876907Y-122185248D01*
X158061180Y-122242290D01*
X158067305Y-122242934D01*
X158067306Y-122242934D01*
X158256622Y-122262832D01*
X158256623Y-122262832D01*
X158262750Y-122263476D01*
X158346014Y-122255898D01*
X158458457Y-122245665D01*
X158458460Y-122245664D01*
X158464596Y-122245106D01*
X158470502Y-122243368D01*
X158470506Y-122243367D01*
X158653120Y-122189620D01*
X158653119Y-122189620D01*
X158659029Y-122187881D01*
X158664486Y-122185028D01*
X158664489Y-122185027D01*
X158801765Y-122113261D01*
X158838460Y-122094077D01*
X158838462Y-122094077D01*
X158838645Y-122093981D01*
X158838663Y-122094016D01*
X158904441Y-122074111D01*
X158965409Y-122089271D01*
X159137565Y-122182356D01*
X159206733Y-122203767D01*
X159325293Y-122240468D01*
X159325296Y-122240469D01*
X159331180Y-122242290D01*
X159337305Y-122242934D01*
X159337306Y-122242934D01*
X159526622Y-122262832D01*
X159526623Y-122262832D01*
X159532750Y-122263476D01*
X159616014Y-122255898D01*
X159728457Y-122245665D01*
X159728460Y-122245664D01*
X159734596Y-122245106D01*
X159740502Y-122243368D01*
X159740506Y-122243367D01*
X159923120Y-122189620D01*
X159923119Y-122189620D01*
X159929029Y-122187881D01*
X159934486Y-122185028D01*
X159934489Y-122185027D01*
X160071765Y-122113261D01*
X160108645Y-122093981D01*
X160266601Y-121966981D01*
X160396881Y-121811719D01*
X160399845Y-121806327D01*
X160399848Y-121806323D01*
X160491556Y-121639506D01*
X160494523Y-121634109D01*
X160555807Y-121440916D01*
X160556632Y-121433567D01*
X160567309Y-121338372D01*
X160573500Y-121283183D01*
X160573500Y-120723996D01*
X160558723Y-120573287D01*
X160500142Y-120379258D01*
X160404990Y-120200302D01*
X160363890Y-120149908D01*
X160276890Y-120043237D01*
X160277884Y-120042426D01*
X160247248Y-119985861D01*
X160252556Y-119915063D01*
X160295297Y-119858374D01*
X160361902Y-119833791D01*
X160370460Y-119833500D01*
X165519852Y-119833500D01*
X165587973Y-119853502D01*
X165634466Y-119907158D01*
X165645139Y-119972888D01*
X165642895Y-119993883D01*
X165640070Y-120020321D01*
X165637251Y-120046695D01*
X165637548Y-120051847D01*
X165637548Y-120051851D01*
X165647572Y-120225692D01*
X165650110Y-120269715D01*
X165651247Y-120274761D01*
X165651248Y-120274767D01*
X165670933Y-120362113D01*
X165699222Y-120487639D01*
X165739346Y-120586453D01*
X165776871Y-120678866D01*
X165783266Y-120694616D01*
X165814754Y-120746000D01*
X165888357Y-120866109D01*
X165899987Y-120885088D01*
X166046250Y-121053938D01*
X166218126Y-121196632D01*
X166411000Y-121309338D01*
X166619692Y-121389030D01*
X166624760Y-121390061D01*
X166624763Y-121390062D01*
X166720339Y-121409507D01*
X166838597Y-121433567D01*
X166843772Y-121433757D01*
X166843774Y-121433757D01*
X167056673Y-121441564D01*
X167056677Y-121441564D01*
X167061837Y-121441753D01*
X167066957Y-121441097D01*
X167066959Y-121441097D01*
X167278288Y-121414025D01*
X167278289Y-121414025D01*
X167283416Y-121413368D01*
X167288366Y-121411883D01*
X167492429Y-121350661D01*
X167492434Y-121350659D01*
X167497384Y-121349174D01*
X167697994Y-121250896D01*
X167879860Y-121121173D01*
X167896616Y-121104476D01*
X167993360Y-121008069D01*
X168038096Y-120963489D01*
X168097594Y-120880689D01*
X168165435Y-120786277D01*
X168168453Y-120782077D01*
X168172627Y-120773633D01*
X168265136Y-120586453D01*
X168265137Y-120586451D01*
X168267430Y-120581811D01*
X168313785Y-120429240D01*
X168330865Y-120373023D01*
X168330865Y-120373021D01*
X168332370Y-120368069D01*
X168361529Y-120146590D01*
X168361698Y-120139684D01*
X168363074Y-120083365D01*
X168363074Y-120083361D01*
X168363156Y-120080000D01*
X168344852Y-119857361D01*
X168290431Y-119640702D01*
X168201354Y-119435840D01*
X168126038Y-119319419D01*
X168082822Y-119252617D01*
X168082820Y-119252614D01*
X168080014Y-119248277D01*
X167929670Y-119083051D01*
X167925619Y-119079852D01*
X167925615Y-119079848D01*
X167758414Y-118947800D01*
X167758410Y-118947798D01*
X167754359Y-118944598D01*
X167712569Y-118921529D01*
X167662598Y-118871097D01*
X167647826Y-118801654D01*
X167672942Y-118735248D01*
X167700294Y-118708641D01*
X167875328Y-118583792D01*
X167883200Y-118577139D01*
X168034052Y-118426812D01*
X168040730Y-118418965D01*
X168165003Y-118246020D01*
X168170313Y-118237183D01*
X168264670Y-118046267D01*
X168268469Y-118036672D01*
X168330377Y-117832910D01*
X168332555Y-117822837D01*
X168333986Y-117811962D01*
X168331775Y-117797778D01*
X168318617Y-117794000D01*
X165683225Y-117794000D01*
X165669694Y-117797973D01*
X165668257Y-117807966D01*
X165698565Y-117942446D01*
X165701645Y-117952275D01*
X165781770Y-118149603D01*
X165786413Y-118158794D01*
X165897694Y-118340388D01*
X165903772Y-118348692D01*
X165911836Y-118358001D01*
X165941320Y-118422586D01*
X165931206Y-118492858D01*
X165884706Y-118546508D01*
X165816600Y-118566500D01*
X162834500Y-118566500D01*
X162766379Y-118546498D01*
X162719886Y-118492842D01*
X162708500Y-118440500D01*
X162708500Y-117324600D01*
X162703141Y-117272947D01*
X162698238Y-117225692D01*
X162698237Y-117225688D01*
X162697526Y-117218834D01*
X162689539Y-117194892D01*
X162643868Y-117058002D01*
X162641550Y-117051054D01*
X162548478Y-116900652D01*
X162510863Y-116863102D01*
X162428483Y-116780866D01*
X162423303Y-116775695D01*
X162366500Y-116740681D01*
X162278968Y-116686725D01*
X162278966Y-116686724D01*
X162272738Y-116682885D01*
X162154704Y-116643735D01*
X162111389Y-116629368D01*
X162111387Y-116629368D01*
X162104861Y-116627203D01*
X162098025Y-116626503D01*
X162098022Y-116626502D01*
X162054969Y-116622091D01*
X162000400Y-116616500D01*
X161114595Y-116616500D01*
X161046474Y-116596498D01*
X161025500Y-116579595D01*
X160344039Y-115898134D01*
X165641500Y-115898134D01*
X165648255Y-115960316D01*
X165699385Y-116096705D01*
X165786739Y-116213261D01*
X165903295Y-116300615D01*
X165911704Y-116303767D01*
X165911705Y-116303768D01*
X166020960Y-116344726D01*
X166077725Y-116387367D01*
X166102425Y-116453929D01*
X166087218Y-116523278D01*
X166067825Y-116549759D01*
X165944590Y-116678717D01*
X165938104Y-116686727D01*
X165818098Y-116862649D01*
X165813000Y-116871623D01*
X165723338Y-117064783D01*
X165719775Y-117074470D01*
X165664389Y-117274183D01*
X165665912Y-117282607D01*
X165678292Y-117286000D01*
X168318344Y-117286000D01*
X168331875Y-117282027D01*
X168333180Y-117272947D01*
X168291214Y-117105875D01*
X168287894Y-117096124D01*
X168202972Y-116900814D01*
X168198105Y-116891739D01*
X168082426Y-116712926D01*
X168076136Y-116704757D01*
X167932293Y-116546677D01*
X167901241Y-116482831D01*
X167909635Y-116412333D01*
X167954812Y-116357564D01*
X167981256Y-116343895D01*
X168088297Y-116303767D01*
X168096705Y-116300615D01*
X168213261Y-116213261D01*
X168300615Y-116096705D01*
X168351745Y-115960316D01*
X168358500Y-115898134D01*
X168358500Y-114101866D01*
X168351745Y-114039684D01*
X168300615Y-113903295D01*
X168213261Y-113786739D01*
X168096705Y-113699385D01*
X167960316Y-113648255D01*
X167898134Y-113641500D01*
X166101866Y-113641500D01*
X166039684Y-113648255D01*
X165903295Y-113699385D01*
X165786739Y-113786739D01*
X165699385Y-113903295D01*
X165648255Y-114039684D01*
X165641500Y-114101866D01*
X165641500Y-115898134D01*
X160344039Y-115898134D01*
X156878652Y-112432747D01*
X156871112Y-112424461D01*
X156867000Y-112417982D01*
X156857459Y-112409022D01*
X156817349Y-112371357D01*
X156814507Y-112368602D01*
X156794770Y-112348865D01*
X156791573Y-112346385D01*
X156782551Y-112338680D01*
X156763866Y-112321134D01*
X156750321Y-112308414D01*
X156743375Y-112304595D01*
X156743372Y-112304593D01*
X156732566Y-112298652D01*
X156716047Y-112287801D01*
X156715583Y-112287441D01*
X156700041Y-112275386D01*
X156692772Y-112272241D01*
X156692768Y-112272238D01*
X156659463Y-112257826D01*
X156648813Y-112252609D01*
X156610060Y-112231305D01*
X156590437Y-112226267D01*
X156571734Y-112219863D01*
X156560420Y-112214967D01*
X156560419Y-112214967D01*
X156553145Y-112211819D01*
X156545322Y-112210580D01*
X156545312Y-112210577D01*
X156509476Y-112204901D01*
X156497856Y-112202495D01*
X156462711Y-112193472D01*
X156462710Y-112193472D01*
X156455030Y-112191500D01*
X156434776Y-112191500D01*
X156415065Y-112189949D01*
X156412534Y-112189548D01*
X156395057Y-112186780D01*
X156387165Y-112187526D01*
X156351039Y-112190941D01*
X156339181Y-112191500D01*
X154063763Y-112191500D01*
X154052579Y-112190973D01*
X154045091Y-112189299D01*
X154037168Y-112189548D01*
X153977033Y-112191438D01*
X153973075Y-112191500D01*
X153945144Y-112191500D01*
X153941229Y-112191995D01*
X153941225Y-112191995D01*
X153941167Y-112192003D01*
X153941138Y-112192006D01*
X153929296Y-112192939D01*
X153885110Y-112194327D01*
X153867744Y-112199372D01*
X153865658Y-112199978D01*
X153846306Y-112203986D01*
X153834068Y-112205532D01*
X153834066Y-112205533D01*
X153826203Y-112206526D01*
X153785086Y-112222806D01*
X153773885Y-112226641D01*
X153731406Y-112238982D01*
X153724587Y-112243015D01*
X153724582Y-112243017D01*
X153713971Y-112249293D01*
X153696221Y-112257990D01*
X153677383Y-112265448D01*
X153670967Y-112270109D01*
X153670966Y-112270110D01*
X153641625Y-112291428D01*
X153631701Y-112297947D01*
X153600460Y-112316422D01*
X153600455Y-112316426D01*
X153593637Y-112320458D01*
X153579313Y-112334782D01*
X153564281Y-112347621D01*
X153547893Y-112359528D01*
X153534732Y-112375437D01*
X153519712Y-112393593D01*
X153511722Y-112402373D01*
X152267345Y-113646750D01*
X152205033Y-113680776D01*
X152156154Y-113681702D01*
X151943373Y-113643800D01*
X151943367Y-113643799D01*
X151938284Y-113642894D01*
X151864452Y-113641992D01*
X151720081Y-113640228D01*
X151720079Y-113640228D01*
X151714911Y-113640165D01*
X151494091Y-113673955D01*
X151281756Y-113743357D01*
X151083607Y-113846507D01*
X151079474Y-113849610D01*
X151079471Y-113849612D01*
X150909100Y-113977530D01*
X150904965Y-113980635D01*
X150750629Y-114142138D01*
X150643201Y-114299621D01*
X150588293Y-114344621D01*
X150517768Y-114352792D01*
X150454021Y-114321538D01*
X150433324Y-114297054D01*
X150352822Y-114172617D01*
X150352820Y-114172614D01*
X150350014Y-114168277D01*
X150199670Y-114003051D01*
X150195619Y-113999852D01*
X150195615Y-113999848D01*
X150028414Y-113867800D01*
X150028410Y-113867798D01*
X150024359Y-113864598D01*
X149828789Y-113756638D01*
X149823920Y-113754914D01*
X149823916Y-113754912D01*
X149623087Y-113683795D01*
X149623083Y-113683794D01*
X149618212Y-113682069D01*
X149613119Y-113681162D01*
X149613116Y-113681161D01*
X149403373Y-113643800D01*
X149403367Y-113643799D01*
X149398284Y-113642894D01*
X149324452Y-113641992D01*
X149180081Y-113640228D01*
X149180079Y-113640228D01*
X149174911Y-113640165D01*
X148954091Y-113673955D01*
X148741756Y-113743357D01*
X148543607Y-113846507D01*
X148539474Y-113849610D01*
X148539471Y-113849612D01*
X148369100Y-113977530D01*
X148364965Y-113980635D01*
X148210629Y-114142138D01*
X148103201Y-114299621D01*
X148048293Y-114344621D01*
X147977768Y-114352792D01*
X147914021Y-114321538D01*
X147893324Y-114297054D01*
X147812822Y-114172617D01*
X147812820Y-114172614D01*
X147810014Y-114168277D01*
X147659670Y-114003051D01*
X147655619Y-113999852D01*
X147655615Y-113999848D01*
X147488414Y-113867800D01*
X147488410Y-113867798D01*
X147484359Y-113864598D01*
X147288789Y-113756638D01*
X147283920Y-113754914D01*
X147283916Y-113754912D01*
X147083087Y-113683795D01*
X147083083Y-113683794D01*
X147078212Y-113682069D01*
X147073119Y-113681162D01*
X147073116Y-113681161D01*
X146863373Y-113643800D01*
X146863367Y-113643799D01*
X146858284Y-113642894D01*
X146784452Y-113641992D01*
X146640081Y-113640228D01*
X146640079Y-113640228D01*
X146634911Y-113640165D01*
X146414091Y-113673955D01*
X146353644Y-113693712D01*
X146282682Y-113695863D01*
X146221820Y-113659307D01*
X146190383Y-113595650D01*
X146188500Y-113573947D01*
X146188500Y-112733768D01*
X146189027Y-112722585D01*
X146190702Y-112715092D01*
X146188562Y-112647001D01*
X146188500Y-112643044D01*
X146188500Y-112615144D01*
X146187996Y-112611153D01*
X146187063Y-112599311D01*
X146186949Y-112595666D01*
X146185674Y-112555111D01*
X146183462Y-112547497D01*
X146183461Y-112547492D01*
X146180023Y-112535659D01*
X146176012Y-112516295D01*
X146174467Y-112504064D01*
X146173474Y-112496203D01*
X146170557Y-112488836D01*
X146170556Y-112488831D01*
X146157198Y-112455092D01*
X146153354Y-112443865D01*
X146151232Y-112436561D01*
X146141018Y-112401407D01*
X146130707Y-112383972D01*
X146122012Y-112366224D01*
X146114552Y-112347383D01*
X146088564Y-112311613D01*
X146082048Y-112301693D01*
X146063580Y-112270465D01*
X146063578Y-112270462D01*
X146059542Y-112263638D01*
X146045221Y-112249317D01*
X146032380Y-112234283D01*
X146026556Y-112226267D01*
X146020472Y-112217893D01*
X145986395Y-112189702D01*
X145977616Y-112181712D01*
X145562493Y-111766589D01*
X145528467Y-111704277D01*
X145533532Y-111633462D01*
X145576079Y-111576626D01*
X145642599Y-111551815D01*
X145662570Y-111551974D01*
X145674514Y-111553019D01*
X145674525Y-111553019D01*
X145680000Y-111553498D01*
X145908087Y-111533543D01*
X145913400Y-111532119D01*
X145913402Y-111532119D01*
X146123933Y-111475707D01*
X146123935Y-111475706D01*
X146129243Y-111474284D01*
X146207409Y-111437835D01*
X146331762Y-111379849D01*
X146331767Y-111379846D01*
X146336749Y-111377523D01*
X146461500Y-111290171D01*
X146519789Y-111249357D01*
X146519792Y-111249355D01*
X146524300Y-111246198D01*
X146686198Y-111084300D01*
X146696982Y-111068900D01*
X146814366Y-110901257D01*
X146817523Y-110896749D01*
X146819846Y-110891767D01*
X146819849Y-110891762D01*
X146835805Y-110857543D01*
X146882722Y-110804258D01*
X146950999Y-110784797D01*
X147018959Y-110805339D01*
X147064195Y-110857543D01*
X147080151Y-110891762D01*
X147080154Y-110891767D01*
X147082477Y-110896749D01*
X147085634Y-110901257D01*
X147203019Y-111068900D01*
X147213802Y-111084300D01*
X147375700Y-111246198D01*
X147380208Y-111249355D01*
X147380211Y-111249357D01*
X147438500Y-111290171D01*
X147563251Y-111377523D01*
X147568233Y-111379846D01*
X147568238Y-111379849D01*
X147692591Y-111437835D01*
X147770757Y-111474284D01*
X147776065Y-111475706D01*
X147776067Y-111475707D01*
X147986598Y-111532119D01*
X147986600Y-111532119D01*
X147991913Y-111533543D01*
X148220000Y-111553498D01*
X148448087Y-111533543D01*
X148453400Y-111532119D01*
X148453402Y-111532119D01*
X148663933Y-111475707D01*
X148663935Y-111475706D01*
X148669243Y-111474284D01*
X148747409Y-111437835D01*
X148871762Y-111379849D01*
X148871767Y-111379846D01*
X148876749Y-111377523D01*
X149001500Y-111290171D01*
X149059789Y-111249357D01*
X149059792Y-111249355D01*
X149064300Y-111246198D01*
X149226198Y-111084300D01*
X149236982Y-111068900D01*
X149354366Y-110901257D01*
X149357523Y-110896749D01*
X149359846Y-110891767D01*
X149359849Y-110891762D01*
X149375805Y-110857543D01*
X149422722Y-110804258D01*
X149490999Y-110784797D01*
X149558959Y-110805339D01*
X149604195Y-110857543D01*
X149620151Y-110891762D01*
X149620154Y-110891767D01*
X149622477Y-110896749D01*
X149625634Y-110901257D01*
X149743019Y-111068900D01*
X149753802Y-111084300D01*
X149915700Y-111246198D01*
X149920208Y-111249355D01*
X149920211Y-111249357D01*
X149978500Y-111290171D01*
X150103251Y-111377523D01*
X150108233Y-111379846D01*
X150108238Y-111379849D01*
X150232591Y-111437835D01*
X150310757Y-111474284D01*
X150316065Y-111475706D01*
X150316067Y-111475707D01*
X150526598Y-111532119D01*
X150526600Y-111532119D01*
X150531913Y-111533543D01*
X150760000Y-111553498D01*
X150988087Y-111533543D01*
X150993400Y-111532119D01*
X150993402Y-111532119D01*
X151203933Y-111475707D01*
X151203935Y-111475706D01*
X151209243Y-111474284D01*
X151287409Y-111437835D01*
X151411762Y-111379849D01*
X151411767Y-111379846D01*
X151416749Y-111377523D01*
X151541500Y-111290171D01*
X151599789Y-111249357D01*
X151599792Y-111249355D01*
X151604300Y-111246198D01*
X151766198Y-111084300D01*
X151776982Y-111068900D01*
X151894366Y-110901257D01*
X151897523Y-110896749D01*
X151899846Y-110891767D01*
X151899849Y-110891762D01*
X151915805Y-110857543D01*
X151962722Y-110804258D01*
X152030999Y-110784797D01*
X152098959Y-110805339D01*
X152144195Y-110857543D01*
X152160151Y-110891762D01*
X152160154Y-110891767D01*
X152162477Y-110896749D01*
X152165634Y-110901257D01*
X152283019Y-111068900D01*
X152293802Y-111084300D01*
X152455700Y-111246198D01*
X152460208Y-111249355D01*
X152460211Y-111249357D01*
X152518500Y-111290171D01*
X152643251Y-111377523D01*
X152648233Y-111379846D01*
X152648238Y-111379849D01*
X152772591Y-111437835D01*
X152850757Y-111474284D01*
X152856065Y-111475706D01*
X152856067Y-111475707D01*
X153066598Y-111532119D01*
X153066600Y-111532119D01*
X153071913Y-111533543D01*
X153300000Y-111553498D01*
X153528087Y-111533543D01*
X153533400Y-111532119D01*
X153533402Y-111532119D01*
X153743933Y-111475707D01*
X153743935Y-111475706D01*
X153749243Y-111474284D01*
X153827409Y-111437835D01*
X153951762Y-111379849D01*
X153951767Y-111379846D01*
X153956749Y-111377523D01*
X154081500Y-111290171D01*
X154139789Y-111249357D01*
X154139792Y-111249355D01*
X154144300Y-111246198D01*
X154306198Y-111084300D01*
X154316982Y-111068900D01*
X154434366Y-110901257D01*
X154437523Y-110896749D01*
X154439846Y-110891767D01*
X154439849Y-110891762D01*
X154455805Y-110857543D01*
X154502722Y-110804258D01*
X154570999Y-110784797D01*
X154638959Y-110805339D01*
X154684195Y-110857543D01*
X154700151Y-110891762D01*
X154700154Y-110891767D01*
X154702477Y-110896749D01*
X154705634Y-110901257D01*
X154823019Y-111068900D01*
X154833802Y-111084300D01*
X154995700Y-111246198D01*
X155000208Y-111249355D01*
X155000211Y-111249357D01*
X155058500Y-111290171D01*
X155183251Y-111377523D01*
X155188233Y-111379846D01*
X155188238Y-111379849D01*
X155312591Y-111437835D01*
X155390757Y-111474284D01*
X155396065Y-111475706D01*
X155396067Y-111475707D01*
X155606598Y-111532119D01*
X155606600Y-111532119D01*
X155611913Y-111533543D01*
X155840000Y-111553498D01*
X156068087Y-111533543D01*
X156073400Y-111532119D01*
X156073402Y-111532119D01*
X156283933Y-111475707D01*
X156283935Y-111475706D01*
X156289243Y-111474284D01*
X156367409Y-111437835D01*
X156491762Y-111379849D01*
X156491767Y-111379846D01*
X156496749Y-111377523D01*
X156621500Y-111290171D01*
X156679789Y-111249357D01*
X156679792Y-111249355D01*
X156684300Y-111246198D01*
X156846198Y-111084300D01*
X156856982Y-111068900D01*
X156974366Y-110901257D01*
X156977523Y-110896749D01*
X156979846Y-110891767D01*
X156979849Y-110891762D01*
X156995805Y-110857543D01*
X157042722Y-110804258D01*
X157110999Y-110784797D01*
X157178959Y-110805339D01*
X157224195Y-110857543D01*
X157240151Y-110891762D01*
X157240154Y-110891767D01*
X157242477Y-110896749D01*
X157245634Y-110901257D01*
X157363019Y-111068900D01*
X157373802Y-111084300D01*
X157535700Y-111246198D01*
X157540208Y-111249355D01*
X157540211Y-111249357D01*
X157598500Y-111290171D01*
X157723251Y-111377523D01*
X157728233Y-111379846D01*
X157728238Y-111379849D01*
X157852591Y-111437835D01*
X157930757Y-111474284D01*
X157936065Y-111475706D01*
X157936067Y-111475707D01*
X158146598Y-111532119D01*
X158146600Y-111532119D01*
X158151913Y-111533543D01*
X158380000Y-111553498D01*
X158608087Y-111533543D01*
X158613400Y-111532119D01*
X158613402Y-111532119D01*
X158823933Y-111475707D01*
X158823935Y-111475706D01*
X158829243Y-111474284D01*
X158907409Y-111437835D01*
X159031762Y-111379849D01*
X159031767Y-111379846D01*
X159036749Y-111377523D01*
X159161500Y-111290171D01*
X159219789Y-111249357D01*
X159219792Y-111249355D01*
X159224300Y-111246198D01*
X159386198Y-111084300D01*
X159396982Y-111068900D01*
X159514366Y-110901257D01*
X159517523Y-110896749D01*
X159519846Y-110891767D01*
X159519849Y-110891762D01*
X159535805Y-110857543D01*
X159582722Y-110804258D01*
X159650999Y-110784797D01*
X159718959Y-110805339D01*
X159764195Y-110857543D01*
X159780151Y-110891762D01*
X159780154Y-110891767D01*
X159782477Y-110896749D01*
X159785634Y-110901257D01*
X159903019Y-111068900D01*
X159913802Y-111084300D01*
X160075700Y-111246198D01*
X160080208Y-111249355D01*
X160080211Y-111249357D01*
X160138500Y-111290171D01*
X160263251Y-111377523D01*
X160268233Y-111379846D01*
X160268238Y-111379849D01*
X160392591Y-111437835D01*
X160470757Y-111474284D01*
X160476065Y-111475706D01*
X160476067Y-111475707D01*
X160686598Y-111532119D01*
X160686600Y-111532119D01*
X160691913Y-111533543D01*
X160920000Y-111553498D01*
X161148087Y-111533543D01*
X161153400Y-111532119D01*
X161153402Y-111532119D01*
X161363933Y-111475707D01*
X161363935Y-111475706D01*
X161369243Y-111474284D01*
X161447409Y-111437835D01*
X161571762Y-111379849D01*
X161571767Y-111379846D01*
X161576749Y-111377523D01*
X161701500Y-111290171D01*
X161759789Y-111249357D01*
X161759792Y-111249355D01*
X161764300Y-111246198D01*
X161926198Y-111084300D01*
X161936982Y-111068900D01*
X162054366Y-110901257D01*
X162057523Y-110896749D01*
X162059846Y-110891767D01*
X162059849Y-110891762D01*
X162076081Y-110856951D01*
X162122998Y-110803666D01*
X162191275Y-110784205D01*
X162259235Y-110804747D01*
X162304471Y-110856951D01*
X162320586Y-110891511D01*
X162326069Y-110901007D01*
X162451028Y-111079467D01*
X162458084Y-111087875D01*
X162612125Y-111241916D01*
X162620533Y-111248972D01*
X162798993Y-111373931D01*
X162808489Y-111379414D01*
X163005947Y-111471490D01*
X163016239Y-111475236D01*
X163188503Y-111521394D01*
X163202599Y-111521058D01*
X163206000Y-111513116D01*
X163206000Y-111507967D01*
X163714000Y-111507967D01*
X163717973Y-111521498D01*
X163726522Y-111522727D01*
X163903761Y-111475236D01*
X163914053Y-111471490D01*
X164111511Y-111379414D01*
X164121007Y-111373931D01*
X164299467Y-111248972D01*
X164307875Y-111241916D01*
X164461916Y-111087875D01*
X164468972Y-111079467D01*
X164593931Y-110901007D01*
X164599414Y-110891511D01*
X164615529Y-110856951D01*
X164662446Y-110803666D01*
X164730723Y-110784205D01*
X164798683Y-110804747D01*
X164843919Y-110856951D01*
X164860151Y-110891762D01*
X164860154Y-110891767D01*
X164862477Y-110896749D01*
X164865634Y-110901257D01*
X164983019Y-111068900D01*
X164993802Y-111084300D01*
X165155700Y-111246198D01*
X165160208Y-111249355D01*
X165160211Y-111249357D01*
X165218500Y-111290171D01*
X165343251Y-111377523D01*
X165348233Y-111379846D01*
X165348238Y-111379849D01*
X165472591Y-111437835D01*
X165550757Y-111474284D01*
X165556065Y-111475706D01*
X165556067Y-111475707D01*
X165766598Y-111532119D01*
X165766600Y-111532119D01*
X165771913Y-111533543D01*
X166000000Y-111553498D01*
X166228087Y-111533543D01*
X166233400Y-111532119D01*
X166233402Y-111532119D01*
X166443933Y-111475707D01*
X166443935Y-111475706D01*
X166449243Y-111474284D01*
X166527409Y-111437835D01*
X166651762Y-111379849D01*
X166651767Y-111379846D01*
X166656749Y-111377523D01*
X166781500Y-111290171D01*
X166839789Y-111249357D01*
X166839792Y-111249355D01*
X166844300Y-111246198D01*
X167006198Y-111084300D01*
X167016982Y-111068900D01*
X167134366Y-110901257D01*
X167137523Y-110896749D01*
X167139846Y-110891767D01*
X167139849Y-110891762D01*
X167231961Y-110694225D01*
X167231961Y-110694224D01*
X167234284Y-110689243D01*
X167257523Y-110602517D01*
X167292119Y-110473402D01*
X167292119Y-110473400D01*
X167293543Y-110468087D01*
X167313498Y-110240000D01*
X167293543Y-110011913D01*
X167234284Y-109790757D01*
X167139966Y-109588489D01*
X167139849Y-109588238D01*
X167139846Y-109588233D01*
X167137523Y-109583251D01*
X167006198Y-109395700D01*
X166844300Y-109233802D01*
X166839792Y-109230645D01*
X166839789Y-109230643D01*
X166687229Y-109123819D01*
X166642901Y-109068362D01*
X166633500Y-109020606D01*
X166633500Y-105992140D01*
X166643260Y-105948118D01*
X166642115Y-105947738D01*
X166695632Y-105786389D01*
X166695632Y-105786387D01*
X166697797Y-105779861D01*
X166708500Y-105675400D01*
X166708500Y-104324600D01*
X166708163Y-104321350D01*
X166698238Y-104225692D01*
X166698237Y-104225688D01*
X166697526Y-104218834D01*
X166641550Y-104051054D01*
X166548478Y-103900652D01*
X166423303Y-103775695D01*
X166417072Y-103771854D01*
X166278968Y-103686725D01*
X166278966Y-103686724D01*
X166272738Y-103682885D01*
X166192995Y-103656436D01*
X166111389Y-103629368D01*
X166111387Y-103629368D01*
X166104861Y-103627203D01*
X166098025Y-103626503D01*
X166098022Y-103626502D01*
X166054969Y-103622091D01*
X166000400Y-103616500D01*
X165099600Y-103616500D01*
X165096354Y-103616837D01*
X165096350Y-103616837D01*
X165000692Y-103626762D01*
X165000688Y-103626763D01*
X164993834Y-103627474D01*
X164987298Y-103629655D01*
X164987296Y-103629655D01*
X164970928Y-103635116D01*
X164826054Y-103683450D01*
X164675652Y-103776522D01*
X164550695Y-103901697D01*
X164457885Y-104052262D01*
X164402203Y-104220139D01*
X164391500Y-104324600D01*
X164391500Y-105675400D01*
X164402474Y-105781166D01*
X164458450Y-105948946D01*
X164551522Y-106099348D01*
X164676697Y-106224305D01*
X164682927Y-106228145D01*
X164682928Y-106228146D01*
X164820090Y-106312694D01*
X164827262Y-106317115D01*
X164866583Y-106330157D01*
X164988611Y-106370632D01*
X164988613Y-106370632D01*
X164995139Y-106372797D01*
X165001975Y-106373497D01*
X165001978Y-106373498D01*
X165045031Y-106377909D01*
X165099600Y-106383500D01*
X165240500Y-106383500D01*
X165308621Y-106403502D01*
X165355114Y-106457158D01*
X165366500Y-106509500D01*
X165366500Y-109020606D01*
X165346498Y-109088727D01*
X165312771Y-109123819D01*
X165160211Y-109230643D01*
X165160208Y-109230645D01*
X165155700Y-109233802D01*
X164993802Y-109395700D01*
X164862477Y-109583251D01*
X164860154Y-109588233D01*
X164860151Y-109588238D01*
X164843919Y-109623049D01*
X164797002Y-109676334D01*
X164728725Y-109695795D01*
X164660765Y-109675253D01*
X164615529Y-109623049D01*
X164599414Y-109588489D01*
X164593931Y-109578993D01*
X164468972Y-109400533D01*
X164461916Y-109392125D01*
X164307875Y-109238084D01*
X164299467Y-109231028D01*
X164121007Y-109106069D01*
X164111511Y-109100586D01*
X163914053Y-109008510D01*
X163903761Y-109004764D01*
X163731497Y-108958606D01*
X163717401Y-108958942D01*
X163714000Y-108966884D01*
X163714000Y-111507967D01*
X163206000Y-111507967D01*
X163206000Y-108972033D01*
X163202027Y-108958502D01*
X163193478Y-108957273D01*
X163016239Y-109004764D01*
X163005947Y-109008510D01*
X162808489Y-109100586D01*
X162798993Y-109106069D01*
X162620533Y-109231028D01*
X162612125Y-109238084D01*
X162458084Y-109392125D01*
X162451028Y-109400533D01*
X162326069Y-109578993D01*
X162320586Y-109588489D01*
X162304471Y-109623049D01*
X162257554Y-109676334D01*
X162189277Y-109695795D01*
X162121317Y-109675253D01*
X162076081Y-109623049D01*
X162059849Y-109588238D01*
X162059846Y-109588233D01*
X162057523Y-109583251D01*
X161926198Y-109395700D01*
X161764300Y-109233802D01*
X161759792Y-109230645D01*
X161759789Y-109230643D01*
X161607228Y-109123819D01*
X161576749Y-109102477D01*
X161571767Y-109100154D01*
X161571762Y-109100151D01*
X161374225Y-109008039D01*
X161374224Y-109008039D01*
X161369243Y-109005716D01*
X161363935Y-109004294D01*
X161363933Y-109004293D01*
X161153402Y-108947881D01*
X161153400Y-108947881D01*
X161148087Y-108946457D01*
X160920000Y-108926502D01*
X160691913Y-108946457D01*
X160686600Y-108947881D01*
X160686598Y-108947881D01*
X160476067Y-109004293D01*
X160476065Y-109004294D01*
X160470757Y-109005716D01*
X160465776Y-109008039D01*
X160465775Y-109008039D01*
X160268238Y-109100151D01*
X160268233Y-109100154D01*
X160263251Y-109102477D01*
X160232772Y-109123819D01*
X160080211Y-109230643D01*
X160080208Y-109230645D01*
X160075700Y-109233802D01*
X159913802Y-109395700D01*
X159782477Y-109583251D01*
X159780154Y-109588233D01*
X159780151Y-109588238D01*
X159764195Y-109622457D01*
X159717278Y-109675742D01*
X159649001Y-109695203D01*
X159581041Y-109674661D01*
X159535805Y-109622457D01*
X159519849Y-109588238D01*
X159519846Y-109588233D01*
X159517523Y-109583251D01*
X159386198Y-109395700D01*
X159224300Y-109233802D01*
X159219792Y-109230645D01*
X159219789Y-109230643D01*
X159067228Y-109123819D01*
X159036749Y-109102477D01*
X159031767Y-109100154D01*
X159031762Y-109100151D01*
X158834225Y-109008039D01*
X158834224Y-109008039D01*
X158829243Y-109005716D01*
X158823935Y-109004294D01*
X158823933Y-109004293D01*
X158613402Y-108947881D01*
X158613400Y-108947881D01*
X158608087Y-108946457D01*
X158380000Y-108926502D01*
X158151913Y-108946457D01*
X158146600Y-108947881D01*
X158146598Y-108947881D01*
X157936067Y-109004293D01*
X157936065Y-109004294D01*
X157930757Y-109005716D01*
X157925776Y-109008039D01*
X157925775Y-109008039D01*
X157728238Y-109100151D01*
X157728233Y-109100154D01*
X157723251Y-109102477D01*
X157692772Y-109123819D01*
X157540211Y-109230643D01*
X157540208Y-109230645D01*
X157535700Y-109233802D01*
X157373802Y-109395700D01*
X157242477Y-109583251D01*
X157240154Y-109588233D01*
X157240151Y-109588238D01*
X157224195Y-109622457D01*
X157177278Y-109675742D01*
X157109001Y-109695203D01*
X157041041Y-109674661D01*
X156995805Y-109622457D01*
X156979849Y-109588238D01*
X156979846Y-109588233D01*
X156977523Y-109583251D01*
X156846198Y-109395700D01*
X156684300Y-109233802D01*
X156679792Y-109230645D01*
X156679789Y-109230643D01*
X156527228Y-109123819D01*
X156496749Y-109102477D01*
X156491767Y-109100154D01*
X156491762Y-109100151D01*
X156294225Y-109008039D01*
X156294224Y-109008039D01*
X156289243Y-109005716D01*
X156283935Y-109004294D01*
X156283933Y-109004293D01*
X156073402Y-108947881D01*
X156073400Y-108947881D01*
X156068087Y-108946457D01*
X155840000Y-108926502D01*
X155611913Y-108946457D01*
X155606600Y-108947881D01*
X155606598Y-108947881D01*
X155396067Y-109004293D01*
X155396065Y-109004294D01*
X155390757Y-109005716D01*
X155385776Y-109008039D01*
X155385775Y-109008039D01*
X155188238Y-109100151D01*
X155188233Y-109100154D01*
X155183251Y-109102477D01*
X155152772Y-109123819D01*
X155000211Y-109230643D01*
X155000208Y-109230645D01*
X154995700Y-109233802D01*
X154833802Y-109395700D01*
X154702477Y-109583251D01*
X154700154Y-109588233D01*
X154700151Y-109588238D01*
X154684195Y-109622457D01*
X154637278Y-109675742D01*
X154569001Y-109695203D01*
X154501041Y-109674661D01*
X154455805Y-109622457D01*
X154439849Y-109588238D01*
X154439846Y-109588233D01*
X154437523Y-109583251D01*
X154306198Y-109395700D01*
X154144300Y-109233802D01*
X154139792Y-109230645D01*
X154139789Y-109230643D01*
X153987228Y-109123819D01*
X153956749Y-109102477D01*
X153951767Y-109100154D01*
X153951762Y-109100151D01*
X153754225Y-109008039D01*
X153754224Y-109008039D01*
X153749243Y-109005716D01*
X153743935Y-109004294D01*
X153743933Y-109004293D01*
X153533402Y-108947881D01*
X153533400Y-108947881D01*
X153528087Y-108946457D01*
X153300000Y-108926502D01*
X153071913Y-108946457D01*
X153066600Y-108947881D01*
X153066598Y-108947881D01*
X152856067Y-109004293D01*
X152856065Y-109004294D01*
X152850757Y-109005716D01*
X152845776Y-109008039D01*
X152845775Y-109008039D01*
X152648238Y-109100151D01*
X152648233Y-109100154D01*
X152643251Y-109102477D01*
X152612772Y-109123819D01*
X152460211Y-109230643D01*
X152460208Y-109230645D01*
X152455700Y-109233802D01*
X152293802Y-109395700D01*
X152162477Y-109583251D01*
X152160154Y-109588233D01*
X152160151Y-109588238D01*
X152144195Y-109622457D01*
X152097278Y-109675742D01*
X152029001Y-109695203D01*
X151961041Y-109674661D01*
X151915805Y-109622457D01*
X151899849Y-109588238D01*
X151899846Y-109588233D01*
X151897523Y-109583251D01*
X151766198Y-109395700D01*
X151604300Y-109233802D01*
X151599792Y-109230645D01*
X151599789Y-109230643D01*
X151447228Y-109123819D01*
X151416749Y-109102477D01*
X151411767Y-109100154D01*
X151411762Y-109100151D01*
X151214225Y-109008039D01*
X151214224Y-109008039D01*
X151209243Y-109005716D01*
X151203935Y-109004294D01*
X151203933Y-109004293D01*
X150993402Y-108947881D01*
X150993400Y-108947881D01*
X150988087Y-108946457D01*
X150760000Y-108926502D01*
X150531913Y-108946457D01*
X150526600Y-108947881D01*
X150526598Y-108947881D01*
X150316067Y-109004293D01*
X150316065Y-109004294D01*
X150310757Y-109005716D01*
X150305776Y-109008039D01*
X150305775Y-109008039D01*
X150108238Y-109100151D01*
X150108233Y-109100154D01*
X150103251Y-109102477D01*
X150072772Y-109123819D01*
X149920211Y-109230643D01*
X149920208Y-109230645D01*
X149915700Y-109233802D01*
X149753802Y-109395700D01*
X149622477Y-109583251D01*
X149620154Y-109588233D01*
X149620151Y-109588238D01*
X149604195Y-109622457D01*
X149557278Y-109675742D01*
X149489001Y-109695203D01*
X149421041Y-109674661D01*
X149375805Y-109622457D01*
X149359849Y-109588238D01*
X149359846Y-109588233D01*
X149357523Y-109583251D01*
X149226198Y-109395700D01*
X149064300Y-109233802D01*
X149059792Y-109230645D01*
X149059789Y-109230643D01*
X148907228Y-109123819D01*
X148876749Y-109102477D01*
X148871767Y-109100154D01*
X148871762Y-109100151D01*
X148674225Y-109008039D01*
X148674224Y-109008039D01*
X148669243Y-109005716D01*
X148663935Y-109004294D01*
X148663933Y-109004293D01*
X148453402Y-108947881D01*
X148453400Y-108947881D01*
X148448087Y-108946457D01*
X148220000Y-108926502D01*
X147991913Y-108946457D01*
X147928458Y-108963460D01*
X147857482Y-108961770D01*
X147806753Y-108930848D01*
X146483652Y-107607747D01*
X146476112Y-107599461D01*
X146472000Y-107592982D01*
X146422348Y-107546356D01*
X146419507Y-107543602D01*
X146399770Y-107523865D01*
X146396573Y-107521385D01*
X146387551Y-107513680D01*
X146361100Y-107488841D01*
X146355321Y-107483414D01*
X146348375Y-107479595D01*
X146348372Y-107479593D01*
X146337566Y-107473652D01*
X146321047Y-107462801D01*
X146315048Y-107458148D01*
X146305041Y-107450386D01*
X146297772Y-107447241D01*
X146297768Y-107447238D01*
X146264463Y-107432826D01*
X146253813Y-107427609D01*
X146215060Y-107406305D01*
X146195437Y-107401267D01*
X146176734Y-107394863D01*
X146165420Y-107389967D01*
X146165419Y-107389967D01*
X146158145Y-107386819D01*
X146150322Y-107385580D01*
X146150312Y-107385577D01*
X146114476Y-107379901D01*
X146102856Y-107377495D01*
X146067711Y-107368472D01*
X146067710Y-107368472D01*
X146060030Y-107366500D01*
X146039776Y-107366500D01*
X146020065Y-107364949D01*
X146007886Y-107363020D01*
X146000057Y-107361780D01*
X145963127Y-107365271D01*
X145956039Y-107365941D01*
X145944181Y-107366500D01*
X141708200Y-107366500D01*
X141640079Y-107346498D01*
X141620853Y-107330157D01*
X141620580Y-107330460D01*
X141615668Y-107326037D01*
X141611253Y-107321134D01*
X141456752Y-107208882D01*
X141450724Y-107206198D01*
X141450722Y-107206197D01*
X141288319Y-107133891D01*
X141288318Y-107133891D01*
X141282288Y-107131206D01*
X141188888Y-107111353D01*
X141101944Y-107092872D01*
X141101939Y-107092872D01*
X141095487Y-107091500D01*
X140904513Y-107091500D01*
X140898061Y-107092872D01*
X140898056Y-107092872D01*
X140811112Y-107111353D01*
X140717712Y-107131206D01*
X140711682Y-107133891D01*
X140711681Y-107133891D01*
X140549278Y-107206197D01*
X140549276Y-107206198D01*
X140543248Y-107208882D01*
X140388747Y-107321134D01*
X140384326Y-107326044D01*
X140384325Y-107326045D01*
X140275203Y-107447238D01*
X140260960Y-107463056D01*
X140246073Y-107488841D01*
X140169046Y-107622256D01*
X140165473Y-107628444D01*
X140106458Y-107810072D01*
X140086496Y-108000000D01*
X140106458Y-108189928D01*
X140165473Y-108371556D01*
X140260960Y-108536944D01*
X140388747Y-108678866D01*
X140426401Y-108706223D01*
X140443020Y-108718298D01*
X140486374Y-108774521D01*
X140492449Y-108845257D01*
X140459317Y-108908049D01*
X140397497Y-108942960D01*
X140379935Y-108945755D01*
X140377396Y-108945977D01*
X140377393Y-108945978D01*
X140371913Y-108946457D01*
X140366600Y-108947881D01*
X140366598Y-108947881D01*
X140156067Y-109004293D01*
X140156065Y-109004294D01*
X140150757Y-109005716D01*
X140145776Y-109008039D01*
X140145775Y-109008039D01*
X139948238Y-109100151D01*
X139948233Y-109100154D01*
X139943251Y-109102477D01*
X139912772Y-109123819D01*
X139760211Y-109230643D01*
X139760208Y-109230645D01*
X139755700Y-109233802D01*
X139593802Y-109395700D01*
X139462477Y-109583251D01*
X139460154Y-109588233D01*
X139460151Y-109588238D01*
X139444195Y-109622457D01*
X139397278Y-109675742D01*
X139329001Y-109695203D01*
X139261041Y-109674661D01*
X139215805Y-109622457D01*
X139199849Y-109588238D01*
X139199846Y-109588233D01*
X139197523Y-109583251D01*
X139066198Y-109395700D01*
X138904300Y-109233802D01*
X138899792Y-109230645D01*
X138899789Y-109230643D01*
X138747228Y-109123819D01*
X138716749Y-109102477D01*
X138711767Y-109100154D01*
X138711762Y-109100151D01*
X138514225Y-109008039D01*
X138514224Y-109008039D01*
X138509243Y-109005716D01*
X138503935Y-109004294D01*
X138503933Y-109004293D01*
X138293402Y-108947881D01*
X138293400Y-108947881D01*
X138288087Y-108946457D01*
X138060000Y-108926502D01*
X137831913Y-108946457D01*
X137826600Y-108947881D01*
X137826598Y-108947881D01*
X137616067Y-109004293D01*
X137616065Y-109004294D01*
X137610757Y-109005716D01*
X137476412Y-109068362D01*
X137457750Y-109077064D01*
X137387558Y-109087725D01*
X137322745Y-109058745D01*
X137283889Y-108999325D01*
X137278500Y-108962869D01*
X137278500Y-107000000D01*
X152086496Y-107000000D01*
X152106458Y-107189928D01*
X152165473Y-107371556D01*
X152168776Y-107377278D01*
X152168777Y-107377279D01*
X152194953Y-107422616D01*
X152260960Y-107536944D01*
X152265378Y-107541851D01*
X152265379Y-107541852D01*
X152347452Y-107633003D01*
X152388747Y-107678866D01*
X152543248Y-107791118D01*
X152549276Y-107793802D01*
X152549278Y-107793803D01*
X152600560Y-107816635D01*
X152717712Y-107868794D01*
X152811112Y-107888647D01*
X152898056Y-107907128D01*
X152898061Y-107907128D01*
X152904513Y-107908500D01*
X153095487Y-107908500D01*
X153101939Y-107907128D01*
X153101944Y-107907128D01*
X153188888Y-107888647D01*
X153282288Y-107868794D01*
X153399440Y-107816635D01*
X153450722Y-107793803D01*
X153450724Y-107793802D01*
X153456752Y-107791118D01*
X153611253Y-107678866D01*
X153615668Y-107673963D01*
X153620580Y-107669540D01*
X153621705Y-107670789D01*
X153675014Y-107637949D01*
X153708200Y-107633500D01*
X154371233Y-107633500D01*
X154382416Y-107634027D01*
X154389909Y-107635702D01*
X154397835Y-107635453D01*
X154397836Y-107635453D01*
X154457986Y-107633562D01*
X154461945Y-107633500D01*
X154489856Y-107633500D01*
X154493791Y-107633003D01*
X154493856Y-107632995D01*
X154505693Y-107632062D01*
X154537951Y-107631048D01*
X154541970Y-107630922D01*
X154549889Y-107630673D01*
X154569343Y-107625021D01*
X154588700Y-107621013D01*
X154600930Y-107619468D01*
X154600931Y-107619468D01*
X154608797Y-107618474D01*
X154616168Y-107615555D01*
X154616170Y-107615555D01*
X154649912Y-107602196D01*
X154661142Y-107598351D01*
X154695983Y-107588229D01*
X154695984Y-107588229D01*
X154703593Y-107586018D01*
X154710412Y-107581985D01*
X154710417Y-107581983D01*
X154721028Y-107575707D01*
X154738776Y-107567012D01*
X154757617Y-107559552D01*
X154777625Y-107545016D01*
X154793387Y-107533564D01*
X154803307Y-107527048D01*
X154834535Y-107508580D01*
X154834538Y-107508578D01*
X154841362Y-107504542D01*
X154855683Y-107490221D01*
X154870717Y-107477380D01*
X154880694Y-107470131D01*
X154887107Y-107465472D01*
X154915298Y-107431395D01*
X154923288Y-107422616D01*
X155925499Y-106420405D01*
X155987811Y-106386379D01*
X156014594Y-106383500D01*
X156885406Y-106383500D01*
X156953527Y-106403502D01*
X156974501Y-106420405D01*
X157146343Y-106592247D01*
X157153887Y-106600537D01*
X157158000Y-106607018D01*
X157163777Y-106612443D01*
X157207667Y-106653658D01*
X157210509Y-106656413D01*
X157230230Y-106676134D01*
X157233425Y-106678612D01*
X157242447Y-106686318D01*
X157274679Y-106716586D01*
X157281628Y-106720406D01*
X157292432Y-106726346D01*
X157308956Y-106737199D01*
X157324959Y-106749613D01*
X157365543Y-106767176D01*
X157376173Y-106772383D01*
X157414940Y-106793695D01*
X157422617Y-106795666D01*
X157422622Y-106795668D01*
X157434558Y-106798732D01*
X157453266Y-106805137D01*
X157471855Y-106813181D01*
X157479683Y-106814421D01*
X157479690Y-106814423D01*
X157515524Y-106820099D01*
X157527144Y-106822505D01*
X157558959Y-106830673D01*
X157569970Y-106833500D01*
X157590224Y-106833500D01*
X157609934Y-106835051D01*
X157629943Y-106838220D01*
X157637835Y-106837474D01*
X157656580Y-106835702D01*
X157673962Y-106834059D01*
X157685819Y-106833500D01*
X161171233Y-106833500D01*
X161182416Y-106834027D01*
X161189909Y-106835702D01*
X161197835Y-106835453D01*
X161197836Y-106835453D01*
X161257986Y-106833562D01*
X161261945Y-106833500D01*
X161289856Y-106833500D01*
X161293791Y-106833003D01*
X161293856Y-106832995D01*
X161305693Y-106832062D01*
X161337951Y-106831048D01*
X161341970Y-106830922D01*
X161349889Y-106830673D01*
X161369343Y-106825021D01*
X161388700Y-106821013D01*
X161400930Y-106819468D01*
X161400931Y-106819468D01*
X161408797Y-106818474D01*
X161416168Y-106815555D01*
X161416170Y-106815555D01*
X161449912Y-106802196D01*
X161461142Y-106798351D01*
X161495983Y-106788229D01*
X161495984Y-106788229D01*
X161503593Y-106786018D01*
X161510412Y-106781985D01*
X161510417Y-106781983D01*
X161521028Y-106775707D01*
X161538776Y-106767012D01*
X161557617Y-106759552D01*
X161577987Y-106744753D01*
X161593387Y-106733564D01*
X161603307Y-106727048D01*
X161634535Y-106708580D01*
X161634538Y-106708578D01*
X161641362Y-106704542D01*
X161655683Y-106690221D01*
X161670717Y-106677380D01*
X161672432Y-106676134D01*
X161687107Y-106665472D01*
X161715298Y-106631395D01*
X161723288Y-106622616D01*
X161925499Y-106420405D01*
X161987811Y-106386379D01*
X162014594Y-106383500D01*
X162900400Y-106383500D01*
X162903646Y-106383163D01*
X162903650Y-106383163D01*
X162999308Y-106373238D01*
X162999312Y-106373237D01*
X163006166Y-106372526D01*
X163012702Y-106370345D01*
X163012704Y-106370345D01*
X163160206Y-106321134D01*
X163173946Y-106316550D01*
X163324348Y-106223478D01*
X163449305Y-106098303D01*
X163453146Y-106092072D01*
X163538275Y-105953968D01*
X163538276Y-105953966D01*
X163542115Y-105947738D01*
X163597797Y-105779861D01*
X163608500Y-105675400D01*
X163608500Y-104324600D01*
X163608163Y-104321350D01*
X163598238Y-104225692D01*
X163598237Y-104225688D01*
X163597526Y-104218834D01*
X163541550Y-104051054D01*
X163448478Y-103900652D01*
X163323303Y-103775695D01*
X163317072Y-103771854D01*
X163178968Y-103686725D01*
X163178966Y-103686724D01*
X163172738Y-103682885D01*
X163092995Y-103656436D01*
X163011389Y-103629368D01*
X163011387Y-103629368D01*
X163004861Y-103627203D01*
X162998025Y-103626503D01*
X162998022Y-103626502D01*
X162954969Y-103622091D01*
X162900400Y-103616500D01*
X161999600Y-103616500D01*
X161996354Y-103616837D01*
X161996350Y-103616837D01*
X161900692Y-103626762D01*
X161900688Y-103626763D01*
X161893834Y-103627474D01*
X161887298Y-103629655D01*
X161887296Y-103629655D01*
X161870928Y-103635116D01*
X161726054Y-103683450D01*
X161575652Y-103776522D01*
X161450695Y-103901697D01*
X161357885Y-104052262D01*
X161302203Y-104220139D01*
X161291500Y-104324600D01*
X161291500Y-105210405D01*
X161271498Y-105278526D01*
X161254595Y-105299500D01*
X161024500Y-105529595D01*
X160962188Y-105563621D01*
X160935405Y-105566500D01*
X160834000Y-105566500D01*
X160765879Y-105546498D01*
X160719386Y-105492842D01*
X160708000Y-105440500D01*
X160708000Y-105272115D01*
X160703525Y-105256876D01*
X160702135Y-105255671D01*
X160694452Y-105254000D01*
X158410116Y-105254000D01*
X158394877Y-105258475D01*
X158393672Y-105259865D01*
X158392001Y-105267548D01*
X158392001Y-105440500D01*
X158371999Y-105508621D01*
X158318343Y-105555114D01*
X158266001Y-105566500D01*
X157964595Y-105566500D01*
X157896474Y-105546498D01*
X157875500Y-105529595D01*
X157645405Y-105299500D01*
X157611379Y-105237188D01*
X157608500Y-105210405D01*
X157608500Y-104727885D01*
X158392000Y-104727885D01*
X158396475Y-104743124D01*
X158397865Y-104744329D01*
X158405548Y-104746000D01*
X159277885Y-104746000D01*
X159293124Y-104741525D01*
X159294329Y-104740135D01*
X159296000Y-104732452D01*
X159296000Y-104727885D01*
X159804000Y-104727885D01*
X159808475Y-104743124D01*
X159809865Y-104744329D01*
X159817548Y-104746000D01*
X160689884Y-104746000D01*
X160705123Y-104741525D01*
X160706328Y-104740135D01*
X160707999Y-104732452D01*
X160707999Y-104327905D01*
X160707662Y-104321386D01*
X160697743Y-104225794D01*
X160694851Y-104212400D01*
X160643412Y-104058216D01*
X160637239Y-104045038D01*
X160551937Y-103907193D01*
X160542901Y-103895792D01*
X160428171Y-103781261D01*
X160416760Y-103772249D01*
X160278757Y-103687184D01*
X160265576Y-103681037D01*
X160111290Y-103629862D01*
X160097914Y-103626995D01*
X160003562Y-103617328D01*
X159997145Y-103617000D01*
X159822115Y-103617000D01*
X159806876Y-103621475D01*
X159805671Y-103622865D01*
X159804000Y-103630548D01*
X159804000Y-104727885D01*
X159296000Y-104727885D01*
X159296000Y-103635116D01*
X159291525Y-103619877D01*
X159290135Y-103618672D01*
X159282452Y-103617001D01*
X159102905Y-103617001D01*
X159096386Y-103617338D01*
X159000794Y-103627257D01*
X158987400Y-103630149D01*
X158833216Y-103681588D01*
X158820038Y-103687761D01*
X158682193Y-103773063D01*
X158670792Y-103782099D01*
X158556261Y-103896829D01*
X158547249Y-103908240D01*
X158462184Y-104046243D01*
X158456037Y-104059424D01*
X158404862Y-104213710D01*
X158401995Y-104227086D01*
X158392328Y-104321438D01*
X158392000Y-104327855D01*
X158392000Y-104727885D01*
X157608500Y-104727885D01*
X157608500Y-104324600D01*
X157608163Y-104321350D01*
X157598238Y-104225692D01*
X157598237Y-104225688D01*
X157597526Y-104218834D01*
X157541550Y-104051054D01*
X157448478Y-103900652D01*
X157323303Y-103775695D01*
X157317072Y-103771854D01*
X157178968Y-103686725D01*
X157178966Y-103686724D01*
X157172738Y-103682885D01*
X157092995Y-103656436D01*
X157011389Y-103629368D01*
X157011387Y-103629368D01*
X157004861Y-103627203D01*
X156998025Y-103626503D01*
X156998022Y-103626502D01*
X156954969Y-103622091D01*
X156900400Y-103616500D01*
X155999600Y-103616500D01*
X155996354Y-103616837D01*
X155996350Y-103616837D01*
X155900692Y-103626762D01*
X155900688Y-103626763D01*
X155893834Y-103627474D01*
X155887298Y-103629655D01*
X155887296Y-103629655D01*
X155870928Y-103635116D01*
X155726054Y-103683450D01*
X155575652Y-103776522D01*
X155450695Y-103901697D01*
X155357885Y-104052262D01*
X155302203Y-104220139D01*
X155291500Y-104324600D01*
X155291500Y-105210406D01*
X155271498Y-105278527D01*
X155254595Y-105299501D01*
X154224500Y-106329595D01*
X154162188Y-106363621D01*
X154135405Y-106366500D01*
X153708200Y-106366500D01*
X153640079Y-106346498D01*
X153620853Y-106330157D01*
X153620580Y-106330460D01*
X153615668Y-106326037D01*
X153611253Y-106321134D01*
X153456752Y-106208882D01*
X153450724Y-106206198D01*
X153450722Y-106206197D01*
X153288319Y-106133891D01*
X153288318Y-106133891D01*
X153282288Y-106131206D01*
X153156746Y-106104521D01*
X153101944Y-106092872D01*
X153101939Y-106092872D01*
X153095487Y-106091500D01*
X152904513Y-106091500D01*
X152898061Y-106092872D01*
X152898056Y-106092872D01*
X152843254Y-106104521D01*
X152717712Y-106131206D01*
X152711682Y-106133891D01*
X152711681Y-106133891D01*
X152549278Y-106206197D01*
X152549276Y-106206198D01*
X152543248Y-106208882D01*
X152388747Y-106321134D01*
X152384326Y-106326044D01*
X152384325Y-106326045D01*
X152266271Y-106457158D01*
X152260960Y-106463056D01*
X152165473Y-106628444D01*
X152106458Y-106810072D01*
X152105768Y-106816633D01*
X152105768Y-106816635D01*
X152087186Y-106993435D01*
X152086496Y-107000000D01*
X137278500Y-107000000D01*
X137278500Y-101809594D01*
X137298502Y-101741473D01*
X137315405Y-101720499D01*
X139035904Y-100000000D01*
X152386526Y-100000000D01*
X152406391Y-100252403D01*
X152465495Y-100498591D01*
X152467388Y-100503162D01*
X152467389Y-100503164D01*
X152552789Y-100709337D01*
X152562384Y-100732502D01*
X152694672Y-100948376D01*
X152859102Y-101140898D01*
X152862858Y-101144106D01*
X152882685Y-101161040D01*
X153051624Y-101305328D01*
X153267498Y-101437616D01*
X153272068Y-101439509D01*
X153272072Y-101439511D01*
X153478160Y-101524875D01*
X153501409Y-101534505D01*
X153586032Y-101554821D01*
X153742784Y-101592454D01*
X153742790Y-101592455D01*
X153747597Y-101593609D01*
X153847416Y-101601465D01*
X153934345Y-101608307D01*
X153934352Y-101608307D01*
X153936801Y-101608500D01*
X154063199Y-101608500D01*
X154065648Y-101608307D01*
X154065655Y-101608307D01*
X154152584Y-101601465D01*
X154252403Y-101593609D01*
X154257210Y-101592455D01*
X154257216Y-101592454D01*
X154413968Y-101554821D01*
X154498591Y-101534505D01*
X154521840Y-101524875D01*
X154727928Y-101439511D01*
X154727932Y-101439509D01*
X154732502Y-101437616D01*
X154948376Y-101305328D01*
X155117315Y-101161040D01*
X155137142Y-101144106D01*
X155140898Y-101140898D01*
X155305328Y-100948376D01*
X155437616Y-100732502D01*
X155447212Y-100709337D01*
X155532611Y-100503164D01*
X155532612Y-100503162D01*
X155534505Y-100498591D01*
X155593609Y-100252403D01*
X155613474Y-100000000D01*
X155593609Y-99747597D01*
X155586929Y-99719770D01*
X155535660Y-99506221D01*
X155534505Y-99501409D01*
X155437616Y-99267498D01*
X155305328Y-99051624D01*
X155140898Y-98859102D01*
X154948376Y-98694672D01*
X154732502Y-98562384D01*
X154727932Y-98560491D01*
X154727928Y-98560489D01*
X154503164Y-98467389D01*
X154503162Y-98467388D01*
X154498591Y-98465495D01*
X154413968Y-98445179D01*
X154257216Y-98407546D01*
X154257210Y-98407545D01*
X154252403Y-98406391D01*
X154152584Y-98398535D01*
X154065655Y-98391693D01*
X154065648Y-98391693D01*
X154063199Y-98391500D01*
X153936801Y-98391500D01*
X153934352Y-98391693D01*
X153934345Y-98391693D01*
X153847416Y-98398535D01*
X153747597Y-98406391D01*
X153742790Y-98407545D01*
X153742784Y-98407546D01*
X153586032Y-98445179D01*
X153501409Y-98465495D01*
X153496838Y-98467388D01*
X153496836Y-98467389D01*
X153272072Y-98560489D01*
X153272068Y-98560491D01*
X153267498Y-98562384D01*
X153051624Y-98694672D01*
X152859102Y-98859102D01*
X152694672Y-99051624D01*
X152562384Y-99267498D01*
X152465495Y-99501409D01*
X152464340Y-99506221D01*
X152413072Y-99719770D01*
X152406391Y-99747597D01*
X152386526Y-100000000D01*
X139035904Y-100000000D01*
X142726752Y-96309152D01*
X142789064Y-96275126D01*
X142848459Y-96276541D01*
X142906591Y-96292118D01*
X142906602Y-96292120D01*
X142911913Y-96293543D01*
X143140000Y-96313498D01*
X143368087Y-96293543D01*
X143373400Y-96292119D01*
X143373402Y-96292119D01*
X143583933Y-96235707D01*
X143583935Y-96235706D01*
X143589243Y-96234284D01*
X143621175Y-96219394D01*
X143791762Y-96139849D01*
X143791767Y-96139846D01*
X143796749Y-96137523D01*
X143938458Y-96038297D01*
X143979789Y-96009357D01*
X143979792Y-96009355D01*
X143984300Y-96006198D01*
X144146198Y-95844300D01*
X144277523Y-95656749D01*
X144279846Y-95651767D01*
X144279849Y-95651762D01*
X144295805Y-95617543D01*
X144342722Y-95564258D01*
X144410999Y-95544797D01*
X144478959Y-95565339D01*
X144524195Y-95617543D01*
X144540151Y-95651762D01*
X144540154Y-95651767D01*
X144542477Y-95656749D01*
X144673802Y-95844300D01*
X144835700Y-96006198D01*
X144840208Y-96009355D01*
X144840211Y-96009357D01*
X144881542Y-96038297D01*
X145023251Y-96137523D01*
X145028233Y-96139846D01*
X145028238Y-96139849D01*
X145198825Y-96219394D01*
X145230757Y-96234284D01*
X145236065Y-96235706D01*
X145236067Y-96235707D01*
X145446598Y-96292119D01*
X145446600Y-96292119D01*
X145451913Y-96293543D01*
X145680000Y-96313498D01*
X145908087Y-96293543D01*
X145913400Y-96292119D01*
X145913402Y-96292119D01*
X146123933Y-96235707D01*
X146123935Y-96235706D01*
X146129243Y-96234284D01*
X146161175Y-96219394D01*
X146331762Y-96139849D01*
X146331767Y-96139846D01*
X146336749Y-96137523D01*
X146478458Y-96038297D01*
X146519789Y-96009357D01*
X146519792Y-96009355D01*
X146524300Y-96006198D01*
X146686198Y-95844300D01*
X146817523Y-95656749D01*
X146819846Y-95651767D01*
X146819849Y-95651762D01*
X146835805Y-95617543D01*
X146882722Y-95564258D01*
X146950999Y-95544797D01*
X147018959Y-95565339D01*
X147064195Y-95617543D01*
X147080151Y-95651762D01*
X147080154Y-95651767D01*
X147082477Y-95656749D01*
X147213802Y-95844300D01*
X147375700Y-96006198D01*
X147380208Y-96009355D01*
X147380211Y-96009357D01*
X147421542Y-96038297D01*
X147563251Y-96137523D01*
X147568233Y-96139846D01*
X147568238Y-96139849D01*
X147738825Y-96219394D01*
X147770757Y-96234284D01*
X147776065Y-96235706D01*
X147776067Y-96235707D01*
X147986598Y-96292119D01*
X147986600Y-96292119D01*
X147991913Y-96293543D01*
X148220000Y-96313498D01*
X148448087Y-96293543D01*
X148453400Y-96292119D01*
X148453402Y-96292119D01*
X148663933Y-96235707D01*
X148663935Y-96235706D01*
X148669243Y-96234284D01*
X148701175Y-96219394D01*
X148871762Y-96139849D01*
X148871767Y-96139846D01*
X148876749Y-96137523D01*
X149018458Y-96038297D01*
X149059789Y-96009357D01*
X149059792Y-96009355D01*
X149064300Y-96006198D01*
X149226198Y-95844300D01*
X149357523Y-95656749D01*
X149359846Y-95651767D01*
X149359849Y-95651762D01*
X149375805Y-95617543D01*
X149422722Y-95564258D01*
X149490999Y-95544797D01*
X149558959Y-95565339D01*
X149604195Y-95617543D01*
X149620151Y-95651762D01*
X149620154Y-95651767D01*
X149622477Y-95656749D01*
X149753802Y-95844300D01*
X149915700Y-96006198D01*
X149920208Y-96009355D01*
X149920211Y-96009357D01*
X149961542Y-96038297D01*
X150103251Y-96137523D01*
X150108233Y-96139846D01*
X150108238Y-96139849D01*
X150278825Y-96219394D01*
X150310757Y-96234284D01*
X150316065Y-96235706D01*
X150316067Y-96235707D01*
X150526598Y-96292119D01*
X150526600Y-96292119D01*
X150531913Y-96293543D01*
X150760000Y-96313498D01*
X150988087Y-96293543D01*
X150993400Y-96292119D01*
X150993402Y-96292119D01*
X151203933Y-96235707D01*
X151203935Y-96235706D01*
X151209243Y-96234284D01*
X151241175Y-96219394D01*
X151411762Y-96139849D01*
X151411767Y-96139846D01*
X151416749Y-96137523D01*
X151558458Y-96038297D01*
X151599789Y-96009357D01*
X151599792Y-96009355D01*
X151604300Y-96006198D01*
X151766198Y-95844300D01*
X151897523Y-95656749D01*
X151899846Y-95651767D01*
X151899849Y-95651762D01*
X151915805Y-95617543D01*
X151962722Y-95564258D01*
X152030999Y-95544797D01*
X152098959Y-95565339D01*
X152144195Y-95617543D01*
X152160151Y-95651762D01*
X152160154Y-95651767D01*
X152162477Y-95656749D01*
X152293802Y-95844300D01*
X152455700Y-96006198D01*
X152460208Y-96009355D01*
X152460211Y-96009357D01*
X152501542Y-96038297D01*
X152643251Y-96137523D01*
X152648233Y-96139846D01*
X152648238Y-96139849D01*
X152818825Y-96219394D01*
X152850757Y-96234284D01*
X152856065Y-96235706D01*
X152856067Y-96235707D01*
X153066598Y-96292119D01*
X153066600Y-96292119D01*
X153071913Y-96293543D01*
X153300000Y-96313498D01*
X153528087Y-96293543D01*
X153533400Y-96292119D01*
X153533402Y-96292119D01*
X153743933Y-96235707D01*
X153743935Y-96235706D01*
X153749243Y-96234284D01*
X153781175Y-96219394D01*
X153951762Y-96139849D01*
X153951767Y-96139846D01*
X153956749Y-96137523D01*
X154098458Y-96038297D01*
X154139789Y-96009357D01*
X154139792Y-96009355D01*
X154144300Y-96006198D01*
X154306198Y-95844300D01*
X154437523Y-95656749D01*
X154439846Y-95651767D01*
X154439849Y-95651762D01*
X154455805Y-95617543D01*
X154502722Y-95564258D01*
X154570999Y-95544797D01*
X154638959Y-95565339D01*
X154684195Y-95617543D01*
X154700151Y-95651762D01*
X154700154Y-95651767D01*
X154702477Y-95656749D01*
X154833802Y-95844300D01*
X154995700Y-96006198D01*
X155000208Y-96009355D01*
X155000211Y-96009357D01*
X155041542Y-96038297D01*
X155183251Y-96137523D01*
X155188233Y-96139846D01*
X155188238Y-96139849D01*
X155358825Y-96219394D01*
X155390757Y-96234284D01*
X155396065Y-96235706D01*
X155396067Y-96235707D01*
X155606598Y-96292119D01*
X155606600Y-96292119D01*
X155611913Y-96293543D01*
X155840000Y-96313498D01*
X156068087Y-96293543D01*
X156073400Y-96292119D01*
X156073402Y-96292119D01*
X156283933Y-96235707D01*
X156283935Y-96235706D01*
X156289243Y-96234284D01*
X156321175Y-96219394D01*
X156491762Y-96139849D01*
X156491767Y-96139846D01*
X156496749Y-96137523D01*
X156638458Y-96038297D01*
X156679789Y-96009357D01*
X156679792Y-96009355D01*
X156684300Y-96006198D01*
X156846198Y-95844300D01*
X156977523Y-95656749D01*
X156979846Y-95651767D01*
X156979849Y-95651762D01*
X156996081Y-95616951D01*
X157042998Y-95563666D01*
X157111275Y-95544205D01*
X157179235Y-95564747D01*
X157224471Y-95616951D01*
X157240586Y-95651511D01*
X157246069Y-95661007D01*
X157371028Y-95839467D01*
X157378084Y-95847875D01*
X157532125Y-96001916D01*
X157540533Y-96008972D01*
X157718993Y-96133931D01*
X157728489Y-96139414D01*
X157925947Y-96231490D01*
X157936239Y-96235236D01*
X158108503Y-96281394D01*
X158122599Y-96281058D01*
X158126000Y-96273116D01*
X158126000Y-94872000D01*
X158146002Y-94803879D01*
X158199658Y-94757386D01*
X158252000Y-94746000D01*
X158508000Y-94746000D01*
X158576121Y-94766002D01*
X158622614Y-94819658D01*
X158634000Y-94872000D01*
X158634000Y-96267967D01*
X158637973Y-96281498D01*
X158646522Y-96282727D01*
X158823761Y-96235236D01*
X158834053Y-96231490D01*
X159031511Y-96139414D01*
X159041007Y-96133931D01*
X159219467Y-96008972D01*
X159227875Y-96001916D01*
X159381916Y-95847875D01*
X159388972Y-95839467D01*
X159513931Y-95661007D01*
X159519414Y-95651511D01*
X159535529Y-95616951D01*
X159582446Y-95563666D01*
X159650723Y-95544205D01*
X159718683Y-95564747D01*
X159763919Y-95616951D01*
X159780151Y-95651762D01*
X159780154Y-95651767D01*
X159782477Y-95656749D01*
X159913802Y-95844300D01*
X160075700Y-96006198D01*
X160080208Y-96009355D01*
X160080211Y-96009357D01*
X160121542Y-96038297D01*
X160263251Y-96137523D01*
X160268233Y-96139846D01*
X160268238Y-96139849D01*
X160438825Y-96219394D01*
X160470757Y-96234284D01*
X160476065Y-96235706D01*
X160476067Y-96235707D01*
X160686598Y-96292119D01*
X160686600Y-96292119D01*
X160691913Y-96293543D01*
X160920000Y-96313498D01*
X161148087Y-96293543D01*
X161153400Y-96292119D01*
X161153402Y-96292119D01*
X161363933Y-96235707D01*
X161363935Y-96235706D01*
X161369243Y-96234284D01*
X161401175Y-96219394D01*
X161571762Y-96139849D01*
X161571767Y-96139846D01*
X161576749Y-96137523D01*
X161718458Y-96038297D01*
X161759789Y-96009357D01*
X161759792Y-96009355D01*
X161764300Y-96006198D01*
X161926198Y-95844300D01*
X162057523Y-95656749D01*
X162059846Y-95651767D01*
X162059849Y-95651762D01*
X162075805Y-95617543D01*
X162122722Y-95564258D01*
X162190999Y-95544797D01*
X162258959Y-95565339D01*
X162304195Y-95617543D01*
X162320151Y-95651762D01*
X162320154Y-95651767D01*
X162322477Y-95656749D01*
X162453802Y-95844300D01*
X162615700Y-96006198D01*
X162620208Y-96009355D01*
X162620211Y-96009357D01*
X162661542Y-96038297D01*
X162803251Y-96137523D01*
X162808233Y-96139846D01*
X162808238Y-96139849D01*
X162978825Y-96219394D01*
X163010757Y-96234284D01*
X163016065Y-96235706D01*
X163016067Y-96235707D01*
X163226598Y-96292119D01*
X163226600Y-96292119D01*
X163231913Y-96293543D01*
X163460000Y-96313498D01*
X163688087Y-96293543D01*
X163693400Y-96292119D01*
X163693402Y-96292119D01*
X163903933Y-96235707D01*
X163903935Y-96235706D01*
X163909243Y-96234284D01*
X163941175Y-96219394D01*
X164111762Y-96139849D01*
X164111767Y-96139846D01*
X164116749Y-96137523D01*
X164258458Y-96038297D01*
X164299789Y-96009357D01*
X164299792Y-96009355D01*
X164304300Y-96006198D01*
X164466198Y-95844300D01*
X164469357Y-95839789D01*
X164472892Y-95835576D01*
X164474026Y-95836527D01*
X164524071Y-95796529D01*
X164594690Y-95789224D01*
X164658049Y-95821258D01*
X164694030Y-95882462D01*
X164697082Y-95899517D01*
X164698255Y-95910316D01*
X164749385Y-96046705D01*
X164836739Y-96163261D01*
X164953295Y-96250615D01*
X165089684Y-96301745D01*
X165151866Y-96308500D01*
X166848134Y-96308500D01*
X166910316Y-96301745D01*
X167046705Y-96250615D01*
X167163261Y-96163261D01*
X167250615Y-96046705D01*
X167301745Y-95910316D01*
X167308500Y-95848134D01*
X167308500Y-94151866D01*
X167301745Y-94089684D01*
X167250615Y-93953295D01*
X167163261Y-93836739D01*
X167046705Y-93749385D01*
X166910316Y-93698255D01*
X166848134Y-93691500D01*
X165151866Y-93691500D01*
X165089684Y-93698255D01*
X164953295Y-93749385D01*
X164836739Y-93836739D01*
X164749385Y-93953295D01*
X164698255Y-94089684D01*
X164697083Y-94100474D01*
X164696197Y-94102606D01*
X164695575Y-94105222D01*
X164695152Y-94105121D01*
X164669845Y-94166035D01*
X164611483Y-94206463D01*
X164540529Y-94208922D01*
X164479510Y-94172629D01*
X164472511Y-94163969D01*
X164469354Y-94160207D01*
X164466198Y-94155700D01*
X164304300Y-93993802D01*
X164299792Y-93990645D01*
X164299789Y-93990643D01*
X164147228Y-93883819D01*
X164116749Y-93862477D01*
X164111767Y-93860154D01*
X164111762Y-93860151D01*
X163914225Y-93768039D01*
X163914224Y-93768039D01*
X163909243Y-93765716D01*
X163903935Y-93764294D01*
X163903933Y-93764293D01*
X163693402Y-93707881D01*
X163693400Y-93707881D01*
X163688087Y-93706457D01*
X163460000Y-93686502D01*
X163231913Y-93706457D01*
X163226600Y-93707881D01*
X163226598Y-93707881D01*
X163016067Y-93764293D01*
X163016065Y-93764294D01*
X163010757Y-93765716D01*
X163005776Y-93768039D01*
X163005775Y-93768039D01*
X162808238Y-93860151D01*
X162808233Y-93860154D01*
X162803251Y-93862477D01*
X162772772Y-93883819D01*
X162620211Y-93990643D01*
X162620208Y-93990645D01*
X162615700Y-93993802D01*
X162453802Y-94155700D01*
X162322477Y-94343251D01*
X162320154Y-94348233D01*
X162320151Y-94348238D01*
X162304195Y-94382457D01*
X162257278Y-94435742D01*
X162189001Y-94455203D01*
X162121041Y-94434661D01*
X162075805Y-94382457D01*
X162059849Y-94348238D01*
X162059846Y-94348233D01*
X162057523Y-94343251D01*
X161926198Y-94155700D01*
X161764300Y-93993802D01*
X161759792Y-93990645D01*
X161759789Y-93990643D01*
X161607228Y-93883819D01*
X161576749Y-93862477D01*
X161571767Y-93860154D01*
X161571762Y-93860151D01*
X161374225Y-93768039D01*
X161374224Y-93768039D01*
X161369243Y-93765716D01*
X161363935Y-93764294D01*
X161363933Y-93764293D01*
X161153402Y-93707881D01*
X161153400Y-93707881D01*
X161148087Y-93706457D01*
X160920000Y-93686502D01*
X160691913Y-93706457D01*
X160686600Y-93707881D01*
X160686598Y-93707881D01*
X160476067Y-93764293D01*
X160476065Y-93764294D01*
X160470757Y-93765716D01*
X160465776Y-93768039D01*
X160465775Y-93768039D01*
X160268238Y-93860151D01*
X160268233Y-93860154D01*
X160263251Y-93862477D01*
X160232772Y-93883819D01*
X160080211Y-93990643D01*
X160080208Y-93990645D01*
X160075700Y-93993802D01*
X159913802Y-94155700D01*
X159782477Y-94343251D01*
X159780154Y-94348233D01*
X159780151Y-94348238D01*
X159763919Y-94383049D01*
X159717002Y-94436334D01*
X159648725Y-94455795D01*
X159580765Y-94435253D01*
X159535529Y-94383049D01*
X159519414Y-94348489D01*
X159513931Y-94338993D01*
X159388972Y-94160533D01*
X159381916Y-94152125D01*
X159274028Y-94044237D01*
X159240002Y-93981925D01*
X159245067Y-93911110D01*
X159287614Y-93854274D01*
X159342942Y-93830891D01*
X159349889Y-93830673D01*
X159369343Y-93825021D01*
X159388700Y-93821013D01*
X159400930Y-93819468D01*
X159400931Y-93819468D01*
X159408797Y-93818474D01*
X159416168Y-93815555D01*
X159416170Y-93815555D01*
X159449912Y-93802196D01*
X159461142Y-93798351D01*
X159495983Y-93788229D01*
X159495984Y-93788229D01*
X159503593Y-93786018D01*
X159510412Y-93781985D01*
X159510417Y-93781983D01*
X159521028Y-93775707D01*
X159538776Y-93767012D01*
X159557617Y-93759552D01*
X159568999Y-93751283D01*
X159593387Y-93733564D01*
X159603307Y-93727048D01*
X159634535Y-93708580D01*
X159634538Y-93708578D01*
X159641362Y-93704542D01*
X159655683Y-93690221D01*
X159670717Y-93677380D01*
X159680694Y-93670131D01*
X159687107Y-93665472D01*
X159715298Y-93631395D01*
X159723288Y-93622616D01*
X159925499Y-93420405D01*
X159987811Y-93386379D01*
X160014594Y-93383500D01*
X160900400Y-93383500D01*
X160903646Y-93383163D01*
X160903650Y-93383163D01*
X160999308Y-93373238D01*
X160999312Y-93373237D01*
X161006166Y-93372526D01*
X161012702Y-93370345D01*
X161012704Y-93370345D01*
X161144806Y-93326272D01*
X161173946Y-93316550D01*
X161324348Y-93223478D01*
X161449305Y-93098303D01*
X161505676Y-93006853D01*
X161538275Y-92953968D01*
X161538276Y-92953966D01*
X161542115Y-92947738D01*
X161597797Y-92779861D01*
X161608500Y-92675400D01*
X161608500Y-92672095D01*
X162392001Y-92672095D01*
X162392338Y-92678614D01*
X162402257Y-92774206D01*
X162405149Y-92787600D01*
X162456588Y-92941784D01*
X162462761Y-92954962D01*
X162548063Y-93092807D01*
X162557099Y-93104208D01*
X162671829Y-93218739D01*
X162683240Y-93227751D01*
X162821243Y-93312816D01*
X162834424Y-93318963D01*
X162988710Y-93370138D01*
X163002086Y-93373005D01*
X163096438Y-93382672D01*
X163102854Y-93383000D01*
X163277885Y-93383000D01*
X163293124Y-93378525D01*
X163294329Y-93377135D01*
X163296000Y-93369452D01*
X163296000Y-93364884D01*
X163804000Y-93364884D01*
X163808475Y-93380123D01*
X163809865Y-93381328D01*
X163817548Y-93382999D01*
X163997095Y-93382999D01*
X164003614Y-93382662D01*
X164099206Y-93372743D01*
X164112600Y-93369851D01*
X164266784Y-93318412D01*
X164279962Y-93312239D01*
X164417807Y-93226937D01*
X164429208Y-93217901D01*
X164543739Y-93103171D01*
X164552751Y-93091760D01*
X164637816Y-92953757D01*
X164643963Y-92940576D01*
X164695138Y-92786290D01*
X164698005Y-92772914D01*
X164707672Y-92678562D01*
X164708000Y-92672146D01*
X164708000Y-92272115D01*
X164703525Y-92256876D01*
X164702135Y-92255671D01*
X164694452Y-92254000D01*
X163822115Y-92254000D01*
X163806876Y-92258475D01*
X163805671Y-92259865D01*
X163804000Y-92267548D01*
X163804000Y-93364884D01*
X163296000Y-93364884D01*
X163296000Y-92272115D01*
X163291525Y-92256876D01*
X163290135Y-92255671D01*
X163282452Y-92254000D01*
X162410116Y-92254000D01*
X162394877Y-92258475D01*
X162393672Y-92259865D01*
X162392001Y-92267548D01*
X162392001Y-92672095D01*
X161608500Y-92672095D01*
X161608500Y-91727885D01*
X162392000Y-91727885D01*
X162396475Y-91743124D01*
X162397865Y-91744329D01*
X162405548Y-91746000D01*
X163277885Y-91746000D01*
X163293124Y-91741525D01*
X163294329Y-91740135D01*
X163296000Y-91732452D01*
X163296000Y-91727885D01*
X163804000Y-91727885D01*
X163808475Y-91743124D01*
X163809865Y-91744329D01*
X163817548Y-91746000D01*
X164689884Y-91746000D01*
X164705123Y-91741525D01*
X164706328Y-91740135D01*
X164707999Y-91732452D01*
X164707999Y-91327905D01*
X164707662Y-91321386D01*
X164697743Y-91225794D01*
X164694851Y-91212400D01*
X164643412Y-91058216D01*
X164637239Y-91045038D01*
X164551937Y-90907193D01*
X164542901Y-90895792D01*
X164428171Y-90781261D01*
X164416760Y-90772249D01*
X164278757Y-90687184D01*
X164265576Y-90681037D01*
X164111290Y-90629862D01*
X164097914Y-90626995D01*
X164003562Y-90617328D01*
X163997145Y-90617000D01*
X163822115Y-90617000D01*
X163806876Y-90621475D01*
X163805671Y-90622865D01*
X163804000Y-90630548D01*
X163804000Y-91727885D01*
X163296000Y-91727885D01*
X163296000Y-90635116D01*
X163291525Y-90619877D01*
X163290135Y-90618672D01*
X163282452Y-90617001D01*
X163102905Y-90617001D01*
X163096386Y-90617338D01*
X163000794Y-90627257D01*
X162987400Y-90630149D01*
X162833216Y-90681588D01*
X162820038Y-90687761D01*
X162682193Y-90773063D01*
X162670792Y-90782099D01*
X162556261Y-90896829D01*
X162547249Y-90908240D01*
X162462184Y-91046243D01*
X162456037Y-91059424D01*
X162404862Y-91213710D01*
X162401995Y-91227086D01*
X162392328Y-91321438D01*
X162392000Y-91327855D01*
X162392000Y-91727885D01*
X161608500Y-91727885D01*
X161608500Y-91324600D01*
X161608163Y-91321350D01*
X161598238Y-91225692D01*
X161598237Y-91225688D01*
X161597526Y-91218834D01*
X161541550Y-91051054D01*
X161448478Y-90900652D01*
X161323303Y-90775695D01*
X161317072Y-90771854D01*
X161178968Y-90686725D01*
X161178966Y-90686724D01*
X161172738Y-90682885D01*
X161092995Y-90656436D01*
X161011389Y-90629368D01*
X161011387Y-90629368D01*
X161004861Y-90627203D01*
X160998025Y-90626503D01*
X160998022Y-90626502D01*
X160954969Y-90622091D01*
X160900400Y-90616500D01*
X160724594Y-90616500D01*
X160656473Y-90596498D01*
X160635499Y-90579595D01*
X158511218Y-88455313D01*
X158477192Y-88393001D01*
X158479755Y-88329589D01*
X158490865Y-88293022D01*
X158492370Y-88288069D01*
X158521529Y-88066590D01*
X158521980Y-88048134D01*
X158523074Y-88003365D01*
X158523074Y-88003361D01*
X158523156Y-88000000D01*
X158504852Y-87777361D01*
X158450431Y-87560702D01*
X158361354Y-87355840D01*
X158240014Y-87168277D01*
X158089670Y-87003051D01*
X158085619Y-86999852D01*
X158085615Y-86999848D01*
X157918414Y-86867800D01*
X157918410Y-86867798D01*
X157914359Y-86864598D01*
X157718789Y-86756638D01*
X157713920Y-86754914D01*
X157713916Y-86754912D01*
X157513087Y-86683795D01*
X157513083Y-86683794D01*
X157508212Y-86682069D01*
X157503119Y-86681162D01*
X157503116Y-86681161D01*
X157293373Y-86643800D01*
X157293367Y-86643799D01*
X157288284Y-86642894D01*
X157214452Y-86641992D01*
X157070081Y-86640228D01*
X157070079Y-86640228D01*
X157064911Y-86640165D01*
X156844091Y-86673955D01*
X156631756Y-86743357D01*
X156433607Y-86846507D01*
X156429474Y-86849610D01*
X156429471Y-86849612D01*
X156259100Y-86977530D01*
X156254965Y-86980635D01*
X156224216Y-87012812D01*
X156143729Y-87097037D01*
X156100629Y-87142138D01*
X155993201Y-87299621D01*
X155938293Y-87344621D01*
X155867768Y-87352792D01*
X155804021Y-87321538D01*
X155783324Y-87297054D01*
X155702822Y-87172617D01*
X155702820Y-87172614D01*
X155700014Y-87168277D01*
X155549670Y-87003051D01*
X155545619Y-86999852D01*
X155545615Y-86999848D01*
X155378414Y-86867800D01*
X155378410Y-86867798D01*
X155374359Y-86864598D01*
X155178789Y-86756638D01*
X155173920Y-86754914D01*
X155173916Y-86754912D01*
X154973087Y-86683795D01*
X154973083Y-86683794D01*
X154968212Y-86682069D01*
X154963119Y-86681162D01*
X154963116Y-86681161D01*
X154753373Y-86643800D01*
X154753367Y-86643799D01*
X154748284Y-86642894D01*
X154674452Y-86641992D01*
X154530081Y-86640228D01*
X154530079Y-86640228D01*
X154524911Y-86640165D01*
X154304091Y-86673955D01*
X154091756Y-86743357D01*
X153893607Y-86846507D01*
X153889474Y-86849610D01*
X153889471Y-86849612D01*
X153719100Y-86977530D01*
X153714965Y-86980635D01*
X153684216Y-87012812D01*
X153603729Y-87097037D01*
X153560629Y-87142138D01*
X153453201Y-87299621D01*
X153398293Y-87344621D01*
X153327768Y-87352792D01*
X153264021Y-87321538D01*
X153243324Y-87297054D01*
X153162822Y-87172617D01*
X153162820Y-87172614D01*
X153160014Y-87168277D01*
X153009670Y-87003051D01*
X153005619Y-86999852D01*
X153005615Y-86999848D01*
X152838414Y-86867800D01*
X152838410Y-86867798D01*
X152834359Y-86864598D01*
X152638789Y-86756638D01*
X152633920Y-86754914D01*
X152633916Y-86754912D01*
X152433087Y-86683795D01*
X152433083Y-86683794D01*
X152428212Y-86682069D01*
X152423119Y-86681162D01*
X152423116Y-86681161D01*
X152213373Y-86643800D01*
X152213367Y-86643799D01*
X152208284Y-86642894D01*
X152134452Y-86641992D01*
X151990081Y-86640228D01*
X151990079Y-86640228D01*
X151984911Y-86640165D01*
X151764091Y-86673955D01*
X151551756Y-86743357D01*
X151353607Y-86846507D01*
X151349474Y-86849610D01*
X151349471Y-86849612D01*
X151179100Y-86977530D01*
X151174965Y-86980635D01*
X151144216Y-87012812D01*
X151063729Y-87097037D01*
X151020629Y-87142138D01*
X150913201Y-87299621D01*
X150858293Y-87344621D01*
X150787768Y-87352792D01*
X150724021Y-87321538D01*
X150703324Y-87297054D01*
X150622822Y-87172617D01*
X150622820Y-87172614D01*
X150620014Y-87168277D01*
X150469670Y-87003051D01*
X150465619Y-86999852D01*
X150465615Y-86999848D01*
X150298414Y-86867800D01*
X150298410Y-86867798D01*
X150294359Y-86864598D01*
X150098789Y-86756638D01*
X150093920Y-86754914D01*
X150093916Y-86754912D01*
X149893087Y-86683795D01*
X149893083Y-86683794D01*
X149888212Y-86682069D01*
X149883119Y-86681162D01*
X149883116Y-86681161D01*
X149673373Y-86643800D01*
X149673367Y-86643799D01*
X149668284Y-86642894D01*
X149594452Y-86641992D01*
X149450081Y-86640228D01*
X149450079Y-86640228D01*
X149444911Y-86640165D01*
X149224091Y-86673955D01*
X149011756Y-86743357D01*
X148813607Y-86846507D01*
X148809474Y-86849610D01*
X148809471Y-86849612D01*
X148639100Y-86977530D01*
X148634965Y-86980635D01*
X148578537Y-87039684D01*
X148554283Y-87065064D01*
X148492759Y-87100494D01*
X148421846Y-87097037D01*
X148364060Y-87055791D01*
X148345207Y-87022243D01*
X148303767Y-86911703D01*
X148300615Y-86903295D01*
X148213261Y-86786739D01*
X148096705Y-86699385D01*
X147960316Y-86648255D01*
X147898134Y-86641500D01*
X146101866Y-86641500D01*
X146039684Y-86648255D01*
X145903295Y-86699385D01*
X145786739Y-86786739D01*
X145699385Y-86903295D01*
X145648255Y-87039684D01*
X145641500Y-87101866D01*
X145641500Y-88898134D01*
X145648255Y-88960316D01*
X145699385Y-89096705D01*
X145786739Y-89213261D01*
X145903295Y-89300615D01*
X146039684Y-89351745D01*
X146101866Y-89358500D01*
X146981405Y-89358500D01*
X147049526Y-89378502D01*
X147096019Y-89432158D01*
X147106123Y-89502432D01*
X147076629Y-89567012D01*
X147070500Y-89573595D01*
X146058128Y-90585967D01*
X145995816Y-90619993D01*
X145956191Y-90622216D01*
X145903601Y-90616828D01*
X145903602Y-90616828D01*
X145900400Y-90616500D01*
X144999600Y-90616500D01*
X144996354Y-90616837D01*
X144996350Y-90616837D01*
X144900692Y-90626762D01*
X144900688Y-90626763D01*
X144893834Y-90627474D01*
X144887298Y-90629655D01*
X144887296Y-90629655D01*
X144829280Y-90649011D01*
X144726054Y-90683450D01*
X144575652Y-90776522D01*
X144450695Y-90901697D01*
X144357885Y-91052262D01*
X144332726Y-91128114D01*
X144305614Y-91209856D01*
X144302203Y-91220139D01*
X144301503Y-91226975D01*
X144301502Y-91226978D01*
X144299938Y-91242246D01*
X144291500Y-91324600D01*
X144291500Y-92675400D01*
X144291837Y-92678646D01*
X144291837Y-92678650D01*
X144301752Y-92774206D01*
X144302474Y-92781166D01*
X144358450Y-92948946D01*
X144451522Y-93099348D01*
X144576697Y-93224305D01*
X144582927Y-93228145D01*
X144582928Y-93228146D01*
X144720288Y-93312816D01*
X144727262Y-93317115D01*
X144789204Y-93337660D01*
X144888611Y-93370632D01*
X144888613Y-93370632D01*
X144895139Y-93372797D01*
X144901979Y-93373498D01*
X144901980Y-93373498D01*
X144912533Y-93374579D01*
X144933341Y-93376711D01*
X144999069Y-93403552D01*
X145039851Y-93461666D01*
X145046500Y-93502055D01*
X145046500Y-93780606D01*
X145026498Y-93848727D01*
X144992771Y-93883819D01*
X144840211Y-93990643D01*
X144840208Y-93990645D01*
X144835700Y-93993802D01*
X144673802Y-94155700D01*
X144542477Y-94343251D01*
X144540154Y-94348233D01*
X144540151Y-94348238D01*
X144524195Y-94382457D01*
X144477278Y-94435742D01*
X144409001Y-94455203D01*
X144341041Y-94434661D01*
X144295805Y-94382457D01*
X144279849Y-94348238D01*
X144279846Y-94348233D01*
X144277523Y-94343251D01*
X144146198Y-94155700D01*
X143984300Y-93993802D01*
X143979792Y-93990645D01*
X143979789Y-93990643D01*
X143827228Y-93883819D01*
X143796749Y-93862477D01*
X143791767Y-93860154D01*
X143791762Y-93860151D01*
X143594225Y-93768039D01*
X143594224Y-93768039D01*
X143589243Y-93765716D01*
X143583935Y-93764294D01*
X143583933Y-93764293D01*
X143373402Y-93707881D01*
X143373400Y-93707881D01*
X143368087Y-93706457D01*
X143140000Y-93686502D01*
X142911913Y-93706457D01*
X142906600Y-93707881D01*
X142906598Y-93707881D01*
X142696067Y-93764293D01*
X142696065Y-93764294D01*
X142690757Y-93765716D01*
X142685776Y-93768039D01*
X142685775Y-93768039D01*
X142488238Y-93860151D01*
X142488233Y-93860154D01*
X142483251Y-93862477D01*
X142452772Y-93883819D01*
X142300211Y-93990643D01*
X142300208Y-93990645D01*
X142295700Y-93993802D01*
X142133802Y-94155700D01*
X142002477Y-94343251D01*
X142000154Y-94348233D01*
X142000151Y-94348238D01*
X141984195Y-94382457D01*
X141937278Y-94435742D01*
X141869001Y-94455203D01*
X141801041Y-94434661D01*
X141755805Y-94382457D01*
X141739849Y-94348238D01*
X141739846Y-94348233D01*
X141737523Y-94343251D01*
X141606198Y-94155700D01*
X141444300Y-93993802D01*
X141439792Y-93990645D01*
X141439789Y-93990643D01*
X141287228Y-93883819D01*
X141256749Y-93862477D01*
X141251767Y-93860154D01*
X141251762Y-93860151D01*
X141054225Y-93768039D01*
X141054224Y-93768039D01*
X141049243Y-93765716D01*
X141043935Y-93764294D01*
X141043933Y-93764293D01*
X140833402Y-93707881D01*
X140833400Y-93707881D01*
X140828087Y-93706457D01*
X140600000Y-93686502D01*
X140371913Y-93706457D01*
X140366600Y-93707881D01*
X140366598Y-93707881D01*
X140156067Y-93764293D01*
X140156065Y-93764294D01*
X140150757Y-93765716D01*
X140145776Y-93768039D01*
X140145775Y-93768039D01*
X139948238Y-93860151D01*
X139948233Y-93860154D01*
X139943251Y-93862477D01*
X139912772Y-93883819D01*
X139760211Y-93990643D01*
X139760208Y-93990645D01*
X139755700Y-93993802D01*
X139593802Y-94155700D01*
X139462477Y-94343251D01*
X139460154Y-94348233D01*
X139460151Y-94348238D01*
X139444195Y-94382457D01*
X139397278Y-94435742D01*
X139329001Y-94455203D01*
X139261041Y-94434661D01*
X139215805Y-94382457D01*
X139199849Y-94348238D01*
X139199846Y-94348233D01*
X139197523Y-94343251D01*
X139066198Y-94155700D01*
X138904300Y-93993802D01*
X138899792Y-93990645D01*
X138899789Y-93990643D01*
X138747228Y-93883819D01*
X138716749Y-93862477D01*
X138711767Y-93860154D01*
X138711762Y-93860151D01*
X138514225Y-93768039D01*
X138514224Y-93768039D01*
X138509243Y-93765716D01*
X138503935Y-93764294D01*
X138503933Y-93764293D01*
X138293402Y-93707881D01*
X138293400Y-93707881D01*
X138288087Y-93706457D01*
X138060000Y-93686502D01*
X137831913Y-93706457D01*
X137826600Y-93707881D01*
X137826598Y-93707881D01*
X137616067Y-93764293D01*
X137616065Y-93764294D01*
X137610757Y-93765716D01*
X137605776Y-93768039D01*
X137605775Y-93768039D01*
X137408238Y-93860151D01*
X137408233Y-93860154D01*
X137403251Y-93862477D01*
X137372772Y-93883819D01*
X137220211Y-93990643D01*
X137220208Y-93990645D01*
X137215700Y-93993802D01*
X137053802Y-94155700D01*
X136922477Y-94343251D01*
X136920154Y-94348233D01*
X136920151Y-94348238D01*
X136904195Y-94382457D01*
X136857278Y-94435742D01*
X136789001Y-94455203D01*
X136721041Y-94434661D01*
X136675805Y-94382457D01*
X136659849Y-94348238D01*
X136659846Y-94348233D01*
X136657523Y-94343251D01*
X136526198Y-94155700D01*
X136364300Y-93993802D01*
X136359792Y-93990645D01*
X136359789Y-93990643D01*
X136207228Y-93883819D01*
X136176749Y-93862477D01*
X136171767Y-93860154D01*
X136171762Y-93860151D01*
X135974225Y-93768039D01*
X135974224Y-93768039D01*
X135969243Y-93765716D01*
X135963935Y-93764294D01*
X135963933Y-93764293D01*
X135753402Y-93707881D01*
X135753400Y-93707881D01*
X135748087Y-93706457D01*
X135520000Y-93686502D01*
X135291913Y-93706457D01*
X135286600Y-93707881D01*
X135286598Y-93707881D01*
X135076067Y-93764293D01*
X135076065Y-93764294D01*
X135070757Y-93765716D01*
X135065776Y-93768039D01*
X135065775Y-93768039D01*
X134868238Y-93860151D01*
X134868233Y-93860154D01*
X134863251Y-93862477D01*
X134832772Y-93883819D01*
X134680211Y-93990643D01*
X134680208Y-93990645D01*
X134675700Y-93993802D01*
X134513802Y-94155700D01*
X134382477Y-94343251D01*
X134380154Y-94348233D01*
X134380151Y-94348238D01*
X134364195Y-94382457D01*
X134317278Y-94435742D01*
X134249001Y-94455203D01*
X134181041Y-94434661D01*
X134135805Y-94382457D01*
X134119849Y-94348238D01*
X134119846Y-94348233D01*
X134117523Y-94343251D01*
X133986198Y-94155700D01*
X133824300Y-93993802D01*
X133819792Y-93990645D01*
X133819789Y-93990643D01*
X133667228Y-93883819D01*
X133636749Y-93862477D01*
X133631767Y-93860154D01*
X133631762Y-93860151D01*
X133434225Y-93768039D01*
X133434224Y-93768039D01*
X133429243Y-93765716D01*
X133423935Y-93764294D01*
X133423933Y-93764293D01*
X133213402Y-93707881D01*
X133213400Y-93707881D01*
X133208087Y-93706457D01*
X132980000Y-93686502D01*
X132751913Y-93706457D01*
X132746600Y-93707881D01*
X132746598Y-93707881D01*
X132536067Y-93764293D01*
X132536065Y-93764294D01*
X132530757Y-93765716D01*
X132525776Y-93768039D01*
X132525775Y-93768039D01*
X132328238Y-93860151D01*
X132328233Y-93860154D01*
X132323251Y-93862477D01*
X132292772Y-93883819D01*
X132140211Y-93990643D01*
X132140208Y-93990645D01*
X132135700Y-93993802D01*
X131973802Y-94155700D01*
X131842477Y-94343251D01*
X131840154Y-94348233D01*
X131840151Y-94348238D01*
X131824195Y-94382457D01*
X131777278Y-94435742D01*
X131709001Y-94455203D01*
X131641041Y-94434661D01*
X131595805Y-94382457D01*
X131579849Y-94348238D01*
X131579846Y-94348233D01*
X131577523Y-94343251D01*
X131446198Y-94155700D01*
X131284300Y-93993802D01*
X131279792Y-93990645D01*
X131279789Y-93990643D01*
X131127228Y-93883819D01*
X131096749Y-93862477D01*
X131091767Y-93860154D01*
X131091762Y-93860151D01*
X130894225Y-93768039D01*
X130894224Y-93768039D01*
X130889243Y-93765716D01*
X130883935Y-93764294D01*
X130883933Y-93764293D01*
X130673402Y-93707881D01*
X130673400Y-93707881D01*
X130668087Y-93706457D01*
X130440000Y-93686502D01*
X130211913Y-93706457D01*
X130206600Y-93707881D01*
X130206598Y-93707881D01*
X129996067Y-93764293D01*
X129996065Y-93764294D01*
X129990757Y-93765716D01*
X129985776Y-93768039D01*
X129985775Y-93768039D01*
X129788238Y-93860151D01*
X129788233Y-93860154D01*
X129783251Y-93862477D01*
X129752772Y-93883819D01*
X129600211Y-93990643D01*
X129600208Y-93990645D01*
X129595700Y-93993802D01*
X129433802Y-94155700D01*
X129302477Y-94343251D01*
X129300154Y-94348233D01*
X129300151Y-94348238D01*
X129300034Y-94348489D01*
X129205716Y-94550757D01*
X129204294Y-94556065D01*
X129204293Y-94556067D01*
X129148041Y-94766002D01*
X129146457Y-94771913D01*
X129126502Y-95000000D01*
X129146457Y-95228087D01*
X129205716Y-95449243D01*
X129208039Y-95454224D01*
X129208039Y-95454225D01*
X129300151Y-95651762D01*
X129300154Y-95651767D01*
X129302477Y-95656749D01*
X129433802Y-95844300D01*
X129595700Y-96006198D01*
X129600208Y-96009355D01*
X129600211Y-96009357D01*
X129752771Y-96116181D01*
X129797099Y-96171638D01*
X129806500Y-96219394D01*
X129806500Y-105245406D01*
X129786498Y-105313527D01*
X129769595Y-105334501D01*
X124157747Y-110946348D01*
X124149461Y-110953888D01*
X124142982Y-110958000D01*
X124137557Y-110963777D01*
X124096357Y-111007651D01*
X124093602Y-111010493D01*
X124073865Y-111030230D01*
X124071385Y-111033427D01*
X124063682Y-111042447D01*
X124033414Y-111074679D01*
X124029595Y-111081625D01*
X124029593Y-111081628D01*
X124023652Y-111092434D01*
X124012801Y-111108953D01*
X124000386Y-111124959D01*
X123997241Y-111132228D01*
X123997238Y-111132232D01*
X123982826Y-111165537D01*
X123977609Y-111176187D01*
X123956305Y-111214940D01*
X123954334Y-111222615D01*
X123954334Y-111222616D01*
X123951267Y-111234562D01*
X123944863Y-111253266D01*
X123936819Y-111271855D01*
X123935580Y-111279678D01*
X123935577Y-111279688D01*
X123929901Y-111315524D01*
X123927495Y-111327144D01*
X123916500Y-111369970D01*
X123916500Y-111390224D01*
X123914949Y-111409934D01*
X123911780Y-111429943D01*
X122508500Y-111429943D01*
X122508500Y-88048134D01*
X125691500Y-88048134D01*
X125698255Y-88110316D01*
X125749385Y-88246705D01*
X125836739Y-88363261D01*
X125953295Y-88450615D01*
X126089684Y-88501745D01*
X126151866Y-88508500D01*
X128248134Y-88508500D01*
X128310316Y-88501745D01*
X128446705Y-88450615D01*
X128563261Y-88363261D01*
X128650615Y-88246705D01*
X128655876Y-88232670D01*
X133932160Y-88232670D01*
X133937887Y-88240320D01*
X134109042Y-88345205D01*
X134117837Y-88349687D01*
X134327988Y-88436734D01*
X134337373Y-88439783D01*
X134558554Y-88492885D01*
X134568301Y-88494428D01*
X134795070Y-88512275D01*
X134804930Y-88512275D01*
X135031699Y-88494428D01*
X135041446Y-88492885D01*
X135262627Y-88439783D01*
X135272012Y-88436734D01*
X135482163Y-88349687D01*
X135490958Y-88345205D01*
X135658445Y-88242568D01*
X135667907Y-88232110D01*
X135664124Y-88223334D01*
X134812812Y-87372022D01*
X134798868Y-87364408D01*
X134797035Y-87364539D01*
X134790420Y-87368790D01*
X133938920Y-88220290D01*
X133932160Y-88232670D01*
X128655876Y-88232670D01*
X128701745Y-88110316D01*
X128708500Y-88048134D01*
X128708500Y-87004930D01*
X133287725Y-87004930D01*
X133305572Y-87231699D01*
X133307115Y-87241446D01*
X133360217Y-87462627D01*
X133363266Y-87472012D01*
X133450313Y-87682163D01*
X133454795Y-87690958D01*
X133557432Y-87858445D01*
X133567890Y-87867907D01*
X133576666Y-87864124D01*
X134427978Y-87012812D01*
X134434356Y-87001132D01*
X135164408Y-87001132D01*
X135164539Y-87002965D01*
X135168790Y-87009580D01*
X136020290Y-87861080D01*
X136032670Y-87867840D01*
X136040320Y-87862113D01*
X136145205Y-87690958D01*
X136149687Y-87682163D01*
X136236734Y-87472012D01*
X136239783Y-87462627D01*
X136292885Y-87241446D01*
X136294428Y-87231699D01*
X136312275Y-87004930D01*
X136312275Y-86995070D01*
X136294428Y-86768301D01*
X136292885Y-86758554D01*
X136239783Y-86537373D01*
X136236734Y-86527988D01*
X136149687Y-86317837D01*
X136145205Y-86309042D01*
X136042568Y-86141555D01*
X136032110Y-86132093D01*
X136023334Y-86135876D01*
X135172022Y-86987188D01*
X135164408Y-87001132D01*
X134434356Y-87001132D01*
X134435592Y-86998868D01*
X134435461Y-86997035D01*
X134431210Y-86990420D01*
X133579710Y-86138920D01*
X133567330Y-86132160D01*
X133559680Y-86137887D01*
X133454795Y-86309042D01*
X133450313Y-86317837D01*
X133363266Y-86527988D01*
X133360217Y-86537373D01*
X133307115Y-86758554D01*
X133305572Y-86768301D01*
X133287725Y-86995070D01*
X133287725Y-87004930D01*
X128708500Y-87004930D01*
X128708500Y-85951866D01*
X128701745Y-85889684D01*
X128656086Y-85767890D01*
X133932093Y-85767890D01*
X133935876Y-85776666D01*
X134787188Y-86627978D01*
X134801132Y-86635592D01*
X134802965Y-86635461D01*
X134809580Y-86631210D01*
X135661080Y-85779710D01*
X135667840Y-85767330D01*
X135662113Y-85759680D01*
X135490958Y-85654795D01*
X135482163Y-85650313D01*
X135272012Y-85563266D01*
X135262627Y-85560217D01*
X135041446Y-85507115D01*
X135031699Y-85505572D01*
X134804930Y-85487725D01*
X134795070Y-85487725D01*
X134568301Y-85505572D01*
X134558554Y-85507115D01*
X134337373Y-85560217D01*
X134327988Y-85563266D01*
X134117837Y-85650313D01*
X134109042Y-85654795D01*
X133941555Y-85757432D01*
X133932093Y-85767890D01*
X128656086Y-85767890D01*
X128650615Y-85753295D01*
X128563261Y-85636739D01*
X128446705Y-85549385D01*
X128310316Y-85498255D01*
X128248134Y-85491500D01*
X126151866Y-85491500D01*
X126089684Y-85498255D01*
X125953295Y-85549385D01*
X125836739Y-85636739D01*
X125749385Y-85753295D01*
X125698255Y-85889684D01*
X125691500Y-85951866D01*
X125691500Y-88048134D01*
X122508500Y-88048134D01*
X122508500Y-84000000D01*
X163386526Y-84000000D01*
X163406391Y-84252403D01*
X163465495Y-84498591D01*
X163562384Y-84732502D01*
X163694672Y-84948376D01*
X163859102Y-85140898D01*
X164051624Y-85305328D01*
X164267498Y-85437616D01*
X164272068Y-85439509D01*
X164272072Y-85439511D01*
X164496836Y-85532611D01*
X164501409Y-85534505D01*
X164563389Y-85549385D01*
X164742784Y-85592454D01*
X164742790Y-85592455D01*
X164747597Y-85593609D01*
X164847416Y-85601465D01*
X164934345Y-85608307D01*
X164934352Y-85608307D01*
X164936801Y-85608500D01*
X165063199Y-85608500D01*
X165065648Y-85608307D01*
X165065655Y-85608307D01*
X165152584Y-85601465D01*
X165252403Y-85593609D01*
X165257210Y-85592455D01*
X165257216Y-85592454D01*
X165436611Y-85549385D01*
X165498591Y-85534505D01*
X165503164Y-85532611D01*
X165727928Y-85439511D01*
X165727932Y-85439509D01*
X165732502Y-85437616D01*
X165948376Y-85305328D01*
X166140898Y-85140898D01*
X166305328Y-84948376D01*
X166437616Y-84732502D01*
X166534505Y-84498591D01*
X166593609Y-84252403D01*
X166613474Y-84000000D01*
X166593609Y-83747597D01*
X166534505Y-83501409D01*
X166437616Y-83267498D01*
X166305328Y-83051624D01*
X166140898Y-82859102D01*
X165948376Y-82694672D01*
X165732502Y-82562384D01*
X165727932Y-82560491D01*
X165727928Y-82560489D01*
X165503164Y-82467389D01*
X165503162Y-82467388D01*
X165498591Y-82465495D01*
X165413968Y-82445179D01*
X165257216Y-82407546D01*
X165257210Y-82407545D01*
X165252403Y-82406391D01*
X165152584Y-82398535D01*
X165065655Y-82391693D01*
X165065648Y-82391693D01*
X165063199Y-82391500D01*
X164936801Y-82391500D01*
X164934352Y-82391693D01*
X164934345Y-82391693D01*
X164847416Y-82398535D01*
X164747597Y-82406391D01*
X164742790Y-82407545D01*
X164742784Y-82407546D01*
X164586032Y-82445179D01*
X164501409Y-82465495D01*
X164496838Y-82467388D01*
X164496836Y-82467389D01*
X164272072Y-82560489D01*
X164272068Y-82560491D01*
X164267498Y-82562384D01*
X164051624Y-82694672D01*
X163859102Y-82859102D01*
X163694672Y-83051624D01*
X163562384Y-83267498D01*
X163465495Y-83501409D01*
X163406391Y-83747597D01*
X163386526Y-84000000D01*
X122508500Y-84000000D01*
X122508500Y-80634500D01*
X122528502Y-80566379D01*
X122582158Y-80519886D01*
X122634500Y-80508500D01*
X171365500Y-80508500D01*
X171433621Y-80528502D01*
G37*
%TD.AperFunction*%
%TA.AperFunction,Conductor*%
G36*
X133822012Y-115689696D02*
G01*
X133841437Y-115710860D01*
X133861436Y-115738387D01*
X133867952Y-115748307D01*
X133884627Y-115776502D01*
X133890458Y-115786362D01*
X133904779Y-115800683D01*
X133917619Y-115815716D01*
X133929528Y-115832107D01*
X133935634Y-115837158D01*
X133963605Y-115860298D01*
X133972384Y-115868288D01*
X134052878Y-115948782D01*
X134086904Y-116011094D01*
X134089092Y-116024703D01*
X134106458Y-116189928D01*
X134165473Y-116371556D01*
X134168776Y-116377278D01*
X134168777Y-116377279D01*
X134186632Y-116408205D01*
X134260960Y-116536944D01*
X134265378Y-116541851D01*
X134265379Y-116541852D01*
X134338194Y-116622721D01*
X134388747Y-116678866D01*
X134543248Y-116791118D01*
X134549276Y-116793802D01*
X134549278Y-116793803D01*
X134711681Y-116866109D01*
X134717712Y-116868794D01*
X134811018Y-116888627D01*
X134898056Y-116907128D01*
X134898061Y-116907128D01*
X134904513Y-116908500D01*
X135095487Y-116908500D01*
X135101939Y-116907128D01*
X135101944Y-116907128D01*
X135188982Y-116888627D01*
X135282288Y-116868794D01*
X135288319Y-116866109D01*
X135450722Y-116793803D01*
X135450724Y-116793802D01*
X135456752Y-116791118D01*
X135611253Y-116678866D01*
X135661806Y-116622721D01*
X135734621Y-116541852D01*
X135734622Y-116541851D01*
X135739040Y-116536944D01*
X135742339Y-116531231D01*
X135742342Y-116531226D01*
X135776381Y-116472268D01*
X135827764Y-116423275D01*
X135897477Y-116409839D01*
X135963388Y-116436226D01*
X136004570Y-116494058D01*
X136011500Y-116535268D01*
X136011500Y-119330406D01*
X135991498Y-119398527D01*
X135974595Y-119419501D01*
X131531278Y-123862817D01*
X131468966Y-123896843D01*
X131442183Y-123899722D01*
X130670498Y-123899722D01*
X130602377Y-123879720D01*
X130555884Y-123826064D01*
X130545780Y-123755790D01*
X130549940Y-123737093D01*
X130605865Y-123553023D01*
X130605865Y-123553021D01*
X130607370Y-123548069D01*
X130636529Y-123326590D01*
X130638156Y-123260000D01*
X130619852Y-123037361D01*
X130591821Y-122925765D01*
X130594625Y-122854823D01*
X130624930Y-122805974D01*
X131271006Y-122159899D01*
X131957253Y-121473652D01*
X131965539Y-121466112D01*
X131972018Y-121462000D01*
X132018644Y-121412348D01*
X132021398Y-121409507D01*
X132041135Y-121389770D01*
X132043615Y-121386573D01*
X132051320Y-121377551D01*
X132076159Y-121351100D01*
X132081586Y-121345321D01*
X132085405Y-121338375D01*
X132085407Y-121338372D01*
X132091348Y-121327566D01*
X132102199Y-121311047D01*
X132103525Y-121309338D01*
X132114614Y-121295041D01*
X132117759Y-121287772D01*
X132117762Y-121287768D01*
X132132174Y-121254463D01*
X132137391Y-121243813D01*
X132158695Y-121205060D01*
X132163733Y-121185437D01*
X132170137Y-121166734D01*
X132175033Y-121155420D01*
X132175033Y-121155419D01*
X132178181Y-121148145D01*
X132179420Y-121140322D01*
X132179423Y-121140312D01*
X132185099Y-121104476D01*
X132187505Y-121092856D01*
X132196528Y-121057711D01*
X132196528Y-121057710D01*
X132198500Y-121050030D01*
X132198500Y-121029776D01*
X132200051Y-121010065D01*
X132201980Y-120997886D01*
X132203220Y-120990057D01*
X132199059Y-120946038D01*
X132198500Y-120934181D01*
X132198500Y-117787932D01*
X132218502Y-117719811D01*
X132272158Y-117673318D01*
X132342432Y-117663214D01*
X132398560Y-117685996D01*
X132543248Y-117791118D01*
X132549276Y-117793802D01*
X132549278Y-117793803D01*
X132711681Y-117866109D01*
X132717712Y-117868794D01*
X132811112Y-117888647D01*
X132898056Y-117907128D01*
X132898061Y-117907128D01*
X132904513Y-117908500D01*
X133095487Y-117908500D01*
X133101939Y-117907128D01*
X133101944Y-117907128D01*
X133188888Y-117888647D01*
X133282288Y-117868794D01*
X133288319Y-117866109D01*
X133450722Y-117793803D01*
X133450724Y-117793802D01*
X133456752Y-117791118D01*
X133611253Y-117678866D01*
X133615675Y-117673955D01*
X133734621Y-117541852D01*
X133734622Y-117541851D01*
X133739040Y-117536944D01*
X133834527Y-117371556D01*
X133893542Y-117189928D01*
X133894602Y-117179848D01*
X133912814Y-117006565D01*
X133913504Y-117000000D01*
X133907747Y-116945224D01*
X133894232Y-116816635D01*
X133894232Y-116816633D01*
X133893542Y-116810072D01*
X133834527Y-116628444D01*
X133831179Y-116622644D01*
X133742343Y-116468777D01*
X133739040Y-116463056D01*
X133645864Y-116359574D01*
X133615147Y-116295566D01*
X133613500Y-116275263D01*
X133613500Y-115784920D01*
X133633502Y-115716799D01*
X133687158Y-115670306D01*
X133757432Y-115660202D01*
X133822012Y-115689696D01*
G37*
%TD.AperFunction*%
%TA.AperFunction,Conductor*%
G36*
X129032422Y-112647648D02*
G01*
X129089258Y-112690195D01*
X129114069Y-112756715D01*
X129109133Y-112797177D01*
X129109871Y-112797334D01*
X129108497Y-112803795D01*
X129106458Y-112810072D01*
X129105768Y-112816633D01*
X129105768Y-112816635D01*
X129089093Y-112975293D01*
X129062080Y-113040950D01*
X129052878Y-113051218D01*
X127707747Y-114396348D01*
X127699461Y-114403888D01*
X127692982Y-114408000D01*
X127687557Y-114413777D01*
X127646357Y-114457651D01*
X127643602Y-114460493D01*
X127623865Y-114480230D01*
X127621385Y-114483427D01*
X127613682Y-114492447D01*
X127583414Y-114524679D01*
X127579595Y-114531625D01*
X127579593Y-114531628D01*
X127573652Y-114542434D01*
X127562801Y-114558953D01*
X127550386Y-114574959D01*
X127547241Y-114582228D01*
X127547238Y-114582232D01*
X127532826Y-114615537D01*
X127527609Y-114626187D01*
X127506305Y-114664940D01*
X127504334Y-114672615D01*
X127504334Y-114672616D01*
X127501267Y-114684562D01*
X127494863Y-114703266D01*
X127486819Y-114721855D01*
X127485580Y-114729678D01*
X127485577Y-114729688D01*
X127479901Y-114765524D01*
X127477495Y-114777144D01*
X127470631Y-114803879D01*
X127466500Y-114819970D01*
X127466500Y-114840224D01*
X127464949Y-114859934D01*
X127461780Y-114879943D01*
X127462526Y-114887835D01*
X127465941Y-114923961D01*
X127466500Y-114935819D01*
X127466500Y-116820506D01*
X127446498Y-116888627D01*
X127392842Y-116935120D01*
X127322568Y-116945224D01*
X127293676Y-116936834D01*
X127293583Y-116937096D01*
X127289057Y-116935493D01*
X127288846Y-116935432D01*
X127288705Y-116935369D01*
X127087959Y-116864280D01*
X127077988Y-116861646D01*
X127006837Y-116848972D01*
X126993540Y-116850432D01*
X126989000Y-116864989D01*
X126989000Y-118308000D01*
X126968998Y-118376121D01*
X126915342Y-118422614D01*
X126863000Y-118434000D01*
X126607000Y-118434000D01*
X126538879Y-118413998D01*
X126492386Y-118360342D01*
X126481000Y-118308000D01*
X126481000Y-116863102D01*
X126477082Y-116849758D01*
X126462806Y-116847771D01*
X126424324Y-116853660D01*
X126414288Y-116856051D01*
X126211868Y-116922212D01*
X126202359Y-116926209D01*
X126013463Y-117024542D01*
X126004738Y-117030036D01*
X125835153Y-117157365D01*
X125768668Y-117182271D01*
X125699273Y-117167279D01*
X125648999Y-117117148D01*
X125633500Y-117056605D01*
X125633500Y-115994594D01*
X125653502Y-115926473D01*
X125670405Y-115905499D01*
X128899295Y-112676609D01*
X128961607Y-112642583D01*
X129032422Y-112647648D01*
G37*
%TD.AperFunction*%
%TA.AperFunction,Conductor*%
G36*
X156128527Y-113478502D02*
G01*
X156149501Y-113495405D01*
X159062301Y-116408205D01*
X159096327Y-116470517D01*
X159091262Y-116541332D01*
X159048715Y-116598168D01*
X158982195Y-116622979D01*
X158960366Y-116622644D01*
X158900400Y-116616500D01*
X157999600Y-116616500D01*
X157996354Y-116616837D01*
X157996350Y-116616837D01*
X157900692Y-116626762D01*
X157900688Y-116626763D01*
X157893834Y-116627474D01*
X157887298Y-116629655D01*
X157887296Y-116629655D01*
X157830380Y-116648644D01*
X157726054Y-116683450D01*
X157575652Y-116776522D01*
X157575536Y-116776638D01*
X157512457Y-116802173D01*
X157442692Y-116789004D01*
X157425749Y-116778136D01*
X157423303Y-116775695D01*
X157308221Y-116704757D01*
X157278968Y-116686725D01*
X157278966Y-116686724D01*
X157272738Y-116682885D01*
X157154704Y-116643735D01*
X157111389Y-116629368D01*
X157111387Y-116629368D01*
X157104861Y-116627203D01*
X157098025Y-116626503D01*
X157098022Y-116626502D01*
X157054969Y-116622091D01*
X157000400Y-116616500D01*
X156114595Y-116616500D01*
X156046474Y-116596498D01*
X156025499Y-116579595D01*
X155677867Y-116231962D01*
X155643842Y-116169650D01*
X155648907Y-116098834D01*
X155650990Y-116094281D01*
X155698478Y-115967606D01*
X155702105Y-115952351D01*
X155707631Y-115901486D01*
X155708000Y-115894672D01*
X155708000Y-115272115D01*
X155703525Y-115256876D01*
X155702135Y-115255671D01*
X155694452Y-115254000D01*
X154222000Y-115254000D01*
X154153879Y-115233998D01*
X154107386Y-115180342D01*
X154096000Y-115128000D01*
X154096000Y-114872000D01*
X154116002Y-114803879D01*
X154169658Y-114757386D01*
X154222000Y-114746000D01*
X155689884Y-114746000D01*
X155705123Y-114741525D01*
X155706328Y-114740135D01*
X155707999Y-114732452D01*
X155707999Y-114105331D01*
X155707629Y-114098510D01*
X155702105Y-114047648D01*
X155698479Y-114032396D01*
X155653324Y-113911946D01*
X155644786Y-113896351D01*
X155568285Y-113794276D01*
X155555724Y-113781715D01*
X155453646Y-113705212D01*
X155435030Y-113695020D01*
X155384884Y-113644762D01*
X155369870Y-113575371D01*
X155394755Y-113508878D01*
X155451638Y-113466395D01*
X155495539Y-113458500D01*
X156060406Y-113458500D01*
X156128527Y-113478502D01*
G37*
%TD.AperFunction*%
%TA.AperFunction,Conductor*%
G36*
X136858959Y-95565339D02*
G01*
X136904195Y-95617543D01*
X136920151Y-95651762D01*
X136920154Y-95651767D01*
X136922477Y-95656749D01*
X137053802Y-95844300D01*
X137215700Y-96006198D01*
X137220208Y-96009355D01*
X137220211Y-96009357D01*
X137261542Y-96038297D01*
X137403251Y-96137523D01*
X137408233Y-96139846D01*
X137408238Y-96139849D01*
X137578825Y-96219394D01*
X137610757Y-96234284D01*
X137616065Y-96235706D01*
X137616067Y-96235707D01*
X137826598Y-96292119D01*
X137826600Y-96292119D01*
X137831913Y-96293543D01*
X138060000Y-96313498D01*
X138065475Y-96313019D01*
X138065485Y-96313019D01*
X138077428Y-96311974D01*
X138147033Y-96325962D01*
X138198026Y-96375361D01*
X138214217Y-96444486D01*
X138190465Y-96511392D01*
X138177506Y-96526589D01*
X135823865Y-98880230D01*
X135823862Y-98880234D01*
X134002747Y-100701348D01*
X133994461Y-100708888D01*
X133987982Y-100713000D01*
X133982557Y-100718777D01*
X133941357Y-100762651D01*
X133938602Y-100765493D01*
X133918865Y-100785230D01*
X133916385Y-100788427D01*
X133908682Y-100797447D01*
X133878414Y-100829679D01*
X133874595Y-100836625D01*
X133874593Y-100836628D01*
X133868652Y-100847434D01*
X133857801Y-100863953D01*
X133845386Y-100879959D01*
X133842241Y-100887228D01*
X133842238Y-100887232D01*
X133827826Y-100920537D01*
X133822609Y-100931187D01*
X133801305Y-100969940D01*
X133799334Y-100977615D01*
X133799334Y-100977616D01*
X133796267Y-100989562D01*
X133789863Y-101008266D01*
X133781819Y-101026855D01*
X133780580Y-101034678D01*
X133780577Y-101034688D01*
X133774901Y-101070524D01*
X133772495Y-101082144D01*
X133771133Y-101087449D01*
X133761500Y-101124970D01*
X133761500Y-101145224D01*
X133759949Y-101164934D01*
X133756780Y-101184943D01*
X133757526Y-101192835D01*
X133760941Y-101228961D01*
X133761500Y-101240819D01*
X133761500Y-108962869D01*
X133741498Y-109030990D01*
X133687842Y-109077483D01*
X133617568Y-109087587D01*
X133582250Y-109077064D01*
X133563589Y-109068362D01*
X133429243Y-109005716D01*
X133423935Y-109004294D01*
X133423933Y-109004293D01*
X133213402Y-108947881D01*
X133213400Y-108947881D01*
X133208087Y-108946457D01*
X132980000Y-108926502D01*
X132751913Y-108946457D01*
X132746600Y-108947881D01*
X132746598Y-108947881D01*
X132536067Y-109004293D01*
X132536065Y-109004294D01*
X132530757Y-109005716D01*
X132396412Y-109068362D01*
X132377750Y-109077064D01*
X132307558Y-109087725D01*
X132242745Y-109058745D01*
X132203889Y-108999325D01*
X132198500Y-108962869D01*
X132198500Y-96729594D01*
X132218502Y-96661473D01*
X132235405Y-96640499D01*
X132566752Y-96309152D01*
X132629064Y-96275126D01*
X132688459Y-96276541D01*
X132746591Y-96292118D01*
X132746602Y-96292120D01*
X132751913Y-96293543D01*
X132980000Y-96313498D01*
X133208087Y-96293543D01*
X133213400Y-96292119D01*
X133213402Y-96292119D01*
X133423933Y-96235707D01*
X133423935Y-96235706D01*
X133429243Y-96234284D01*
X133461175Y-96219394D01*
X133631762Y-96139849D01*
X133631767Y-96139846D01*
X133636749Y-96137523D01*
X133778458Y-96038297D01*
X133819789Y-96009357D01*
X133819792Y-96009355D01*
X133824300Y-96006198D01*
X133986198Y-95844300D01*
X134117523Y-95656749D01*
X134119846Y-95651767D01*
X134119849Y-95651762D01*
X134135805Y-95617543D01*
X134182722Y-95564258D01*
X134250999Y-95544797D01*
X134318959Y-95565339D01*
X134364195Y-95617543D01*
X134380151Y-95651762D01*
X134380154Y-95651767D01*
X134382477Y-95656749D01*
X134513802Y-95844300D01*
X134675700Y-96006198D01*
X134680208Y-96009355D01*
X134680211Y-96009357D01*
X134721542Y-96038297D01*
X134863251Y-96137523D01*
X134868233Y-96139846D01*
X134868238Y-96139849D01*
X135038825Y-96219394D01*
X135070757Y-96234284D01*
X135076065Y-96235706D01*
X135076067Y-96235707D01*
X135286598Y-96292119D01*
X135286600Y-96292119D01*
X135291913Y-96293543D01*
X135520000Y-96313498D01*
X135748087Y-96293543D01*
X135753400Y-96292119D01*
X135753402Y-96292119D01*
X135963933Y-96235707D01*
X135963935Y-96235706D01*
X135969243Y-96234284D01*
X136001175Y-96219394D01*
X136171762Y-96139849D01*
X136171767Y-96139846D01*
X136176749Y-96137523D01*
X136318458Y-96038297D01*
X136359789Y-96009357D01*
X136359792Y-96009355D01*
X136364300Y-96006198D01*
X136526198Y-95844300D01*
X136657523Y-95656749D01*
X136659846Y-95651767D01*
X136659849Y-95651762D01*
X136675805Y-95617543D01*
X136722722Y-95564258D01*
X136790999Y-95544797D01*
X136858959Y-95565339D01*
G37*
%TD.AperFunction*%
%TA.AperFunction,Conductor*%
G36*
X150892026Y-88675144D02*
G01*
X150919875Y-88706994D01*
X150979987Y-88805088D01*
X151126250Y-88973938D01*
X151298126Y-89116632D01*
X151302593Y-89119242D01*
X151384070Y-89166853D01*
X151432794Y-89218491D01*
X151446500Y-89275641D01*
X151446500Y-90055406D01*
X151426498Y-90123527D01*
X151409595Y-90144501D01*
X150974501Y-90579595D01*
X150912189Y-90613621D01*
X150885406Y-90616500D01*
X149999600Y-90616500D01*
X149996354Y-90616837D01*
X149996350Y-90616837D01*
X149900692Y-90626762D01*
X149900688Y-90626763D01*
X149893834Y-90627474D01*
X149887298Y-90629655D01*
X149887296Y-90629655D01*
X149829280Y-90649011D01*
X149726054Y-90683450D01*
X149575652Y-90776522D01*
X149575271Y-90776904D01*
X149512044Y-90802494D01*
X149442280Y-90789322D01*
X149421497Y-90775991D01*
X149416757Y-90772247D01*
X149278757Y-90687184D01*
X149265576Y-90681037D01*
X149111290Y-90629862D01*
X149097914Y-90626995D01*
X149003562Y-90617328D01*
X148997145Y-90617000D01*
X148822115Y-90617000D01*
X148806876Y-90621475D01*
X148805671Y-90622865D01*
X148804000Y-90630548D01*
X148804000Y-93364883D01*
X148818168Y-93413134D01*
X148818168Y-93484131D01*
X148786367Y-93537728D01*
X148633247Y-93690848D01*
X148570935Y-93724874D01*
X148511542Y-93723460D01*
X148448087Y-93706457D01*
X148220000Y-93686502D01*
X147991913Y-93706457D01*
X147986600Y-93707881D01*
X147986598Y-93707881D01*
X147776067Y-93764293D01*
X147776065Y-93764294D01*
X147770757Y-93765716D01*
X147765776Y-93768039D01*
X147765775Y-93768039D01*
X147568238Y-93860151D01*
X147568233Y-93860154D01*
X147563251Y-93862477D01*
X147532772Y-93883819D01*
X147380211Y-93990643D01*
X147380208Y-93990645D01*
X147375700Y-93993802D01*
X147213802Y-94155700D01*
X147082477Y-94343251D01*
X147080154Y-94348233D01*
X147080151Y-94348238D01*
X147064195Y-94382457D01*
X147017278Y-94435742D01*
X146949001Y-94455203D01*
X146881041Y-94434661D01*
X146835805Y-94382457D01*
X146819849Y-94348238D01*
X146819846Y-94348233D01*
X146817523Y-94343251D01*
X146686198Y-94155700D01*
X146524300Y-93993802D01*
X146519792Y-93990645D01*
X146519789Y-93990643D01*
X146367229Y-93883819D01*
X146322901Y-93828362D01*
X146313500Y-93780606D01*
X146313500Y-93286472D01*
X146333502Y-93218351D01*
X146350327Y-93197454D01*
X146444134Y-93103483D01*
X146449305Y-93098303D01*
X146505676Y-93006853D01*
X146538275Y-92953968D01*
X146538276Y-92953966D01*
X146542115Y-92947738D01*
X146597797Y-92779861D01*
X146608500Y-92675400D01*
X146608500Y-92672095D01*
X147392001Y-92672095D01*
X147392338Y-92678614D01*
X147402257Y-92774206D01*
X147405149Y-92787600D01*
X147456588Y-92941784D01*
X147462761Y-92954962D01*
X147548063Y-93092807D01*
X147557099Y-93104208D01*
X147671829Y-93218739D01*
X147683240Y-93227751D01*
X147821243Y-93312816D01*
X147834424Y-93318963D01*
X147988710Y-93370138D01*
X148002086Y-93373005D01*
X148096438Y-93382672D01*
X148102854Y-93383000D01*
X148277885Y-93383000D01*
X148293124Y-93378525D01*
X148294329Y-93377135D01*
X148296000Y-93369452D01*
X148296000Y-92272115D01*
X148291525Y-92256876D01*
X148290135Y-92255671D01*
X148282452Y-92254000D01*
X147410116Y-92254000D01*
X147394877Y-92258475D01*
X147393672Y-92259865D01*
X147392001Y-92267548D01*
X147392001Y-92672095D01*
X146608500Y-92672095D01*
X146608500Y-91879594D01*
X146628502Y-91811473D01*
X146645405Y-91790499D01*
X147176905Y-91258999D01*
X147239217Y-91224973D01*
X147310032Y-91230038D01*
X147366868Y-91272585D01*
X147391679Y-91339105D01*
X147392000Y-91348094D01*
X147392000Y-91727885D01*
X147396475Y-91743124D01*
X147397865Y-91744329D01*
X147405548Y-91746000D01*
X148277885Y-91746000D01*
X148293124Y-91741525D01*
X148294329Y-91740135D01*
X148296000Y-91732452D01*
X148296000Y-90635116D01*
X148291525Y-90619877D01*
X148290135Y-90618672D01*
X148282452Y-90617001D01*
X148123093Y-90617001D01*
X148054972Y-90596999D01*
X148008479Y-90543343D01*
X147998375Y-90473069D01*
X148027869Y-90408489D01*
X148033998Y-90401906D01*
X149084549Y-89351355D01*
X149146861Y-89317329D01*
X149198762Y-89316979D01*
X149378597Y-89353567D01*
X149383772Y-89353757D01*
X149383774Y-89353757D01*
X149596673Y-89361564D01*
X149596677Y-89361564D01*
X149601837Y-89361753D01*
X149606957Y-89361097D01*
X149606959Y-89361097D01*
X149818288Y-89334025D01*
X149818289Y-89334025D01*
X149823416Y-89333368D01*
X149869827Y-89319444D01*
X150032429Y-89270661D01*
X150032434Y-89270659D01*
X150037384Y-89269174D01*
X150237994Y-89170896D01*
X150419860Y-89041173D01*
X150578096Y-88883489D01*
X150708453Y-88702077D01*
X150709776Y-88703028D01*
X150756645Y-88659857D01*
X150826580Y-88647625D01*
X150892026Y-88675144D01*
G37*
%TD.AperFunction*%
%TA.AperFunction,Conductor*%
G36*
X153432026Y-88675144D02*
G01*
X153459875Y-88706994D01*
X153519987Y-88805088D01*
X153666250Y-88973938D01*
X153838126Y-89116632D01*
X153842593Y-89119242D01*
X153924070Y-89166853D01*
X153972794Y-89218491D01*
X153986500Y-89275641D01*
X153986500Y-90491000D01*
X153966498Y-90559121D01*
X153912842Y-90605614D01*
X153860500Y-90617000D01*
X153822115Y-90617000D01*
X153806876Y-90621475D01*
X153805671Y-90622865D01*
X153804000Y-90630548D01*
X153804000Y-92128000D01*
X153783998Y-92196121D01*
X153730342Y-92242614D01*
X153678000Y-92254000D01*
X152410116Y-92254000D01*
X152394877Y-92258475D01*
X152393672Y-92259865D01*
X152392001Y-92267548D01*
X152392001Y-92495258D01*
X152371999Y-92563379D01*
X152316041Y-92610895D01*
X152314016Y-92611771D01*
X152306406Y-92613982D01*
X152299587Y-92618015D01*
X152299582Y-92618017D01*
X152288971Y-92624293D01*
X152271221Y-92632990D01*
X152252383Y-92640448D01*
X152245967Y-92645109D01*
X152245966Y-92645110D01*
X152216625Y-92666428D01*
X152206701Y-92672947D01*
X152175460Y-92691422D01*
X152175455Y-92691426D01*
X152168637Y-92695458D01*
X152154313Y-92709782D01*
X152139281Y-92722621D01*
X152122893Y-92734528D01*
X152094712Y-92768593D01*
X152086722Y-92777373D01*
X151702031Y-93162064D01*
X151639719Y-93196090D01*
X151568904Y-93191025D01*
X151512068Y-93148478D01*
X151487257Y-93081958D01*
X151505676Y-93006853D01*
X151538275Y-92953968D01*
X151538276Y-92953966D01*
X151542115Y-92947738D01*
X151597797Y-92779861D01*
X151608500Y-92675400D01*
X151608500Y-91789595D01*
X151628502Y-91721474D01*
X151645405Y-91700499D01*
X152183766Y-91162139D01*
X152246078Y-91128114D01*
X152316894Y-91133179D01*
X152373729Y-91175726D01*
X152398540Y-91242246D01*
X152398205Y-91264078D01*
X152392328Y-91321440D01*
X152392000Y-91327855D01*
X152392000Y-91727885D01*
X152396475Y-91743124D01*
X152397865Y-91744329D01*
X152405548Y-91746000D01*
X153277885Y-91746000D01*
X153293124Y-91741525D01*
X153294329Y-91740135D01*
X153296000Y-91732452D01*
X153296000Y-90635116D01*
X153291525Y-90619877D01*
X153290135Y-90618672D01*
X153282452Y-90617001D01*
X153102905Y-90617001D01*
X153096386Y-90617338D01*
X153000794Y-90627257D01*
X152987400Y-90630149D01*
X152859830Y-90672709D01*
X152788880Y-90675293D01*
X152727796Y-90639109D01*
X152695972Y-90575645D01*
X152695506Y-90533472D01*
X152700099Y-90504476D01*
X152702505Y-90492856D01*
X152711528Y-90457711D01*
X152711528Y-90457710D01*
X152713500Y-90450030D01*
X152713500Y-90429776D01*
X152715051Y-90410065D01*
X152716980Y-90397886D01*
X152718220Y-90390057D01*
X152714059Y-90346038D01*
X152713500Y-90334181D01*
X152713500Y-89280427D01*
X152733502Y-89212306D01*
X152774618Y-89172550D01*
X152777994Y-89170896D01*
X152959860Y-89041173D01*
X153118096Y-88883489D01*
X153248453Y-88702077D01*
X153249776Y-88703028D01*
X153296645Y-88659857D01*
X153366580Y-88647625D01*
X153432026Y-88675144D01*
G37*
%TD.AperFunction*%
%TA.AperFunction,Conductor*%
G36*
X155972026Y-88675144D02*
G01*
X155999875Y-88706994D01*
X156059987Y-88805088D01*
X156206250Y-88973938D01*
X156378126Y-89116632D01*
X156571000Y-89229338D01*
X156779692Y-89309030D01*
X156784760Y-89310061D01*
X156784763Y-89310062D01*
X156892012Y-89331882D01*
X156998597Y-89353567D01*
X157003772Y-89353757D01*
X157003774Y-89353757D01*
X157216673Y-89361564D01*
X157216677Y-89361564D01*
X157221837Y-89361753D01*
X157226957Y-89361097D01*
X157226959Y-89361097D01*
X157438288Y-89334025D01*
X157438289Y-89334025D01*
X157443416Y-89333368D01*
X157448367Y-89331883D01*
X157448370Y-89331882D01*
X157489829Y-89319444D01*
X157560825Y-89319028D01*
X157615131Y-89351035D01*
X158771545Y-90507449D01*
X158805571Y-90569761D01*
X158805570Y-90623328D01*
X158804000Y-90630545D01*
X158804000Y-92128000D01*
X158783998Y-92196121D01*
X158730342Y-92242614D01*
X158678000Y-92254000D01*
X157410116Y-92254000D01*
X157394877Y-92258475D01*
X157393672Y-92259865D01*
X157392001Y-92267548D01*
X157392001Y-92440500D01*
X157371999Y-92508621D01*
X157318343Y-92555114D01*
X157266001Y-92566500D01*
X156734500Y-92566500D01*
X156666379Y-92546498D01*
X156619886Y-92492842D01*
X156608500Y-92440500D01*
X156608500Y-91727885D01*
X157392000Y-91727885D01*
X157396475Y-91743124D01*
X157397865Y-91744329D01*
X157405548Y-91746000D01*
X158277885Y-91746000D01*
X158293124Y-91741525D01*
X158294329Y-91740135D01*
X158296000Y-91732452D01*
X158296000Y-90635116D01*
X158291525Y-90619877D01*
X158290135Y-90618672D01*
X158282452Y-90617001D01*
X158102905Y-90617001D01*
X158096386Y-90617338D01*
X158000794Y-90627257D01*
X157987400Y-90630149D01*
X157833216Y-90681588D01*
X157820038Y-90687761D01*
X157682193Y-90773063D01*
X157670792Y-90782099D01*
X157556261Y-90896829D01*
X157547249Y-90908240D01*
X157462184Y-91046243D01*
X157456037Y-91059424D01*
X157404862Y-91213710D01*
X157401995Y-91227086D01*
X157392328Y-91321438D01*
X157392000Y-91327855D01*
X157392000Y-91727885D01*
X156608500Y-91727885D01*
X156608500Y-91324600D01*
X156608163Y-91321350D01*
X156598238Y-91225692D01*
X156598237Y-91225688D01*
X156597526Y-91218834D01*
X156541550Y-91051054D01*
X156448478Y-90900652D01*
X156323303Y-90775695D01*
X156317072Y-90771854D01*
X156178968Y-90686725D01*
X156178966Y-90686724D01*
X156172738Y-90682885D01*
X156092995Y-90656436D01*
X156011389Y-90629368D01*
X156011387Y-90629368D01*
X156004861Y-90627203D01*
X155998025Y-90626503D01*
X155998022Y-90626502D01*
X155954969Y-90622091D01*
X155900400Y-90616500D01*
X155379500Y-90616500D01*
X155311379Y-90596498D01*
X155264886Y-90542842D01*
X155253500Y-90490500D01*
X155253500Y-89280427D01*
X155273502Y-89212306D01*
X155314618Y-89172550D01*
X155317994Y-89170896D01*
X155499860Y-89041173D01*
X155658096Y-88883489D01*
X155788453Y-88702077D01*
X155789776Y-88703028D01*
X155836645Y-88659857D01*
X155906580Y-88647625D01*
X155972026Y-88675144D01*
G37*
%TD.AperFunction*%
%TD*%
M02*
