%TF.GenerationSoftware,KiCad,Pcbnew,(6.0.6-0)*%
%TF.CreationDate,2022-07-04T00:11:51+08:00*%
%TF.ProjectId,__,4dc82e6b-6963-4616-945f-706362585858,rev?*%
%TF.SameCoordinates,Original*%
%TF.FileFunction,Legend,Bot*%
%TF.FilePolarity,Positive*%
%FSLAX46Y46*%
G04 Gerber Fmt 4.6, Leading zero omitted, Abs format (unit mm)*
G04 Created by KiCad (PCBNEW (6.0.6-0)) date 2022-07-04 00:11:51*
%MOMM*%
%LPD*%
G01*
G04 APERTURE LIST*
%ADD10C,0.150000*%
%ADD11C,0.120000*%
G04 APERTURE END LIST*
D10*
%TO.C,R2*%
X81166666Y-113632380D02*
X81500000Y-113156190D01*
X81738095Y-113632380D02*
X81738095Y-112632380D01*
X81357142Y-112632380D01*
X81261904Y-112680000D01*
X81214285Y-112727619D01*
X81166666Y-112822857D01*
X81166666Y-112965714D01*
X81214285Y-113060952D01*
X81261904Y-113108571D01*
X81357142Y-113156190D01*
X81738095Y-113156190D01*
X80785714Y-112727619D02*
X80738095Y-112680000D01*
X80642857Y-112632380D01*
X80404761Y-112632380D01*
X80309523Y-112680000D01*
X80261904Y-112727619D01*
X80214285Y-112822857D01*
X80214285Y-112918095D01*
X80261904Y-113060952D01*
X80833333Y-113632380D01*
X80214285Y-113632380D01*
%TO.C,R1*%
X75166666Y-113632380D02*
X75500000Y-113156190D01*
X75738095Y-113632380D02*
X75738095Y-112632380D01*
X75357142Y-112632380D01*
X75261904Y-112680000D01*
X75214285Y-112727619D01*
X75166666Y-112822857D01*
X75166666Y-112965714D01*
X75214285Y-113060952D01*
X75261904Y-113108571D01*
X75357142Y-113156190D01*
X75738095Y-113156190D01*
X74214285Y-113632380D02*
X74785714Y-113632380D01*
X74500000Y-113632380D02*
X74500000Y-112632380D01*
X74595238Y-112775238D01*
X74690476Y-112870476D01*
X74785714Y-112918095D01*
D11*
%TO.C,R2*%
X81727064Y-114090000D02*
X80272936Y-114090000D01*
X81727064Y-115910000D02*
X80272936Y-115910000D01*
%TO.C,R1*%
X75727064Y-114090000D02*
X74272936Y-114090000D01*
X75727064Y-115910000D02*
X74272936Y-115910000D01*
%TD*%
M02*
