%TF.GenerationSoftware,KiCad,Pcbnew,(6.0.6-0)*%
%TF.CreationDate,2022-07-04T00:11:51+08:00*%
%TF.ProjectId,__,4dc82e6b-6963-4616-945f-706362585858,rev?*%
%TF.SameCoordinates,Original*%
%TF.FileFunction,Copper,L2,Bot*%
%TF.FilePolarity,Positive*%
%FSLAX46Y46*%
G04 Gerber Fmt 4.6, Leading zero omitted, Abs format (unit mm)*
G04 Created by KiCad (PCBNEW (6.0.6-0)) date 2022-07-04 00:11:51*
%MOMM*%
%LPD*%
G01*
G04 APERTURE LIST*
G04 Aperture macros list*
%AMRoundRect*
0 Rectangle with rounded corners*
0 $1 Rounding radius*
0 $2 $3 $4 $5 $6 $7 $8 $9 X,Y pos of 4 corners*
0 Add a 4 corners polygon primitive as box body*
4,1,4,$2,$3,$4,$5,$6,$7,$8,$9,$2,$3,0*
0 Add four circle primitives for the rounded corners*
1,1,$1+$1,$2,$3*
1,1,$1+$1,$4,$5*
1,1,$1+$1,$6,$7*
1,1,$1+$1,$8,$9*
0 Add four rect primitives between the rounded corners*
20,1,$1+$1,$2,$3,$4,$5,0*
20,1,$1+$1,$4,$5,$6,$7,0*
20,1,$1+$1,$6,$7,$8,$9,0*
20,1,$1+$1,$8,$9,$2,$3,0*%
G04 Aperture macros list end*
%TA.AperFunction,ComponentPad*%
%ADD10R,2.000000X2.000000*%
%TD*%
%TA.AperFunction,ComponentPad*%
%ADD11C,2.000000*%
%TD*%
%TA.AperFunction,ComponentPad*%
%ADD12R,1.600000X1.600000*%
%TD*%
%TA.AperFunction,ComponentPad*%
%ADD13O,1.600000X1.600000*%
%TD*%
%TA.AperFunction,ComponentPad*%
%ADD14R,1.050000X1.500000*%
%TD*%
%TA.AperFunction,ComponentPad*%
%ADD15O,1.050000X1.500000*%
%TD*%
%TA.AperFunction,ComponentPad*%
%ADD16R,1.700000X1.700000*%
%TD*%
%TA.AperFunction,ComponentPad*%
%ADD17O,1.700000X1.700000*%
%TD*%
%TA.AperFunction,ComponentPad*%
%ADD18C,1.000000*%
%TD*%
%TA.AperFunction,SMDPad,CuDef*%
%ADD19RoundRect,0.250000X0.400000X0.625000X-0.400000X0.625000X-0.400000X-0.625000X0.400000X-0.625000X0*%
%TD*%
%TA.AperFunction,ViaPad*%
%ADD20C,0.800000*%
%TD*%
%TA.AperFunction,Conductor*%
%ADD21C,0.250000*%
%TD*%
G04 APERTURE END LIST*
D10*
%TO.P,K1,1*%
%TO.N,unconnected-(K1-Pad1)*%
X98042500Y-128407500D03*
D11*
%TO.P,K1,2*%
%TO.N,Net-(Arduino1-Pad20)*%
X100582500Y-128407500D03*
%TO.P,K1,5*%
%TO.N,Net-(K1-Pad5)*%
X108202500Y-128407500D03*
%TO.P,K1,6*%
X108202500Y-123327500D03*
%TO.P,K1,9*%
%TO.N,Earth*%
X100582500Y-123327500D03*
%TO.P,K1,10*%
%TO.N,Net-(J3-Pad1)*%
X98042500Y-123327500D03*
%TD*%
D12*
%TO.P,Arduino1,1,TX*%
%TO.N,unconnected-(Arduino1-Pad1)*%
X106050000Y-103390000D03*
D13*
%TO.P,Arduino1,2,RX*%
%TO.N,unconnected-(Arduino1-Pad2)*%
X103510000Y-103390000D03*
%TO.P,Arduino1,3,RST*%
%TO.N,unconnected-(Arduino1-Pad3)*%
X100970000Y-103390000D03*
%TO.P,Arduino1,4,GND*%
%TO.N,unconnected-(Arduino1-Pad4)*%
X98430000Y-103390000D03*
%TO.P,Arduino1,5,D2*%
%TO.N,unconnected-(Arduino1-Pad5)*%
X95890000Y-103390000D03*
%TO.P,Arduino1,6,D3*%
%TO.N,unconnected-(Arduino1-Pad6)*%
X93350000Y-103390000D03*
%TO.P,Arduino1,7,D4*%
%TO.N,unconnected-(Arduino1-Pad7)*%
X90810000Y-103390000D03*
%TO.P,Arduino1,8,D5*%
%TO.N,unconnected-(Arduino1-Pad8)*%
X88270000Y-103390000D03*
%TO.P,Arduino1,9,D6*%
%TO.N,unconnected-(Arduino1-Pad9)*%
X85730000Y-103390000D03*
%TO.P,Arduino1,10,D7*%
%TO.N,Net-(Arduino1-Pad10)*%
X83190000Y-103390000D03*
%TO.P,Arduino1,11,D8*%
%TO.N,Net-(Arduino1-Pad11)*%
X80650000Y-103390000D03*
%TO.P,Arduino1,12,D9*%
%TO.N,unconnected-(Arduino1-Pad12)*%
X78110000Y-103390000D03*
%TO.P,Arduino1,13,D10(~{SS})*%
%TO.N,unconnected-(Arduino1-Pad13)*%
X75570000Y-103390000D03*
%TO.P,Arduino1,14,D11(MOSI)*%
%TO.N,Net-(Arduino1-Pad14)*%
X73030000Y-103390000D03*
%TO.P,Arduino1,15,D12(MISO)*%
%TO.N,Net-(Arduino1-Pad15)*%
X70490000Y-103390000D03*
%TO.P,Arduino1,16,D13*%
%TO.N,Net-(Arduino1-Pad16)*%
X70490000Y-118630000D03*
%TO.P,Arduino1,17,3V3*%
%TO.N,Net-(Arduino1-Pad17)*%
X73030000Y-118630000D03*
%TO.P,Arduino1,18,REF*%
%TO.N,unconnected-(Arduino1-Pad18)*%
X75570000Y-118630000D03*
%TO.P,Arduino1,19,A0*%
%TO.N,Net-(Arduino1-Pad19)*%
X78110000Y-118630000D03*
%TO.P,Arduino1,20,A1*%
%TO.N,Net-(Arduino1-Pad20)*%
X80650000Y-118630000D03*
%TO.P,Arduino1,21,A2*%
%TO.N,Net-(Arduino1-Pad21)*%
X83190000Y-118630000D03*
%TO.P,Arduino1,22,A3*%
%TO.N,SIG*%
X85730000Y-118630000D03*
%TO.P,Arduino1,23,A4*%
%TO.N,unconnected-(Arduino1-Pad23)*%
X88270000Y-118630000D03*
%TO.P,Arduino1,24,A5*%
%TO.N,unconnected-(Arduino1-Pad24)*%
X90810000Y-118630000D03*
%TO.P,Arduino1,25,A6*%
%TO.N,unconnected-(Arduino1-Pad25)*%
X93350000Y-118630000D03*
%TO.P,Arduino1,26,A7*%
%TO.N,unconnected-(Arduino1-Pad26)*%
X95890000Y-118630000D03*
%TO.P,Arduino1,27,5V*%
%TO.N,Net-(Arduino1-Pad27)*%
X98430000Y-118630000D03*
%TO.P,Arduino1,28,RST*%
%TO.N,unconnected-(Arduino1-Pad28)*%
X100970000Y-118630000D03*
%TO.P,Arduino1,29,GND*%
%TO.N,Earth*%
X103510000Y-118630000D03*
%TO.P,Arduino1,30,VIN*%
%TO.N,VIN*%
X106050000Y-118630000D03*
%TD*%
D14*
%TO.P,Q1,1,E*%
%TO.N,Net-(H3-Pad1)*%
X92000000Y-132000000D03*
D15*
%TO.P,Q1,2,B*%
%TO.N,Net-(Q1-Pad2)*%
X93270000Y-132000000D03*
%TO.P,Q1,3,C*%
%TO.N,VIN*%
X94540000Y-132000000D03*
%TD*%
D16*
%TO.P,J2_CTRL,1,Pin_1*%
%TO.N,Net-(Arduino1-Pad27)*%
X83075000Y-125000000D03*
D17*
%TO.P,J2_CTRL,2,Pin_2*%
%TO.N,Earth*%
X80535000Y-125000000D03*
%TO.P,J2_CTRL,3,Pin_3*%
%TO.N,Net-(J2-Pad3)*%
X77995000Y-125000000D03*
%TO.P,J2_CTRL,4,Pin_4*%
%TO.N,Net-(J2-Pad4)*%
X75455000Y-125000000D03*
%TO.P,J2_CTRL,5,Pin_5*%
%TO.N,Net-(Arduino1-Pad19)*%
X72915000Y-125000000D03*
%TD*%
D18*
%TO.P,TR1,1,Vin(-)*%
%TO.N,Earth*%
X112800000Y-104250000D03*
%TO.P,TR1,2,Vin(+)*%
%TO.N,VIN*%
X127200000Y-104250000D03*
%TO.P,TR1,3,Out(-)*%
%TO.N,Net-(J3-Pad2)*%
X112800000Y-131500000D03*
%TO.P,TR1,4,Out(+)*%
%TO.N,Net-(K1-Pad5)*%
X127200000Y-131500000D03*
%TD*%
D16*
%TO.P,J1_PWR,1,Power*%
%TO.N,Net-(H3-Pad1)*%
X93000000Y-125000000D03*
D17*
%TO.P,J1_PWR,2,Ground*%
%TO.N,Earth*%
X90460000Y-125000000D03*
%TO.P,J1_PWR,3,Charging_Signal*%
%TO.N,SIG*%
X87920000Y-125000000D03*
%TD*%
D16*
%TO.P,J3_LIGHT,1,Pin_1*%
%TO.N,Net-(J3-Pad1)*%
X66000000Y-123000000D03*
D17*
%TO.P,J3_LIGHT,2,Pin_2*%
%TO.N,Net-(J3-Pad2)*%
X66000000Y-125540000D03*
%TD*%
D16*
%TO.P,J4_2.4G,1,EMPTY*%
%TO.N,unconnected-(J4-Pad1)*%
X68275000Y-137800000D03*
D17*
%TO.P,J4_2.4G,2,MISO*%
%TO.N,Net-(Arduino1-Pad15)*%
X65735000Y-137800000D03*
%TO.P,J4_2.4G,3,MOSI*%
%TO.N,Net-(Arduino1-Pad14)*%
X68275000Y-135260000D03*
%TO.P,J4_2.4G,4,SCLK*%
%TO.N,Net-(Arduino1-Pad16)*%
X65735000Y-135260000D03*
%TO.P,J4_2.4G,5,CSN*%
%TO.N,Net-(Arduino1-Pad11)*%
X68275000Y-132720000D03*
%TO.P,J4_2.4G,6,CE*%
%TO.N,Net-(Arduino1-Pad10)*%
X65735000Y-132720000D03*
%TO.P,J4_2.4G,7,VCC*%
%TO.N,Net-(Arduino1-Pad17)*%
X68275000Y-130180000D03*
%TO.P,J4_2.4G,8,GND*%
%TO.N,Earth*%
X65735000Y-130180000D03*
%TD*%
D19*
%TO.P,R2,1*%
%TO.N,Net-(Arduino1-Pad21)*%
X82550000Y-115000000D03*
%TO.P,R2,2*%
%TO.N,Net-(J2-Pad4)*%
X79450000Y-115000000D03*
%TD*%
%TO.P,R1,1*%
%TO.N,Net-(Arduino1-Pad19)*%
X76550000Y-115000000D03*
%TO.P,R1,2*%
%TO.N,Earth*%
X73450000Y-115000000D03*
%TD*%
D20*
%TO.N,Earth*%
X65000000Y-105000000D03*
X89000000Y-109000000D03*
X66000000Y-119000000D03*
X77000000Y-112000000D03*
X88000000Y-115000000D03*
X73000000Y-128000000D03*
X116000000Y-134000000D03*
X108000000Y-111000000D03*
X96000000Y-123000000D03*
X82000000Y-136000000D03*
X66000000Y-128000000D03*
X124000000Y-113000000D03*
X96000000Y-121000000D03*
X128000000Y-136000000D03*
X100000000Y-111000000D03*
X123000000Y-125000000D03*
%TO.N,Net-(J3-Pad2)*%
X65000000Y-115000000D03*
%TO.N,Net-(H3-Pad1)*%
X98000000Y-133000000D03*
%TO.N,Net-(J3-Pad1)*%
X91000000Y-138000000D03*
%TD*%
D21*
%TO.N,Net-(Arduino1-Pad15)*%
X64560000Y-116465305D02*
X70490000Y-110535305D01*
X65735000Y-137800000D02*
X64560000Y-136625000D01*
X70490000Y-110535305D02*
X70490000Y-103390000D01*
X64560000Y-136625000D02*
X64560000Y-116465305D01*
%TO.N,Net-(Arduino1-Pad16)*%
X70490000Y-118630000D02*
X70490000Y-132356701D01*
X66910000Y-134085000D02*
X65735000Y-135260000D01*
X70490000Y-132356701D02*
X68761701Y-134085000D01*
X68761701Y-134085000D02*
X66910000Y-134085000D01*
%TO.N,Net-(Arduino1-Pad17)*%
X71905000Y-117505000D02*
X73030000Y-118630000D01*
X68275000Y-130180000D02*
X68275000Y-119254009D01*
X70024009Y-117505000D02*
X71905000Y-117505000D01*
X68275000Y-119254009D02*
X70024009Y-117505000D01*
%TO.N,Net-(Arduino1-Pad19)*%
X78110000Y-119805000D02*
X78110000Y-118630000D01*
X76550000Y-115000000D02*
X78110000Y-116560000D01*
X78110000Y-116560000D02*
X78110000Y-118630000D01*
X72915000Y-125000000D02*
X78110000Y-119805000D01*
%TO.N,Net-(Arduino1-Pad21)*%
X82550000Y-115000000D02*
X83190000Y-115640000D01*
X83190000Y-115640000D02*
X83190000Y-118630000D01*
%TO.N,SIG*%
X85730000Y-118630000D02*
X85730000Y-122810000D01*
X85730000Y-122810000D02*
X87920000Y-125000000D01*
%TO.N,Net-(J2-Pad4)*%
X79450000Y-115000000D02*
X79450000Y-121005000D01*
X79450000Y-121005000D02*
X75455000Y-125000000D01*
%TO.N,Net-(J3-Pad2)*%
X65000000Y-107000000D02*
X65000000Y-111000000D01*
X65000000Y-111000000D02*
X65000000Y-115000000D01*
X112800000Y-131500000D02*
X112800000Y-107890000D01*
X106663557Y-101753557D02*
X70246443Y-101753557D01*
X112800000Y-107890000D02*
X106663557Y-101753557D01*
X70246443Y-101753557D02*
X65000000Y-107000000D01*
%TO.N,Net-(H3-Pad1)*%
X93775000Y-134000000D02*
X97000000Y-134000000D01*
X92000000Y-132225000D02*
X93775000Y-134000000D01*
X92000000Y-132000000D02*
X92000000Y-132225000D01*
X97000000Y-134000000D02*
X98000000Y-133000000D01*
%TO.N,Net-(J3-Pad1)*%
X91000000Y-138000000D02*
X91000000Y-130000000D01*
X91000000Y-130000000D02*
X97672500Y-123327500D01*
X97672500Y-123327500D02*
X98042500Y-123327500D01*
%TD*%
%TA.AperFunction,Conductor*%
%TO.N,Earth*%
G36*
X69359527Y-101528502D02*
G01*
X69406020Y-101582158D01*
X69416124Y-101652432D01*
X69386630Y-101717012D01*
X69380502Y-101723594D01*
X66924871Y-104179224D01*
X64607747Y-106496348D01*
X64599461Y-106503888D01*
X64592982Y-106508000D01*
X64587557Y-106513777D01*
X64546357Y-106557651D01*
X64543602Y-106560493D01*
X64523865Y-106580230D01*
X64521385Y-106583427D01*
X64513682Y-106592447D01*
X64483414Y-106624679D01*
X64479595Y-106631625D01*
X64479593Y-106631628D01*
X64473652Y-106642434D01*
X64462801Y-106658953D01*
X64450386Y-106674959D01*
X64447241Y-106682228D01*
X64447238Y-106682232D01*
X64432826Y-106715537D01*
X64427609Y-106726187D01*
X64406305Y-106764940D01*
X64404334Y-106772615D01*
X64404334Y-106772616D01*
X64401267Y-106784562D01*
X64394863Y-106803266D01*
X64386819Y-106821855D01*
X64385580Y-106829678D01*
X64385577Y-106829688D01*
X64379901Y-106865524D01*
X64377495Y-106877144D01*
X64366500Y-106919970D01*
X64366500Y-106940224D01*
X64364949Y-106959934D01*
X64361780Y-106979943D01*
X64362526Y-106987835D01*
X64365941Y-107023961D01*
X64366500Y-107035819D01*
X64366500Y-114297476D01*
X64346498Y-114365597D01*
X64334142Y-114381779D01*
X64260960Y-114463056D01*
X64165473Y-114628444D01*
X64106458Y-114810072D01*
X64086496Y-115000000D01*
X64106458Y-115189928D01*
X64165473Y-115371556D01*
X64260960Y-115536944D01*
X64338015Y-115622522D01*
X64368732Y-115686530D01*
X64359967Y-115756983D01*
X64333473Y-115795927D01*
X64167747Y-115961653D01*
X64159461Y-115969193D01*
X64152982Y-115973305D01*
X64147557Y-115979082D01*
X64106357Y-116022956D01*
X64103602Y-116025798D01*
X64083865Y-116045535D01*
X64081385Y-116048732D01*
X64073682Y-116057752D01*
X64043414Y-116089984D01*
X64039595Y-116096930D01*
X64039593Y-116096933D01*
X64033652Y-116107739D01*
X64022801Y-116124258D01*
X64010386Y-116140264D01*
X64007241Y-116147533D01*
X64007238Y-116147537D01*
X63992826Y-116180842D01*
X63987609Y-116191492D01*
X63966305Y-116230245D01*
X63964334Y-116237920D01*
X63964334Y-116237921D01*
X63961267Y-116249867D01*
X63954863Y-116268571D01*
X63946819Y-116287160D01*
X63945580Y-116294983D01*
X63945577Y-116294993D01*
X63939901Y-116330829D01*
X63937495Y-116342449D01*
X63929704Y-116372797D01*
X63926500Y-116385275D01*
X63926500Y-116405529D01*
X63924949Y-116425239D01*
X63921780Y-116445248D01*
X63922526Y-116453140D01*
X63925941Y-116489266D01*
X63926500Y-116501124D01*
X63926500Y-136546233D01*
X63925973Y-136557416D01*
X63924298Y-136564909D01*
X63924547Y-136572835D01*
X63924547Y-136572836D01*
X63926438Y-136632986D01*
X63926500Y-136636945D01*
X63926500Y-136664856D01*
X63926997Y-136668790D01*
X63926997Y-136668791D01*
X63927005Y-136668856D01*
X63927938Y-136680693D01*
X63929327Y-136724889D01*
X63931539Y-136732502D01*
X63934978Y-136744339D01*
X63938987Y-136763700D01*
X63941526Y-136783797D01*
X63944445Y-136791168D01*
X63944445Y-136791170D01*
X63957804Y-136824912D01*
X63961649Y-136836142D01*
X63973982Y-136878593D01*
X63978015Y-136885412D01*
X63978017Y-136885417D01*
X63984293Y-136896028D01*
X63992988Y-136913776D01*
X64000448Y-136932617D01*
X64005110Y-136939033D01*
X64005110Y-136939034D01*
X64026436Y-136968387D01*
X64032952Y-136978307D01*
X64055458Y-137016362D01*
X64069779Y-137030683D01*
X64082619Y-137045716D01*
X64094528Y-137062107D01*
X64100634Y-137067158D01*
X64128605Y-137090298D01*
X64137384Y-137098288D01*
X64384778Y-137345682D01*
X64418804Y-137407994D01*
X64417100Y-137468448D01*
X64395989Y-137544570D01*
X64395441Y-137549700D01*
X64395440Y-137549704D01*
X64389157Y-137608500D01*
X64372251Y-137766695D01*
X64385110Y-137989715D01*
X64386247Y-137994761D01*
X64386248Y-137994767D01*
X64388907Y-138006565D01*
X64434222Y-138207639D01*
X64518266Y-138414616D01*
X64634987Y-138605088D01*
X64781250Y-138773938D01*
X64953126Y-138916632D01*
X65146000Y-139029338D01*
X65354692Y-139109030D01*
X65359760Y-139110061D01*
X65359763Y-139110062D01*
X65467017Y-139131883D01*
X65573597Y-139153567D01*
X65578772Y-139153757D01*
X65578774Y-139153757D01*
X65791673Y-139161564D01*
X65791677Y-139161564D01*
X65796837Y-139161753D01*
X65801957Y-139161097D01*
X65801959Y-139161097D01*
X66013288Y-139134025D01*
X66013289Y-139134025D01*
X66018416Y-139133368D01*
X66023366Y-139131883D01*
X66227429Y-139070661D01*
X66227434Y-139070659D01*
X66232384Y-139069174D01*
X66432994Y-138970896D01*
X66614860Y-138841173D01*
X66723091Y-138733319D01*
X66785462Y-138699404D01*
X66856268Y-138704592D01*
X66913030Y-138747238D01*
X66930012Y-138778341D01*
X66952201Y-138837529D01*
X66974385Y-138896705D01*
X67061739Y-139013261D01*
X67178295Y-139100615D01*
X67314684Y-139151745D01*
X67376866Y-139158500D01*
X69173134Y-139158500D01*
X69235316Y-139151745D01*
X69371705Y-139100615D01*
X69488261Y-139013261D01*
X69575615Y-138896705D01*
X69626745Y-138760316D01*
X69633500Y-138698134D01*
X69633500Y-138000000D01*
X90086496Y-138000000D01*
X90106458Y-138189928D01*
X90165473Y-138371556D01*
X90260960Y-138536944D01*
X90388747Y-138678866D01*
X90410564Y-138694717D01*
X90524147Y-138777240D01*
X90543248Y-138791118D01*
X90549276Y-138793802D01*
X90549278Y-138793803D01*
X90711681Y-138866109D01*
X90717712Y-138868794D01*
X90809466Y-138888297D01*
X90898056Y-138907128D01*
X90898061Y-138907128D01*
X90904513Y-138908500D01*
X91095487Y-138908500D01*
X91101939Y-138907128D01*
X91101944Y-138907128D01*
X91190534Y-138888297D01*
X91282288Y-138868794D01*
X91288319Y-138866109D01*
X91450722Y-138793803D01*
X91450724Y-138793802D01*
X91456752Y-138791118D01*
X91475854Y-138777240D01*
X91589436Y-138694717D01*
X91611253Y-138678866D01*
X91739040Y-138536944D01*
X91834527Y-138371556D01*
X91893542Y-138189928D01*
X91913504Y-138000000D01*
X91893542Y-137810072D01*
X91834527Y-137628444D01*
X91739040Y-137463056D01*
X91665863Y-137381785D01*
X91635147Y-137317779D01*
X91633500Y-137297476D01*
X91633500Y-136000000D01*
X119386526Y-136000000D01*
X119406391Y-136252403D01*
X119407545Y-136257210D01*
X119407546Y-136257216D01*
X119418819Y-136304171D01*
X119465495Y-136498591D01*
X119467388Y-136503162D01*
X119467389Y-136503164D01*
X119559231Y-136724889D01*
X119562384Y-136732502D01*
X119694672Y-136948376D01*
X119859102Y-137140898D01*
X120051624Y-137305328D01*
X120267498Y-137437616D01*
X120272068Y-137439509D01*
X120272072Y-137439511D01*
X120496836Y-137532611D01*
X120501409Y-137534505D01*
X120564718Y-137549704D01*
X120742784Y-137592454D01*
X120742790Y-137592455D01*
X120747597Y-137593609D01*
X120847416Y-137601465D01*
X120934345Y-137608307D01*
X120934352Y-137608307D01*
X120936801Y-137608500D01*
X121063199Y-137608500D01*
X121065648Y-137608307D01*
X121065655Y-137608307D01*
X121152584Y-137601465D01*
X121252403Y-137593609D01*
X121257210Y-137592455D01*
X121257216Y-137592454D01*
X121435282Y-137549704D01*
X121498591Y-137534505D01*
X121503164Y-137532611D01*
X121727928Y-137439511D01*
X121727932Y-137439509D01*
X121732502Y-137437616D01*
X121948376Y-137305328D01*
X122140898Y-137140898D01*
X122305328Y-136948376D01*
X122437616Y-136732502D01*
X122440770Y-136724889D01*
X122532611Y-136503164D01*
X122532612Y-136503162D01*
X122534505Y-136498591D01*
X122581181Y-136304171D01*
X122592454Y-136257216D01*
X122592455Y-136257210D01*
X122593609Y-136252403D01*
X122613474Y-136000000D01*
X122593609Y-135747597D01*
X122534505Y-135501409D01*
X122437616Y-135267498D01*
X122305328Y-135051624D01*
X122140898Y-134859102D01*
X121948376Y-134694672D01*
X121732502Y-134562384D01*
X121727932Y-134560491D01*
X121727928Y-134560489D01*
X121503164Y-134467389D01*
X121503162Y-134467388D01*
X121498591Y-134465495D01*
X121413968Y-134445179D01*
X121257216Y-134407546D01*
X121257210Y-134407545D01*
X121252403Y-134406391D01*
X121152115Y-134398498D01*
X121065655Y-134391693D01*
X121065648Y-134391693D01*
X121063199Y-134391500D01*
X120936801Y-134391500D01*
X120934352Y-134391693D01*
X120934345Y-134391693D01*
X120847885Y-134398498D01*
X120747597Y-134406391D01*
X120742790Y-134407545D01*
X120742784Y-134407546D01*
X120586032Y-134445179D01*
X120501409Y-134465495D01*
X120496838Y-134467388D01*
X120496836Y-134467389D01*
X120272072Y-134560489D01*
X120272068Y-134560491D01*
X120267498Y-134562384D01*
X120051624Y-134694672D01*
X119859102Y-134859102D01*
X119694672Y-135051624D01*
X119562384Y-135267498D01*
X119465495Y-135501409D01*
X119406391Y-135747597D01*
X119386526Y-136000000D01*
X91633500Y-136000000D01*
X91633500Y-133384500D01*
X91653502Y-133316379D01*
X91707158Y-133269886D01*
X91759500Y-133258500D01*
X92085406Y-133258500D01*
X92153527Y-133278502D01*
X92174501Y-133295405D01*
X93271348Y-134392253D01*
X93278888Y-134400539D01*
X93283000Y-134407018D01*
X93288777Y-134412443D01*
X93332651Y-134453643D01*
X93335493Y-134456398D01*
X93355230Y-134476135D01*
X93358427Y-134478615D01*
X93367447Y-134486318D01*
X93399679Y-134516586D01*
X93406625Y-134520405D01*
X93406628Y-134520407D01*
X93417434Y-134526348D01*
X93433953Y-134537199D01*
X93449959Y-134549614D01*
X93457228Y-134552759D01*
X93457232Y-134552762D01*
X93490537Y-134567174D01*
X93501187Y-134572391D01*
X93539940Y-134593695D01*
X93547615Y-134595666D01*
X93547616Y-134595666D01*
X93559562Y-134598733D01*
X93578267Y-134605137D01*
X93596855Y-134613181D01*
X93604678Y-134614420D01*
X93604688Y-134614423D01*
X93640524Y-134620099D01*
X93652144Y-134622505D01*
X93683959Y-134630673D01*
X93694970Y-134633500D01*
X93715224Y-134633500D01*
X93734934Y-134635051D01*
X93754943Y-134638220D01*
X93762835Y-134637474D01*
X93781580Y-134635702D01*
X93798962Y-134634059D01*
X93810819Y-134633500D01*
X96921233Y-134633500D01*
X96932416Y-134634027D01*
X96939909Y-134635702D01*
X96947835Y-134635453D01*
X96947836Y-134635453D01*
X97007986Y-134633562D01*
X97011945Y-134633500D01*
X97039856Y-134633500D01*
X97043791Y-134633003D01*
X97043856Y-134632995D01*
X97055693Y-134632062D01*
X97087951Y-134631048D01*
X97091970Y-134630922D01*
X97099889Y-134630673D01*
X97119343Y-134625021D01*
X97138700Y-134621013D01*
X97150930Y-134619468D01*
X97150931Y-134619468D01*
X97158797Y-134618474D01*
X97166168Y-134615555D01*
X97166170Y-134615555D01*
X97199912Y-134602196D01*
X97211142Y-134598351D01*
X97245983Y-134588229D01*
X97245984Y-134588229D01*
X97253593Y-134586018D01*
X97260412Y-134581985D01*
X97260417Y-134581983D01*
X97271028Y-134575707D01*
X97288776Y-134567012D01*
X97307617Y-134559552D01*
X97343387Y-134533564D01*
X97353307Y-134527048D01*
X97384535Y-134508580D01*
X97384538Y-134508578D01*
X97391362Y-134504542D01*
X97405683Y-134490221D01*
X97420717Y-134477380D01*
X97430694Y-134470131D01*
X97437107Y-134465472D01*
X97465298Y-134431395D01*
X97473288Y-134422616D01*
X97950499Y-133945405D01*
X98012811Y-133911379D01*
X98039594Y-133908500D01*
X98095487Y-133908500D01*
X98101939Y-133907128D01*
X98101944Y-133907128D01*
X98188888Y-133888647D01*
X98282288Y-133868794D01*
X98288319Y-133866109D01*
X98450722Y-133793803D01*
X98450724Y-133793802D01*
X98456752Y-133791118D01*
X98611253Y-133678866D01*
X98739040Y-133536944D01*
X98834527Y-133371556D01*
X98893542Y-133189928D01*
X98913504Y-133000000D01*
X98893542Y-132810072D01*
X98834527Y-132628444D01*
X98817356Y-132598702D01*
X98767694Y-132512686D01*
X98739040Y-132463056D01*
X98722601Y-132444798D01*
X98615675Y-132326045D01*
X98615674Y-132326044D01*
X98611253Y-132321134D01*
X98512157Y-132249136D01*
X98462094Y-132212763D01*
X98462093Y-132212762D01*
X98456752Y-132208882D01*
X98450724Y-132206198D01*
X98450722Y-132206197D01*
X98288319Y-132133891D01*
X98288318Y-132133891D01*
X98282288Y-132131206D01*
X98183595Y-132110228D01*
X98101944Y-132092872D01*
X98101939Y-132092872D01*
X98095487Y-132091500D01*
X97904513Y-132091500D01*
X97898061Y-132092872D01*
X97898056Y-132092872D01*
X97816405Y-132110228D01*
X97717712Y-132131206D01*
X97711682Y-132133891D01*
X97711681Y-132133891D01*
X97549278Y-132206197D01*
X97549276Y-132206198D01*
X97543248Y-132208882D01*
X97537907Y-132212762D01*
X97537906Y-132212763D01*
X97487843Y-132249136D01*
X97388747Y-132321134D01*
X97384326Y-132326044D01*
X97384325Y-132326045D01*
X97277400Y-132444798D01*
X97260960Y-132463056D01*
X97232306Y-132512686D01*
X97182645Y-132598702D01*
X97165473Y-132628444D01*
X97106458Y-132810072D01*
X97105768Y-132816633D01*
X97105768Y-132816635D01*
X97089093Y-132975292D01*
X97062080Y-133040949D01*
X97052878Y-133051218D01*
X96774499Y-133329596D01*
X96712187Y-133363621D01*
X96685404Y-133366500D01*
X95100344Y-133366500D01*
X95032223Y-133346498D01*
X94985730Y-133292842D01*
X94975626Y-133222568D01*
X95005120Y-133157988D01*
X95041969Y-133128838D01*
X95060208Y-133119303D01*
X95108645Y-133093981D01*
X95266601Y-132966981D01*
X95396881Y-132811719D01*
X95399845Y-132806327D01*
X95399848Y-132806323D01*
X95491556Y-132639506D01*
X95494523Y-132634109D01*
X95555807Y-132440916D01*
X95556973Y-132430528D01*
X95568457Y-132328143D01*
X95573500Y-132283183D01*
X95573500Y-131723996D01*
X95558723Y-131573287D01*
X95500142Y-131379258D01*
X95404990Y-131200302D01*
X95276890Y-131043237D01*
X95272141Y-131039308D01*
X95125472Y-130917973D01*
X95125469Y-130917971D01*
X95120722Y-130914044D01*
X94942435Y-130817644D01*
X94795339Y-130772110D01*
X94754707Y-130759532D01*
X94754704Y-130759531D01*
X94748820Y-130757710D01*
X94742695Y-130757066D01*
X94742694Y-130757066D01*
X94553378Y-130737168D01*
X94553377Y-130737168D01*
X94547250Y-130736524D01*
X94463986Y-130744102D01*
X94351543Y-130754335D01*
X94351540Y-130754336D01*
X94345404Y-130754894D01*
X94339498Y-130756632D01*
X94339494Y-130756633D01*
X94239926Y-130785938D01*
X94150971Y-130812119D01*
X94145514Y-130814972D01*
X94145511Y-130814973D01*
X94069562Y-130854678D01*
X93971540Y-130905923D01*
X93971538Y-130905923D01*
X93971355Y-130906019D01*
X93971337Y-130905984D01*
X93905559Y-130925889D01*
X93844591Y-130910729D01*
X93835815Y-130905984D01*
X93672435Y-130817644D01*
X93525339Y-130772110D01*
X93484707Y-130759532D01*
X93484704Y-130759531D01*
X93478820Y-130757710D01*
X93472695Y-130757066D01*
X93472694Y-130757066D01*
X93283378Y-130737168D01*
X93283377Y-130737168D01*
X93277250Y-130736524D01*
X93193986Y-130744102D01*
X93081543Y-130754335D01*
X93081540Y-130754336D01*
X93075404Y-130754894D01*
X93069498Y-130756632D01*
X93069494Y-130756633D01*
X92886879Y-130810380D01*
X92886877Y-130810381D01*
X92885493Y-130810788D01*
X92880971Y-130812119D01*
X92880718Y-130811260D01*
X92815338Y-130817714D01*
X92778594Y-130804548D01*
X92771705Y-130799385D01*
X92763304Y-130796236D01*
X92763301Y-130796234D01*
X92651534Y-130754335D01*
X92635316Y-130748255D01*
X92573134Y-130741500D01*
X91759500Y-130741500D01*
X91691379Y-130721498D01*
X91644886Y-130667842D01*
X91633500Y-130615500D01*
X91633500Y-130314594D01*
X91653502Y-130246473D01*
X91670405Y-130225499D01*
X92440270Y-129455634D01*
X96534000Y-129455634D01*
X96540755Y-129517816D01*
X96591885Y-129654205D01*
X96679239Y-129770761D01*
X96795795Y-129858115D01*
X96932184Y-129909245D01*
X96994366Y-129916000D01*
X99090634Y-129916000D01*
X99152816Y-129909245D01*
X99289205Y-129858115D01*
X99405761Y-129770761D01*
X99493115Y-129654205D01*
X99493175Y-129654250D01*
X99540052Y-129607482D01*
X99609444Y-129592472D01*
X99675935Y-129617360D01*
X99682139Y-129622329D01*
X99689318Y-129628460D01*
X99689322Y-129628463D01*
X99693084Y-129631676D01*
X99697292Y-129634255D01*
X99697298Y-129634259D01*
X99847329Y-129726198D01*
X99895537Y-129755740D01*
X99900107Y-129757633D01*
X99900111Y-129757635D01*
X100074064Y-129829688D01*
X100114906Y-129846605D01*
X100162849Y-129858115D01*
X100340976Y-129900880D01*
X100340982Y-129900881D01*
X100345789Y-129902035D01*
X100582500Y-129920665D01*
X100819211Y-129902035D01*
X100824018Y-129900881D01*
X100824024Y-129900880D01*
X101002151Y-129858115D01*
X101050094Y-129846605D01*
X101090936Y-129829688D01*
X101264889Y-129757635D01*
X101264893Y-129757633D01*
X101269463Y-129755740D01*
X101317671Y-129726198D01*
X101467702Y-129634259D01*
X101467708Y-129634255D01*
X101471916Y-129631676D01*
X101652469Y-129477469D01*
X101806676Y-129296916D01*
X101809255Y-129292708D01*
X101809259Y-129292702D01*
X101928154Y-129098683D01*
X101930740Y-129094463D01*
X101950069Y-129047800D01*
X102019711Y-128879667D01*
X102019712Y-128879665D01*
X102021605Y-128875094D01*
X102045353Y-128776175D01*
X102075880Y-128649024D01*
X102075881Y-128649018D01*
X102077035Y-128644211D01*
X102095665Y-128407500D01*
X106689335Y-128407500D01*
X106707965Y-128644211D01*
X106709119Y-128649018D01*
X106709120Y-128649024D01*
X106739647Y-128776175D01*
X106763395Y-128875094D01*
X106765288Y-128879665D01*
X106765289Y-128879667D01*
X106834932Y-129047800D01*
X106854260Y-129094463D01*
X106856846Y-129098683D01*
X106975741Y-129292702D01*
X106975745Y-129292708D01*
X106978324Y-129296916D01*
X107132531Y-129477469D01*
X107313084Y-129631676D01*
X107317292Y-129634255D01*
X107317298Y-129634259D01*
X107467329Y-129726198D01*
X107515537Y-129755740D01*
X107520107Y-129757633D01*
X107520111Y-129757635D01*
X107694064Y-129829688D01*
X107734906Y-129846605D01*
X107782849Y-129858115D01*
X107960976Y-129900880D01*
X107960982Y-129900881D01*
X107965789Y-129902035D01*
X108202500Y-129920665D01*
X108439211Y-129902035D01*
X108444018Y-129900881D01*
X108444024Y-129900880D01*
X108622151Y-129858115D01*
X108670094Y-129846605D01*
X108710936Y-129829688D01*
X108884889Y-129757635D01*
X108884893Y-129757633D01*
X108889463Y-129755740D01*
X108937671Y-129726198D01*
X109087702Y-129634259D01*
X109087708Y-129634255D01*
X109091916Y-129631676D01*
X109272469Y-129477469D01*
X109426676Y-129296916D01*
X109429255Y-129292708D01*
X109429259Y-129292702D01*
X109548154Y-129098683D01*
X109550740Y-129094463D01*
X109570069Y-129047800D01*
X109639711Y-128879667D01*
X109639712Y-128879665D01*
X109641605Y-128875094D01*
X109665353Y-128776175D01*
X109695880Y-128649024D01*
X109695881Y-128649018D01*
X109697035Y-128644211D01*
X109715665Y-128407500D01*
X109697035Y-128170789D01*
X109641605Y-127939906D01*
X109550740Y-127720537D01*
X109548154Y-127716317D01*
X109429259Y-127522298D01*
X109429255Y-127522292D01*
X109426676Y-127518084D01*
X109272469Y-127337531D01*
X109091916Y-127183324D01*
X109087708Y-127180745D01*
X109087702Y-127180741D01*
X108893683Y-127061846D01*
X108889463Y-127059260D01*
X108884893Y-127057367D01*
X108884889Y-127057365D01*
X108674667Y-126970289D01*
X108674665Y-126970288D01*
X108670094Y-126968395D01*
X108589891Y-126949140D01*
X108444024Y-126914120D01*
X108444018Y-126914119D01*
X108439211Y-126912965D01*
X108202500Y-126894335D01*
X107965789Y-126912965D01*
X107960982Y-126914119D01*
X107960976Y-126914120D01*
X107815109Y-126949140D01*
X107734906Y-126968395D01*
X107730335Y-126970288D01*
X107730333Y-126970289D01*
X107520111Y-127057365D01*
X107520107Y-127057367D01*
X107515537Y-127059260D01*
X107511317Y-127061846D01*
X107317298Y-127180741D01*
X107317292Y-127180745D01*
X107313084Y-127183324D01*
X107132531Y-127337531D01*
X106978324Y-127518084D01*
X106975745Y-127522292D01*
X106975741Y-127522298D01*
X106856846Y-127716317D01*
X106854260Y-127720537D01*
X106763395Y-127939906D01*
X106707965Y-128170789D01*
X106689335Y-128407500D01*
X102095665Y-128407500D01*
X102077035Y-128170789D01*
X102021605Y-127939906D01*
X101930740Y-127720537D01*
X101928154Y-127716317D01*
X101809259Y-127522298D01*
X101809255Y-127522292D01*
X101806676Y-127518084D01*
X101652469Y-127337531D01*
X101471916Y-127183324D01*
X101467708Y-127180745D01*
X101467702Y-127180741D01*
X101273683Y-127061846D01*
X101269463Y-127059260D01*
X101264893Y-127057367D01*
X101264889Y-127057365D01*
X101054667Y-126970289D01*
X101054665Y-126970288D01*
X101050094Y-126968395D01*
X100969891Y-126949140D01*
X100824024Y-126914120D01*
X100824018Y-126914119D01*
X100819211Y-126912965D01*
X100582500Y-126894335D01*
X100345789Y-126912965D01*
X100340982Y-126914119D01*
X100340976Y-126914120D01*
X100195109Y-126949140D01*
X100114906Y-126968395D01*
X100110335Y-126970288D01*
X100110333Y-126970289D01*
X99900111Y-127057365D01*
X99900107Y-127057367D01*
X99895537Y-127059260D01*
X99891317Y-127061846D01*
X99697298Y-127180741D01*
X99697292Y-127180745D01*
X99693084Y-127183324D01*
X99689322Y-127186537D01*
X99689318Y-127186540D01*
X99682139Y-127192671D01*
X99617349Y-127221702D01*
X99547149Y-127211097D01*
X99494681Y-127164973D01*
X99493115Y-127160795D01*
X99405761Y-127044239D01*
X99289205Y-126956885D01*
X99152816Y-126905755D01*
X99090634Y-126899000D01*
X96994366Y-126899000D01*
X96932184Y-126905755D01*
X96795795Y-126956885D01*
X96679239Y-127044239D01*
X96591885Y-127160795D01*
X96540755Y-127297184D01*
X96534000Y-127359366D01*
X96534000Y-129455634D01*
X92440270Y-129455634D01*
X97201415Y-124694490D01*
X97263727Y-124660464D01*
X97334542Y-124665529D01*
X97347710Y-124671317D01*
X97351324Y-124673158D01*
X97355537Y-124675740D01*
X97360105Y-124677632D01*
X97569182Y-124764234D01*
X97574906Y-124766605D01*
X97655109Y-124785860D01*
X97800976Y-124820880D01*
X97800982Y-124820881D01*
X97805789Y-124822035D01*
X98042500Y-124840665D01*
X98279211Y-124822035D01*
X98284018Y-124820881D01*
X98284024Y-124820880D01*
X98429891Y-124785860D01*
X98510094Y-124766605D01*
X98514667Y-124764711D01*
X98724889Y-124677635D01*
X98724895Y-124677632D01*
X98729463Y-124675740D01*
X98754391Y-124660464D01*
X98918056Y-124560170D01*
X99714660Y-124560170D01*
X99720387Y-124567820D01*
X99891542Y-124672705D01*
X99900337Y-124677187D01*
X100110488Y-124764234D01*
X100119873Y-124767283D01*
X100341054Y-124820385D01*
X100350801Y-124821928D01*
X100577570Y-124839775D01*
X100587430Y-124839775D01*
X100814199Y-124821928D01*
X100823946Y-124820385D01*
X101045127Y-124767283D01*
X101054512Y-124764234D01*
X101264663Y-124677187D01*
X101273458Y-124672705D01*
X101440945Y-124570068D01*
X101450407Y-124559610D01*
X101446624Y-124550834D01*
X100595312Y-123699522D01*
X100581368Y-123691908D01*
X100579535Y-123692039D01*
X100572920Y-123696290D01*
X99721420Y-124547790D01*
X99714660Y-124560170D01*
X98918056Y-124560170D01*
X98927702Y-124554259D01*
X98927708Y-124554255D01*
X98931916Y-124551676D01*
X99112469Y-124397469D01*
X99115677Y-124393713D01*
X99115682Y-124393708D01*
X99246206Y-124240884D01*
X99305656Y-124202074D01*
X99340058Y-124199860D01*
X99359167Y-124191623D01*
X100210478Y-123340312D01*
X100216856Y-123328632D01*
X100946908Y-123328632D01*
X100947039Y-123330465D01*
X100951290Y-123337080D01*
X101802790Y-124188580D01*
X101815170Y-124195340D01*
X101822820Y-124189613D01*
X101927705Y-124018458D01*
X101932187Y-124009663D01*
X102019234Y-123799512D01*
X102022283Y-123790127D01*
X102075385Y-123568946D01*
X102076928Y-123559199D01*
X102094775Y-123332430D01*
X102094775Y-123327500D01*
X106689335Y-123327500D01*
X106707965Y-123564211D01*
X106709119Y-123569018D01*
X106709120Y-123569024D01*
X106736791Y-123684280D01*
X106763395Y-123795094D01*
X106765288Y-123799665D01*
X106765289Y-123799667D01*
X106852272Y-124009663D01*
X106854260Y-124014463D01*
X106856846Y-124018683D01*
X106975741Y-124212702D01*
X106975745Y-124212708D01*
X106978324Y-124216916D01*
X107132531Y-124397469D01*
X107313084Y-124551676D01*
X107317292Y-124554255D01*
X107317298Y-124554259D01*
X107490609Y-124660464D01*
X107515537Y-124675740D01*
X107520105Y-124677632D01*
X107520111Y-124677635D01*
X107730333Y-124764711D01*
X107734906Y-124766605D01*
X107815109Y-124785860D01*
X107960976Y-124820880D01*
X107960982Y-124820881D01*
X107965789Y-124822035D01*
X108202500Y-124840665D01*
X108439211Y-124822035D01*
X108444018Y-124820881D01*
X108444024Y-124820880D01*
X108589891Y-124785860D01*
X108670094Y-124766605D01*
X108674667Y-124764711D01*
X108884889Y-124677635D01*
X108884895Y-124677632D01*
X108889463Y-124675740D01*
X108914391Y-124660464D01*
X109087702Y-124554259D01*
X109087708Y-124554255D01*
X109091916Y-124551676D01*
X109272469Y-124397469D01*
X109426676Y-124216916D01*
X109429255Y-124212708D01*
X109429259Y-124212702D01*
X109548154Y-124018683D01*
X109550740Y-124014463D01*
X109552729Y-124009663D01*
X109639711Y-123799667D01*
X109639712Y-123799665D01*
X109641605Y-123795094D01*
X109668209Y-123684280D01*
X109695880Y-123569024D01*
X109695881Y-123569018D01*
X109697035Y-123564211D01*
X109715665Y-123327500D01*
X109697035Y-123090789D01*
X109692145Y-123070417D01*
X109642760Y-122864718D01*
X109641605Y-122859906D01*
X109625058Y-122819958D01*
X109552635Y-122645111D01*
X109552633Y-122645107D01*
X109550740Y-122640537D01*
X109548154Y-122636317D01*
X109429259Y-122442298D01*
X109429255Y-122442292D01*
X109426676Y-122438084D01*
X109272469Y-122257531D01*
X109091916Y-122103324D01*
X109087708Y-122100745D01*
X109087702Y-122100741D01*
X108893683Y-121981846D01*
X108889463Y-121979260D01*
X108884893Y-121977367D01*
X108884889Y-121977365D01*
X108674667Y-121890289D01*
X108674665Y-121890288D01*
X108670094Y-121888395D01*
X108589891Y-121869140D01*
X108444024Y-121834120D01*
X108444018Y-121834119D01*
X108439211Y-121832965D01*
X108202500Y-121814335D01*
X107965789Y-121832965D01*
X107960982Y-121834119D01*
X107960976Y-121834120D01*
X107815109Y-121869140D01*
X107734906Y-121888395D01*
X107730335Y-121890288D01*
X107730333Y-121890289D01*
X107520111Y-121977365D01*
X107520107Y-121977367D01*
X107515537Y-121979260D01*
X107511317Y-121981846D01*
X107317298Y-122100741D01*
X107317292Y-122100745D01*
X107313084Y-122103324D01*
X107132531Y-122257531D01*
X106978324Y-122438084D01*
X106975745Y-122442292D01*
X106975741Y-122442298D01*
X106856846Y-122636317D01*
X106854260Y-122640537D01*
X106852367Y-122645107D01*
X106852365Y-122645111D01*
X106779942Y-122819958D01*
X106763395Y-122859906D01*
X106762240Y-122864718D01*
X106712856Y-123070417D01*
X106707965Y-123090789D01*
X106689335Y-123327500D01*
X102094775Y-123327500D01*
X102094775Y-123322570D01*
X102076928Y-123095801D01*
X102075385Y-123086054D01*
X102022283Y-122864873D01*
X102019234Y-122855488D01*
X101932187Y-122645337D01*
X101927705Y-122636542D01*
X101825068Y-122469055D01*
X101814610Y-122459593D01*
X101805834Y-122463376D01*
X100954522Y-123314688D01*
X100946908Y-123328632D01*
X100216856Y-123328632D01*
X100218092Y-123326368D01*
X100217961Y-123324535D01*
X100213710Y-123317920D01*
X99362210Y-122466420D01*
X99345398Y-122457240D01*
X99282150Y-122443480D01*
X99246725Y-122414724D01*
X99115677Y-122261287D01*
X99112469Y-122257531D01*
X98931916Y-122103324D01*
X98927708Y-122100745D01*
X98927702Y-122100741D01*
X98918970Y-122095390D01*
X99714593Y-122095390D01*
X99718376Y-122104166D01*
X100569688Y-122955478D01*
X100583632Y-122963092D01*
X100585465Y-122962961D01*
X100592080Y-122958710D01*
X101443580Y-122107210D01*
X101450340Y-122094830D01*
X101444613Y-122087180D01*
X101273458Y-121982295D01*
X101264663Y-121977813D01*
X101054512Y-121890766D01*
X101045127Y-121887717D01*
X100823946Y-121834615D01*
X100814199Y-121833072D01*
X100587430Y-121815225D01*
X100577570Y-121815225D01*
X100350801Y-121833072D01*
X100341054Y-121834615D01*
X100119873Y-121887717D01*
X100110488Y-121890766D01*
X99900337Y-121977813D01*
X99891542Y-121982295D01*
X99724055Y-122084932D01*
X99714593Y-122095390D01*
X98918970Y-122095390D01*
X98733683Y-121981846D01*
X98729463Y-121979260D01*
X98724893Y-121977367D01*
X98724889Y-121977365D01*
X98514667Y-121890289D01*
X98514665Y-121890288D01*
X98510094Y-121888395D01*
X98429891Y-121869140D01*
X98284024Y-121834120D01*
X98284018Y-121834119D01*
X98279211Y-121832965D01*
X98042500Y-121814335D01*
X97805789Y-121832965D01*
X97800982Y-121834119D01*
X97800976Y-121834120D01*
X97655109Y-121869140D01*
X97574906Y-121888395D01*
X97570335Y-121890288D01*
X97570333Y-121890289D01*
X97360111Y-121977365D01*
X97360107Y-121977367D01*
X97355537Y-121979260D01*
X97351317Y-121981846D01*
X97157298Y-122100741D01*
X97157292Y-122100745D01*
X97153084Y-122103324D01*
X96972531Y-122257531D01*
X96818324Y-122438084D01*
X96815745Y-122442292D01*
X96815741Y-122442298D01*
X96696846Y-122636317D01*
X96694260Y-122640537D01*
X96692367Y-122645107D01*
X96692365Y-122645111D01*
X96619942Y-122819958D01*
X96603395Y-122859906D01*
X96602240Y-122864718D01*
X96552856Y-123070417D01*
X96547965Y-123090789D01*
X96529335Y-123327500D01*
X96542604Y-123496091D01*
X96542818Y-123498813D01*
X96528222Y-123568293D01*
X96506301Y-123597794D01*
X95479792Y-124624304D01*
X94573595Y-125530501D01*
X94511283Y-125564526D01*
X94440468Y-125559462D01*
X94383632Y-125516915D01*
X94358821Y-125450395D01*
X94358500Y-125441406D01*
X94358500Y-124101866D01*
X94351745Y-124039684D01*
X94300615Y-123903295D01*
X94213261Y-123786739D01*
X94096705Y-123699385D01*
X93960316Y-123648255D01*
X93898134Y-123641500D01*
X92101866Y-123641500D01*
X92039684Y-123648255D01*
X91903295Y-123699385D01*
X91786739Y-123786739D01*
X91699385Y-123903295D01*
X91696233Y-123911703D01*
X91696232Y-123911705D01*
X91654722Y-124022433D01*
X91612081Y-124079198D01*
X91545519Y-124103898D01*
X91476170Y-124088691D01*
X91443546Y-124063004D01*
X91392799Y-124007234D01*
X91385273Y-124000215D01*
X91218139Y-123868222D01*
X91209552Y-123862517D01*
X91023117Y-123759599D01*
X91013705Y-123755369D01*
X90812959Y-123684280D01*
X90802988Y-123681646D01*
X90731837Y-123668972D01*
X90718540Y-123670432D01*
X90714000Y-123684989D01*
X90714000Y-126318517D01*
X90718064Y-126332359D01*
X90731478Y-126334393D01*
X90738184Y-126333534D01*
X90748262Y-126331392D01*
X90952255Y-126270191D01*
X90961842Y-126266433D01*
X91153095Y-126172739D01*
X91161945Y-126167464D01*
X91335328Y-126043792D01*
X91343193Y-126037145D01*
X91447897Y-125932805D01*
X91510268Y-125898889D01*
X91581075Y-125904077D01*
X91637837Y-125946723D01*
X91654819Y-125977826D01*
X91699385Y-126096705D01*
X91786739Y-126213261D01*
X91903295Y-126300615D01*
X92039684Y-126351745D01*
X92101866Y-126358500D01*
X93441405Y-126358500D01*
X93509526Y-126378502D01*
X93556019Y-126432158D01*
X93566123Y-126502432D01*
X93536629Y-126567012D01*
X93530500Y-126573595D01*
X90607747Y-129496348D01*
X90599461Y-129503888D01*
X90592982Y-129508000D01*
X90587557Y-129513777D01*
X90546357Y-129557651D01*
X90543602Y-129560493D01*
X90523865Y-129580230D01*
X90521385Y-129583427D01*
X90513682Y-129592447D01*
X90483414Y-129624679D01*
X90479595Y-129631625D01*
X90479593Y-129631628D01*
X90473652Y-129642434D01*
X90462801Y-129658953D01*
X90450386Y-129674959D01*
X90447241Y-129682228D01*
X90447238Y-129682232D01*
X90432826Y-129715537D01*
X90427609Y-129726187D01*
X90406305Y-129764940D01*
X90404334Y-129772615D01*
X90404334Y-129772616D01*
X90401267Y-129784562D01*
X90394863Y-129803266D01*
X90386819Y-129821855D01*
X90385580Y-129829678D01*
X90385577Y-129829688D01*
X90379901Y-129865524D01*
X90377495Y-129877144D01*
X90366500Y-129919970D01*
X90366500Y-129940224D01*
X90364949Y-129959934D01*
X90361780Y-129979943D01*
X90362526Y-129987835D01*
X90365941Y-130023961D01*
X90366500Y-130035819D01*
X90366500Y-137297476D01*
X90346498Y-137365597D01*
X90334142Y-137381779D01*
X90260960Y-137463056D01*
X90165473Y-137628444D01*
X90106458Y-137810072D01*
X90086496Y-138000000D01*
X69633500Y-138000000D01*
X69633500Y-136901866D01*
X69626745Y-136839684D01*
X69575615Y-136703295D01*
X69488261Y-136586739D01*
X69371705Y-136499385D01*
X69356751Y-136493779D01*
X69253203Y-136454960D01*
X69196439Y-136412318D01*
X69171739Y-136345756D01*
X69186947Y-136276408D01*
X69208493Y-136247727D01*
X69309435Y-136147137D01*
X69313096Y-136143489D01*
X69416203Y-136000000D01*
X76386526Y-136000000D01*
X76406391Y-136252403D01*
X76407545Y-136257210D01*
X76407546Y-136257216D01*
X76418819Y-136304171D01*
X76465495Y-136498591D01*
X76467388Y-136503162D01*
X76467389Y-136503164D01*
X76559231Y-136724889D01*
X76562384Y-136732502D01*
X76694672Y-136948376D01*
X76859102Y-137140898D01*
X77051624Y-137305328D01*
X77267498Y-137437616D01*
X77272068Y-137439509D01*
X77272072Y-137439511D01*
X77496836Y-137532611D01*
X77501409Y-137534505D01*
X77564718Y-137549704D01*
X77742784Y-137592454D01*
X77742790Y-137592455D01*
X77747597Y-137593609D01*
X77847416Y-137601465D01*
X77934345Y-137608307D01*
X77934352Y-137608307D01*
X77936801Y-137608500D01*
X78063199Y-137608500D01*
X78065648Y-137608307D01*
X78065655Y-137608307D01*
X78152584Y-137601465D01*
X78252403Y-137593609D01*
X78257210Y-137592455D01*
X78257216Y-137592454D01*
X78435282Y-137549704D01*
X78498591Y-137534505D01*
X78503164Y-137532611D01*
X78727928Y-137439511D01*
X78727932Y-137439509D01*
X78732502Y-137437616D01*
X78948376Y-137305328D01*
X79140898Y-137140898D01*
X79305328Y-136948376D01*
X79437616Y-136732502D01*
X79440770Y-136724889D01*
X79532611Y-136503164D01*
X79532612Y-136503162D01*
X79534505Y-136498591D01*
X79581181Y-136304171D01*
X79592454Y-136257216D01*
X79592455Y-136257210D01*
X79593609Y-136252403D01*
X79613474Y-136000000D01*
X79593609Y-135747597D01*
X79534505Y-135501409D01*
X79437616Y-135267498D01*
X79305328Y-135051624D01*
X79140898Y-134859102D01*
X78948376Y-134694672D01*
X78732502Y-134562384D01*
X78727932Y-134560491D01*
X78727928Y-134560489D01*
X78503164Y-134467389D01*
X78503162Y-134467388D01*
X78498591Y-134465495D01*
X78413968Y-134445179D01*
X78257216Y-134407546D01*
X78257210Y-134407545D01*
X78252403Y-134406391D01*
X78152115Y-134398498D01*
X78065655Y-134391693D01*
X78065648Y-134391693D01*
X78063199Y-134391500D01*
X77936801Y-134391500D01*
X77934352Y-134391693D01*
X77934345Y-134391693D01*
X77847885Y-134398498D01*
X77747597Y-134406391D01*
X77742790Y-134407545D01*
X77742784Y-134407546D01*
X77586032Y-134445179D01*
X77501409Y-134465495D01*
X77496838Y-134467388D01*
X77496836Y-134467389D01*
X77272072Y-134560489D01*
X77272068Y-134560491D01*
X77267498Y-134562384D01*
X77051624Y-134694672D01*
X76859102Y-134859102D01*
X76694672Y-135051624D01*
X76562384Y-135267498D01*
X76465495Y-135501409D01*
X76406391Y-135747597D01*
X76386526Y-136000000D01*
X69416203Y-136000000D01*
X69443453Y-135962077D01*
X69464320Y-135919857D01*
X69540136Y-135766453D01*
X69540137Y-135766451D01*
X69542430Y-135761811D01*
X69607370Y-135548069D01*
X69636529Y-135326590D01*
X69638156Y-135260000D01*
X69619852Y-135037361D01*
X69565431Y-134820702D01*
X69476354Y-134615840D01*
X69435547Y-134552762D01*
X69394355Y-134489088D01*
X69374148Y-134421027D01*
X69393944Y-134352847D01*
X69411052Y-134331553D01*
X70882253Y-132860353D01*
X70890539Y-132852813D01*
X70897018Y-132848701D01*
X70943644Y-132799049D01*
X70946398Y-132796208D01*
X70966135Y-132776471D01*
X70968615Y-132773274D01*
X70976320Y-132764252D01*
X71001159Y-132737801D01*
X71006586Y-132732022D01*
X71010405Y-132725076D01*
X71010407Y-132725073D01*
X71016348Y-132714267D01*
X71027199Y-132697748D01*
X71034758Y-132688002D01*
X71039614Y-132681742D01*
X71042759Y-132674473D01*
X71042762Y-132674469D01*
X71057174Y-132641164D01*
X71062391Y-132630514D01*
X71083695Y-132591761D01*
X71088733Y-132572138D01*
X71095137Y-132553435D01*
X71100033Y-132542121D01*
X71100033Y-132542120D01*
X71103181Y-132534846D01*
X71104420Y-132527023D01*
X71104423Y-132527013D01*
X71110099Y-132491177D01*
X71112505Y-132479557D01*
X71121528Y-132444412D01*
X71121528Y-132444411D01*
X71123500Y-132436731D01*
X71123500Y-132416477D01*
X71125051Y-132396766D01*
X71126980Y-132384587D01*
X71128220Y-132376758D01*
X71124059Y-132332739D01*
X71123500Y-132320882D01*
X71123500Y-119849394D01*
X71143502Y-119781273D01*
X71177229Y-119746181D01*
X71329789Y-119639357D01*
X71329792Y-119639355D01*
X71334300Y-119636198D01*
X71496198Y-119474300D01*
X71627523Y-119286749D01*
X71629846Y-119281767D01*
X71629849Y-119281762D01*
X71645805Y-119247543D01*
X71692722Y-119194258D01*
X71760999Y-119174797D01*
X71828959Y-119195339D01*
X71874195Y-119247543D01*
X71890151Y-119281762D01*
X71890154Y-119281767D01*
X71892477Y-119286749D01*
X72023802Y-119474300D01*
X72185700Y-119636198D01*
X72190208Y-119639355D01*
X72190211Y-119639357D01*
X72231138Y-119668014D01*
X72373251Y-119767523D01*
X72378233Y-119769846D01*
X72378238Y-119769849D01*
X72548825Y-119849394D01*
X72580757Y-119864284D01*
X72586065Y-119865706D01*
X72586067Y-119865707D01*
X72796598Y-119922119D01*
X72796600Y-119922119D01*
X72801913Y-119923543D01*
X73030000Y-119943498D01*
X73258087Y-119923543D01*
X73263400Y-119922119D01*
X73263402Y-119922119D01*
X73473933Y-119865707D01*
X73473935Y-119865706D01*
X73479243Y-119864284D01*
X73511175Y-119849394D01*
X73681762Y-119769849D01*
X73681767Y-119769846D01*
X73686749Y-119767523D01*
X73828862Y-119668014D01*
X73869789Y-119639357D01*
X73869792Y-119639355D01*
X73874300Y-119636198D01*
X74036198Y-119474300D01*
X74167523Y-119286749D01*
X74169846Y-119281767D01*
X74169849Y-119281762D01*
X74185805Y-119247543D01*
X74232722Y-119194258D01*
X74300999Y-119174797D01*
X74368959Y-119195339D01*
X74414195Y-119247543D01*
X74430151Y-119281762D01*
X74430154Y-119281767D01*
X74432477Y-119286749D01*
X74563802Y-119474300D01*
X74725700Y-119636198D01*
X74730208Y-119639355D01*
X74730211Y-119639357D01*
X74771138Y-119668014D01*
X74913251Y-119767523D01*
X74918233Y-119769846D01*
X74918238Y-119769849D01*
X75088825Y-119849394D01*
X75120757Y-119864284D01*
X75126065Y-119865706D01*
X75126067Y-119865707D01*
X75336598Y-119922119D01*
X75336600Y-119922119D01*
X75341913Y-119923543D01*
X75570000Y-119943498D01*
X75798087Y-119923543D01*
X75803400Y-119922119D01*
X75803402Y-119922119D01*
X76013933Y-119865707D01*
X76013935Y-119865706D01*
X76019243Y-119864284D01*
X76051175Y-119849394D01*
X76221762Y-119769849D01*
X76221767Y-119769846D01*
X76226749Y-119767523D01*
X76368862Y-119668014D01*
X76409789Y-119639357D01*
X76409792Y-119639355D01*
X76414300Y-119636198D01*
X76576198Y-119474300D01*
X76707523Y-119286749D01*
X76709846Y-119281767D01*
X76709849Y-119281762D01*
X76725805Y-119247543D01*
X76772722Y-119194258D01*
X76840999Y-119174797D01*
X76908959Y-119195339D01*
X76954195Y-119247543D01*
X76970151Y-119281762D01*
X76970154Y-119281767D01*
X76972477Y-119286749D01*
X77103802Y-119474300D01*
X77235204Y-119605702D01*
X77269230Y-119668014D01*
X77264165Y-119738829D01*
X77235206Y-119783889D01*
X73372345Y-123646750D01*
X73310033Y-123680776D01*
X73261154Y-123681702D01*
X73048373Y-123643800D01*
X73048367Y-123643799D01*
X73043284Y-123642894D01*
X72969452Y-123641992D01*
X72825081Y-123640228D01*
X72825079Y-123640228D01*
X72819911Y-123640165D01*
X72599091Y-123673955D01*
X72386756Y-123743357D01*
X72188607Y-123846507D01*
X72184474Y-123849610D01*
X72184471Y-123849612D01*
X72014100Y-123977530D01*
X72009965Y-123980635D01*
X71855629Y-124142138D01*
X71852715Y-124146410D01*
X71852714Y-124146411D01*
X71802055Y-124220675D01*
X71729743Y-124326680D01*
X71635688Y-124529305D01*
X71575989Y-124744570D01*
X71552251Y-124966695D01*
X71565110Y-125189715D01*
X71566247Y-125194761D01*
X71566248Y-125194767D01*
X71587275Y-125288069D01*
X71614222Y-125407639D01*
X71698266Y-125614616D01*
X71749942Y-125698944D01*
X71812291Y-125800688D01*
X71814987Y-125805088D01*
X71961250Y-125973938D01*
X72133126Y-126116632D01*
X72326000Y-126229338D01*
X72330825Y-126231180D01*
X72330826Y-126231181D01*
X72359360Y-126242077D01*
X72534692Y-126309030D01*
X72539760Y-126310061D01*
X72539763Y-126310062D01*
X72634862Y-126329410D01*
X72753597Y-126353567D01*
X72758772Y-126353757D01*
X72758774Y-126353757D01*
X72971673Y-126361564D01*
X72971677Y-126361564D01*
X72976837Y-126361753D01*
X72981957Y-126361097D01*
X72981959Y-126361097D01*
X73193288Y-126334025D01*
X73193289Y-126334025D01*
X73198416Y-126333368D01*
X73203366Y-126331883D01*
X73407429Y-126270661D01*
X73407434Y-126270659D01*
X73412384Y-126269174D01*
X73612994Y-126170896D01*
X73794860Y-126041173D01*
X73953096Y-125883489D01*
X74012594Y-125800689D01*
X74083453Y-125702077D01*
X74084776Y-125703028D01*
X74131645Y-125659857D01*
X74201580Y-125647625D01*
X74267026Y-125675144D01*
X74294875Y-125706994D01*
X74354987Y-125805088D01*
X74501250Y-125973938D01*
X74673126Y-126116632D01*
X74866000Y-126229338D01*
X74870825Y-126231180D01*
X74870826Y-126231181D01*
X74899360Y-126242077D01*
X75074692Y-126309030D01*
X75079760Y-126310061D01*
X75079763Y-126310062D01*
X75174862Y-126329410D01*
X75293597Y-126353567D01*
X75298772Y-126353757D01*
X75298774Y-126353757D01*
X75511673Y-126361564D01*
X75511677Y-126361564D01*
X75516837Y-126361753D01*
X75521957Y-126361097D01*
X75521959Y-126361097D01*
X75733288Y-126334025D01*
X75733289Y-126334025D01*
X75738416Y-126333368D01*
X75743366Y-126331883D01*
X75947429Y-126270661D01*
X75947434Y-126270659D01*
X75952384Y-126269174D01*
X76152994Y-126170896D01*
X76334860Y-126041173D01*
X76493096Y-125883489D01*
X76552594Y-125800689D01*
X76623453Y-125702077D01*
X76624776Y-125703028D01*
X76671645Y-125659857D01*
X76741580Y-125647625D01*
X76807026Y-125675144D01*
X76834875Y-125706994D01*
X76894987Y-125805088D01*
X77041250Y-125973938D01*
X77213126Y-126116632D01*
X77406000Y-126229338D01*
X77410825Y-126231180D01*
X77410826Y-126231181D01*
X77439360Y-126242077D01*
X77614692Y-126309030D01*
X77619760Y-126310061D01*
X77619763Y-126310062D01*
X77714862Y-126329410D01*
X77833597Y-126353567D01*
X77838772Y-126353757D01*
X77838774Y-126353757D01*
X78051673Y-126361564D01*
X78051677Y-126361564D01*
X78056837Y-126361753D01*
X78061957Y-126361097D01*
X78061959Y-126361097D01*
X78273288Y-126334025D01*
X78273289Y-126334025D01*
X78278416Y-126333368D01*
X78283366Y-126331883D01*
X78487429Y-126270661D01*
X78487434Y-126270659D01*
X78492384Y-126269174D01*
X78692994Y-126170896D01*
X78874860Y-126041173D01*
X79033096Y-125883489D01*
X79092594Y-125800689D01*
X79163453Y-125702077D01*
X79164640Y-125702930D01*
X79211960Y-125659362D01*
X79281897Y-125647145D01*
X79347338Y-125674678D01*
X79375166Y-125706511D01*
X79432694Y-125800388D01*
X79438777Y-125808699D01*
X79578213Y-125969667D01*
X79585580Y-125976883D01*
X79749434Y-126112916D01*
X79757881Y-126118831D01*
X79941756Y-126226279D01*
X79951042Y-126230729D01*
X80150001Y-126306703D01*
X80159899Y-126309579D01*
X80263250Y-126330606D01*
X80277299Y-126329410D01*
X80281000Y-126319065D01*
X80281000Y-126318517D01*
X80789000Y-126318517D01*
X80793064Y-126332359D01*
X80806478Y-126334393D01*
X80813184Y-126333534D01*
X80823262Y-126331392D01*
X81027255Y-126270191D01*
X81036842Y-126266433D01*
X81228095Y-126172739D01*
X81236945Y-126167464D01*
X81410328Y-126043792D01*
X81418193Y-126037145D01*
X81522897Y-125932805D01*
X81585268Y-125898889D01*
X81656075Y-125904077D01*
X81712837Y-125946723D01*
X81729819Y-125977826D01*
X81774385Y-126096705D01*
X81861739Y-126213261D01*
X81978295Y-126300615D01*
X82114684Y-126351745D01*
X82176866Y-126358500D01*
X83973134Y-126358500D01*
X84035316Y-126351745D01*
X84171705Y-126300615D01*
X84288261Y-126213261D01*
X84375615Y-126096705D01*
X84426745Y-125960316D01*
X84433500Y-125898134D01*
X84433500Y-124101866D01*
X84426745Y-124039684D01*
X84375615Y-123903295D01*
X84288261Y-123786739D01*
X84171705Y-123699385D01*
X84035316Y-123648255D01*
X83973134Y-123641500D01*
X82176866Y-123641500D01*
X82114684Y-123648255D01*
X81978295Y-123699385D01*
X81861739Y-123786739D01*
X81774385Y-123903295D01*
X81771233Y-123911703D01*
X81771232Y-123911705D01*
X81729722Y-124022433D01*
X81687081Y-124079198D01*
X81620519Y-124103898D01*
X81551170Y-124088691D01*
X81518546Y-124063004D01*
X81467799Y-124007234D01*
X81460273Y-124000215D01*
X81293139Y-123868222D01*
X81284552Y-123862517D01*
X81098117Y-123759599D01*
X81088705Y-123755369D01*
X80887959Y-123684280D01*
X80877988Y-123681646D01*
X80806837Y-123668972D01*
X80793540Y-123670432D01*
X80789000Y-123684989D01*
X80789000Y-126318517D01*
X80281000Y-126318517D01*
X80281000Y-123683102D01*
X80277082Y-123669758D01*
X80262806Y-123667771D01*
X80224324Y-123673660D01*
X80214288Y-123676051D01*
X80011868Y-123742212D01*
X80002359Y-123746209D01*
X79813463Y-123844542D01*
X79804738Y-123850036D01*
X79634433Y-123977905D01*
X79626726Y-123984748D01*
X79479590Y-124138717D01*
X79473109Y-124146722D01*
X79368498Y-124300074D01*
X79313587Y-124345076D01*
X79243062Y-124353247D01*
X79179315Y-124321993D01*
X79158618Y-124297509D01*
X79077822Y-124172617D01*
X79077820Y-124172614D01*
X79075014Y-124168277D01*
X78924670Y-124003051D01*
X78920619Y-123999852D01*
X78920615Y-123999848D01*
X78753414Y-123867800D01*
X78753410Y-123867798D01*
X78749359Y-123864598D01*
X78713028Y-123844542D01*
X78623452Y-123795094D01*
X78553789Y-123756638D01*
X78548920Y-123754914D01*
X78548916Y-123754912D01*
X78348087Y-123683795D01*
X78348083Y-123683794D01*
X78343212Y-123682069D01*
X78338119Y-123681162D01*
X78338116Y-123681161D01*
X78128373Y-123643800D01*
X78128367Y-123643799D01*
X78123284Y-123642894D01*
X78012009Y-123641535D01*
X77944140Y-123620702D01*
X77898306Y-123566483D01*
X77889061Y-123496091D01*
X77919340Y-123431875D01*
X77924455Y-123426449D01*
X79842247Y-121508657D01*
X79850537Y-121501113D01*
X79857018Y-121497000D01*
X79903659Y-121447332D01*
X79906413Y-121444491D01*
X79926134Y-121424770D01*
X79928612Y-121421575D01*
X79936318Y-121412553D01*
X79961158Y-121386101D01*
X79966586Y-121380321D01*
X79976346Y-121362568D01*
X79987199Y-121346045D01*
X79994753Y-121336306D01*
X79999613Y-121330041D01*
X80017176Y-121289457D01*
X80022383Y-121278827D01*
X80043695Y-121240060D01*
X80045666Y-121232383D01*
X80045668Y-121232378D01*
X80048732Y-121220442D01*
X80055138Y-121201730D01*
X80060033Y-121190419D01*
X80063181Y-121183145D01*
X80064421Y-121175317D01*
X80064423Y-121175310D01*
X80070099Y-121139476D01*
X80072505Y-121127856D01*
X80081528Y-121092711D01*
X80081528Y-121092710D01*
X80083500Y-121085030D01*
X80083500Y-121064776D01*
X80085051Y-121045065D01*
X80086980Y-121032886D01*
X80088220Y-121025057D01*
X80084059Y-120981038D01*
X80083500Y-120969181D01*
X80083500Y-119997072D01*
X80103502Y-119928951D01*
X80157158Y-119882458D01*
X80227432Y-119872354D01*
X80242111Y-119875365D01*
X80416598Y-119922119D01*
X80416600Y-119922119D01*
X80421913Y-119923543D01*
X80650000Y-119943498D01*
X80878087Y-119923543D01*
X80883400Y-119922119D01*
X80883402Y-119922119D01*
X81093933Y-119865707D01*
X81093935Y-119865706D01*
X81099243Y-119864284D01*
X81131175Y-119849394D01*
X81301762Y-119769849D01*
X81301767Y-119769846D01*
X81306749Y-119767523D01*
X81448862Y-119668014D01*
X81489789Y-119639357D01*
X81489792Y-119639355D01*
X81494300Y-119636198D01*
X81656198Y-119474300D01*
X81787523Y-119286749D01*
X81789846Y-119281767D01*
X81789849Y-119281762D01*
X81805805Y-119247543D01*
X81852722Y-119194258D01*
X81920999Y-119174797D01*
X81988959Y-119195339D01*
X82034195Y-119247543D01*
X82050151Y-119281762D01*
X82050154Y-119281767D01*
X82052477Y-119286749D01*
X82183802Y-119474300D01*
X82345700Y-119636198D01*
X82350208Y-119639355D01*
X82350211Y-119639357D01*
X82391138Y-119668014D01*
X82533251Y-119767523D01*
X82538233Y-119769846D01*
X82538238Y-119769849D01*
X82708825Y-119849394D01*
X82740757Y-119864284D01*
X82746065Y-119865706D01*
X82746067Y-119865707D01*
X82956598Y-119922119D01*
X82956600Y-119922119D01*
X82961913Y-119923543D01*
X83190000Y-119943498D01*
X83418087Y-119923543D01*
X83423400Y-119922119D01*
X83423402Y-119922119D01*
X83633933Y-119865707D01*
X83633935Y-119865706D01*
X83639243Y-119864284D01*
X83671175Y-119849394D01*
X83841762Y-119769849D01*
X83841767Y-119769846D01*
X83846749Y-119767523D01*
X83988862Y-119668014D01*
X84029789Y-119639357D01*
X84029792Y-119639355D01*
X84034300Y-119636198D01*
X84196198Y-119474300D01*
X84327523Y-119286749D01*
X84329846Y-119281767D01*
X84329849Y-119281762D01*
X84345805Y-119247543D01*
X84392722Y-119194258D01*
X84460999Y-119174797D01*
X84528959Y-119195339D01*
X84574195Y-119247543D01*
X84590151Y-119281762D01*
X84590154Y-119281767D01*
X84592477Y-119286749D01*
X84723802Y-119474300D01*
X84885700Y-119636198D01*
X84890208Y-119639355D01*
X84890211Y-119639357D01*
X85042771Y-119746181D01*
X85087099Y-119801638D01*
X85096500Y-119849394D01*
X85096500Y-122731233D01*
X85095973Y-122742416D01*
X85094298Y-122749909D01*
X85094547Y-122757835D01*
X85094547Y-122757836D01*
X85096438Y-122817986D01*
X85096500Y-122821945D01*
X85096500Y-122849856D01*
X85096997Y-122853790D01*
X85096997Y-122853791D01*
X85097005Y-122853856D01*
X85097938Y-122865693D01*
X85099327Y-122909889D01*
X85104978Y-122929339D01*
X85108987Y-122948700D01*
X85111526Y-122968797D01*
X85114445Y-122976168D01*
X85114445Y-122976170D01*
X85127804Y-123009912D01*
X85131649Y-123021142D01*
X85143982Y-123063593D01*
X85148015Y-123070412D01*
X85148017Y-123070417D01*
X85154293Y-123081028D01*
X85162988Y-123098776D01*
X85170448Y-123117617D01*
X85175110Y-123124033D01*
X85175110Y-123124034D01*
X85196436Y-123153387D01*
X85202952Y-123163307D01*
X85225458Y-123201362D01*
X85239779Y-123215683D01*
X85252619Y-123230716D01*
X85264528Y-123247107D01*
X85270634Y-123252158D01*
X85298605Y-123275298D01*
X85307384Y-123283288D01*
X86569778Y-124545682D01*
X86603804Y-124607994D01*
X86602100Y-124668448D01*
X86580989Y-124744570D01*
X86580441Y-124749700D01*
X86580440Y-124749704D01*
X86572887Y-124820385D01*
X86557251Y-124966695D01*
X86570110Y-125189715D01*
X86571247Y-125194761D01*
X86571248Y-125194767D01*
X86592275Y-125288069D01*
X86619222Y-125407639D01*
X86703266Y-125614616D01*
X86754942Y-125698944D01*
X86817291Y-125800688D01*
X86819987Y-125805088D01*
X86966250Y-125973938D01*
X87138126Y-126116632D01*
X87331000Y-126229338D01*
X87335825Y-126231180D01*
X87335826Y-126231181D01*
X87364360Y-126242077D01*
X87539692Y-126309030D01*
X87544760Y-126310061D01*
X87544763Y-126310062D01*
X87639862Y-126329410D01*
X87758597Y-126353567D01*
X87763772Y-126353757D01*
X87763774Y-126353757D01*
X87976673Y-126361564D01*
X87976677Y-126361564D01*
X87981837Y-126361753D01*
X87986957Y-126361097D01*
X87986959Y-126361097D01*
X88198288Y-126334025D01*
X88198289Y-126334025D01*
X88203416Y-126333368D01*
X88208366Y-126331883D01*
X88412429Y-126270661D01*
X88412434Y-126270659D01*
X88417384Y-126269174D01*
X88617994Y-126170896D01*
X88799860Y-126041173D01*
X88958096Y-125883489D01*
X89017594Y-125800689D01*
X89088453Y-125702077D01*
X89089640Y-125702930D01*
X89136960Y-125659362D01*
X89206897Y-125647145D01*
X89272338Y-125674678D01*
X89300166Y-125706511D01*
X89357694Y-125800388D01*
X89363777Y-125808699D01*
X89503213Y-125969667D01*
X89510580Y-125976883D01*
X89674434Y-126112916D01*
X89682881Y-126118831D01*
X89866756Y-126226279D01*
X89876042Y-126230729D01*
X90075001Y-126306703D01*
X90084899Y-126309579D01*
X90188250Y-126330606D01*
X90202299Y-126329410D01*
X90206000Y-126319065D01*
X90206000Y-123683102D01*
X90202082Y-123669758D01*
X90187806Y-123667771D01*
X90149324Y-123673660D01*
X90139288Y-123676051D01*
X89936868Y-123742212D01*
X89927359Y-123746209D01*
X89738463Y-123844542D01*
X89729738Y-123850036D01*
X89559433Y-123977905D01*
X89551726Y-123984748D01*
X89404590Y-124138717D01*
X89398109Y-124146722D01*
X89293498Y-124300074D01*
X89238587Y-124345076D01*
X89168062Y-124353247D01*
X89104315Y-124321993D01*
X89083618Y-124297509D01*
X89002822Y-124172617D01*
X89002820Y-124172614D01*
X89000014Y-124168277D01*
X88849670Y-124003051D01*
X88845619Y-123999852D01*
X88845615Y-123999848D01*
X88678414Y-123867800D01*
X88678410Y-123867798D01*
X88674359Y-123864598D01*
X88638028Y-123844542D01*
X88548452Y-123795094D01*
X88478789Y-123756638D01*
X88473920Y-123754914D01*
X88473916Y-123754912D01*
X88273087Y-123683795D01*
X88273083Y-123683794D01*
X88268212Y-123682069D01*
X88263119Y-123681162D01*
X88263116Y-123681161D01*
X88053373Y-123643800D01*
X88053367Y-123643799D01*
X88048284Y-123642894D01*
X87974452Y-123641992D01*
X87830081Y-123640228D01*
X87830079Y-123640228D01*
X87824911Y-123640165D01*
X87604091Y-123673955D01*
X87591532Y-123678060D01*
X87520568Y-123680210D01*
X87463294Y-123647389D01*
X86400405Y-122584500D01*
X86366379Y-122522188D01*
X86363500Y-122495405D01*
X86363500Y-119849394D01*
X86383502Y-119781273D01*
X86417229Y-119746181D01*
X86569789Y-119639357D01*
X86569792Y-119639355D01*
X86574300Y-119636198D01*
X86736198Y-119474300D01*
X86867523Y-119286749D01*
X86869846Y-119281767D01*
X86869849Y-119281762D01*
X86885805Y-119247543D01*
X86932722Y-119194258D01*
X87000999Y-119174797D01*
X87068959Y-119195339D01*
X87114195Y-119247543D01*
X87130151Y-119281762D01*
X87130154Y-119281767D01*
X87132477Y-119286749D01*
X87263802Y-119474300D01*
X87425700Y-119636198D01*
X87430208Y-119639355D01*
X87430211Y-119639357D01*
X87471138Y-119668014D01*
X87613251Y-119767523D01*
X87618233Y-119769846D01*
X87618238Y-119769849D01*
X87788825Y-119849394D01*
X87820757Y-119864284D01*
X87826065Y-119865706D01*
X87826067Y-119865707D01*
X88036598Y-119922119D01*
X88036600Y-119922119D01*
X88041913Y-119923543D01*
X88270000Y-119943498D01*
X88498087Y-119923543D01*
X88503400Y-119922119D01*
X88503402Y-119922119D01*
X88713933Y-119865707D01*
X88713935Y-119865706D01*
X88719243Y-119864284D01*
X88751175Y-119849394D01*
X88921762Y-119769849D01*
X88921767Y-119769846D01*
X88926749Y-119767523D01*
X89068862Y-119668014D01*
X89109789Y-119639357D01*
X89109792Y-119639355D01*
X89114300Y-119636198D01*
X89276198Y-119474300D01*
X89407523Y-119286749D01*
X89409846Y-119281767D01*
X89409849Y-119281762D01*
X89425805Y-119247543D01*
X89472722Y-119194258D01*
X89540999Y-119174797D01*
X89608959Y-119195339D01*
X89654195Y-119247543D01*
X89670151Y-119281762D01*
X89670154Y-119281767D01*
X89672477Y-119286749D01*
X89803802Y-119474300D01*
X89965700Y-119636198D01*
X89970208Y-119639355D01*
X89970211Y-119639357D01*
X90011138Y-119668014D01*
X90153251Y-119767523D01*
X90158233Y-119769846D01*
X90158238Y-119769849D01*
X90328825Y-119849394D01*
X90360757Y-119864284D01*
X90366065Y-119865706D01*
X90366067Y-119865707D01*
X90576598Y-119922119D01*
X90576600Y-119922119D01*
X90581913Y-119923543D01*
X90810000Y-119943498D01*
X91038087Y-119923543D01*
X91043400Y-119922119D01*
X91043402Y-119922119D01*
X91253933Y-119865707D01*
X91253935Y-119865706D01*
X91259243Y-119864284D01*
X91291175Y-119849394D01*
X91461762Y-119769849D01*
X91461767Y-119769846D01*
X91466749Y-119767523D01*
X91608862Y-119668014D01*
X91649789Y-119639357D01*
X91649792Y-119639355D01*
X91654300Y-119636198D01*
X91816198Y-119474300D01*
X91947523Y-119286749D01*
X91949846Y-119281767D01*
X91949849Y-119281762D01*
X91965805Y-119247543D01*
X92012722Y-119194258D01*
X92080999Y-119174797D01*
X92148959Y-119195339D01*
X92194195Y-119247543D01*
X92210151Y-119281762D01*
X92210154Y-119281767D01*
X92212477Y-119286749D01*
X92343802Y-119474300D01*
X92505700Y-119636198D01*
X92510208Y-119639355D01*
X92510211Y-119639357D01*
X92551138Y-119668014D01*
X92693251Y-119767523D01*
X92698233Y-119769846D01*
X92698238Y-119769849D01*
X92868825Y-119849394D01*
X92900757Y-119864284D01*
X92906065Y-119865706D01*
X92906067Y-119865707D01*
X93116598Y-119922119D01*
X93116600Y-119922119D01*
X93121913Y-119923543D01*
X93350000Y-119943498D01*
X93578087Y-119923543D01*
X93583400Y-119922119D01*
X93583402Y-119922119D01*
X93793933Y-119865707D01*
X93793935Y-119865706D01*
X93799243Y-119864284D01*
X93831175Y-119849394D01*
X94001762Y-119769849D01*
X94001767Y-119769846D01*
X94006749Y-119767523D01*
X94148862Y-119668014D01*
X94189789Y-119639357D01*
X94189792Y-119639355D01*
X94194300Y-119636198D01*
X94356198Y-119474300D01*
X94487523Y-119286749D01*
X94489846Y-119281767D01*
X94489849Y-119281762D01*
X94505805Y-119247543D01*
X94552722Y-119194258D01*
X94620999Y-119174797D01*
X94688959Y-119195339D01*
X94734195Y-119247543D01*
X94750151Y-119281762D01*
X94750154Y-119281767D01*
X94752477Y-119286749D01*
X94883802Y-119474300D01*
X95045700Y-119636198D01*
X95050208Y-119639355D01*
X95050211Y-119639357D01*
X95091138Y-119668014D01*
X95233251Y-119767523D01*
X95238233Y-119769846D01*
X95238238Y-119769849D01*
X95408825Y-119849394D01*
X95440757Y-119864284D01*
X95446065Y-119865706D01*
X95446067Y-119865707D01*
X95656598Y-119922119D01*
X95656600Y-119922119D01*
X95661913Y-119923543D01*
X95890000Y-119943498D01*
X96118087Y-119923543D01*
X96123400Y-119922119D01*
X96123402Y-119922119D01*
X96333933Y-119865707D01*
X96333935Y-119865706D01*
X96339243Y-119864284D01*
X96371175Y-119849394D01*
X96541762Y-119769849D01*
X96541767Y-119769846D01*
X96546749Y-119767523D01*
X96688862Y-119668014D01*
X96729789Y-119639357D01*
X96729792Y-119639355D01*
X96734300Y-119636198D01*
X96896198Y-119474300D01*
X97027523Y-119286749D01*
X97029846Y-119281767D01*
X97029849Y-119281762D01*
X97045805Y-119247543D01*
X97092722Y-119194258D01*
X97160999Y-119174797D01*
X97228959Y-119195339D01*
X97274195Y-119247543D01*
X97290151Y-119281762D01*
X97290154Y-119281767D01*
X97292477Y-119286749D01*
X97423802Y-119474300D01*
X97585700Y-119636198D01*
X97590208Y-119639355D01*
X97590211Y-119639357D01*
X97631138Y-119668014D01*
X97773251Y-119767523D01*
X97778233Y-119769846D01*
X97778238Y-119769849D01*
X97948825Y-119849394D01*
X97980757Y-119864284D01*
X97986065Y-119865706D01*
X97986067Y-119865707D01*
X98196598Y-119922119D01*
X98196600Y-119922119D01*
X98201913Y-119923543D01*
X98430000Y-119943498D01*
X98658087Y-119923543D01*
X98663400Y-119922119D01*
X98663402Y-119922119D01*
X98873933Y-119865707D01*
X98873935Y-119865706D01*
X98879243Y-119864284D01*
X98911175Y-119849394D01*
X99081762Y-119769849D01*
X99081767Y-119769846D01*
X99086749Y-119767523D01*
X99228862Y-119668014D01*
X99269789Y-119639357D01*
X99269792Y-119639355D01*
X99274300Y-119636198D01*
X99436198Y-119474300D01*
X99567523Y-119286749D01*
X99569846Y-119281767D01*
X99569849Y-119281762D01*
X99585805Y-119247543D01*
X99632722Y-119194258D01*
X99700999Y-119174797D01*
X99768959Y-119195339D01*
X99814195Y-119247543D01*
X99830151Y-119281762D01*
X99830154Y-119281767D01*
X99832477Y-119286749D01*
X99963802Y-119474300D01*
X100125700Y-119636198D01*
X100130208Y-119639355D01*
X100130211Y-119639357D01*
X100171138Y-119668014D01*
X100313251Y-119767523D01*
X100318233Y-119769846D01*
X100318238Y-119769849D01*
X100488825Y-119849394D01*
X100520757Y-119864284D01*
X100526065Y-119865706D01*
X100526067Y-119865707D01*
X100736598Y-119922119D01*
X100736600Y-119922119D01*
X100741913Y-119923543D01*
X100970000Y-119943498D01*
X101198087Y-119923543D01*
X101203400Y-119922119D01*
X101203402Y-119922119D01*
X101413933Y-119865707D01*
X101413935Y-119865706D01*
X101419243Y-119864284D01*
X101451175Y-119849394D01*
X101621762Y-119769849D01*
X101621767Y-119769846D01*
X101626749Y-119767523D01*
X101768862Y-119668014D01*
X101809789Y-119639357D01*
X101809792Y-119639355D01*
X101814300Y-119636198D01*
X101976198Y-119474300D01*
X102107523Y-119286749D01*
X102109846Y-119281767D01*
X102109849Y-119281762D01*
X102126081Y-119246951D01*
X102172998Y-119193666D01*
X102241275Y-119174205D01*
X102309235Y-119194747D01*
X102354471Y-119246951D01*
X102370586Y-119281511D01*
X102376069Y-119291007D01*
X102501028Y-119469467D01*
X102508084Y-119477875D01*
X102662125Y-119631916D01*
X102670533Y-119638972D01*
X102848993Y-119763931D01*
X102858489Y-119769414D01*
X103055947Y-119861490D01*
X103066239Y-119865236D01*
X103238503Y-119911394D01*
X103252599Y-119911058D01*
X103256000Y-119903116D01*
X103256000Y-119897967D01*
X103764000Y-119897967D01*
X103767973Y-119911498D01*
X103776522Y-119912727D01*
X103953761Y-119865236D01*
X103964053Y-119861490D01*
X104161511Y-119769414D01*
X104171007Y-119763931D01*
X104349467Y-119638972D01*
X104357875Y-119631916D01*
X104511916Y-119477875D01*
X104518972Y-119469467D01*
X104643931Y-119291007D01*
X104649414Y-119281511D01*
X104665529Y-119246951D01*
X104712446Y-119193666D01*
X104780723Y-119174205D01*
X104848683Y-119194747D01*
X104893919Y-119246951D01*
X104910151Y-119281762D01*
X104910154Y-119281767D01*
X104912477Y-119286749D01*
X105043802Y-119474300D01*
X105205700Y-119636198D01*
X105210208Y-119639355D01*
X105210211Y-119639357D01*
X105251138Y-119668014D01*
X105393251Y-119767523D01*
X105398233Y-119769846D01*
X105398238Y-119769849D01*
X105568825Y-119849394D01*
X105600757Y-119864284D01*
X105606065Y-119865706D01*
X105606067Y-119865707D01*
X105816598Y-119922119D01*
X105816600Y-119922119D01*
X105821913Y-119923543D01*
X106050000Y-119943498D01*
X106278087Y-119923543D01*
X106283400Y-119922119D01*
X106283402Y-119922119D01*
X106493933Y-119865707D01*
X106493935Y-119865706D01*
X106499243Y-119864284D01*
X106531175Y-119849394D01*
X106701762Y-119769849D01*
X106701767Y-119769846D01*
X106706749Y-119767523D01*
X106848862Y-119668014D01*
X106889789Y-119639357D01*
X106889792Y-119639355D01*
X106894300Y-119636198D01*
X107056198Y-119474300D01*
X107187523Y-119286749D01*
X107189846Y-119281767D01*
X107189849Y-119281762D01*
X107281961Y-119084225D01*
X107281961Y-119084224D01*
X107284284Y-119079243D01*
X107290171Y-119057275D01*
X107342119Y-118863402D01*
X107342119Y-118863400D01*
X107343543Y-118858087D01*
X107363498Y-118630000D01*
X107343543Y-118401913D01*
X107307712Y-118268192D01*
X107285707Y-118186067D01*
X107285706Y-118186065D01*
X107284284Y-118180757D01*
X107189966Y-117978489D01*
X107189849Y-117978238D01*
X107189846Y-117978233D01*
X107187523Y-117973251D01*
X107056198Y-117785700D01*
X106894300Y-117623802D01*
X106889792Y-117620645D01*
X106889789Y-117620643D01*
X106803880Y-117560489D01*
X106706749Y-117492477D01*
X106701767Y-117490154D01*
X106701762Y-117490151D01*
X106504225Y-117398039D01*
X106504224Y-117398039D01*
X106499243Y-117395716D01*
X106493935Y-117394294D01*
X106493933Y-117394293D01*
X106283402Y-117337881D01*
X106283400Y-117337881D01*
X106278087Y-117336457D01*
X106050000Y-117316502D01*
X105821913Y-117336457D01*
X105816600Y-117337881D01*
X105816598Y-117337881D01*
X105606067Y-117394293D01*
X105606065Y-117394294D01*
X105600757Y-117395716D01*
X105595776Y-117398039D01*
X105595775Y-117398039D01*
X105398238Y-117490151D01*
X105398233Y-117490154D01*
X105393251Y-117492477D01*
X105296120Y-117560489D01*
X105210211Y-117620643D01*
X105210208Y-117620645D01*
X105205700Y-117623802D01*
X105043802Y-117785700D01*
X104912477Y-117973251D01*
X104910154Y-117978233D01*
X104910151Y-117978238D01*
X104893919Y-118013049D01*
X104847002Y-118066334D01*
X104778725Y-118085795D01*
X104710765Y-118065253D01*
X104665529Y-118013049D01*
X104649414Y-117978489D01*
X104643931Y-117968993D01*
X104518972Y-117790533D01*
X104511916Y-117782125D01*
X104357875Y-117628084D01*
X104349467Y-117621028D01*
X104171007Y-117496069D01*
X104161511Y-117490586D01*
X103964053Y-117398510D01*
X103953761Y-117394764D01*
X103781497Y-117348606D01*
X103767401Y-117348942D01*
X103764000Y-117356884D01*
X103764000Y-119897967D01*
X103256000Y-119897967D01*
X103256000Y-117362033D01*
X103252027Y-117348502D01*
X103243478Y-117347273D01*
X103066239Y-117394764D01*
X103055947Y-117398510D01*
X102858489Y-117490586D01*
X102848993Y-117496069D01*
X102670533Y-117621028D01*
X102662125Y-117628084D01*
X102508084Y-117782125D01*
X102501028Y-117790533D01*
X102376069Y-117968993D01*
X102370586Y-117978489D01*
X102354471Y-118013049D01*
X102307554Y-118066334D01*
X102239277Y-118085795D01*
X102171317Y-118065253D01*
X102126081Y-118013049D01*
X102109849Y-117978238D01*
X102109846Y-117978233D01*
X102107523Y-117973251D01*
X101976198Y-117785700D01*
X101814300Y-117623802D01*
X101809792Y-117620645D01*
X101809789Y-117620643D01*
X101723880Y-117560489D01*
X101626749Y-117492477D01*
X101621767Y-117490154D01*
X101621762Y-117490151D01*
X101424225Y-117398039D01*
X101424224Y-117398039D01*
X101419243Y-117395716D01*
X101413935Y-117394294D01*
X101413933Y-117394293D01*
X101203402Y-117337881D01*
X101203400Y-117337881D01*
X101198087Y-117336457D01*
X100970000Y-117316502D01*
X100741913Y-117336457D01*
X100736600Y-117337881D01*
X100736598Y-117337881D01*
X100526067Y-117394293D01*
X100526065Y-117394294D01*
X100520757Y-117395716D01*
X100515776Y-117398039D01*
X100515775Y-117398039D01*
X100318238Y-117490151D01*
X100318233Y-117490154D01*
X100313251Y-117492477D01*
X100216120Y-117560489D01*
X100130211Y-117620643D01*
X100130208Y-117620645D01*
X100125700Y-117623802D01*
X99963802Y-117785700D01*
X99832477Y-117973251D01*
X99830154Y-117978233D01*
X99830151Y-117978238D01*
X99814195Y-118012457D01*
X99767278Y-118065742D01*
X99699001Y-118085203D01*
X99631041Y-118064661D01*
X99585805Y-118012457D01*
X99569849Y-117978238D01*
X99569846Y-117978233D01*
X99567523Y-117973251D01*
X99436198Y-117785700D01*
X99274300Y-117623802D01*
X99269792Y-117620645D01*
X99269789Y-117620643D01*
X99183880Y-117560489D01*
X99086749Y-117492477D01*
X99081767Y-117490154D01*
X99081762Y-117490151D01*
X98884225Y-117398039D01*
X98884224Y-117398039D01*
X98879243Y-117395716D01*
X98873935Y-117394294D01*
X98873933Y-117394293D01*
X98663402Y-117337881D01*
X98663400Y-117337881D01*
X98658087Y-117336457D01*
X98430000Y-117316502D01*
X98201913Y-117336457D01*
X98196600Y-117337881D01*
X98196598Y-117337881D01*
X97986067Y-117394293D01*
X97986065Y-117394294D01*
X97980757Y-117395716D01*
X97975776Y-117398039D01*
X97975775Y-117398039D01*
X97778238Y-117490151D01*
X97778233Y-117490154D01*
X97773251Y-117492477D01*
X97676120Y-117560489D01*
X97590211Y-117620643D01*
X97590208Y-117620645D01*
X97585700Y-117623802D01*
X97423802Y-117785700D01*
X97292477Y-117973251D01*
X97290154Y-117978233D01*
X97290151Y-117978238D01*
X97274195Y-118012457D01*
X97227278Y-118065742D01*
X97159001Y-118085203D01*
X97091041Y-118064661D01*
X97045805Y-118012457D01*
X97029849Y-117978238D01*
X97029846Y-117978233D01*
X97027523Y-117973251D01*
X96896198Y-117785700D01*
X96734300Y-117623802D01*
X96729792Y-117620645D01*
X96729789Y-117620643D01*
X96643880Y-117560489D01*
X96546749Y-117492477D01*
X96541767Y-117490154D01*
X96541762Y-117490151D01*
X96344225Y-117398039D01*
X96344224Y-117398039D01*
X96339243Y-117395716D01*
X96333935Y-117394294D01*
X96333933Y-117394293D01*
X96123402Y-117337881D01*
X96123400Y-117337881D01*
X96118087Y-117336457D01*
X95890000Y-117316502D01*
X95661913Y-117336457D01*
X95656600Y-117337881D01*
X95656598Y-117337881D01*
X95446067Y-117394293D01*
X95446065Y-117394294D01*
X95440757Y-117395716D01*
X95435776Y-117398039D01*
X95435775Y-117398039D01*
X95238238Y-117490151D01*
X95238233Y-117490154D01*
X95233251Y-117492477D01*
X95136120Y-117560489D01*
X95050211Y-117620643D01*
X95050208Y-117620645D01*
X95045700Y-117623802D01*
X94883802Y-117785700D01*
X94752477Y-117973251D01*
X94750154Y-117978233D01*
X94750151Y-117978238D01*
X94734195Y-118012457D01*
X94687278Y-118065742D01*
X94619001Y-118085203D01*
X94551041Y-118064661D01*
X94505805Y-118012457D01*
X94489849Y-117978238D01*
X94489846Y-117978233D01*
X94487523Y-117973251D01*
X94356198Y-117785700D01*
X94194300Y-117623802D01*
X94189792Y-117620645D01*
X94189789Y-117620643D01*
X94103880Y-117560489D01*
X94006749Y-117492477D01*
X94001767Y-117490154D01*
X94001762Y-117490151D01*
X93804225Y-117398039D01*
X93804224Y-117398039D01*
X93799243Y-117395716D01*
X93793935Y-117394294D01*
X93793933Y-117394293D01*
X93583402Y-117337881D01*
X93583400Y-117337881D01*
X93578087Y-117336457D01*
X93350000Y-117316502D01*
X93121913Y-117336457D01*
X93116600Y-117337881D01*
X93116598Y-117337881D01*
X92906067Y-117394293D01*
X92906065Y-117394294D01*
X92900757Y-117395716D01*
X92895776Y-117398039D01*
X92895775Y-117398039D01*
X92698238Y-117490151D01*
X92698233Y-117490154D01*
X92693251Y-117492477D01*
X92596120Y-117560489D01*
X92510211Y-117620643D01*
X92510208Y-117620645D01*
X92505700Y-117623802D01*
X92343802Y-117785700D01*
X92212477Y-117973251D01*
X92210154Y-117978233D01*
X92210151Y-117978238D01*
X92194195Y-118012457D01*
X92147278Y-118065742D01*
X92079001Y-118085203D01*
X92011041Y-118064661D01*
X91965805Y-118012457D01*
X91949849Y-117978238D01*
X91949846Y-117978233D01*
X91947523Y-117973251D01*
X91816198Y-117785700D01*
X91654300Y-117623802D01*
X91649792Y-117620645D01*
X91649789Y-117620643D01*
X91563880Y-117560489D01*
X91466749Y-117492477D01*
X91461767Y-117490154D01*
X91461762Y-117490151D01*
X91264225Y-117398039D01*
X91264224Y-117398039D01*
X91259243Y-117395716D01*
X91253935Y-117394294D01*
X91253933Y-117394293D01*
X91043402Y-117337881D01*
X91043400Y-117337881D01*
X91038087Y-117336457D01*
X90810000Y-117316502D01*
X90581913Y-117336457D01*
X90576600Y-117337881D01*
X90576598Y-117337881D01*
X90366067Y-117394293D01*
X90366065Y-117394294D01*
X90360757Y-117395716D01*
X90355776Y-117398039D01*
X90355775Y-117398039D01*
X90158238Y-117490151D01*
X90158233Y-117490154D01*
X90153251Y-117492477D01*
X90056120Y-117560489D01*
X89970211Y-117620643D01*
X89970208Y-117620645D01*
X89965700Y-117623802D01*
X89803802Y-117785700D01*
X89672477Y-117973251D01*
X89670154Y-117978233D01*
X89670151Y-117978238D01*
X89654195Y-118012457D01*
X89607278Y-118065742D01*
X89539001Y-118085203D01*
X89471041Y-118064661D01*
X89425805Y-118012457D01*
X89409849Y-117978238D01*
X89409846Y-117978233D01*
X89407523Y-117973251D01*
X89276198Y-117785700D01*
X89114300Y-117623802D01*
X89109792Y-117620645D01*
X89109789Y-117620643D01*
X89023880Y-117560489D01*
X88926749Y-117492477D01*
X88921767Y-117490154D01*
X88921762Y-117490151D01*
X88724225Y-117398039D01*
X88724224Y-117398039D01*
X88719243Y-117395716D01*
X88713935Y-117394294D01*
X88713933Y-117394293D01*
X88503402Y-117337881D01*
X88503400Y-117337881D01*
X88498087Y-117336457D01*
X88270000Y-117316502D01*
X88041913Y-117336457D01*
X88036600Y-117337881D01*
X88036598Y-117337881D01*
X87826067Y-117394293D01*
X87826065Y-117394294D01*
X87820757Y-117395716D01*
X87815776Y-117398039D01*
X87815775Y-117398039D01*
X87618238Y-117490151D01*
X87618233Y-117490154D01*
X87613251Y-117492477D01*
X87516120Y-117560489D01*
X87430211Y-117620643D01*
X87430208Y-117620645D01*
X87425700Y-117623802D01*
X87263802Y-117785700D01*
X87132477Y-117973251D01*
X87130154Y-117978233D01*
X87130151Y-117978238D01*
X87114195Y-118012457D01*
X87067278Y-118065742D01*
X86999001Y-118085203D01*
X86931041Y-118064661D01*
X86885805Y-118012457D01*
X86869849Y-117978238D01*
X86869846Y-117978233D01*
X86867523Y-117973251D01*
X86736198Y-117785700D01*
X86574300Y-117623802D01*
X86569792Y-117620645D01*
X86569789Y-117620643D01*
X86483880Y-117560489D01*
X86386749Y-117492477D01*
X86381767Y-117490154D01*
X86381762Y-117490151D01*
X86184225Y-117398039D01*
X86184224Y-117398039D01*
X86179243Y-117395716D01*
X86173935Y-117394294D01*
X86173933Y-117394293D01*
X85963402Y-117337881D01*
X85963400Y-117337881D01*
X85958087Y-117336457D01*
X85730000Y-117316502D01*
X85501913Y-117336457D01*
X85496600Y-117337881D01*
X85496598Y-117337881D01*
X85286067Y-117394293D01*
X85286065Y-117394294D01*
X85280757Y-117395716D01*
X85275776Y-117398039D01*
X85275775Y-117398039D01*
X85078238Y-117490151D01*
X85078233Y-117490154D01*
X85073251Y-117492477D01*
X84976120Y-117560489D01*
X84890211Y-117620643D01*
X84890208Y-117620645D01*
X84885700Y-117623802D01*
X84723802Y-117785700D01*
X84592477Y-117973251D01*
X84590154Y-117978233D01*
X84590151Y-117978238D01*
X84574195Y-118012457D01*
X84527278Y-118065742D01*
X84459001Y-118085203D01*
X84391041Y-118064661D01*
X84345805Y-118012457D01*
X84329849Y-117978238D01*
X84329846Y-117978233D01*
X84327523Y-117973251D01*
X84196198Y-117785700D01*
X84034300Y-117623802D01*
X84029792Y-117620645D01*
X84029789Y-117620643D01*
X83877229Y-117513819D01*
X83832901Y-117458362D01*
X83823500Y-117410606D01*
X83823500Y-115718768D01*
X83824027Y-115707585D01*
X83825702Y-115700092D01*
X83825027Y-115678598D01*
X83823562Y-115632002D01*
X83823500Y-115628044D01*
X83823500Y-115600144D01*
X83822996Y-115596153D01*
X83822063Y-115584311D01*
X83820923Y-115548036D01*
X83820674Y-115540111D01*
X83815021Y-115520652D01*
X83811012Y-115501293D01*
X83810846Y-115499983D01*
X83808474Y-115481203D01*
X83805558Y-115473837D01*
X83805556Y-115473831D01*
X83792200Y-115440098D01*
X83788355Y-115428868D01*
X83778230Y-115394017D01*
X83778230Y-115394016D01*
X83776019Y-115386407D01*
X83770621Y-115377279D01*
X83765705Y-115368966D01*
X83757008Y-115351213D01*
X83752472Y-115339758D01*
X83749552Y-115332383D01*
X83732564Y-115309001D01*
X83708500Y-115234940D01*
X83708500Y-114324600D01*
X83708163Y-114321350D01*
X83698238Y-114225692D01*
X83698237Y-114225688D01*
X83697526Y-114218834D01*
X83641550Y-114051054D01*
X83548478Y-113900652D01*
X83423303Y-113775695D01*
X83417072Y-113771854D01*
X83278968Y-113686725D01*
X83278966Y-113686724D01*
X83272738Y-113682885D01*
X83192995Y-113656436D01*
X83111389Y-113629368D01*
X83111387Y-113629368D01*
X83104861Y-113627203D01*
X83098025Y-113626503D01*
X83098022Y-113626502D01*
X83054969Y-113622091D01*
X83000400Y-113616500D01*
X82099600Y-113616500D01*
X82096354Y-113616837D01*
X82096350Y-113616837D01*
X82000692Y-113626762D01*
X82000688Y-113626763D01*
X81993834Y-113627474D01*
X81987298Y-113629655D01*
X81987296Y-113629655D01*
X81970928Y-113635116D01*
X81826054Y-113683450D01*
X81675652Y-113776522D01*
X81550695Y-113901697D01*
X81457885Y-114052262D01*
X81402203Y-114220139D01*
X81391500Y-114324600D01*
X81391500Y-115675400D01*
X81391837Y-115678646D01*
X81391837Y-115678650D01*
X81401752Y-115774206D01*
X81402474Y-115781166D01*
X81404655Y-115787702D01*
X81404655Y-115787704D01*
X81440225Y-115894320D01*
X81458450Y-115948946D01*
X81551522Y-116099348D01*
X81676697Y-116224305D01*
X81682927Y-116228145D01*
X81682928Y-116228146D01*
X81820288Y-116312816D01*
X81827262Y-116317115D01*
X81868609Y-116330829D01*
X81988611Y-116370632D01*
X81988613Y-116370632D01*
X81995139Y-116372797D01*
X82001975Y-116373497D01*
X82001978Y-116373498D01*
X82045031Y-116377909D01*
X82099600Y-116383500D01*
X82430500Y-116383500D01*
X82498621Y-116403502D01*
X82545114Y-116457158D01*
X82556500Y-116509500D01*
X82556500Y-117410606D01*
X82536498Y-117478727D01*
X82502771Y-117513819D01*
X82350211Y-117620643D01*
X82350208Y-117620645D01*
X82345700Y-117623802D01*
X82183802Y-117785700D01*
X82052477Y-117973251D01*
X82050154Y-117978233D01*
X82050151Y-117978238D01*
X82034195Y-118012457D01*
X81987278Y-118065742D01*
X81919001Y-118085203D01*
X81851041Y-118064661D01*
X81805805Y-118012457D01*
X81789849Y-117978238D01*
X81789846Y-117978233D01*
X81787523Y-117973251D01*
X81656198Y-117785700D01*
X81494300Y-117623802D01*
X81489792Y-117620645D01*
X81489789Y-117620643D01*
X81403880Y-117560489D01*
X81306749Y-117492477D01*
X81301767Y-117490154D01*
X81301762Y-117490151D01*
X81104225Y-117398039D01*
X81104224Y-117398039D01*
X81099243Y-117395716D01*
X81093935Y-117394294D01*
X81093933Y-117394293D01*
X80883402Y-117337881D01*
X80883400Y-117337881D01*
X80878087Y-117336457D01*
X80650000Y-117316502D01*
X80421913Y-117336457D01*
X80416600Y-117337881D01*
X80416598Y-117337881D01*
X80242111Y-117384635D01*
X80171135Y-117382945D01*
X80112339Y-117343151D01*
X80084391Y-117277887D01*
X80083500Y-117262928D01*
X80083500Y-116437516D01*
X80103502Y-116369395D01*
X80157158Y-116322902D01*
X80164874Y-116319863D01*
X80166997Y-116318868D01*
X80173946Y-116316550D01*
X80324348Y-116223478D01*
X80449305Y-116098303D01*
X80542115Y-115947738D01*
X80597797Y-115779861D01*
X80608500Y-115675400D01*
X80608500Y-114324600D01*
X80608163Y-114321350D01*
X80598238Y-114225692D01*
X80598237Y-114225688D01*
X80597526Y-114218834D01*
X80541550Y-114051054D01*
X80448478Y-113900652D01*
X80323303Y-113775695D01*
X80317072Y-113771854D01*
X80178968Y-113686725D01*
X80178966Y-113686724D01*
X80172738Y-113682885D01*
X80092995Y-113656436D01*
X80011389Y-113629368D01*
X80011387Y-113629368D01*
X80004861Y-113627203D01*
X79998025Y-113626503D01*
X79998022Y-113626502D01*
X79954969Y-113622091D01*
X79900400Y-113616500D01*
X78999600Y-113616500D01*
X78996354Y-113616837D01*
X78996350Y-113616837D01*
X78900692Y-113626762D01*
X78900688Y-113626763D01*
X78893834Y-113627474D01*
X78887298Y-113629655D01*
X78887296Y-113629655D01*
X78870928Y-113635116D01*
X78726054Y-113683450D01*
X78575652Y-113776522D01*
X78450695Y-113901697D01*
X78357885Y-114052262D01*
X78302203Y-114220139D01*
X78291500Y-114324600D01*
X78291500Y-115541405D01*
X78271498Y-115609526D01*
X78217842Y-115656019D01*
X78147568Y-115666123D01*
X78082988Y-115636629D01*
X78076405Y-115630500D01*
X77745405Y-115299500D01*
X77711379Y-115237188D01*
X77708500Y-115210405D01*
X77708500Y-114324600D01*
X77708163Y-114321350D01*
X77698238Y-114225692D01*
X77698237Y-114225688D01*
X77697526Y-114218834D01*
X77641550Y-114051054D01*
X77548478Y-113900652D01*
X77423303Y-113775695D01*
X77417072Y-113771854D01*
X77278968Y-113686725D01*
X77278966Y-113686724D01*
X77272738Y-113682885D01*
X77192995Y-113656436D01*
X77111389Y-113629368D01*
X77111387Y-113629368D01*
X77104861Y-113627203D01*
X77098025Y-113626503D01*
X77098022Y-113626502D01*
X77054969Y-113622091D01*
X77000400Y-113616500D01*
X76099600Y-113616500D01*
X76096354Y-113616837D01*
X76096350Y-113616837D01*
X76000692Y-113626762D01*
X76000688Y-113626763D01*
X75993834Y-113627474D01*
X75987298Y-113629655D01*
X75987296Y-113629655D01*
X75970928Y-113635116D01*
X75826054Y-113683450D01*
X75675652Y-113776522D01*
X75550695Y-113901697D01*
X75457885Y-114052262D01*
X75402203Y-114220139D01*
X75391500Y-114324600D01*
X75391500Y-115675400D01*
X75391837Y-115678646D01*
X75391837Y-115678650D01*
X75401752Y-115774206D01*
X75402474Y-115781166D01*
X75404655Y-115787702D01*
X75404655Y-115787704D01*
X75440225Y-115894320D01*
X75458450Y-115948946D01*
X75551522Y-116099348D01*
X75676697Y-116224305D01*
X75682927Y-116228145D01*
X75682928Y-116228146D01*
X75820288Y-116312816D01*
X75827262Y-116317115D01*
X75868609Y-116330829D01*
X75988611Y-116370632D01*
X75988613Y-116370632D01*
X75995139Y-116372797D01*
X76001975Y-116373497D01*
X76001978Y-116373498D01*
X76045031Y-116377909D01*
X76099600Y-116383500D01*
X76985406Y-116383500D01*
X77053527Y-116403502D01*
X77074501Y-116420405D01*
X77439595Y-116785499D01*
X77473621Y-116847811D01*
X77476500Y-116874594D01*
X77476500Y-117410606D01*
X77456498Y-117478727D01*
X77422771Y-117513819D01*
X77270211Y-117620643D01*
X77270208Y-117620645D01*
X77265700Y-117623802D01*
X77103802Y-117785700D01*
X76972477Y-117973251D01*
X76970154Y-117978233D01*
X76970151Y-117978238D01*
X76954195Y-118012457D01*
X76907278Y-118065742D01*
X76839001Y-118085203D01*
X76771041Y-118064661D01*
X76725805Y-118012457D01*
X76709849Y-117978238D01*
X76709846Y-117978233D01*
X76707523Y-117973251D01*
X76576198Y-117785700D01*
X76414300Y-117623802D01*
X76409792Y-117620645D01*
X76409789Y-117620643D01*
X76323880Y-117560489D01*
X76226749Y-117492477D01*
X76221767Y-117490154D01*
X76221762Y-117490151D01*
X76024225Y-117398039D01*
X76024224Y-117398039D01*
X76019243Y-117395716D01*
X76013935Y-117394294D01*
X76013933Y-117394293D01*
X75803402Y-117337881D01*
X75803400Y-117337881D01*
X75798087Y-117336457D01*
X75570000Y-117316502D01*
X75341913Y-117336457D01*
X75336600Y-117337881D01*
X75336598Y-117337881D01*
X75126067Y-117394293D01*
X75126065Y-117394294D01*
X75120757Y-117395716D01*
X75115776Y-117398039D01*
X75115775Y-117398039D01*
X74918238Y-117490151D01*
X74918233Y-117490154D01*
X74913251Y-117492477D01*
X74816120Y-117560489D01*
X74730211Y-117620643D01*
X74730208Y-117620645D01*
X74725700Y-117623802D01*
X74563802Y-117785700D01*
X74432477Y-117973251D01*
X74430154Y-117978233D01*
X74430151Y-117978238D01*
X74414195Y-118012457D01*
X74367278Y-118065742D01*
X74299001Y-118085203D01*
X74231041Y-118064661D01*
X74185805Y-118012457D01*
X74169849Y-117978238D01*
X74169846Y-117978233D01*
X74167523Y-117973251D01*
X74036198Y-117785700D01*
X73874300Y-117623802D01*
X73869792Y-117620645D01*
X73869789Y-117620643D01*
X73783880Y-117560489D01*
X73686749Y-117492477D01*
X73681767Y-117490154D01*
X73681762Y-117490151D01*
X73484225Y-117398039D01*
X73484224Y-117398039D01*
X73479243Y-117395716D01*
X73473935Y-117394294D01*
X73473933Y-117394293D01*
X73263402Y-117337881D01*
X73263400Y-117337881D01*
X73258087Y-117336457D01*
X73030000Y-117316502D01*
X72801913Y-117336457D01*
X72738458Y-117353460D01*
X72667482Y-117351770D01*
X72616753Y-117320848D01*
X72408652Y-117112747D01*
X72401112Y-117104461D01*
X72397000Y-117097982D01*
X72347348Y-117051356D01*
X72344507Y-117048602D01*
X72324770Y-117028865D01*
X72321573Y-117026385D01*
X72312551Y-117018680D01*
X72299116Y-117006064D01*
X72280321Y-116988414D01*
X72273375Y-116984595D01*
X72273372Y-116984593D01*
X72262566Y-116978652D01*
X72246047Y-116967801D01*
X72245583Y-116967441D01*
X72230041Y-116955386D01*
X72222772Y-116952241D01*
X72222768Y-116952238D01*
X72189463Y-116937826D01*
X72178813Y-116932609D01*
X72140060Y-116911305D01*
X72120437Y-116906267D01*
X72101734Y-116899863D01*
X72090420Y-116894967D01*
X72090419Y-116894967D01*
X72083145Y-116891819D01*
X72075322Y-116890580D01*
X72075312Y-116890577D01*
X72039476Y-116884901D01*
X72027856Y-116882495D01*
X71992711Y-116873472D01*
X71992710Y-116873472D01*
X71985030Y-116871500D01*
X71964776Y-116871500D01*
X71945065Y-116869949D01*
X71932886Y-116868020D01*
X71925057Y-116866780D01*
X71895786Y-116869547D01*
X71881039Y-116870941D01*
X71869181Y-116871500D01*
X70102776Y-116871500D01*
X70091593Y-116870973D01*
X70084100Y-116869298D01*
X70076174Y-116869547D01*
X70076173Y-116869547D01*
X70016023Y-116871438D01*
X70012064Y-116871500D01*
X69984153Y-116871500D01*
X69980219Y-116871997D01*
X69980218Y-116871997D01*
X69980153Y-116872005D01*
X69968316Y-116872938D01*
X69936499Y-116873938D01*
X69932038Y-116874078D01*
X69924119Y-116874327D01*
X69906463Y-116879456D01*
X69904667Y-116879978D01*
X69885315Y-116883986D01*
X69878244Y-116884880D01*
X69865212Y-116886526D01*
X69857843Y-116889443D01*
X69857841Y-116889444D01*
X69824106Y-116902800D01*
X69812878Y-116906645D01*
X69770416Y-116918982D01*
X69763594Y-116923016D01*
X69763588Y-116923019D01*
X69752977Y-116929294D01*
X69735227Y-116937990D01*
X69723765Y-116942528D01*
X69723760Y-116942531D01*
X69716392Y-116945448D01*
X69698979Y-116958099D01*
X69680634Y-116971427D01*
X69670716Y-116977943D01*
X69659472Y-116984593D01*
X69632646Y-117000458D01*
X69618322Y-117014782D01*
X69603290Y-117027621D01*
X69586902Y-117039528D01*
X69558721Y-117073593D01*
X69550731Y-117082373D01*
X67882747Y-118750357D01*
X67874461Y-118757897D01*
X67867982Y-118762009D01*
X67862557Y-118767786D01*
X67821357Y-118811660D01*
X67818602Y-118814502D01*
X67798865Y-118834239D01*
X67796385Y-118837436D01*
X67788682Y-118846456D01*
X67758414Y-118878688D01*
X67754595Y-118885634D01*
X67754593Y-118885637D01*
X67748652Y-118896443D01*
X67737801Y-118912962D01*
X67725386Y-118928968D01*
X67722241Y-118936237D01*
X67722238Y-118936241D01*
X67707826Y-118969546D01*
X67702609Y-118980196D01*
X67681305Y-119018949D01*
X67679334Y-119026624D01*
X67679334Y-119026625D01*
X67676267Y-119038571D01*
X67669863Y-119057275D01*
X67661819Y-119075864D01*
X67660580Y-119083687D01*
X67660577Y-119083697D01*
X67654901Y-119119533D01*
X67652495Y-119131153D01*
X67643472Y-119166298D01*
X67641500Y-119173979D01*
X67641500Y-119194233D01*
X67639949Y-119213943D01*
X67636780Y-119233952D01*
X67637526Y-119241844D01*
X67640941Y-119277970D01*
X67641500Y-119289828D01*
X67641500Y-128901692D01*
X67621498Y-128969813D01*
X67573683Y-129013453D01*
X67548607Y-129026507D01*
X67544474Y-129029610D01*
X67544471Y-129029612D01*
X67452477Y-129098683D01*
X67369965Y-129160635D01*
X67366393Y-129164373D01*
X67236140Y-129300675D01*
X67215629Y-129322138D01*
X67109670Y-129477469D01*
X67107898Y-129480066D01*
X67052987Y-129525069D01*
X66982462Y-129533240D01*
X66918715Y-129501986D01*
X66898018Y-129477502D01*
X66817426Y-129352926D01*
X66811136Y-129344757D01*
X66667806Y-129187240D01*
X66660273Y-129180215D01*
X66493139Y-129048222D01*
X66484552Y-129042517D01*
X66298117Y-128939599D01*
X66288705Y-128935369D01*
X66087959Y-128864280D01*
X66077988Y-128861646D01*
X66006837Y-128848972D01*
X65993540Y-128850432D01*
X65989000Y-128864989D01*
X65989000Y-130308000D01*
X65968998Y-130376121D01*
X65915342Y-130422614D01*
X65863000Y-130434000D01*
X65607000Y-130434000D01*
X65538879Y-130413998D01*
X65492386Y-130360342D01*
X65481000Y-130308000D01*
X65481000Y-128863102D01*
X65477082Y-128849758D01*
X65462806Y-128847771D01*
X65424324Y-128853660D01*
X65414288Y-128856051D01*
X65358645Y-128874238D01*
X65287681Y-128876389D01*
X65226819Y-128839833D01*
X65195383Y-128776175D01*
X65193500Y-128754473D01*
X65193500Y-126861805D01*
X65213502Y-126793684D01*
X65267158Y-126747191D01*
X65337432Y-126737087D01*
X65383068Y-126753016D01*
X65411000Y-126769338D01*
X65619692Y-126849030D01*
X65624760Y-126850061D01*
X65624763Y-126850062D01*
X65732017Y-126871883D01*
X65838597Y-126893567D01*
X65843772Y-126893757D01*
X65843774Y-126893757D01*
X66056673Y-126901564D01*
X66056677Y-126901564D01*
X66061837Y-126901753D01*
X66066957Y-126901097D01*
X66066959Y-126901097D01*
X66278288Y-126874025D01*
X66278289Y-126874025D01*
X66283416Y-126873368D01*
X66288366Y-126871883D01*
X66492429Y-126810661D01*
X66492434Y-126810659D01*
X66497384Y-126809174D01*
X66697994Y-126710896D01*
X66879860Y-126581173D01*
X67038096Y-126423489D01*
X67124125Y-126303767D01*
X67165435Y-126246277D01*
X67168453Y-126242077D01*
X67174062Y-126230729D01*
X67265136Y-126046453D01*
X67265137Y-126046451D01*
X67267430Y-126041811D01*
X67309277Y-125904077D01*
X67330865Y-125833023D01*
X67330865Y-125833021D01*
X67332370Y-125828069D01*
X67361529Y-125606590D01*
X67362557Y-125564526D01*
X67363074Y-125543365D01*
X67363074Y-125543361D01*
X67363156Y-125540000D01*
X67344852Y-125317361D01*
X67290431Y-125100702D01*
X67201354Y-124895840D01*
X67152540Y-124820385D01*
X67082822Y-124712617D01*
X67082820Y-124712614D01*
X67080014Y-124708277D01*
X67052132Y-124677635D01*
X66932798Y-124546488D01*
X66901746Y-124482642D01*
X66910141Y-124412143D01*
X66955317Y-124357375D01*
X66981761Y-124343706D01*
X67088297Y-124303767D01*
X67096705Y-124300615D01*
X67213261Y-124213261D01*
X67300615Y-124096705D01*
X67351745Y-123960316D01*
X67358500Y-123898134D01*
X67358500Y-122101866D01*
X67351745Y-122039684D01*
X67300615Y-121903295D01*
X67213261Y-121786739D01*
X67096705Y-121699385D01*
X66960316Y-121648255D01*
X66898134Y-121641500D01*
X65319500Y-121641500D01*
X65251379Y-121621498D01*
X65204886Y-121567842D01*
X65193500Y-121515500D01*
X65193500Y-116779899D01*
X65213502Y-116711778D01*
X65230405Y-116690804D01*
X66249114Y-115672095D01*
X72292001Y-115672095D01*
X72292338Y-115678614D01*
X72302257Y-115774206D01*
X72305149Y-115787600D01*
X72356588Y-115941784D01*
X72362761Y-115954962D01*
X72448063Y-116092807D01*
X72457099Y-116104208D01*
X72571829Y-116218739D01*
X72583240Y-116227751D01*
X72721243Y-116312816D01*
X72734424Y-116318963D01*
X72888710Y-116370138D01*
X72902086Y-116373005D01*
X72996438Y-116382672D01*
X73002854Y-116383000D01*
X73177885Y-116383000D01*
X73193124Y-116378525D01*
X73194329Y-116377135D01*
X73196000Y-116369452D01*
X73196000Y-116364884D01*
X73704000Y-116364884D01*
X73708475Y-116380123D01*
X73709865Y-116381328D01*
X73717548Y-116382999D01*
X73897095Y-116382999D01*
X73903614Y-116382662D01*
X73999206Y-116372743D01*
X74012600Y-116369851D01*
X74166784Y-116318412D01*
X74179962Y-116312239D01*
X74317807Y-116226937D01*
X74329208Y-116217901D01*
X74443739Y-116103171D01*
X74452751Y-116091760D01*
X74537816Y-115953757D01*
X74543963Y-115940576D01*
X74595138Y-115786290D01*
X74598005Y-115772914D01*
X74607672Y-115678562D01*
X74608000Y-115672146D01*
X74608000Y-115272115D01*
X74603525Y-115256876D01*
X74602135Y-115255671D01*
X74594452Y-115254000D01*
X73722115Y-115254000D01*
X73706876Y-115258475D01*
X73705671Y-115259865D01*
X73704000Y-115267548D01*
X73704000Y-116364884D01*
X73196000Y-116364884D01*
X73196000Y-115272115D01*
X73191525Y-115256876D01*
X73190135Y-115255671D01*
X73182452Y-115254000D01*
X72310116Y-115254000D01*
X72294877Y-115258475D01*
X72293672Y-115259865D01*
X72292001Y-115267548D01*
X72292001Y-115672095D01*
X66249114Y-115672095D01*
X67193324Y-114727885D01*
X72292000Y-114727885D01*
X72296475Y-114743124D01*
X72297865Y-114744329D01*
X72305548Y-114746000D01*
X73177885Y-114746000D01*
X73193124Y-114741525D01*
X73194329Y-114740135D01*
X73196000Y-114732452D01*
X73196000Y-114727885D01*
X73704000Y-114727885D01*
X73708475Y-114743124D01*
X73709865Y-114744329D01*
X73717548Y-114746000D01*
X74589884Y-114746000D01*
X74605123Y-114741525D01*
X74606328Y-114740135D01*
X74607999Y-114732452D01*
X74607999Y-114327905D01*
X74607662Y-114321386D01*
X74597743Y-114225794D01*
X74594851Y-114212400D01*
X74543412Y-114058216D01*
X74537239Y-114045038D01*
X74451937Y-113907193D01*
X74442901Y-113895792D01*
X74328171Y-113781261D01*
X74316760Y-113772249D01*
X74178757Y-113687184D01*
X74165576Y-113681037D01*
X74011290Y-113629862D01*
X73997914Y-113626995D01*
X73903562Y-113617328D01*
X73897145Y-113617000D01*
X73722115Y-113617000D01*
X73706876Y-113621475D01*
X73705671Y-113622865D01*
X73704000Y-113630548D01*
X73704000Y-114727885D01*
X73196000Y-114727885D01*
X73196000Y-113635116D01*
X73191525Y-113619877D01*
X73190135Y-113618672D01*
X73182452Y-113617001D01*
X73002905Y-113617001D01*
X72996386Y-113617338D01*
X72900794Y-113627257D01*
X72887400Y-113630149D01*
X72733216Y-113681588D01*
X72720038Y-113687761D01*
X72582193Y-113773063D01*
X72570792Y-113782099D01*
X72456261Y-113896829D01*
X72447249Y-113908240D01*
X72362184Y-114046243D01*
X72356037Y-114059424D01*
X72304862Y-114213710D01*
X72301995Y-114227086D01*
X72292328Y-114321438D01*
X72292000Y-114327855D01*
X72292000Y-114727885D01*
X67193324Y-114727885D01*
X70882247Y-111038962D01*
X70890537Y-111031418D01*
X70897018Y-111027305D01*
X70922659Y-111000000D01*
X92386526Y-111000000D01*
X92406391Y-111252403D01*
X92465495Y-111498591D01*
X92562384Y-111732502D01*
X92694672Y-111948376D01*
X92859102Y-112140898D01*
X93051624Y-112305328D01*
X93267498Y-112437616D01*
X93272068Y-112439509D01*
X93272072Y-112439511D01*
X93496836Y-112532611D01*
X93501409Y-112534505D01*
X93586032Y-112554821D01*
X93742784Y-112592454D01*
X93742790Y-112592455D01*
X93747597Y-112593609D01*
X93847416Y-112601465D01*
X93934345Y-112608307D01*
X93934352Y-112608307D01*
X93936801Y-112608500D01*
X94063199Y-112608500D01*
X94065648Y-112608307D01*
X94065655Y-112608307D01*
X94152584Y-112601465D01*
X94252403Y-112593609D01*
X94257210Y-112592455D01*
X94257216Y-112592454D01*
X94413968Y-112554821D01*
X94498591Y-112534505D01*
X94503164Y-112532611D01*
X94727928Y-112439511D01*
X94727932Y-112439509D01*
X94732502Y-112437616D01*
X94948376Y-112305328D01*
X95140898Y-112140898D01*
X95305328Y-111948376D01*
X95437616Y-111732502D01*
X95534505Y-111498591D01*
X95593609Y-111252403D01*
X95613474Y-111000000D01*
X95593609Y-110747597D01*
X95592059Y-110741138D01*
X95535660Y-110506221D01*
X95534505Y-110501409D01*
X95455140Y-110309805D01*
X95439511Y-110272072D01*
X95439509Y-110272068D01*
X95437616Y-110267498D01*
X95305328Y-110051624D01*
X95140898Y-109859102D01*
X94948376Y-109694672D01*
X94732502Y-109562384D01*
X94727932Y-109560491D01*
X94727928Y-109560489D01*
X94503164Y-109467389D01*
X94503162Y-109467388D01*
X94498591Y-109465495D01*
X94413968Y-109445179D01*
X94257216Y-109407546D01*
X94257210Y-109407545D01*
X94252403Y-109406391D01*
X94152584Y-109398535D01*
X94065655Y-109391693D01*
X94065648Y-109391693D01*
X94063199Y-109391500D01*
X93936801Y-109391500D01*
X93934352Y-109391693D01*
X93934345Y-109391693D01*
X93847416Y-109398535D01*
X93747597Y-109406391D01*
X93742790Y-109407545D01*
X93742784Y-109407546D01*
X93586032Y-109445179D01*
X93501409Y-109465495D01*
X93496838Y-109467388D01*
X93496836Y-109467389D01*
X93272072Y-109560489D01*
X93272068Y-109560491D01*
X93267498Y-109562384D01*
X93051624Y-109694672D01*
X92859102Y-109859102D01*
X92694672Y-110051624D01*
X92562384Y-110267498D01*
X92560491Y-110272068D01*
X92560489Y-110272072D01*
X92544860Y-110309805D01*
X92465495Y-110501409D01*
X92464340Y-110506221D01*
X92407942Y-110741138D01*
X92406391Y-110747597D01*
X92386526Y-111000000D01*
X70922659Y-111000000D01*
X70943659Y-110977637D01*
X70946413Y-110974796D01*
X70966134Y-110955075D01*
X70968612Y-110951880D01*
X70976318Y-110942858D01*
X71001158Y-110916406D01*
X71006586Y-110910626D01*
X71016346Y-110892873D01*
X71027199Y-110876350D01*
X71034753Y-110866611D01*
X71039613Y-110860346D01*
X71057176Y-110819762D01*
X71062383Y-110809132D01*
X71083695Y-110770365D01*
X71085666Y-110762688D01*
X71085668Y-110762683D01*
X71088732Y-110750747D01*
X71095138Y-110732035D01*
X71100034Y-110720722D01*
X71103181Y-110713450D01*
X71110097Y-110669786D01*
X71112504Y-110658165D01*
X71121528Y-110623016D01*
X71121528Y-110623015D01*
X71123500Y-110615335D01*
X71123500Y-110595074D01*
X71125051Y-110575363D01*
X71126979Y-110563190D01*
X71128219Y-110555362D01*
X71124059Y-110511351D01*
X71123500Y-110499494D01*
X71123500Y-104609394D01*
X71143502Y-104541273D01*
X71177229Y-104506181D01*
X71329789Y-104399357D01*
X71329792Y-104399355D01*
X71334300Y-104396198D01*
X71496198Y-104234300D01*
X71627523Y-104046749D01*
X71629846Y-104041767D01*
X71629849Y-104041762D01*
X71645805Y-104007543D01*
X71692722Y-103954258D01*
X71760999Y-103934797D01*
X71828959Y-103955339D01*
X71874195Y-104007543D01*
X71890151Y-104041762D01*
X71890154Y-104041767D01*
X71892477Y-104046749D01*
X72023802Y-104234300D01*
X72185700Y-104396198D01*
X72190208Y-104399355D01*
X72190211Y-104399357D01*
X72253812Y-104443891D01*
X72373251Y-104527523D01*
X72378233Y-104529846D01*
X72378238Y-104529849D01*
X72565018Y-104616945D01*
X72580757Y-104624284D01*
X72586065Y-104625706D01*
X72586067Y-104625707D01*
X72796598Y-104682119D01*
X72796600Y-104682119D01*
X72801913Y-104683543D01*
X73030000Y-104703498D01*
X73258087Y-104683543D01*
X73263400Y-104682119D01*
X73263402Y-104682119D01*
X73473933Y-104625707D01*
X73473935Y-104625706D01*
X73479243Y-104624284D01*
X73494982Y-104616945D01*
X73681762Y-104529849D01*
X73681767Y-104529846D01*
X73686749Y-104527523D01*
X73806188Y-104443891D01*
X73869789Y-104399357D01*
X73869792Y-104399355D01*
X73874300Y-104396198D01*
X74036198Y-104234300D01*
X74167523Y-104046749D01*
X74169846Y-104041767D01*
X74169849Y-104041762D01*
X74185805Y-104007543D01*
X74232722Y-103954258D01*
X74300999Y-103934797D01*
X74368959Y-103955339D01*
X74414195Y-104007543D01*
X74430151Y-104041762D01*
X74430154Y-104041767D01*
X74432477Y-104046749D01*
X74563802Y-104234300D01*
X74725700Y-104396198D01*
X74730208Y-104399355D01*
X74730211Y-104399357D01*
X74793812Y-104443891D01*
X74913251Y-104527523D01*
X74918233Y-104529846D01*
X74918238Y-104529849D01*
X75105018Y-104616945D01*
X75120757Y-104624284D01*
X75126065Y-104625706D01*
X75126067Y-104625707D01*
X75336598Y-104682119D01*
X75336600Y-104682119D01*
X75341913Y-104683543D01*
X75570000Y-104703498D01*
X75798087Y-104683543D01*
X75803400Y-104682119D01*
X75803402Y-104682119D01*
X76013933Y-104625707D01*
X76013935Y-104625706D01*
X76019243Y-104624284D01*
X76034982Y-104616945D01*
X76221762Y-104529849D01*
X76221767Y-104529846D01*
X76226749Y-104527523D01*
X76346188Y-104443891D01*
X76409789Y-104399357D01*
X76409792Y-104399355D01*
X76414300Y-104396198D01*
X76576198Y-104234300D01*
X76707523Y-104046749D01*
X76709846Y-104041767D01*
X76709849Y-104041762D01*
X76725805Y-104007543D01*
X76772722Y-103954258D01*
X76840999Y-103934797D01*
X76908959Y-103955339D01*
X76954195Y-104007543D01*
X76970151Y-104041762D01*
X76970154Y-104041767D01*
X76972477Y-104046749D01*
X77103802Y-104234300D01*
X77265700Y-104396198D01*
X77270208Y-104399355D01*
X77270211Y-104399357D01*
X77333812Y-104443891D01*
X77453251Y-104527523D01*
X77458233Y-104529846D01*
X77458238Y-104529849D01*
X77645018Y-104616945D01*
X77660757Y-104624284D01*
X77666065Y-104625706D01*
X77666067Y-104625707D01*
X77876598Y-104682119D01*
X77876600Y-104682119D01*
X77881913Y-104683543D01*
X78110000Y-104703498D01*
X78338087Y-104683543D01*
X78343400Y-104682119D01*
X78343402Y-104682119D01*
X78553933Y-104625707D01*
X78553935Y-104625706D01*
X78559243Y-104624284D01*
X78574982Y-104616945D01*
X78761762Y-104529849D01*
X78761767Y-104529846D01*
X78766749Y-104527523D01*
X78886188Y-104443891D01*
X78949789Y-104399357D01*
X78949792Y-104399355D01*
X78954300Y-104396198D01*
X79116198Y-104234300D01*
X79247523Y-104046749D01*
X79249846Y-104041767D01*
X79249849Y-104041762D01*
X79265805Y-104007543D01*
X79312722Y-103954258D01*
X79380999Y-103934797D01*
X79448959Y-103955339D01*
X79494195Y-104007543D01*
X79510151Y-104041762D01*
X79510154Y-104041767D01*
X79512477Y-104046749D01*
X79643802Y-104234300D01*
X79805700Y-104396198D01*
X79810208Y-104399355D01*
X79810211Y-104399357D01*
X79873812Y-104443891D01*
X79993251Y-104527523D01*
X79998233Y-104529846D01*
X79998238Y-104529849D01*
X80185018Y-104616945D01*
X80200757Y-104624284D01*
X80206065Y-104625706D01*
X80206067Y-104625707D01*
X80416598Y-104682119D01*
X80416600Y-104682119D01*
X80421913Y-104683543D01*
X80650000Y-104703498D01*
X80878087Y-104683543D01*
X80883400Y-104682119D01*
X80883402Y-104682119D01*
X81093933Y-104625707D01*
X81093935Y-104625706D01*
X81099243Y-104624284D01*
X81114982Y-104616945D01*
X81301762Y-104529849D01*
X81301767Y-104529846D01*
X81306749Y-104527523D01*
X81426188Y-104443891D01*
X81489789Y-104399357D01*
X81489792Y-104399355D01*
X81494300Y-104396198D01*
X81656198Y-104234300D01*
X81787523Y-104046749D01*
X81789846Y-104041767D01*
X81789849Y-104041762D01*
X81805805Y-104007543D01*
X81852722Y-103954258D01*
X81920999Y-103934797D01*
X81988959Y-103955339D01*
X82034195Y-104007543D01*
X82050151Y-104041762D01*
X82050154Y-104041767D01*
X82052477Y-104046749D01*
X82183802Y-104234300D01*
X82345700Y-104396198D01*
X82350208Y-104399355D01*
X82350211Y-104399357D01*
X82413812Y-104443891D01*
X82533251Y-104527523D01*
X82538233Y-104529846D01*
X82538238Y-104529849D01*
X82725018Y-104616945D01*
X82740757Y-104624284D01*
X82746065Y-104625706D01*
X82746067Y-104625707D01*
X82956598Y-104682119D01*
X82956600Y-104682119D01*
X82961913Y-104683543D01*
X83190000Y-104703498D01*
X83418087Y-104683543D01*
X83423400Y-104682119D01*
X83423402Y-104682119D01*
X83633933Y-104625707D01*
X83633935Y-104625706D01*
X83639243Y-104624284D01*
X83654982Y-104616945D01*
X83841762Y-104529849D01*
X83841767Y-104529846D01*
X83846749Y-104527523D01*
X83966188Y-104443891D01*
X84029789Y-104399357D01*
X84029792Y-104399355D01*
X84034300Y-104396198D01*
X84196198Y-104234300D01*
X84327523Y-104046749D01*
X84329846Y-104041767D01*
X84329849Y-104041762D01*
X84345805Y-104007543D01*
X84392722Y-103954258D01*
X84460999Y-103934797D01*
X84528959Y-103955339D01*
X84574195Y-104007543D01*
X84590151Y-104041762D01*
X84590154Y-104041767D01*
X84592477Y-104046749D01*
X84723802Y-104234300D01*
X84885700Y-104396198D01*
X84890208Y-104399355D01*
X84890211Y-104399357D01*
X84953812Y-104443891D01*
X85073251Y-104527523D01*
X85078233Y-104529846D01*
X85078238Y-104529849D01*
X85265018Y-104616945D01*
X85280757Y-104624284D01*
X85286065Y-104625706D01*
X85286067Y-104625707D01*
X85496598Y-104682119D01*
X85496600Y-104682119D01*
X85501913Y-104683543D01*
X85730000Y-104703498D01*
X85958087Y-104683543D01*
X85963400Y-104682119D01*
X85963402Y-104682119D01*
X86173933Y-104625707D01*
X86173935Y-104625706D01*
X86179243Y-104624284D01*
X86194982Y-104616945D01*
X86381762Y-104529849D01*
X86381767Y-104529846D01*
X86386749Y-104527523D01*
X86506188Y-104443891D01*
X86569789Y-104399357D01*
X86569792Y-104399355D01*
X86574300Y-104396198D01*
X86736198Y-104234300D01*
X86867523Y-104046749D01*
X86869846Y-104041767D01*
X86869849Y-104041762D01*
X86885805Y-104007543D01*
X86932722Y-103954258D01*
X87000999Y-103934797D01*
X87068959Y-103955339D01*
X87114195Y-104007543D01*
X87130151Y-104041762D01*
X87130154Y-104041767D01*
X87132477Y-104046749D01*
X87263802Y-104234300D01*
X87425700Y-104396198D01*
X87430208Y-104399355D01*
X87430211Y-104399357D01*
X87493812Y-104443891D01*
X87613251Y-104527523D01*
X87618233Y-104529846D01*
X87618238Y-104529849D01*
X87805018Y-104616945D01*
X87820757Y-104624284D01*
X87826065Y-104625706D01*
X87826067Y-104625707D01*
X88036598Y-104682119D01*
X88036600Y-104682119D01*
X88041913Y-104683543D01*
X88270000Y-104703498D01*
X88498087Y-104683543D01*
X88503400Y-104682119D01*
X88503402Y-104682119D01*
X88713933Y-104625707D01*
X88713935Y-104625706D01*
X88719243Y-104624284D01*
X88734982Y-104616945D01*
X88921762Y-104529849D01*
X88921767Y-104529846D01*
X88926749Y-104527523D01*
X89046188Y-104443891D01*
X89109789Y-104399357D01*
X89109792Y-104399355D01*
X89114300Y-104396198D01*
X89276198Y-104234300D01*
X89407523Y-104046749D01*
X89409846Y-104041767D01*
X89409849Y-104041762D01*
X89425805Y-104007543D01*
X89472722Y-103954258D01*
X89540999Y-103934797D01*
X89608959Y-103955339D01*
X89654195Y-104007543D01*
X89670151Y-104041762D01*
X89670154Y-104041767D01*
X89672477Y-104046749D01*
X89803802Y-104234300D01*
X89965700Y-104396198D01*
X89970208Y-104399355D01*
X89970211Y-104399357D01*
X90033812Y-104443891D01*
X90153251Y-104527523D01*
X90158233Y-104529846D01*
X90158238Y-104529849D01*
X90345018Y-104616945D01*
X90360757Y-104624284D01*
X90366065Y-104625706D01*
X90366067Y-104625707D01*
X90576598Y-104682119D01*
X90576600Y-104682119D01*
X90581913Y-104683543D01*
X90810000Y-104703498D01*
X91038087Y-104683543D01*
X91043400Y-104682119D01*
X91043402Y-104682119D01*
X91253933Y-104625707D01*
X91253935Y-104625706D01*
X91259243Y-104624284D01*
X91274982Y-104616945D01*
X91461762Y-104529849D01*
X91461767Y-104529846D01*
X91466749Y-104527523D01*
X91586188Y-104443891D01*
X91649789Y-104399357D01*
X91649792Y-104399355D01*
X91654300Y-104396198D01*
X91816198Y-104234300D01*
X91947523Y-104046749D01*
X91949846Y-104041767D01*
X91949849Y-104041762D01*
X91965805Y-104007543D01*
X92012722Y-103954258D01*
X92080999Y-103934797D01*
X92148959Y-103955339D01*
X92194195Y-104007543D01*
X92210151Y-104041762D01*
X92210154Y-104041767D01*
X92212477Y-104046749D01*
X92343802Y-104234300D01*
X92505700Y-104396198D01*
X92510208Y-104399355D01*
X92510211Y-104399357D01*
X92573812Y-104443891D01*
X92693251Y-104527523D01*
X92698233Y-104529846D01*
X92698238Y-104529849D01*
X92885018Y-104616945D01*
X92900757Y-104624284D01*
X92906065Y-104625706D01*
X92906067Y-104625707D01*
X93116598Y-104682119D01*
X93116600Y-104682119D01*
X93121913Y-104683543D01*
X93350000Y-104703498D01*
X93578087Y-104683543D01*
X93583400Y-104682119D01*
X93583402Y-104682119D01*
X93793933Y-104625707D01*
X93793935Y-104625706D01*
X93799243Y-104624284D01*
X93814982Y-104616945D01*
X94001762Y-104529849D01*
X94001767Y-104529846D01*
X94006749Y-104527523D01*
X94126188Y-104443891D01*
X94189789Y-104399357D01*
X94189792Y-104399355D01*
X94194300Y-104396198D01*
X94356198Y-104234300D01*
X94487523Y-104046749D01*
X94489846Y-104041767D01*
X94489849Y-104041762D01*
X94505805Y-104007543D01*
X94552722Y-103954258D01*
X94620999Y-103934797D01*
X94688959Y-103955339D01*
X94734195Y-104007543D01*
X94750151Y-104041762D01*
X94750154Y-104041767D01*
X94752477Y-104046749D01*
X94883802Y-104234300D01*
X95045700Y-104396198D01*
X95050208Y-104399355D01*
X95050211Y-104399357D01*
X95113812Y-104443891D01*
X95233251Y-104527523D01*
X95238233Y-104529846D01*
X95238238Y-104529849D01*
X95425018Y-104616945D01*
X95440757Y-104624284D01*
X95446065Y-104625706D01*
X95446067Y-104625707D01*
X95656598Y-104682119D01*
X95656600Y-104682119D01*
X95661913Y-104683543D01*
X95890000Y-104703498D01*
X96118087Y-104683543D01*
X96123400Y-104682119D01*
X96123402Y-104682119D01*
X96333933Y-104625707D01*
X96333935Y-104625706D01*
X96339243Y-104624284D01*
X96354982Y-104616945D01*
X96541762Y-104529849D01*
X96541767Y-104529846D01*
X96546749Y-104527523D01*
X96666188Y-104443891D01*
X96729789Y-104399357D01*
X96729792Y-104399355D01*
X96734300Y-104396198D01*
X96896198Y-104234300D01*
X97027523Y-104046749D01*
X97029846Y-104041767D01*
X97029849Y-104041762D01*
X97045805Y-104007543D01*
X97092722Y-103954258D01*
X97160999Y-103934797D01*
X97228959Y-103955339D01*
X97274195Y-104007543D01*
X97290151Y-104041762D01*
X97290154Y-104041767D01*
X97292477Y-104046749D01*
X97423802Y-104234300D01*
X97585700Y-104396198D01*
X97590208Y-104399355D01*
X97590211Y-104399357D01*
X97653812Y-104443891D01*
X97773251Y-104527523D01*
X97778233Y-104529846D01*
X97778238Y-104529849D01*
X97965018Y-104616945D01*
X97980757Y-104624284D01*
X97986065Y-104625706D01*
X97986067Y-104625707D01*
X98196598Y-104682119D01*
X98196600Y-104682119D01*
X98201913Y-104683543D01*
X98430000Y-104703498D01*
X98658087Y-104683543D01*
X98663400Y-104682119D01*
X98663402Y-104682119D01*
X98873933Y-104625707D01*
X98873935Y-104625706D01*
X98879243Y-104624284D01*
X98894982Y-104616945D01*
X99081762Y-104529849D01*
X99081767Y-104529846D01*
X99086749Y-104527523D01*
X99206188Y-104443891D01*
X99269789Y-104399357D01*
X99269792Y-104399355D01*
X99274300Y-104396198D01*
X99436198Y-104234300D01*
X99567523Y-104046749D01*
X99569846Y-104041767D01*
X99569849Y-104041762D01*
X99585805Y-104007543D01*
X99632722Y-103954258D01*
X99700999Y-103934797D01*
X99768959Y-103955339D01*
X99814195Y-104007543D01*
X99830151Y-104041762D01*
X99830154Y-104041767D01*
X99832477Y-104046749D01*
X99963802Y-104234300D01*
X100125700Y-104396198D01*
X100130208Y-104399355D01*
X100130211Y-104399357D01*
X100193812Y-104443891D01*
X100313251Y-104527523D01*
X100318233Y-104529846D01*
X100318238Y-104529849D01*
X100505018Y-104616945D01*
X100520757Y-104624284D01*
X100526065Y-104625706D01*
X100526067Y-104625707D01*
X100736598Y-104682119D01*
X100736600Y-104682119D01*
X100741913Y-104683543D01*
X100970000Y-104703498D01*
X101198087Y-104683543D01*
X101203400Y-104682119D01*
X101203402Y-104682119D01*
X101413933Y-104625707D01*
X101413935Y-104625706D01*
X101419243Y-104624284D01*
X101434982Y-104616945D01*
X101621762Y-104529849D01*
X101621767Y-104529846D01*
X101626749Y-104527523D01*
X101746188Y-104443891D01*
X101809789Y-104399357D01*
X101809792Y-104399355D01*
X101814300Y-104396198D01*
X101976198Y-104234300D01*
X102107523Y-104046749D01*
X102109846Y-104041767D01*
X102109849Y-104041762D01*
X102125805Y-104007543D01*
X102172722Y-103954258D01*
X102240999Y-103934797D01*
X102308959Y-103955339D01*
X102354195Y-104007543D01*
X102370151Y-104041762D01*
X102370154Y-104041767D01*
X102372477Y-104046749D01*
X102503802Y-104234300D01*
X102665700Y-104396198D01*
X102670208Y-104399355D01*
X102670211Y-104399357D01*
X102733812Y-104443891D01*
X102853251Y-104527523D01*
X102858233Y-104529846D01*
X102858238Y-104529849D01*
X103045018Y-104616945D01*
X103060757Y-104624284D01*
X103066065Y-104625706D01*
X103066067Y-104625707D01*
X103276598Y-104682119D01*
X103276600Y-104682119D01*
X103281913Y-104683543D01*
X103510000Y-104703498D01*
X103738087Y-104683543D01*
X103743400Y-104682119D01*
X103743402Y-104682119D01*
X103953933Y-104625707D01*
X103953935Y-104625706D01*
X103959243Y-104624284D01*
X103974982Y-104616945D01*
X104161762Y-104529849D01*
X104161767Y-104529846D01*
X104166749Y-104527523D01*
X104286188Y-104443891D01*
X104349789Y-104399357D01*
X104349792Y-104399355D01*
X104354300Y-104396198D01*
X104516198Y-104234300D01*
X104519357Y-104229789D01*
X104522892Y-104225576D01*
X104524026Y-104226527D01*
X104574071Y-104186529D01*
X104644690Y-104179224D01*
X104708049Y-104211258D01*
X104744030Y-104272462D01*
X104747082Y-104289517D01*
X104748255Y-104300316D01*
X104799385Y-104436705D01*
X104886739Y-104553261D01*
X105003295Y-104640615D01*
X105139684Y-104691745D01*
X105201866Y-104698500D01*
X106898134Y-104698500D01*
X106960316Y-104691745D01*
X107096705Y-104640615D01*
X107213261Y-104553261D01*
X107300615Y-104436705D01*
X107351745Y-104300316D01*
X107358500Y-104238134D01*
X107358500Y-103648594D01*
X107378502Y-103580473D01*
X107432158Y-103533980D01*
X107502432Y-103523876D01*
X107567012Y-103553370D01*
X107573595Y-103559499D01*
X112129595Y-108115500D01*
X112163621Y-108177812D01*
X112166500Y-108204595D01*
X112166500Y-130654876D01*
X112146498Y-130722997D01*
X112119456Y-130753069D01*
X112090975Y-130775968D01*
X111963846Y-130927474D01*
X111960879Y-130932872D01*
X111960875Y-130932877D01*
X111891559Y-131058965D01*
X111868567Y-131100787D01*
X111866706Y-131106654D01*
X111866705Y-131106656D01*
X111852946Y-131150031D01*
X111808765Y-131289306D01*
X111786719Y-131485851D01*
X111787235Y-131491995D01*
X111795280Y-131587800D01*
X111803268Y-131682934D01*
X111857783Y-131873050D01*
X111865609Y-131888277D01*
X111944375Y-132041538D01*
X111948187Y-132048956D01*
X112071035Y-132203953D01*
X112075728Y-132207947D01*
X112075729Y-132207948D01*
X112208723Y-132321134D01*
X112221650Y-132332136D01*
X112394294Y-132428624D01*
X112582392Y-132489740D01*
X112778777Y-132513158D01*
X112784912Y-132512686D01*
X112784914Y-132512686D01*
X112969830Y-132498457D01*
X112969834Y-132498456D01*
X112975972Y-132497984D01*
X113166463Y-132444798D01*
X113171967Y-132442018D01*
X113171969Y-132442017D01*
X113337495Y-132358404D01*
X113337497Y-132358403D01*
X113342996Y-132355625D01*
X113498847Y-132233861D01*
X113620545Y-132092872D01*
X113624049Y-132088813D01*
X113624050Y-132088811D01*
X113628078Y-132084145D01*
X113725769Y-131912179D01*
X113788197Y-131724513D01*
X113812985Y-131528295D01*
X113813380Y-131500000D01*
X113811993Y-131485851D01*
X126186719Y-131485851D01*
X126187235Y-131491995D01*
X126195280Y-131587800D01*
X126203268Y-131682934D01*
X126257783Y-131873050D01*
X126265609Y-131888277D01*
X126344375Y-132041538D01*
X126348187Y-132048956D01*
X126471035Y-132203953D01*
X126475728Y-132207947D01*
X126475729Y-132207948D01*
X126608723Y-132321134D01*
X126621650Y-132332136D01*
X126794294Y-132428624D01*
X126982392Y-132489740D01*
X127178777Y-132513158D01*
X127184912Y-132512686D01*
X127184914Y-132512686D01*
X127369830Y-132498457D01*
X127369834Y-132498456D01*
X127375972Y-132497984D01*
X127566463Y-132444798D01*
X127571967Y-132442018D01*
X127571969Y-132442017D01*
X127737495Y-132358404D01*
X127737497Y-132358403D01*
X127742996Y-132355625D01*
X127898847Y-132233861D01*
X128020545Y-132092872D01*
X128024049Y-132088813D01*
X128024050Y-132088811D01*
X128028078Y-132084145D01*
X128125769Y-131912179D01*
X128188197Y-131724513D01*
X128212985Y-131528295D01*
X128213380Y-131500000D01*
X128194080Y-131303167D01*
X128136916Y-131113831D01*
X128044066Y-130939204D01*
X127943438Y-130815822D01*
X127922960Y-130790713D01*
X127922957Y-130790710D01*
X127919065Y-130785938D01*
X127912724Y-130780692D01*
X127771425Y-130663799D01*
X127771421Y-130663797D01*
X127766675Y-130659870D01*
X127592701Y-130565802D01*
X127403768Y-130507318D01*
X127397643Y-130506674D01*
X127397642Y-130506674D01*
X127213204Y-130487289D01*
X127213202Y-130487289D01*
X127207075Y-130486645D01*
X127139410Y-130492803D01*
X127016251Y-130504011D01*
X127016248Y-130504012D01*
X127010112Y-130504570D01*
X127004206Y-130506308D01*
X127004202Y-130506309D01*
X126899076Y-130537249D01*
X126820381Y-130560410D01*
X126814923Y-130563263D01*
X126814919Y-130563265D01*
X126768297Y-130587639D01*
X126645110Y-130652040D01*
X126490975Y-130775968D01*
X126363846Y-130927474D01*
X126360879Y-130932872D01*
X126360875Y-130932877D01*
X126291559Y-131058965D01*
X126268567Y-131100787D01*
X126266706Y-131106654D01*
X126266705Y-131106656D01*
X126252946Y-131150031D01*
X126208765Y-131289306D01*
X126186719Y-131485851D01*
X113811993Y-131485851D01*
X113794080Y-131303167D01*
X113736916Y-131113831D01*
X113644066Y-130939204D01*
X113543438Y-130815822D01*
X113522960Y-130790713D01*
X113522957Y-130790710D01*
X113519065Y-130785938D01*
X113512724Y-130780692D01*
X113479184Y-130752945D01*
X113439446Y-130694111D01*
X113433500Y-130655861D01*
X113433500Y-119000000D01*
X118386526Y-119000000D01*
X118406391Y-119252403D01*
X118407545Y-119257210D01*
X118407546Y-119257216D01*
X118415659Y-119291007D01*
X118465495Y-119498591D01*
X118467388Y-119503162D01*
X118467389Y-119503164D01*
X118523643Y-119638972D01*
X118562384Y-119732502D01*
X118694672Y-119948376D01*
X118859102Y-120140898D01*
X119051624Y-120305328D01*
X119267498Y-120437616D01*
X119272068Y-120439509D01*
X119272072Y-120439511D01*
X119496836Y-120532611D01*
X119501409Y-120534505D01*
X119586032Y-120554821D01*
X119742784Y-120592454D01*
X119742790Y-120592455D01*
X119747597Y-120593609D01*
X119847416Y-120601465D01*
X119934345Y-120608307D01*
X119934352Y-120608307D01*
X119936801Y-120608500D01*
X120063199Y-120608500D01*
X120065648Y-120608307D01*
X120065655Y-120608307D01*
X120152584Y-120601465D01*
X120252403Y-120593609D01*
X120257210Y-120592455D01*
X120257216Y-120592454D01*
X120413968Y-120554821D01*
X120498591Y-120534505D01*
X120503164Y-120532611D01*
X120727928Y-120439511D01*
X120727932Y-120439509D01*
X120732502Y-120437616D01*
X120948376Y-120305328D01*
X121140898Y-120140898D01*
X121305328Y-119948376D01*
X121437616Y-119732502D01*
X121476358Y-119638972D01*
X121532611Y-119503164D01*
X121532612Y-119503162D01*
X121534505Y-119498591D01*
X121584341Y-119291007D01*
X121592454Y-119257216D01*
X121592455Y-119257210D01*
X121593609Y-119252403D01*
X121613474Y-119000000D01*
X121593609Y-118747597D01*
X121534505Y-118501409D01*
X121532611Y-118496836D01*
X121439511Y-118272072D01*
X121439509Y-118272068D01*
X121437616Y-118267498D01*
X121305328Y-118051624D01*
X121140898Y-117859102D01*
X120948376Y-117694672D01*
X120732502Y-117562384D01*
X120727932Y-117560491D01*
X120727928Y-117560489D01*
X120503164Y-117467389D01*
X120503162Y-117467388D01*
X120498591Y-117465495D01*
X120413968Y-117445179D01*
X120257216Y-117407546D01*
X120257210Y-117407545D01*
X120252403Y-117406391D01*
X120146283Y-117398039D01*
X120065655Y-117391693D01*
X120065648Y-117391693D01*
X120063199Y-117391500D01*
X119936801Y-117391500D01*
X119934352Y-117391693D01*
X119934345Y-117391693D01*
X119853717Y-117398039D01*
X119747597Y-117406391D01*
X119742790Y-117407545D01*
X119742784Y-117407546D01*
X119586032Y-117445179D01*
X119501409Y-117465495D01*
X119496838Y-117467388D01*
X119496836Y-117467389D01*
X119272072Y-117560489D01*
X119272068Y-117560491D01*
X119267498Y-117562384D01*
X119051624Y-117694672D01*
X118859102Y-117859102D01*
X118694672Y-118051624D01*
X118562384Y-118267498D01*
X118560491Y-118272068D01*
X118560489Y-118272072D01*
X118467389Y-118496836D01*
X118465495Y-118501409D01*
X118406391Y-118747597D01*
X118386526Y-119000000D01*
X113433500Y-119000000D01*
X113433500Y-107968767D01*
X113434027Y-107957584D01*
X113435702Y-107950091D01*
X113433562Y-107882000D01*
X113433500Y-107878043D01*
X113433500Y-107850144D01*
X113432996Y-107846153D01*
X113432063Y-107834311D01*
X113430923Y-107798036D01*
X113430674Y-107790111D01*
X113428462Y-107782497D01*
X113428461Y-107782492D01*
X113425023Y-107770659D01*
X113421012Y-107751295D01*
X113419467Y-107739064D01*
X113418474Y-107731203D01*
X113415557Y-107723836D01*
X113415556Y-107723831D01*
X113402198Y-107690092D01*
X113398354Y-107678865D01*
X113388230Y-107644022D01*
X113386018Y-107636407D01*
X113375707Y-107618972D01*
X113367012Y-107601224D01*
X113359552Y-107582383D01*
X113333564Y-107546613D01*
X113327048Y-107536693D01*
X113308580Y-107505465D01*
X113308578Y-107505462D01*
X113304542Y-107498638D01*
X113290221Y-107484317D01*
X113277380Y-107469283D01*
X113270131Y-107459306D01*
X113265472Y-107452893D01*
X113231395Y-107424702D01*
X113222616Y-107416712D01*
X110925037Y-105119132D01*
X112295698Y-105119132D01*
X112300607Y-105125690D01*
X112389118Y-105175157D01*
X112400357Y-105180067D01*
X112576641Y-105237345D01*
X112588615Y-105239978D01*
X112772676Y-105261926D01*
X112784925Y-105262183D01*
X112969742Y-105247962D01*
X112981822Y-105245831D01*
X113160345Y-105195986D01*
X113171778Y-105191552D01*
X113295507Y-105129052D01*
X113305791Y-105119407D01*
X113303553Y-105112763D01*
X112812812Y-104622022D01*
X112798868Y-104614408D01*
X112797035Y-104614539D01*
X112790420Y-104618790D01*
X112302458Y-105106752D01*
X112295698Y-105119132D01*
X110925037Y-105119132D01*
X110047907Y-104242002D01*
X111787738Y-104242002D01*
X111803248Y-104426705D01*
X111805461Y-104438764D01*
X111856554Y-104616945D01*
X111861066Y-104628342D01*
X111921148Y-104745250D01*
X111930865Y-104755468D01*
X111937666Y-104753124D01*
X112427978Y-104262812D01*
X112434356Y-104251132D01*
X113164408Y-104251132D01*
X113164539Y-104252965D01*
X113168790Y-104259580D01*
X113656661Y-104747451D01*
X113669041Y-104754211D01*
X113675775Y-104749170D01*
X113722262Y-104667337D01*
X113727256Y-104656121D01*
X113785759Y-104480253D01*
X113788479Y-104468281D01*
X113812039Y-104281784D01*
X113812531Y-104274757D01*
X113812828Y-104253523D01*
X113812533Y-104246494D01*
X113811489Y-104235851D01*
X126186719Y-104235851D01*
X126187613Y-104246494D01*
X126200449Y-104399357D01*
X126203268Y-104432934D01*
X126204967Y-104438858D01*
X126255343Y-104614539D01*
X126257783Y-104623050D01*
X126348187Y-104798956D01*
X126471035Y-104953953D01*
X126621650Y-105082136D01*
X126794294Y-105178624D01*
X126982392Y-105239740D01*
X127178777Y-105263158D01*
X127184912Y-105262686D01*
X127184914Y-105262686D01*
X127369830Y-105248457D01*
X127369834Y-105248456D01*
X127375972Y-105247984D01*
X127566463Y-105194798D01*
X127571967Y-105192018D01*
X127571969Y-105192017D01*
X127737495Y-105108404D01*
X127737497Y-105108403D01*
X127742996Y-105105625D01*
X127898847Y-104983861D01*
X128028078Y-104834145D01*
X128125769Y-104662179D01*
X128188197Y-104474513D01*
X128212985Y-104278295D01*
X128213380Y-104250000D01*
X128194080Y-104053167D01*
X128192143Y-104046749D01*
X128141187Y-103877978D01*
X128136916Y-103863831D01*
X128044066Y-103689204D01*
X127938281Y-103559499D01*
X127922960Y-103540713D01*
X127922957Y-103540710D01*
X127919065Y-103535938D01*
X127912724Y-103530692D01*
X127771425Y-103413799D01*
X127771421Y-103413797D01*
X127766675Y-103409870D01*
X127592701Y-103315802D01*
X127403768Y-103257318D01*
X127397643Y-103256674D01*
X127397642Y-103256674D01*
X127213204Y-103237289D01*
X127213202Y-103237289D01*
X127207075Y-103236645D01*
X127124576Y-103244153D01*
X127016251Y-103254011D01*
X127016248Y-103254012D01*
X127010112Y-103254570D01*
X127004206Y-103256308D01*
X127004202Y-103256309D01*
X126899076Y-103287249D01*
X126820381Y-103310410D01*
X126814923Y-103313263D01*
X126814919Y-103313265D01*
X126755357Y-103344404D01*
X126645110Y-103402040D01*
X126490975Y-103525968D01*
X126363846Y-103677474D01*
X126360879Y-103682872D01*
X126360875Y-103682877D01*
X126295513Y-103801772D01*
X126268567Y-103850787D01*
X126266706Y-103856654D01*
X126266705Y-103856656D01*
X126262496Y-103869924D01*
X126208765Y-104039306D01*
X126186719Y-104235851D01*
X113811489Y-104235851D01*
X113794188Y-104059397D01*
X113791805Y-104047362D01*
X113738233Y-103869924D01*
X113733559Y-103858584D01*
X113678562Y-103755148D01*
X113668702Y-103745067D01*
X113661575Y-103747635D01*
X113172022Y-104237188D01*
X113164408Y-104251132D01*
X112434356Y-104251132D01*
X112435592Y-104248868D01*
X112435461Y-104247035D01*
X112431210Y-104240420D01*
X111943121Y-103752331D01*
X111930741Y-103745571D01*
X111924353Y-103750353D01*
X111871997Y-103845586D01*
X111867166Y-103856858D01*
X111811120Y-104033538D01*
X111808570Y-104045532D01*
X111787909Y-104229733D01*
X111787738Y-104242002D01*
X110047907Y-104242002D01*
X109187006Y-103381101D01*
X112294820Y-103381101D01*
X112297274Y-103388064D01*
X112787188Y-103877978D01*
X112801132Y-103885592D01*
X112802965Y-103885461D01*
X112809580Y-103881210D01*
X113297834Y-103392956D01*
X113304594Y-103380576D01*
X113299935Y-103374353D01*
X113197924Y-103319196D01*
X113186619Y-103314444D01*
X113009554Y-103259633D01*
X112997541Y-103257167D01*
X112813199Y-103237792D01*
X112800931Y-103237707D01*
X112616345Y-103254505D01*
X112604296Y-103256803D01*
X112426483Y-103309137D01*
X112415108Y-103313732D01*
X112304969Y-103371312D01*
X112294820Y-103381101D01*
X109187006Y-103381101D01*
X107529500Y-101723595D01*
X107495474Y-101661283D01*
X107500539Y-101590468D01*
X107543086Y-101533632D01*
X107609606Y-101508821D01*
X107618595Y-101508500D01*
X129365500Y-101508500D01*
X129433621Y-101528502D01*
X129480114Y-101582158D01*
X129491500Y-101634500D01*
X129491500Y-139365500D01*
X129471498Y-139433621D01*
X129417842Y-139480114D01*
X129365500Y-139491500D01*
X63634500Y-139491500D01*
X63566379Y-139471498D01*
X63519886Y-139417842D01*
X63508500Y-139365500D01*
X63508500Y-101634500D01*
X63528502Y-101566379D01*
X63582158Y-101519886D01*
X63634500Y-101508500D01*
X69291406Y-101508500D01*
X69359527Y-101528502D01*
G37*
%TD.AperFunction*%
%TD*%
M02*
