M48
; DRILL file {KiCad (6.0.6-0)} date Monday, 04 July 2022 at 11:08:51
; FORMAT={-:-/ absolute / inch / decimal}
; #@! TF.CreationDate,2022-07-04T11:08:51+08:00
; #@! TF.GenerationSoftware,Kicad,Pcbnew,(6.0.6-0)
; #@! TF.FileFunction,Plated,1,2,PTH
FMAT,2
INCH
; #@! TA.AperFunction,Plated,PTH,ViaDrill
T1C0.0157
; #@! TA.AperFunction,Plated,PTH,ComponentDrill
T2C0.0295
; #@! TA.AperFunction,Plated,PTH,ComponentDrill
T3C0.0300
; #@! TA.AperFunction,Plated,PTH,ComponentDrill
T4C0.0394
%
G90
G05
T1
X2.5591Y-4.1339
X2.5591Y-4.5276
X2.5984Y-4.685
X2.5984Y-5.0394
X2.874Y-5.0394
X3.0315Y-4.4094
X3.2283Y-5.3543
X3.4646Y-4.5276
X3.5039Y-4.2913
X3.5827Y-5.4331
X3.7795Y-4.7638
X3.7795Y-4.8425
X3.8583Y-5.2362
X3.937Y-4.3701
X4.252Y-4.3701
X4.5669Y-5.2756
X4.8425Y-4.9213
X4.8819Y-4.4488
X5.0394Y-5.3543
T2
X3.622Y-5.1969
X3.672Y-5.1969
X3.722Y-5.1969
T3
X4.4409Y-4.1043
X4.4409Y-5.1772
X5.0079Y-4.1043
X5.0079Y-5.1772
T4
X2.588Y-5.1252
X2.588Y-5.2252
X2.588Y-5.3252
X2.588Y-5.4252
X2.5984Y-4.8425
X2.5984Y-4.9425
X2.688Y-5.1252
X2.688Y-5.2252
X2.688Y-5.3252
X2.688Y-5.4252
X2.7752Y-4.0705
X2.7752Y-4.6705
X2.8707Y-4.9213
X2.8752Y-4.0705
X2.8752Y-4.6705
X2.9707Y-4.9213
X2.9752Y-4.0705
X2.9752Y-4.6705
X3.0707Y-4.9213
X3.0752Y-4.0705
X3.0752Y-4.6705
X3.1707Y-4.9213
X3.1752Y-4.0705
X3.1752Y-4.6705
X3.2707Y-4.9213
X3.2752Y-4.0705
X3.2752Y-4.6705
X3.3752Y-4.0705
X3.3752Y-4.6705
X3.4614Y-4.9213
X3.4752Y-4.0705
X3.4752Y-4.6705
X3.5614Y-4.9213
X3.5752Y-4.0705
X3.5752Y-4.6705
X3.6614Y-4.9213
X3.6752Y-4.0705
X3.6752Y-4.6705
X3.7752Y-4.0705
X3.7752Y-4.6705
X3.8599Y-4.8554
X3.8599Y-5.0554
X3.8752Y-4.0705
X3.8752Y-4.6705
X3.9599Y-4.8554
X3.9599Y-5.0554
X3.9752Y-4.0705
X3.9752Y-4.6705
X4.0752Y-4.0705
X4.0752Y-4.6705
X4.1752Y-4.0705
X4.1752Y-4.6705
X4.2599Y-4.8554
X4.2599Y-5.0554
T0
M30
