M48
; DRILL file {KiCad (6.0.6-0)} date Monday, 04 July 2022 at 11:09:16
; FORMAT={-:-/ absolute / inch / decimal}
; #@! TF.CreationDate,2022-07-04T11:09:16+08:00
; #@! TF.GenerationSoftware,Kicad,Pcbnew,(6.0.6-0)
; #@! TF.FileFunction,Plated,1,2,PTH
FMAT,2
INCH
; #@! TA.AperFunction,Plated,PTH,ViaDrill
T1C0.0157
; #@! TA.AperFunction,Plated,PTH,ComponentDrill
T2C0.0295
; #@! TA.AperFunction,Plated,PTH,ComponentDrill
T3C0.0394
%
G90
G05
T1
X4.8819Y-3.5827
X4.9213Y-3.9764
X5.1181Y-4.4488
X5.1181Y-4.5276
X5.1969Y-4.8031
X5.2362Y-3.8976
X5.2362Y-4.6063
X5.315Y-4.5669
X5.3937Y-4.8031
X5.5512Y-4.252
X5.5906Y-4.0551
X5.8268Y-4.8031
X5.9055Y-3.5433
X5.9055Y-4.685
X6.0236Y-3.5433
X6.0236Y-4.2126
X6.063Y-4.0551
X6.1024Y-4.7244
X6.1811Y-3.5433
X6.4567Y-3.9764
X6.4567Y-4.9606
X6.4961Y-3.4646
X6.6929Y-5.0
T2
X6.1811Y-4.7638
X6.2311Y-4.7638
X6.2811Y-4.7638
T3
X4.9896Y-4.6528
X4.9896Y-4.7528
X4.9896Y-4.8528
X4.9896Y-4.9528
X5.0079Y-3.4252
X5.0896Y-4.6528
X5.0896Y-4.7528
X5.0896Y-4.8528
X5.0896Y-4.9528
X5.1354Y-3.7402
X5.1354Y-4.3402
X5.2354Y-3.7402
X5.2354Y-4.3402
X5.3071Y-3.4252
X5.3354Y-3.7402
X5.3354Y-4.3402
X5.4354Y-3.7402
X5.4354Y-4.3402
X5.5354Y-3.7402
X5.5354Y-4.3402
X5.5768Y-4.5276
X5.6354Y-3.7402
X5.6354Y-4.3402
X5.6768Y-4.5276
X5.7354Y-3.7402
X5.7354Y-4.3402
X5.7768Y-4.5276
X5.7874Y-3.4646
X5.8354Y-3.7402
X5.8354Y-4.3402
X5.8768Y-4.5276
X5.8874Y-3.4646
X5.9354Y-3.7402
X5.9354Y-4.3402
X5.9768Y-4.5276
X5.9874Y-3.4646
X6.0354Y-3.7402
X6.0354Y-4.3402
X6.0768Y-4.5276
X6.0874Y-3.4646
X6.1354Y-3.7402
X6.1354Y-4.3402
X6.1874Y-3.4646
X6.2354Y-3.7402
X6.2354Y-4.3402
X6.3354Y-3.7402
X6.3354Y-4.3402
X6.4354Y-3.7402
X6.4354Y-4.3402
X6.5354Y-3.7402
X6.5354Y-4.3402
X6.5748Y-4.5276
X6.5748Y-4.6276
X6.5748Y-4.7276
T0
M30
