%TF.GenerationSoftware,KiCad,Pcbnew,(6.0.6-0)*%
%TF.CreationDate,2022-07-16T17:32:29+08:00*%
%TF.ProjectId,__,8cc82e6b-6963-4616-945f-706362585858,rev?*%
%TF.SameCoordinates,Original*%
%TF.FileFunction,Soldermask,Top*%
%TF.FilePolarity,Negative*%
%FSLAX46Y46*%
G04 Gerber Fmt 4.6, Leading zero omitted, Abs format (unit mm)*
G04 Created by KiCad (PCBNEW (6.0.6-0)) date 2022-07-16 17:32:29*
%MOMM*%
%LPD*%
G01*
G04 APERTURE LIST*
%ADD10C,2.200000*%
%ADD11C,3.000000*%
%ADD12R,1.700000X1.700000*%
%ADD13O,1.700000X1.700000*%
%ADD14R,1.600000X1.600000*%
%ADD15O,1.600000X1.600000*%
%ADD16C,1.000000*%
%ADD17R,2.000000X2.000000*%
%ADD18C,2.000000*%
G04 APERTURE END LIST*
D10*
%TO.C,M2*%
X86000000Y-105000000D03*
%TD*%
D11*
%TO.C,H1_GND*%
X92000000Y-96000000D03*
%TD*%
D12*
%TO.C,J4_LIGHT*%
X127000000Y-101460000D03*
D13*
X127000000Y-104000000D03*
X127000000Y-106540000D03*
X127000000Y-109080000D03*
%TD*%
D12*
%TO.C,J2_BTN*%
X104000000Y-69000000D03*
D13*
X101460000Y-69000000D03*
%TD*%
D14*
%TO.C,Arduino1*%
X107050000Y-73390000D03*
D15*
X104510000Y-73390000D03*
X101970000Y-73390000D03*
X99430000Y-73390000D03*
X96890000Y-73390000D03*
X94350000Y-73390000D03*
X91810000Y-73390000D03*
X89270000Y-73390000D03*
X86730000Y-73390000D03*
X84190000Y-73390000D03*
X81650000Y-73390000D03*
X79110000Y-73390000D03*
X76570000Y-73390000D03*
X74030000Y-73390000D03*
X71490000Y-73390000D03*
X71490000Y-88630000D03*
X74030000Y-88630000D03*
X76570000Y-88630000D03*
X79110000Y-88630000D03*
X81650000Y-88630000D03*
X84190000Y-88630000D03*
X86730000Y-88630000D03*
X89270000Y-88630000D03*
X91810000Y-88630000D03*
X94350000Y-88630000D03*
X96890000Y-88630000D03*
X99430000Y-88630000D03*
X101970000Y-88630000D03*
X104510000Y-88630000D03*
X107050000Y-88630000D03*
%TD*%
D16*
%TO.C,TR1*%
X113800000Y-69250000D03*
X128200000Y-69250000D03*
X113800000Y-96500000D03*
X128200000Y-96500000D03*
%TD*%
D17*
%TO.C,K2*%
X120407500Y-109957500D03*
D18*
X120407500Y-107417500D03*
X120407500Y-99797500D03*
X115327500Y-99797500D03*
X115327500Y-107417500D03*
X115327500Y-109957500D03*
%TD*%
D10*
%TO.C,M2*%
X67000000Y-69000000D03*
%TD*%
%TO.C,M2*%
X89000000Y-81000000D03*
%TD*%
D17*
%TO.C,K1*%
X99042500Y-109407500D03*
D18*
X101582500Y-109407500D03*
X109202500Y-109407500D03*
X109202500Y-104327500D03*
X101582500Y-104327500D03*
X99042500Y-104327500D03*
%TD*%
D12*
%TO.C,J3_2.4G*%
X69000000Y-109080000D03*
D13*
X66460000Y-109080000D03*
X69000000Y-106540000D03*
X66460000Y-106540000D03*
X69000000Y-104000000D03*
X66460000Y-104000000D03*
X69000000Y-101460000D03*
X66460000Y-101460000D03*
%TD*%
D12*
%TO.C,J6_PWR*%
X78000000Y-96000000D03*
D13*
X75460000Y-96000000D03*
%TD*%
D11*
%TO.C,H2_BAT*%
X86000000Y-96000000D03*
%TD*%
D12*
%TO.C,J1_LED*%
X83925000Y-68000000D03*
D13*
X86465000Y-68000000D03*
X89005000Y-68000000D03*
X91545000Y-68000000D03*
X94085000Y-68000000D03*
%TD*%
D17*
%TO.C,K3*%
X99042500Y-100407500D03*
D18*
X101582500Y-100407500D03*
X109202500Y-100407500D03*
X109202500Y-95327500D03*
X101582500Y-95327500D03*
X99042500Y-95327500D03*
%TD*%
D10*
%TO.C,M2*%
X121000000Y-85000000D03*
%TD*%
M02*
