%TF.GenerationSoftware,KiCad,Pcbnew,(6.0.6-0)*%
%TF.CreationDate,2022-07-04T00:10:09+08:00*%
%TF.ProjectId,test,74657374-2e6b-4696-9361-645f70636258,rev?*%
%TF.SameCoordinates,Original*%
%TF.FileFunction,Legend,Top*%
%TF.FilePolarity,Positive*%
%FSLAX46Y46*%
G04 Gerber Fmt 4.6, Leading zero omitted, Abs format (unit mm)*
G04 Created by KiCad (PCBNEW (6.0.6-0)) date 2022-07-04 00:10:09*
%MOMM*%
%LPD*%
G01*
G04 APERTURE LIST*
%ADD10C,0.150000*%
%ADD11C,0.120000*%
G04 APERTURE END LIST*
D10*
X132571428Y-116222428D02*
X133000000Y-116222428D01*
X132285714Y-116308142D02*
X132514285Y-116308142D01*
X132542857Y-116422428D02*
X133028571Y-116422428D01*
X132542857Y-116536714D02*
X133028571Y-116536714D01*
X132314285Y-116822428D02*
X132428571Y-116822428D01*
X132428571Y-116136714D02*
X132428571Y-116822428D01*
X132800000Y-116136714D02*
X132800000Y-116251000D01*
X132914285Y-116251000D02*
X132885714Y-116393857D01*
X132685714Y-116279571D02*
X132714285Y-116422428D01*
X132628571Y-116679571D01*
X133000000Y-116822428D01*
X132514285Y-116508142D02*
X132285714Y-116565285D01*
X132914285Y-116536714D02*
X132857142Y-116679571D01*
X132800000Y-116736714D01*
X132542857Y-116822428D01*
X133714285Y-116336714D02*
X133914285Y-116336714D01*
X133200000Y-116422428D02*
X133485714Y-116422428D01*
X133200000Y-116508142D02*
X133514285Y-116508142D01*
X133285714Y-116622428D02*
X133514285Y-116622428D01*
X133200000Y-116622428D02*
X133457142Y-116622428D01*
X133600000Y-116793857D02*
X133885714Y-116793857D01*
X133200000Y-116165285D02*
X133200000Y-116393857D01*
X133285714Y-116251000D02*
X133285714Y-116336714D01*
X133285714Y-116679571D02*
X133314285Y-116793857D01*
X133342857Y-116165285D02*
X133342857Y-116622428D01*
X133200000Y-116165285D02*
X133485714Y-116165285D01*
X133485714Y-116393857D01*
X133600000Y-116508142D02*
X133600000Y-116822428D01*
X133714285Y-116136714D02*
X133714285Y-116508142D01*
X133600000Y-116508142D02*
X133885714Y-116508142D01*
X133885714Y-116822428D01*
X133485714Y-116679571D02*
X133514285Y-116765285D01*
X133371428Y-116679571D02*
X133428571Y-116793857D01*
X133428571Y-116251000D02*
X133400000Y-116365285D01*
X133200000Y-116708142D02*
X133200000Y-116822428D01*
X134057142Y-116279571D02*
X134800000Y-116279571D01*
X134342857Y-116536714D02*
X134742857Y-116536714D01*
X134314285Y-116822428D02*
X134771428Y-116822428D01*
X134228571Y-116451000D02*
X134228571Y-116822428D01*
X134542857Y-116336714D02*
X134542857Y-116822428D01*
X134371428Y-116136714D02*
X134228571Y-116451000D01*
X134057142Y-116565285D01*
X134971428Y-116308142D02*
X135685714Y-116308142D01*
X135171428Y-116508142D02*
X135628571Y-116508142D01*
X135085714Y-116822428D02*
X135685714Y-116822428D01*
X135400000Y-116508142D02*
X135400000Y-116822428D01*
X135228571Y-116165285D02*
X135171428Y-116479571D01*
X135057142Y-116679571D01*
X134942857Y-116793857D01*
X131985714Y-117731285D02*
X131957142Y-117759857D01*
X131871428Y-117788428D01*
X131814285Y-117788428D01*
X131728571Y-117759857D01*
X131671428Y-117702714D01*
X131642857Y-117645571D01*
X131614285Y-117531285D01*
X131614285Y-117445571D01*
X131642857Y-117331285D01*
X131671428Y-117274142D01*
X131728571Y-117217000D01*
X131814285Y-117188428D01*
X131871428Y-117188428D01*
X131957142Y-117217000D01*
X131985714Y-117245571D01*
X132328571Y-117788428D02*
X132271428Y-117759857D01*
X132242857Y-117731285D01*
X132214285Y-117674142D01*
X132214285Y-117502714D01*
X132242857Y-117445571D01*
X132271428Y-117417000D01*
X132328571Y-117388428D01*
X132414285Y-117388428D01*
X132471428Y-117417000D01*
X132500000Y-117445571D01*
X132528571Y-117502714D01*
X132528571Y-117674142D01*
X132500000Y-117731285D01*
X132471428Y-117759857D01*
X132414285Y-117788428D01*
X132328571Y-117788428D01*
X132785714Y-117388428D02*
X132785714Y-117788428D01*
X132785714Y-117445571D02*
X132814285Y-117417000D01*
X132871428Y-117388428D01*
X132957142Y-117388428D01*
X133014285Y-117417000D01*
X133042857Y-117474142D01*
X133042857Y-117788428D01*
X133328571Y-117388428D02*
X133328571Y-117788428D01*
X133328571Y-117445571D02*
X133357142Y-117417000D01*
X133414285Y-117388428D01*
X133500000Y-117388428D01*
X133557142Y-117417000D01*
X133585714Y-117474142D01*
X133585714Y-117788428D01*
X134100000Y-117759857D02*
X134042857Y-117788428D01*
X133928571Y-117788428D01*
X133871428Y-117759857D01*
X133842857Y-117702714D01*
X133842857Y-117474142D01*
X133871428Y-117417000D01*
X133928571Y-117388428D01*
X134042857Y-117388428D01*
X134100000Y-117417000D01*
X134128571Y-117474142D01*
X134128571Y-117531285D01*
X133842857Y-117588428D01*
X134642857Y-117759857D02*
X134585714Y-117788428D01*
X134471428Y-117788428D01*
X134414285Y-117759857D01*
X134385714Y-117731285D01*
X134357142Y-117674142D01*
X134357142Y-117502714D01*
X134385714Y-117445571D01*
X134414285Y-117417000D01*
X134471428Y-117388428D01*
X134585714Y-117388428D01*
X134642857Y-117417000D01*
X134814285Y-117388428D02*
X135042857Y-117388428D01*
X134900000Y-117188428D02*
X134900000Y-117702714D01*
X134928571Y-117759857D01*
X134985714Y-117788428D01*
X135042857Y-117788428D01*
X135328571Y-117788428D02*
X135271428Y-117759857D01*
X135242857Y-117731285D01*
X135214285Y-117674142D01*
X135214285Y-117502714D01*
X135242857Y-117445571D01*
X135271428Y-117417000D01*
X135328571Y-117388428D01*
X135414285Y-117388428D01*
X135471428Y-117417000D01*
X135500000Y-117445571D01*
X135528571Y-117502714D01*
X135528571Y-117674142D01*
X135500000Y-117731285D01*
X135471428Y-117759857D01*
X135414285Y-117788428D01*
X135328571Y-117788428D01*
X135785714Y-117788428D02*
X135785714Y-117388428D01*
X135785714Y-117502714D02*
X135814285Y-117445571D01*
X135842857Y-117417000D01*
X135900000Y-117388428D01*
X135957142Y-117388428D01*
X136128571Y-117759857D02*
X136185714Y-117788428D01*
X136300000Y-117788428D01*
X136357142Y-117759857D01*
X136385714Y-117702714D01*
X136385714Y-117674142D01*
X136357142Y-117617000D01*
X136300000Y-117588428D01*
X136214285Y-117588428D01*
X136157142Y-117559857D01*
X136128571Y-117502714D01*
X136128571Y-117474142D01*
X136157142Y-117417000D01*
X136214285Y-117388428D01*
X136300000Y-117388428D01*
X136357142Y-117417000D01*
X132528571Y-118754428D02*
X132471428Y-118725857D01*
X132442857Y-118697285D01*
X132414285Y-118640142D01*
X132414285Y-118468714D01*
X132442857Y-118411571D01*
X132471428Y-118383000D01*
X132528571Y-118354428D01*
X132614285Y-118354428D01*
X132671428Y-118383000D01*
X132700000Y-118411571D01*
X132728571Y-118468714D01*
X132728571Y-118640142D01*
X132700000Y-118697285D01*
X132671428Y-118725857D01*
X132614285Y-118754428D01*
X132528571Y-118754428D01*
X132985714Y-118354428D02*
X132985714Y-118754428D01*
X132985714Y-118411571D02*
X133014285Y-118383000D01*
X133071428Y-118354428D01*
X133157142Y-118354428D01*
X133214285Y-118383000D01*
X133242857Y-118440142D01*
X133242857Y-118754428D01*
X133900000Y-118354428D02*
X134128571Y-118354428D01*
X133985714Y-118154428D02*
X133985714Y-118668714D01*
X134014285Y-118725857D01*
X134071428Y-118754428D01*
X134128571Y-118754428D01*
X134328571Y-118754428D02*
X134328571Y-118154428D01*
X134585714Y-118754428D02*
X134585714Y-118440142D01*
X134557142Y-118383000D01*
X134500000Y-118354428D01*
X134414285Y-118354428D01*
X134357142Y-118383000D01*
X134328571Y-118411571D01*
X135100000Y-118725857D02*
X135042857Y-118754428D01*
X134928571Y-118754428D01*
X134871428Y-118725857D01*
X134842857Y-118668714D01*
X134842857Y-118440142D01*
X134871428Y-118383000D01*
X134928571Y-118354428D01*
X135042857Y-118354428D01*
X135100000Y-118383000D01*
X135128571Y-118440142D01*
X135128571Y-118497285D01*
X134842857Y-118554428D01*
X133471428Y-119720428D02*
X133414285Y-119691857D01*
X133385714Y-119634714D01*
X133385714Y-119120428D01*
X133928571Y-119691857D02*
X133871428Y-119720428D01*
X133757142Y-119720428D01*
X133700000Y-119691857D01*
X133671428Y-119634714D01*
X133671428Y-119406142D01*
X133700000Y-119349000D01*
X133757142Y-119320428D01*
X133871428Y-119320428D01*
X133928571Y-119349000D01*
X133957142Y-119406142D01*
X133957142Y-119463285D01*
X133671428Y-119520428D01*
X134128571Y-119320428D02*
X134357142Y-119320428D01*
X134214285Y-119720428D02*
X134214285Y-119206142D01*
X134242857Y-119149000D01*
X134300000Y-119120428D01*
X134357142Y-119120428D01*
X134471428Y-119320428D02*
X134700000Y-119320428D01*
X134557142Y-119120428D02*
X134557142Y-119634714D01*
X134585714Y-119691857D01*
X134642857Y-119720428D01*
X134700000Y-119720428D01*
X131261904Y-101647380D02*
X131261904Y-102456904D01*
X131309523Y-102552142D01*
X131357142Y-102599761D01*
X131452380Y-102647380D01*
X131642857Y-102647380D01*
X131738095Y-102599761D01*
X131785714Y-102552142D01*
X131833333Y-102456904D01*
X131833333Y-101647380D01*
X132261904Y-102599761D02*
X132404761Y-102647380D01*
X132642857Y-102647380D01*
X132738095Y-102599761D01*
X132785714Y-102552142D01*
X132833333Y-102456904D01*
X132833333Y-102361666D01*
X132785714Y-102266428D01*
X132738095Y-102218809D01*
X132642857Y-102171190D01*
X132452380Y-102123571D01*
X132357142Y-102075952D01*
X132309523Y-102028333D01*
X132261904Y-101933095D01*
X132261904Y-101837857D01*
X132309523Y-101742619D01*
X132357142Y-101695000D01*
X132452380Y-101647380D01*
X132690476Y-101647380D01*
X132833333Y-101695000D01*
X133595238Y-102123571D02*
X133738095Y-102171190D01*
X133785714Y-102218809D01*
X133833333Y-102314047D01*
X133833333Y-102456904D01*
X133785714Y-102552142D01*
X133738095Y-102599761D01*
X133642857Y-102647380D01*
X133261904Y-102647380D01*
X133261904Y-101647380D01*
X133595238Y-101647380D01*
X133690476Y-101695000D01*
X133738095Y-101742619D01*
X133785714Y-101837857D01*
X133785714Y-101933095D01*
X133738095Y-102028333D01*
X133690476Y-102075952D01*
X133595238Y-102123571D01*
X133261904Y-102123571D01*
X134119047Y-101742619D02*
X135357142Y-101742619D01*
X134595238Y-102171190D02*
X135261904Y-102171190D01*
X134547619Y-102647380D02*
X135309523Y-102647380D01*
X134404761Y-102028333D02*
X134404761Y-102647380D01*
X134928571Y-101837857D02*
X134928571Y-102647380D01*
X134642857Y-101504523D02*
X134404761Y-102028333D01*
X134119047Y-102218809D01*
X135642857Y-101790238D02*
X136833333Y-101790238D01*
X135976190Y-102123571D02*
X136738095Y-102123571D01*
X135833333Y-102647380D02*
X136833333Y-102647380D01*
X136357142Y-102123571D02*
X136357142Y-102647380D01*
X136071428Y-101552142D02*
X135976190Y-102075952D01*
X135785714Y-102409285D01*
X135595238Y-102599761D01*
X128261904Y-103257380D02*
X128261904Y-104066904D01*
X128309523Y-104162142D01*
X128357142Y-104209761D01*
X128452380Y-104257380D01*
X128642857Y-104257380D01*
X128738095Y-104209761D01*
X128785714Y-104162142D01*
X128833333Y-104066904D01*
X128833333Y-103257380D01*
X129261904Y-104209761D02*
X129404761Y-104257380D01*
X129642857Y-104257380D01*
X129738095Y-104209761D01*
X129785714Y-104162142D01*
X129833333Y-104066904D01*
X129833333Y-103971666D01*
X129785714Y-103876428D01*
X129738095Y-103828809D01*
X129642857Y-103781190D01*
X129452380Y-103733571D01*
X129357142Y-103685952D01*
X129309523Y-103638333D01*
X129261904Y-103543095D01*
X129261904Y-103447857D01*
X129309523Y-103352619D01*
X129357142Y-103305000D01*
X129452380Y-103257380D01*
X129690476Y-103257380D01*
X129833333Y-103305000D01*
X130595238Y-103733571D02*
X130738095Y-103781190D01*
X130785714Y-103828809D01*
X130833333Y-103924047D01*
X130833333Y-104066904D01*
X130785714Y-104162142D01*
X130738095Y-104209761D01*
X130642857Y-104257380D01*
X130261904Y-104257380D01*
X130261904Y-103257380D01*
X130595238Y-103257380D01*
X130690476Y-103305000D01*
X130738095Y-103352619D01*
X130785714Y-103447857D01*
X130785714Y-103543095D01*
X130738095Y-103638333D01*
X130690476Y-103685952D01*
X130595238Y-103733571D01*
X130261904Y-103733571D01*
X132166666Y-104257380D02*
X132071428Y-104209761D01*
X132023809Y-104162142D01*
X131976190Y-104066904D01*
X131976190Y-103781190D01*
X132023809Y-103685952D01*
X132071428Y-103638333D01*
X132166666Y-103590714D01*
X132309523Y-103590714D01*
X132404761Y-103638333D01*
X132452380Y-103685952D01*
X132500000Y-103781190D01*
X132500000Y-104066904D01*
X132452380Y-104162142D01*
X132404761Y-104209761D01*
X132309523Y-104257380D01*
X132166666Y-104257380D01*
X132928571Y-103590714D02*
X132928571Y-104257380D01*
X132928571Y-103685952D02*
X132976190Y-103638333D01*
X133071428Y-103590714D01*
X133214285Y-103590714D01*
X133309523Y-103638333D01*
X133357142Y-103733571D01*
X133357142Y-104257380D01*
X134452380Y-103590714D02*
X134833333Y-103590714D01*
X134595238Y-103257380D02*
X134595238Y-104114523D01*
X134642857Y-104209761D01*
X134738095Y-104257380D01*
X134833333Y-104257380D01*
X135166666Y-104257380D02*
X135166666Y-103257380D01*
X135595238Y-104257380D02*
X135595238Y-103733571D01*
X135547619Y-103638333D01*
X135452380Y-103590714D01*
X135309523Y-103590714D01*
X135214285Y-103638333D01*
X135166666Y-103685952D01*
X136452380Y-104209761D02*
X136357142Y-104257380D01*
X136166666Y-104257380D01*
X136071428Y-104209761D01*
X136023809Y-104114523D01*
X136023809Y-103733571D01*
X136071428Y-103638333D01*
X136166666Y-103590714D01*
X136357142Y-103590714D01*
X136452380Y-103638333D01*
X136500000Y-103733571D01*
X136500000Y-103828809D01*
X136023809Y-103924047D01*
X137833333Y-104257380D02*
X137738095Y-104209761D01*
X137690476Y-104114523D01*
X137690476Y-103257380D01*
X138595238Y-104209761D02*
X138500000Y-104257380D01*
X138309523Y-104257380D01*
X138214285Y-104209761D01*
X138166666Y-104114523D01*
X138166666Y-103733571D01*
X138214285Y-103638333D01*
X138309523Y-103590714D01*
X138500000Y-103590714D01*
X138595238Y-103638333D01*
X138642857Y-103733571D01*
X138642857Y-103828809D01*
X138166666Y-103924047D01*
X138928571Y-103590714D02*
X139309523Y-103590714D01*
X139071428Y-104257380D02*
X139071428Y-103400238D01*
X139119047Y-103305000D01*
X139214285Y-103257380D01*
X139309523Y-103257380D01*
X139500000Y-103590714D02*
X139880952Y-103590714D01*
X139642857Y-103257380D02*
X139642857Y-104114523D01*
X139690476Y-104209761D01*
X139785714Y-104257380D01*
X139880952Y-104257380D01*
X138642857Y-81785714D02*
X138642857Y-82595238D01*
X138595238Y-82690476D01*
X138547619Y-82738095D01*
X138452380Y-82785714D01*
X138309523Y-82785714D01*
X138214285Y-82738095D01*
X138642857Y-82404761D02*
X138547619Y-82452380D01*
X138357142Y-82452380D01*
X138261904Y-82404761D01*
X138214285Y-82357142D01*
X138166666Y-82261904D01*
X138166666Y-81976190D01*
X138214285Y-81880952D01*
X138261904Y-81833333D01*
X138357142Y-81785714D01*
X138547619Y-81785714D01*
X138642857Y-81833333D01*
X139119047Y-82452380D02*
X139119047Y-81785714D01*
X139119047Y-81452380D02*
X139071428Y-81500000D01*
X139119047Y-81547619D01*
X139166666Y-81500000D01*
X139119047Y-81452380D01*
X139119047Y-81547619D01*
X139452380Y-81785714D02*
X139833333Y-81785714D01*
X139595238Y-81452380D02*
X139595238Y-82309523D01*
X139642857Y-82404761D01*
X139738095Y-82452380D01*
X139833333Y-82452380D01*
X140166666Y-82452380D02*
X140166666Y-81452380D01*
X140595238Y-82452380D02*
X140595238Y-81928571D01*
X140547619Y-81833333D01*
X140452380Y-81785714D01*
X140309523Y-81785714D01*
X140214285Y-81833333D01*
X140166666Y-81880952D01*
X141500000Y-81785714D02*
X141500000Y-82452380D01*
X141071428Y-81785714D02*
X141071428Y-82309523D01*
X141119047Y-82404761D01*
X141214285Y-82452380D01*
X141357142Y-82452380D01*
X141452380Y-82404761D01*
X141500000Y-82357142D01*
X141976190Y-82452380D02*
X141976190Y-81452380D01*
X141976190Y-81833333D02*
X142071428Y-81785714D01*
X142261904Y-81785714D01*
X142357142Y-81833333D01*
X142404761Y-81880952D01*
X142452380Y-81976190D01*
X142452380Y-82261904D01*
X142404761Y-82357142D01*
X142357142Y-82404761D01*
X142261904Y-82452380D01*
X142071428Y-82452380D01*
X141976190Y-82404761D01*
X142880952Y-82357142D02*
X142928571Y-82404761D01*
X142880952Y-82452380D01*
X142833333Y-82404761D01*
X142880952Y-82357142D01*
X142880952Y-82452380D01*
X143785714Y-82404761D02*
X143690476Y-82452380D01*
X143500000Y-82452380D01*
X143404761Y-82404761D01*
X143357142Y-82357142D01*
X143309523Y-82261904D01*
X143309523Y-81976190D01*
X143357142Y-81880952D01*
X143404761Y-81833333D01*
X143500000Y-81785714D01*
X143690476Y-81785714D01*
X143785714Y-81833333D01*
X144357142Y-82452380D02*
X144261904Y-82404761D01*
X144214285Y-82357142D01*
X144166666Y-82261904D01*
X144166666Y-81976190D01*
X144214285Y-81880952D01*
X144261904Y-81833333D01*
X144357142Y-81785714D01*
X144500000Y-81785714D01*
X144595238Y-81833333D01*
X144642857Y-81880952D01*
X144690476Y-81976190D01*
X144690476Y-82261904D01*
X144642857Y-82357142D01*
X144595238Y-82404761D01*
X144500000Y-82452380D01*
X144357142Y-82452380D01*
X145119047Y-82452380D02*
X145119047Y-81785714D01*
X145119047Y-81880952D02*
X145166666Y-81833333D01*
X145261904Y-81785714D01*
X145404761Y-81785714D01*
X145500000Y-81833333D01*
X145547619Y-81928571D01*
X145547619Y-82452380D01*
X145547619Y-81928571D02*
X145595238Y-81833333D01*
X145690476Y-81785714D01*
X145833333Y-81785714D01*
X145928571Y-81833333D01*
X145976190Y-81928571D01*
X145976190Y-82452380D01*
X147166666Y-81404761D02*
X146309523Y-82690476D01*
X147452380Y-82404761D02*
X147595238Y-82452380D01*
X147833333Y-82452380D01*
X147928571Y-82404761D01*
X147976190Y-82357142D01*
X148023809Y-82261904D01*
X148023809Y-82166666D01*
X147976190Y-82071428D01*
X147928571Y-82023809D01*
X147833333Y-81976190D01*
X147642857Y-81928571D01*
X147547619Y-81880952D01*
X147500000Y-81833333D01*
X147452380Y-81738095D01*
X147452380Y-81642857D01*
X147500000Y-81547619D01*
X147547619Y-81500000D01*
X147642857Y-81452380D01*
X147880952Y-81452380D01*
X148023809Y-81500000D01*
X148880952Y-82452380D02*
X148880952Y-81928571D01*
X148833333Y-81833333D01*
X148738095Y-81785714D01*
X148547619Y-81785714D01*
X148452380Y-81833333D01*
X148880952Y-82404761D02*
X148785714Y-82452380D01*
X148547619Y-82452380D01*
X148452380Y-82404761D01*
X148404761Y-82309523D01*
X148404761Y-82214285D01*
X148452380Y-82119047D01*
X148547619Y-82071428D01*
X148785714Y-82071428D01*
X148880952Y-82023809D01*
X149357142Y-82452380D02*
X149357142Y-81785714D01*
X149357142Y-81880952D02*
X149404761Y-81833333D01*
X149500000Y-81785714D01*
X149642857Y-81785714D01*
X149738095Y-81833333D01*
X149785714Y-81928571D01*
X149785714Y-82452380D01*
X149785714Y-81928571D02*
X149833333Y-81833333D01*
X149928571Y-81785714D01*
X150071428Y-81785714D01*
X150166666Y-81833333D01*
X150214285Y-81928571D01*
X150214285Y-82452380D01*
X150595238Y-81452380D02*
X150833333Y-82452380D01*
X151023809Y-81738095D01*
X151214285Y-82452380D01*
X151452380Y-81452380D01*
X152261904Y-82452380D02*
X152261904Y-81928571D01*
X152214285Y-81833333D01*
X152119047Y-81785714D01*
X151928571Y-81785714D01*
X151833333Y-81833333D01*
X152261904Y-82404761D02*
X152166666Y-82452380D01*
X151928571Y-82452380D01*
X151833333Y-82404761D01*
X151785714Y-82309523D01*
X151785714Y-82214285D01*
X151833333Y-82119047D01*
X151928571Y-82071428D01*
X152166666Y-82071428D01*
X152261904Y-82023809D01*
X152738095Y-81785714D02*
X152738095Y-82452380D01*
X152738095Y-81880952D02*
X152785714Y-81833333D01*
X152880952Y-81785714D01*
X153023809Y-81785714D01*
X153119047Y-81833333D01*
X153166666Y-81928571D01*
X153166666Y-82452380D01*
X154071428Y-81785714D02*
X154071428Y-82595238D01*
X154023809Y-82690476D01*
X153976190Y-82738095D01*
X153880952Y-82785714D01*
X153738095Y-82785714D01*
X153642857Y-82738095D01*
X154071428Y-82404761D02*
X153976190Y-82452380D01*
X153785714Y-82452380D01*
X153690476Y-82404761D01*
X153642857Y-82357142D01*
X153595238Y-82261904D01*
X153595238Y-81976190D01*
X153642857Y-81880952D01*
X153690476Y-81833333D01*
X153785714Y-81785714D01*
X153976190Y-81785714D01*
X154071428Y-81833333D01*
X154690476Y-81880952D02*
X154595238Y-81833333D01*
X154547619Y-81785714D01*
X154500000Y-81690476D01*
X154500000Y-81642857D01*
X154547619Y-81547619D01*
X154595238Y-81500000D01*
X154690476Y-81452380D01*
X154880952Y-81452380D01*
X154976190Y-81500000D01*
X155023809Y-81547619D01*
X155071428Y-81642857D01*
X155071428Y-81690476D01*
X155023809Y-81785714D01*
X154976190Y-81833333D01*
X154880952Y-81880952D01*
X154690476Y-81880952D01*
X154595238Y-81928571D01*
X154547619Y-81976190D01*
X154500000Y-82071428D01*
X154500000Y-82261904D01*
X154547619Y-82357142D01*
X154595238Y-82404761D01*
X154690476Y-82452380D01*
X154880952Y-82452380D01*
X154976190Y-82404761D01*
X155023809Y-82357142D01*
X155071428Y-82261904D01*
X155071428Y-82071428D01*
X155023809Y-81976190D01*
X154976190Y-81928571D01*
X154880952Y-81880952D01*
X155642857Y-81880952D02*
X155547619Y-81833333D01*
X155500000Y-81785714D01*
X155452380Y-81690476D01*
X155452380Y-81642857D01*
X155500000Y-81547619D01*
X155547619Y-81500000D01*
X155642857Y-81452380D01*
X155833333Y-81452380D01*
X155928571Y-81500000D01*
X155976190Y-81547619D01*
X156023809Y-81642857D01*
X156023809Y-81690476D01*
X155976190Y-81785714D01*
X155928571Y-81833333D01*
X155833333Y-81880952D01*
X155642857Y-81880952D01*
X155547619Y-81928571D01*
X155500000Y-81976190D01*
X155452380Y-82071428D01*
X155452380Y-82261904D01*
X155500000Y-82357142D01*
X155547619Y-82404761D01*
X155642857Y-82452380D01*
X155833333Y-82452380D01*
X155928571Y-82404761D01*
X155976190Y-82357142D01*
X156023809Y-82261904D01*
X156023809Y-82071428D01*
X155976190Y-81976190D01*
X155928571Y-81928571D01*
X155833333Y-81880952D01*
X156500000Y-82452380D02*
X156690476Y-82452380D01*
X156785714Y-82404761D01*
X156833333Y-82357142D01*
X156928571Y-82214285D01*
X156976190Y-82023809D01*
X156976190Y-81642857D01*
X156928571Y-81547619D01*
X156880952Y-81500000D01*
X156785714Y-81452380D01*
X156595238Y-81452380D01*
X156500000Y-81500000D01*
X156452380Y-81547619D01*
X156404761Y-81642857D01*
X156404761Y-81880952D01*
X156452380Y-81976190D01*
X156500000Y-82023809D01*
X156595238Y-82071428D01*
X156785714Y-82071428D01*
X156880952Y-82023809D01*
X156928571Y-81976190D01*
X156976190Y-81880952D01*
X157928571Y-82452380D02*
X157357142Y-82452380D01*
X157642857Y-82452380D02*
X157642857Y-81452380D01*
X157547619Y-81595238D01*
X157452380Y-81690476D01*
X157357142Y-81738095D01*
X158214285Y-81452380D02*
X158785714Y-81452380D01*
X158500000Y-82452380D02*
X158500000Y-81452380D01*
X159023809Y-81452380D02*
X159261904Y-82452380D01*
X159452380Y-81738095D01*
X159642857Y-82452380D01*
X159880952Y-81452380D01*
%TO.C,H1_Vib+*%
X137119047Y-89304380D02*
X137119047Y-88304380D01*
X137119047Y-88780571D02*
X137690476Y-88780571D01*
X137690476Y-89304380D02*
X137690476Y-88304380D01*
X138690476Y-89304380D02*
X138119047Y-89304380D01*
X138404761Y-89304380D02*
X138404761Y-88304380D01*
X138309523Y-88447238D01*
X138214285Y-88542476D01*
X138119047Y-88590095D01*
X138880952Y-89399619D02*
X139642857Y-89399619D01*
X139738095Y-88304380D02*
X140071428Y-89304380D01*
X140404761Y-88304380D01*
X140738095Y-89304380D02*
X140738095Y-88637714D01*
X140738095Y-88304380D02*
X140690476Y-88352000D01*
X140738095Y-88399619D01*
X140785714Y-88352000D01*
X140738095Y-88304380D01*
X140738095Y-88399619D01*
X141214285Y-89304380D02*
X141214285Y-88304380D01*
X141214285Y-88685333D02*
X141309523Y-88637714D01*
X141500000Y-88637714D01*
X141595238Y-88685333D01*
X141642857Y-88732952D01*
X141690476Y-88828190D01*
X141690476Y-89113904D01*
X141642857Y-89209142D01*
X141595238Y-89256761D01*
X141500000Y-89304380D01*
X141309523Y-89304380D01*
X141214285Y-89256761D01*
X142119047Y-88923428D02*
X142880952Y-88923428D01*
X142500000Y-89304380D02*
X142500000Y-88542476D01*
%TO.C,M2*%
X168190476Y-84452380D02*
X168190476Y-83452380D01*
X168523809Y-84166666D01*
X168857142Y-83452380D01*
X168857142Y-84452380D01*
X169285714Y-83547619D02*
X169333333Y-83500000D01*
X169428571Y-83452380D01*
X169666666Y-83452380D01*
X169761904Y-83500000D01*
X169809523Y-83547619D01*
X169857142Y-83642857D01*
X169857142Y-83738095D01*
X169809523Y-83880952D01*
X169238095Y-84452380D01*
X169857142Y-84452380D01*
%TO.C,Q1*%
X158174761Y-117547619D02*
X158079523Y-117500000D01*
X157984285Y-117404761D01*
X157841428Y-117261904D01*
X157746190Y-117214285D01*
X157650952Y-117214285D01*
X157698571Y-117452380D02*
X157603333Y-117404761D01*
X157508095Y-117309523D01*
X157460476Y-117119047D01*
X157460476Y-116785714D01*
X157508095Y-116595238D01*
X157603333Y-116500000D01*
X157698571Y-116452380D01*
X157889047Y-116452380D01*
X157984285Y-116500000D01*
X158079523Y-116595238D01*
X158127142Y-116785714D01*
X158127142Y-117119047D01*
X158079523Y-117309523D01*
X157984285Y-117404761D01*
X157889047Y-117452380D01*
X157698571Y-117452380D01*
X159079523Y-117452380D02*
X158508095Y-117452380D01*
X158793809Y-117452380D02*
X158793809Y-116452380D01*
X158698571Y-116595238D01*
X158603333Y-116690476D01*
X158508095Y-116738095D01*
%TO.C,J1_PWR*%
X164714285Y-112122380D02*
X164714285Y-112836666D01*
X164666666Y-112979523D01*
X164571428Y-113074761D01*
X164428571Y-113122380D01*
X164333333Y-113122380D01*
X165714285Y-113122380D02*
X165142857Y-113122380D01*
X165428571Y-113122380D02*
X165428571Y-112122380D01*
X165333333Y-112265238D01*
X165238095Y-112360476D01*
X165142857Y-112408095D01*
X165904761Y-113217619D02*
X166666666Y-113217619D01*
X166904761Y-113122380D02*
X166904761Y-112122380D01*
X167285714Y-112122380D01*
X167380952Y-112170000D01*
X167428571Y-112217619D01*
X167476190Y-112312857D01*
X167476190Y-112455714D01*
X167428571Y-112550952D01*
X167380952Y-112598571D01*
X167285714Y-112646190D01*
X166904761Y-112646190D01*
X167809523Y-112122380D02*
X168047619Y-113122380D01*
X168238095Y-112408095D01*
X168428571Y-113122380D01*
X168666666Y-112122380D01*
X169619047Y-113122380D02*
X169285714Y-112646190D01*
X169047619Y-113122380D02*
X169047619Y-112122380D01*
X169428571Y-112122380D01*
X169523809Y-112170000D01*
X169571428Y-112217619D01*
X169619047Y-112312857D01*
X169619047Y-112455714D01*
X169571428Y-112550952D01*
X169523809Y-112598571D01*
X169428571Y-112646190D01*
X169047619Y-112646190D01*
%TO.C,J2_2.4G*%
X125600238Y-114452380D02*
X125600238Y-115166666D01*
X125552619Y-115309523D01*
X125457380Y-115404761D01*
X125314523Y-115452380D01*
X125219285Y-115452380D01*
X126028809Y-114547619D02*
X126076428Y-114500000D01*
X126171666Y-114452380D01*
X126409761Y-114452380D01*
X126505000Y-114500000D01*
X126552619Y-114547619D01*
X126600238Y-114642857D01*
X126600238Y-114738095D01*
X126552619Y-114880952D01*
X125981190Y-115452380D01*
X126600238Y-115452380D01*
X126790714Y-115547619D02*
X127552619Y-115547619D01*
X127743095Y-114547619D02*
X127790714Y-114500000D01*
X127885952Y-114452380D01*
X128124047Y-114452380D01*
X128219285Y-114500000D01*
X128266904Y-114547619D01*
X128314523Y-114642857D01*
X128314523Y-114738095D01*
X128266904Y-114880952D01*
X127695476Y-115452380D01*
X128314523Y-115452380D01*
X128743095Y-115357142D02*
X128790714Y-115404761D01*
X128743095Y-115452380D01*
X128695476Y-115404761D01*
X128743095Y-115357142D01*
X128743095Y-115452380D01*
X129647857Y-114785714D02*
X129647857Y-115452380D01*
X129409761Y-114404761D02*
X129171666Y-115119047D01*
X129790714Y-115119047D01*
X130695476Y-114500000D02*
X130600238Y-114452380D01*
X130457380Y-114452380D01*
X130314523Y-114500000D01*
X130219285Y-114595238D01*
X130171666Y-114690476D01*
X130124047Y-114880952D01*
X130124047Y-115023809D01*
X130171666Y-115214285D01*
X130219285Y-115309523D01*
X130314523Y-115404761D01*
X130457380Y-115452380D01*
X130552619Y-115452380D01*
X130695476Y-115404761D01*
X130743095Y-115357142D01*
X130743095Y-115023809D01*
X130552619Y-115023809D01*
%TO.C,Arduino1*%
X125166666Y-105071428D02*
X125166666Y-104595238D01*
X125452380Y-105166666D02*
X124452380Y-104833333D01*
X125452380Y-104500000D01*
X125452380Y-104166666D02*
X124785714Y-104166666D01*
X124976190Y-104166666D02*
X124880952Y-104119047D01*
X124833333Y-104071428D01*
X124785714Y-103976190D01*
X124785714Y-103880952D01*
X125452380Y-103119047D02*
X124452380Y-103119047D01*
X125404761Y-103119047D02*
X125452380Y-103214285D01*
X125452380Y-103404761D01*
X125404761Y-103500000D01*
X125357142Y-103547619D01*
X125261904Y-103595238D01*
X124976190Y-103595238D01*
X124880952Y-103547619D01*
X124833333Y-103500000D01*
X124785714Y-103404761D01*
X124785714Y-103214285D01*
X124833333Y-103119047D01*
X124785714Y-102214285D02*
X125452380Y-102214285D01*
X124785714Y-102642857D02*
X125309523Y-102642857D01*
X125404761Y-102595238D01*
X125452380Y-102500000D01*
X125452380Y-102357142D01*
X125404761Y-102261904D01*
X125357142Y-102214285D01*
X125452380Y-101738095D02*
X124785714Y-101738095D01*
X124452380Y-101738095D02*
X124500000Y-101785714D01*
X124547619Y-101738095D01*
X124500000Y-101690476D01*
X124452380Y-101738095D01*
X124547619Y-101738095D01*
X124785714Y-101261904D02*
X125452380Y-101261904D01*
X124880952Y-101261904D02*
X124833333Y-101214285D01*
X124785714Y-101119047D01*
X124785714Y-100976190D01*
X124833333Y-100880952D01*
X124928571Y-100833333D01*
X125452380Y-100833333D01*
X125452380Y-100214285D02*
X125404761Y-100309523D01*
X125357142Y-100357142D01*
X125261904Y-100404761D01*
X124976190Y-100404761D01*
X124880952Y-100357142D01*
X124833333Y-100309523D01*
X124785714Y-100214285D01*
X124785714Y-100071428D01*
X124833333Y-99976190D01*
X124880952Y-99928571D01*
X124976190Y-99880952D01*
X125261904Y-99880952D01*
X125357142Y-99928571D01*
X125404761Y-99976190D01*
X125452380Y-100071428D01*
X125452380Y-100214285D01*
X125452380Y-98928571D02*
X125452380Y-99500000D01*
X125452380Y-99214285D02*
X124452380Y-99214285D01*
X124595238Y-99309523D01*
X124690476Y-99404761D01*
X124738095Y-99500000D01*
%TO.C,BZ1*%
X124119047Y-92928571D02*
X124261904Y-92976190D01*
X124309523Y-93023809D01*
X124357142Y-93119047D01*
X124357142Y-93261904D01*
X124309523Y-93357142D01*
X124261904Y-93404761D01*
X124166666Y-93452380D01*
X123785714Y-93452380D01*
X123785714Y-92452380D01*
X124119047Y-92452380D01*
X124214285Y-92500000D01*
X124261904Y-92547619D01*
X124309523Y-92642857D01*
X124309523Y-92738095D01*
X124261904Y-92833333D01*
X124214285Y-92880952D01*
X124119047Y-92928571D01*
X123785714Y-92928571D01*
X124690476Y-92452380D02*
X125357142Y-92452380D01*
X124690476Y-93452380D01*
X125357142Y-93452380D01*
X126261904Y-93452380D02*
X125690476Y-93452380D01*
X125976190Y-93452380D02*
X125976190Y-92452380D01*
X125880952Y-92595238D01*
X125785714Y-92690476D01*
X125690476Y-92738095D01*
X126809047Y-84531428D02*
X127570952Y-84531428D01*
X127190000Y-84912380D02*
X127190000Y-84150476D01*
%TO.C,M2*%
X166190476Y-123252380D02*
X166190476Y-122252380D01*
X166523809Y-122966666D01*
X166857142Y-122252380D01*
X166857142Y-123252380D01*
X167285714Y-122347619D02*
X167333333Y-122300000D01*
X167428571Y-122252380D01*
X167666666Y-122252380D01*
X167761904Y-122300000D01*
X167809523Y-122347619D01*
X167857142Y-122442857D01*
X167857142Y-122538095D01*
X167809523Y-122680952D01*
X167238095Y-123252380D01*
X167857142Y-123252380D01*
%TO.C,H4_SIG*%
X143642857Y-121452380D02*
X143642857Y-120452380D01*
X143642857Y-120928571D02*
X144214285Y-120928571D01*
X144214285Y-121452380D02*
X144214285Y-120452380D01*
X145119047Y-120785714D02*
X145119047Y-121452380D01*
X144880952Y-120404761D02*
X144642857Y-121119047D01*
X145261904Y-121119047D01*
X145404761Y-121547619D02*
X146166666Y-121547619D01*
X146357142Y-121404761D02*
X146500000Y-121452380D01*
X146738095Y-121452380D01*
X146833333Y-121404761D01*
X146880952Y-121357142D01*
X146928571Y-121261904D01*
X146928571Y-121166666D01*
X146880952Y-121071428D01*
X146833333Y-121023809D01*
X146738095Y-120976190D01*
X146547619Y-120928571D01*
X146452380Y-120880952D01*
X146404761Y-120833333D01*
X146357142Y-120738095D01*
X146357142Y-120642857D01*
X146404761Y-120547619D01*
X146452380Y-120500000D01*
X146547619Y-120452380D01*
X146785714Y-120452380D01*
X146928571Y-120500000D01*
X147357142Y-121452380D02*
X147357142Y-120452380D01*
X148357142Y-120500000D02*
X148261904Y-120452380D01*
X148119047Y-120452380D01*
X147976190Y-120500000D01*
X147880952Y-120595238D01*
X147833333Y-120690476D01*
X147785714Y-120880952D01*
X147785714Y-121023809D01*
X147833333Y-121214285D01*
X147880952Y-121309523D01*
X147976190Y-121404761D01*
X148119047Y-121452380D01*
X148214285Y-121452380D01*
X148357142Y-121404761D01*
X148404761Y-121357142D01*
X148404761Y-121023809D01*
X148214285Y-121023809D01*
%TO.C,J3_LED*%
X145928571Y-117452380D02*
X145928571Y-118166666D01*
X145880952Y-118309523D01*
X145785714Y-118404761D01*
X145642857Y-118452380D01*
X145547619Y-118452380D01*
X146309523Y-117452380D02*
X146928571Y-117452380D01*
X146595238Y-117833333D01*
X146738095Y-117833333D01*
X146833333Y-117880952D01*
X146880952Y-117928571D01*
X146928571Y-118023809D01*
X146928571Y-118261904D01*
X146880952Y-118357142D01*
X146833333Y-118404761D01*
X146738095Y-118452380D01*
X146452380Y-118452380D01*
X146357142Y-118404761D01*
X146309523Y-118357142D01*
X147119047Y-118547619D02*
X147880952Y-118547619D01*
X148595238Y-118452380D02*
X148119047Y-118452380D01*
X148119047Y-117452380D01*
X148928571Y-117928571D02*
X149261904Y-117928571D01*
X149404761Y-118452380D02*
X148928571Y-118452380D01*
X148928571Y-117452380D01*
X149404761Y-117452380D01*
X149833333Y-118452380D02*
X149833333Y-117452380D01*
X150071428Y-117452380D01*
X150214285Y-117500000D01*
X150309523Y-117595238D01*
X150357142Y-117690476D01*
X150404761Y-117880952D01*
X150404761Y-118023809D01*
X150357142Y-118214285D01*
X150309523Y-118309523D01*
X150214285Y-118404761D01*
X150071428Y-118452380D01*
X149833333Y-118452380D01*
%TO.C,H3_BAT*%
X149547619Y-121452380D02*
X149547619Y-120452380D01*
X149547619Y-120928571D02*
X150119047Y-120928571D01*
X150119047Y-121452380D02*
X150119047Y-120452380D01*
X150500000Y-120452380D02*
X151119047Y-120452380D01*
X150785714Y-120833333D01*
X150928571Y-120833333D01*
X151023809Y-120880952D01*
X151071428Y-120928571D01*
X151119047Y-121023809D01*
X151119047Y-121261904D01*
X151071428Y-121357142D01*
X151023809Y-121404761D01*
X150928571Y-121452380D01*
X150642857Y-121452380D01*
X150547619Y-121404761D01*
X150500000Y-121357142D01*
X151309523Y-121547619D02*
X152071428Y-121547619D01*
X152642857Y-120928571D02*
X152785714Y-120976190D01*
X152833333Y-121023809D01*
X152880952Y-121119047D01*
X152880952Y-121261904D01*
X152833333Y-121357142D01*
X152785714Y-121404761D01*
X152690476Y-121452380D01*
X152309523Y-121452380D01*
X152309523Y-120452380D01*
X152642857Y-120452380D01*
X152738095Y-120500000D01*
X152785714Y-120547619D01*
X152833333Y-120642857D01*
X152833333Y-120738095D01*
X152785714Y-120833333D01*
X152738095Y-120880952D01*
X152642857Y-120928571D01*
X152309523Y-120928571D01*
X153261904Y-121166666D02*
X153738095Y-121166666D01*
X153166666Y-121452380D02*
X153500000Y-120452380D01*
X153833333Y-121452380D01*
X154023809Y-120452380D02*
X154595238Y-120452380D01*
X154309523Y-121452380D02*
X154309523Y-120452380D01*
%TO.C,M2*%
X134190476Y-123252380D02*
X134190476Y-122252380D01*
X134523809Y-122966666D01*
X134857142Y-122252380D01*
X134857142Y-123252380D01*
X135285714Y-122347619D02*
X135333333Y-122300000D01*
X135428571Y-122252380D01*
X135666666Y-122252380D01*
X135761904Y-122300000D01*
X135809523Y-122347619D01*
X135857142Y-122442857D01*
X135857142Y-122538095D01*
X135809523Y-122680952D01*
X135238095Y-123252380D01*
X135857142Y-123252380D01*
%TO.C,H2_Vib-*%
X137119047Y-84304380D02*
X137119047Y-83304380D01*
X137119047Y-83780571D02*
X137690476Y-83780571D01*
X137690476Y-84304380D02*
X137690476Y-83304380D01*
X138119047Y-83399619D02*
X138166666Y-83352000D01*
X138261904Y-83304380D01*
X138500000Y-83304380D01*
X138595238Y-83352000D01*
X138642857Y-83399619D01*
X138690476Y-83494857D01*
X138690476Y-83590095D01*
X138642857Y-83732952D01*
X138071428Y-84304380D01*
X138690476Y-84304380D01*
X138880952Y-84399619D02*
X139642857Y-84399619D01*
X139738095Y-83304380D02*
X140071428Y-84304380D01*
X140404761Y-83304380D01*
X140738095Y-84304380D02*
X140738095Y-83637714D01*
X140738095Y-83304380D02*
X140690476Y-83352000D01*
X140738095Y-83399619D01*
X140785714Y-83352000D01*
X140738095Y-83304380D01*
X140738095Y-83399619D01*
X141214285Y-84304380D02*
X141214285Y-83304380D01*
X141214285Y-83685333D02*
X141309523Y-83637714D01*
X141500000Y-83637714D01*
X141595238Y-83685333D01*
X141642857Y-83732952D01*
X141690476Y-83828190D01*
X141690476Y-84113904D01*
X141642857Y-84209142D01*
X141595238Y-84256761D01*
X141500000Y-84304380D01*
X141309523Y-84304380D01*
X141214285Y-84256761D01*
X142119047Y-83923428D02*
X142880952Y-83923428D01*
%TO.C,J5_BUTTON*%
X148452380Y-84452380D02*
X148452380Y-85166666D01*
X148404761Y-85309523D01*
X148309523Y-85404761D01*
X148166666Y-85452380D01*
X148071428Y-85452380D01*
X149404761Y-84452380D02*
X148928571Y-84452380D01*
X148880952Y-84928571D01*
X148928571Y-84880952D01*
X149023809Y-84833333D01*
X149261904Y-84833333D01*
X149357142Y-84880952D01*
X149404761Y-84928571D01*
X149452380Y-85023809D01*
X149452380Y-85261904D01*
X149404761Y-85357142D01*
X149357142Y-85404761D01*
X149261904Y-85452380D01*
X149023809Y-85452380D01*
X148928571Y-85404761D01*
X148880952Y-85357142D01*
X149642857Y-85547619D02*
X150404761Y-85547619D01*
X150976190Y-84928571D02*
X151119047Y-84976190D01*
X151166666Y-85023809D01*
X151214285Y-85119047D01*
X151214285Y-85261904D01*
X151166666Y-85357142D01*
X151119047Y-85404761D01*
X151023809Y-85452380D01*
X150642857Y-85452380D01*
X150642857Y-84452380D01*
X150976190Y-84452380D01*
X151071428Y-84500000D01*
X151119047Y-84547619D01*
X151166666Y-84642857D01*
X151166666Y-84738095D01*
X151119047Y-84833333D01*
X151071428Y-84880952D01*
X150976190Y-84928571D01*
X150642857Y-84928571D01*
X151642857Y-84452380D02*
X151642857Y-85261904D01*
X151690476Y-85357142D01*
X151738095Y-85404761D01*
X151833333Y-85452380D01*
X152023809Y-85452380D01*
X152119047Y-85404761D01*
X152166666Y-85357142D01*
X152214285Y-85261904D01*
X152214285Y-84452380D01*
X152547619Y-84452380D02*
X153119047Y-84452380D01*
X152833333Y-85452380D02*
X152833333Y-84452380D01*
X153309523Y-84452380D02*
X153880952Y-84452380D01*
X153595238Y-85452380D02*
X153595238Y-84452380D01*
X154404761Y-84452380D02*
X154595238Y-84452380D01*
X154690476Y-84500000D01*
X154785714Y-84595238D01*
X154833333Y-84785714D01*
X154833333Y-85119047D01*
X154785714Y-85309523D01*
X154690476Y-85404761D01*
X154595238Y-85452380D01*
X154404761Y-85452380D01*
X154309523Y-85404761D01*
X154214285Y-85309523D01*
X154166666Y-85119047D01*
X154166666Y-84785714D01*
X154214285Y-84595238D01*
X154309523Y-84500000D01*
X154404761Y-84452380D01*
X155261904Y-85452380D02*
X155261904Y-84452380D01*
X155833333Y-85452380D01*
X155833333Y-84452380D01*
%TO.C,H5_GND*%
X137333333Y-121452380D02*
X137333333Y-120452380D01*
X137333333Y-120928571D02*
X137904761Y-120928571D01*
X137904761Y-121452380D02*
X137904761Y-120452380D01*
X138857142Y-120452380D02*
X138380952Y-120452380D01*
X138333333Y-120928571D01*
X138380952Y-120880952D01*
X138476190Y-120833333D01*
X138714285Y-120833333D01*
X138809523Y-120880952D01*
X138857142Y-120928571D01*
X138904761Y-121023809D01*
X138904761Y-121261904D01*
X138857142Y-121357142D01*
X138809523Y-121404761D01*
X138714285Y-121452380D01*
X138476190Y-121452380D01*
X138380952Y-121404761D01*
X138333333Y-121357142D01*
X139095238Y-121547619D02*
X139857142Y-121547619D01*
X140619047Y-120500000D02*
X140523809Y-120452380D01*
X140380952Y-120452380D01*
X140238095Y-120500000D01*
X140142857Y-120595238D01*
X140095238Y-120690476D01*
X140047619Y-120880952D01*
X140047619Y-121023809D01*
X140095238Y-121214285D01*
X140142857Y-121309523D01*
X140238095Y-121404761D01*
X140380952Y-121452380D01*
X140476190Y-121452380D01*
X140619047Y-121404761D01*
X140666666Y-121357142D01*
X140666666Y-121023809D01*
X140476190Y-121023809D01*
X141095238Y-121452380D02*
X141095238Y-120452380D01*
X141666666Y-121452380D01*
X141666666Y-120452380D01*
X142142857Y-121452380D02*
X142142857Y-120452380D01*
X142380952Y-120452380D01*
X142523809Y-120500000D01*
X142619047Y-120595238D01*
X142666666Y-120690476D01*
X142714285Y-120880952D01*
X142714285Y-121023809D01*
X142666666Y-121214285D01*
X142619047Y-121309523D01*
X142523809Y-121404761D01*
X142380952Y-121452380D01*
X142142857Y-121452380D01*
%TO.C,M2*%
X148190476Y-100452380D02*
X148190476Y-99452380D01*
X148523809Y-100166666D01*
X148857142Y-99452380D01*
X148857142Y-100452380D01*
X149285714Y-99547619D02*
X149333333Y-99500000D01*
X149428571Y-99452380D01*
X149666666Y-99452380D01*
X149761904Y-99500000D01*
X149809523Y-99547619D01*
X149857142Y-99642857D01*
X149857142Y-99738095D01*
X149809523Y-99880952D01*
X149238095Y-100452380D01*
X149857142Y-100452380D01*
D11*
%TO.C,H1_Vib+*%
X143450000Y-91000000D02*
G75*
G03*
X143450000Y-91000000I-1450000J0D01*
G01*
%TO.C,Q1*%
X156470000Y-122850000D02*
X160070000Y-122850000D01*
X158270000Y-118399999D02*
G75*
G03*
X156431522Y-122838478I0J-2600001D01*
G01*
X160108478Y-122838478D02*
G75*
G03*
X158270000Y-118400000I-1838478J1838478D01*
G01*
%TO.C,J1_PWR*%
X165670000Y-116270000D02*
X165670000Y-121410000D01*
X165670000Y-113670000D02*
X167000000Y-113670000D01*
X165670000Y-121410000D02*
X168330000Y-121410000D01*
X168330000Y-116270000D02*
X168330000Y-121410000D01*
X165670000Y-115000000D02*
X165670000Y-113670000D01*
X165670000Y-116270000D02*
X168330000Y-116270000D01*
%TO.C,J2_2.4G*%
X128005000Y-127130000D02*
X125405000Y-127130000D01*
X130605000Y-116850000D02*
X125405000Y-116850000D01*
X130605000Y-124530000D02*
X130605000Y-116850000D01*
X128005000Y-124530000D02*
X128005000Y-127130000D01*
X130605000Y-125800000D02*
X130605000Y-127130000D01*
X130605000Y-124530000D02*
X128005000Y-124530000D01*
X125405000Y-127130000D02*
X125405000Y-116850000D01*
X130605000Y-127130000D02*
X129275000Y-127130000D01*
%TO.C,Arduino1*%
X167270000Y-108970000D02*
X167270000Y-111640000D01*
X167270000Y-96270000D02*
X167270000Y-93600000D01*
X164730000Y-96270000D02*
X129170000Y-96270000D01*
X164730000Y-96270000D02*
X167270000Y-96270000D01*
X126500000Y-111640000D02*
X169940000Y-111640000D01*
X169940000Y-93600000D02*
X167270000Y-93600000D01*
X164730000Y-93600000D02*
X126500000Y-93600000D01*
X126500000Y-93600000D02*
X126500000Y-111640000D01*
X164730000Y-96270000D02*
X164730000Y-93600000D01*
X129170000Y-108970000D02*
X129170000Y-111640000D01*
X167270000Y-108970000D02*
X129170000Y-108970000D01*
X169940000Y-111640000D02*
X169940000Y-93600000D01*
X129170000Y-96270000D02*
X129170000Y-93600000D01*
%TO.C,BZ1*%
X137100000Y-87000000D02*
G75*
G03*
X137100000Y-87000000I-6100000J0D01*
G01*
%TO.C,H4_SIG*%
X147750000Y-124000000D02*
G75*
G03*
X147750000Y-124000000I-1750000J0D01*
G01*
%TO.C,J3_LED*%
X154350000Y-113670000D02*
X155680000Y-113670000D01*
X153080000Y-116330000D02*
X140320000Y-116330000D01*
X140320000Y-113670000D02*
X140320000Y-116330000D01*
X155680000Y-113670000D02*
X155680000Y-115000000D01*
X153080000Y-113670000D02*
X140320000Y-113670000D01*
X153080000Y-113670000D02*
X153080000Y-116330000D01*
%TO.C,H3_BAT*%
X153750000Y-124000000D02*
G75*
G03*
X153750000Y-124000000I-1750000J0D01*
G01*
%TO.C,H2_Vib-*%
X143450000Y-86000000D02*
G75*
G03*
X143450000Y-86000000I-1450000J0D01*
G01*
%TO.C,J5_BUTTON*%
X148270000Y-89330000D02*
X148270000Y-86670000D01*
X158490000Y-89330000D02*
X158490000Y-86670000D01*
X148270000Y-89330000D02*
X158490000Y-89330000D01*
X148270000Y-86670000D02*
X158490000Y-86670000D01*
X147000000Y-89330000D02*
X145670000Y-89330000D01*
X145670000Y-89330000D02*
X145670000Y-88000000D01*
%TO.C,H5_GND*%
X141750000Y-124000000D02*
G75*
G03*
X141750000Y-124000000I-1750000J0D01*
G01*
%TD*%
M02*
