%TF.GenerationSoftware,KiCad,Pcbnew,(6.0.6-0)*%
%TF.CreationDate,2022-07-04T00:10:09+08:00*%
%TF.ProjectId,test,74657374-2e6b-4696-9361-645f70636258,rev?*%
%TF.SameCoordinates,Original*%
%TF.FileFunction,Legend,Bot*%
%TF.FilePolarity,Positive*%
%FSLAX46Y46*%
G04 Gerber Fmt 4.6, Leading zero omitted, Abs format (unit mm)*
G04 Created by KiCad (PCBNEW (6.0.6-0)) date 2022-07-04 00:10:09*
%MOMM*%
%LPD*%
G01*
G04 APERTURE LIST*
%ADD10C,0.150000*%
%ADD11C,0.120000*%
G04 APERTURE END LIST*
D10*
%TO.C,R12*%
X152638095Y-123452380D02*
X152971428Y-122976190D01*
X153209523Y-123452380D02*
X153209523Y-122452380D01*
X152828571Y-122452380D01*
X152733333Y-122500000D01*
X152685714Y-122547619D01*
X152638095Y-122642857D01*
X152638095Y-122785714D01*
X152685714Y-122880952D01*
X152733333Y-122928571D01*
X152828571Y-122976190D01*
X153209523Y-122976190D01*
X151685714Y-123452380D02*
X152257142Y-123452380D01*
X151971428Y-123452380D02*
X151971428Y-122452380D01*
X152066666Y-122595238D01*
X152161904Y-122690476D01*
X152257142Y-122738095D01*
X151304761Y-122547619D02*
X151257142Y-122500000D01*
X151161904Y-122452380D01*
X150923809Y-122452380D01*
X150828571Y-122500000D01*
X150780952Y-122547619D01*
X150733333Y-122642857D01*
X150733333Y-122738095D01*
X150780952Y-122880952D01*
X151352380Y-123452380D01*
X150733333Y-123452380D01*
%TO.C,R11*%
X158642857Y-103452380D02*
X158976190Y-102976190D01*
X159214285Y-103452380D02*
X159214285Y-102452380D01*
X158833333Y-102452380D01*
X158738095Y-102500000D01*
X158690476Y-102547619D01*
X158642857Y-102642857D01*
X158642857Y-102785714D01*
X158690476Y-102880952D01*
X158738095Y-102928571D01*
X158833333Y-102976190D01*
X159214285Y-102976190D01*
X157690476Y-103452380D02*
X158261904Y-103452380D01*
X157976190Y-103452380D02*
X157976190Y-102452380D01*
X158071428Y-102595238D01*
X158166666Y-102690476D01*
X158261904Y-102738095D01*
X156738095Y-103452380D02*
X157309523Y-103452380D01*
X157023809Y-103452380D02*
X157023809Y-102452380D01*
X157119047Y-102595238D01*
X157214285Y-102690476D01*
X157309523Y-102738095D01*
%TO.C,R10*%
X162642857Y-120452380D02*
X162976190Y-119976190D01*
X163214285Y-120452380D02*
X163214285Y-119452380D01*
X162833333Y-119452380D01*
X162738095Y-119500000D01*
X162690476Y-119547619D01*
X162642857Y-119642857D01*
X162642857Y-119785714D01*
X162690476Y-119880952D01*
X162738095Y-119928571D01*
X162833333Y-119976190D01*
X163214285Y-119976190D01*
X161690476Y-120452380D02*
X162261904Y-120452380D01*
X161976190Y-120452380D02*
X161976190Y-119452380D01*
X162071428Y-119595238D01*
X162166666Y-119690476D01*
X162261904Y-119738095D01*
X161071428Y-119452380D02*
X160976190Y-119452380D01*
X160880952Y-119500000D01*
X160833333Y-119547619D01*
X160785714Y-119642857D01*
X160738095Y-119833333D01*
X160738095Y-120071428D01*
X160785714Y-120261904D01*
X160833333Y-120357142D01*
X160880952Y-120404761D01*
X160976190Y-120452380D01*
X161071428Y-120452380D01*
X161166666Y-120404761D01*
X161214285Y-120357142D01*
X161261904Y-120261904D01*
X161309523Y-120071428D01*
X161309523Y-119833333D01*
X161261904Y-119642857D01*
X161214285Y-119547619D01*
X161166666Y-119500000D01*
X161071428Y-119452380D01*
%TO.C,R2*%
X157166666Y-94272380D02*
X157500000Y-93796190D01*
X157738095Y-94272380D02*
X157738095Y-93272380D01*
X157357142Y-93272380D01*
X157261904Y-93320000D01*
X157214285Y-93367619D01*
X157166666Y-93462857D01*
X157166666Y-93605714D01*
X157214285Y-93700952D01*
X157261904Y-93748571D01*
X157357142Y-93796190D01*
X157738095Y-93796190D01*
X156785714Y-93367619D02*
X156738095Y-93320000D01*
X156642857Y-93272380D01*
X156404761Y-93272380D01*
X156309523Y-93320000D01*
X156261904Y-93367619D01*
X156214285Y-93462857D01*
X156214285Y-93558095D01*
X156261904Y-93700952D01*
X156833333Y-94272380D01*
X156214285Y-94272380D01*
%TO.C,R5*%
X139166666Y-120452380D02*
X139500000Y-119976190D01*
X139738095Y-120452380D02*
X139738095Y-119452380D01*
X139357142Y-119452380D01*
X139261904Y-119500000D01*
X139214285Y-119547619D01*
X139166666Y-119642857D01*
X139166666Y-119785714D01*
X139214285Y-119880952D01*
X139261904Y-119928571D01*
X139357142Y-119976190D01*
X139738095Y-119976190D01*
X138261904Y-119452380D02*
X138738095Y-119452380D01*
X138785714Y-119928571D01*
X138738095Y-119880952D01*
X138642857Y-119833333D01*
X138404761Y-119833333D01*
X138309523Y-119880952D01*
X138261904Y-119928571D01*
X138214285Y-120023809D01*
X138214285Y-120261904D01*
X138261904Y-120357142D01*
X138309523Y-120404761D01*
X138404761Y-120452380D01*
X138642857Y-120452380D01*
X138738095Y-120404761D01*
X138785714Y-120357142D01*
%TO.C,R13*%
X145638095Y-123452380D02*
X145971428Y-122976190D01*
X146209523Y-123452380D02*
X146209523Y-122452380D01*
X145828571Y-122452380D01*
X145733333Y-122500000D01*
X145685714Y-122547619D01*
X145638095Y-122642857D01*
X145638095Y-122785714D01*
X145685714Y-122880952D01*
X145733333Y-122928571D01*
X145828571Y-122976190D01*
X146209523Y-122976190D01*
X144685714Y-123452380D02*
X145257142Y-123452380D01*
X144971428Y-123452380D02*
X144971428Y-122452380D01*
X145066666Y-122595238D01*
X145161904Y-122690476D01*
X145257142Y-122738095D01*
X144352380Y-122452380D02*
X143733333Y-122452380D01*
X144066666Y-122833333D01*
X143923809Y-122833333D01*
X143828571Y-122880952D01*
X143780952Y-122928571D01*
X143733333Y-123023809D01*
X143733333Y-123261904D01*
X143780952Y-123357142D01*
X143828571Y-123404761D01*
X143923809Y-123452380D01*
X144209523Y-123452380D01*
X144304761Y-123404761D01*
X144352380Y-123357142D01*
%TO.C,R7*%
X149166666Y-120452380D02*
X149500000Y-119976190D01*
X149738095Y-120452380D02*
X149738095Y-119452380D01*
X149357142Y-119452380D01*
X149261904Y-119500000D01*
X149214285Y-119547619D01*
X149166666Y-119642857D01*
X149166666Y-119785714D01*
X149214285Y-119880952D01*
X149261904Y-119928571D01*
X149357142Y-119976190D01*
X149738095Y-119976190D01*
X148833333Y-119452380D02*
X148166666Y-119452380D01*
X148595238Y-120452380D01*
%TO.C,R1*%
X162166666Y-94272380D02*
X162500000Y-93796190D01*
X162738095Y-94272380D02*
X162738095Y-93272380D01*
X162357142Y-93272380D01*
X162261904Y-93320000D01*
X162214285Y-93367619D01*
X162166666Y-93462857D01*
X162166666Y-93605714D01*
X162214285Y-93700952D01*
X162261904Y-93748571D01*
X162357142Y-93796190D01*
X162738095Y-93796190D01*
X161214285Y-94272380D02*
X161785714Y-94272380D01*
X161500000Y-94272380D02*
X161500000Y-93272380D01*
X161595238Y-93415238D01*
X161690476Y-93510476D01*
X161785714Y-93558095D01*
%TO.C,R4*%
X147166666Y-94272380D02*
X147500000Y-93796190D01*
X147738095Y-94272380D02*
X147738095Y-93272380D01*
X147357142Y-93272380D01*
X147261904Y-93320000D01*
X147214285Y-93367619D01*
X147166666Y-93462857D01*
X147166666Y-93605714D01*
X147214285Y-93700952D01*
X147261904Y-93748571D01*
X147357142Y-93796190D01*
X147738095Y-93796190D01*
X146309523Y-93605714D02*
X146309523Y-94272380D01*
X146547619Y-93224761D02*
X146785714Y-93939047D01*
X146166666Y-93939047D01*
%TO.C,R8*%
X164166666Y-103632380D02*
X164500000Y-103156190D01*
X164738095Y-103632380D02*
X164738095Y-102632380D01*
X164357142Y-102632380D01*
X164261904Y-102680000D01*
X164214285Y-102727619D01*
X164166666Y-102822857D01*
X164166666Y-102965714D01*
X164214285Y-103060952D01*
X164261904Y-103108571D01*
X164357142Y-103156190D01*
X164738095Y-103156190D01*
X163595238Y-103060952D02*
X163690476Y-103013333D01*
X163738095Y-102965714D01*
X163785714Y-102870476D01*
X163785714Y-102822857D01*
X163738095Y-102727619D01*
X163690476Y-102680000D01*
X163595238Y-102632380D01*
X163404761Y-102632380D01*
X163309523Y-102680000D01*
X163261904Y-102727619D01*
X163214285Y-102822857D01*
X163214285Y-102870476D01*
X163261904Y-102965714D01*
X163309523Y-103013333D01*
X163404761Y-103060952D01*
X163595238Y-103060952D01*
X163690476Y-103108571D01*
X163738095Y-103156190D01*
X163785714Y-103251428D01*
X163785714Y-103441904D01*
X163738095Y-103537142D01*
X163690476Y-103584761D01*
X163595238Y-103632380D01*
X163404761Y-103632380D01*
X163309523Y-103584761D01*
X163261904Y-103537142D01*
X163214285Y-103441904D01*
X163214285Y-103251428D01*
X163261904Y-103156190D01*
X163309523Y-103108571D01*
X163404761Y-103060952D01*
%TO.C,R3*%
X152166666Y-94272380D02*
X152500000Y-93796190D01*
X152738095Y-94272380D02*
X152738095Y-93272380D01*
X152357142Y-93272380D01*
X152261904Y-93320000D01*
X152214285Y-93367619D01*
X152166666Y-93462857D01*
X152166666Y-93605714D01*
X152214285Y-93700952D01*
X152261904Y-93748571D01*
X152357142Y-93796190D01*
X152738095Y-93796190D01*
X151833333Y-93272380D02*
X151214285Y-93272380D01*
X151547619Y-93653333D01*
X151404761Y-93653333D01*
X151309523Y-93700952D01*
X151261904Y-93748571D01*
X151214285Y-93843809D01*
X151214285Y-94081904D01*
X151261904Y-94177142D01*
X151309523Y-94224761D01*
X151404761Y-94272380D01*
X151690476Y-94272380D01*
X151785714Y-94224761D01*
X151833333Y-94177142D01*
%TO.C,R6*%
X142166666Y-120452380D02*
X142500000Y-119976190D01*
X142738095Y-120452380D02*
X142738095Y-119452380D01*
X142357142Y-119452380D01*
X142261904Y-119500000D01*
X142214285Y-119547619D01*
X142166666Y-119642857D01*
X142166666Y-119785714D01*
X142214285Y-119880952D01*
X142261904Y-119928571D01*
X142357142Y-119976190D01*
X142738095Y-119976190D01*
X141309523Y-119452380D02*
X141500000Y-119452380D01*
X141595238Y-119500000D01*
X141642857Y-119547619D01*
X141738095Y-119690476D01*
X141785714Y-119880952D01*
X141785714Y-120261904D01*
X141738095Y-120357142D01*
X141690476Y-120404761D01*
X141595238Y-120452380D01*
X141404761Y-120452380D01*
X141309523Y-120404761D01*
X141261904Y-120357142D01*
X141214285Y-120261904D01*
X141214285Y-120023809D01*
X141261904Y-119928571D01*
X141309523Y-119880952D01*
X141404761Y-119833333D01*
X141595238Y-119833333D01*
X141690476Y-119880952D01*
X141738095Y-119928571D01*
X141785714Y-120023809D01*
%TO.C,R9*%
X155166666Y-120452380D02*
X155500000Y-119976190D01*
X155738095Y-120452380D02*
X155738095Y-119452380D01*
X155357142Y-119452380D01*
X155261904Y-119500000D01*
X155214285Y-119547619D01*
X155166666Y-119642857D01*
X155166666Y-119785714D01*
X155214285Y-119880952D01*
X155261904Y-119928571D01*
X155357142Y-119976190D01*
X155738095Y-119976190D01*
X154690476Y-120452380D02*
X154500000Y-120452380D01*
X154404761Y-120404761D01*
X154357142Y-120357142D01*
X154261904Y-120214285D01*
X154214285Y-120023809D01*
X154214285Y-119642857D01*
X154261904Y-119547619D01*
X154309523Y-119500000D01*
X154404761Y-119452380D01*
X154595238Y-119452380D01*
X154690476Y-119500000D01*
X154738095Y-119547619D01*
X154785714Y-119642857D01*
X154785714Y-119880952D01*
X154738095Y-119976190D01*
X154690476Y-120023809D01*
X154595238Y-120071428D01*
X154404761Y-120071428D01*
X154309523Y-120023809D01*
X154261904Y-119976190D01*
X154214285Y-119880952D01*
D11*
%TO.C,R12*%
X152722302Y-121910000D02*
X151268174Y-121910000D01*
X152722302Y-120090000D02*
X151268174Y-120090000D01*
%TO.C,R11*%
X157272936Y-105910000D02*
X158727064Y-105910000D01*
X157272936Y-104090000D02*
X158727064Y-104090000D01*
%TO.C,R10*%
X160727064Y-117090000D02*
X159272936Y-117090000D01*
X160727064Y-118910000D02*
X159272936Y-118910000D01*
%TO.C,R2*%
X156272936Y-92910000D02*
X157727064Y-92910000D01*
X156272936Y-91090000D02*
X157727064Y-91090000D01*
%TO.C,R5*%
X140727064Y-118910000D02*
X139272936Y-118910000D01*
X140727064Y-117090000D02*
X139272936Y-117090000D01*
%TO.C,R13*%
X145722302Y-120090000D02*
X144268174Y-120090000D01*
X145722302Y-121910000D02*
X144268174Y-121910000D01*
%TO.C,R7*%
X149272936Y-118910000D02*
X150727064Y-118910000D01*
X149272936Y-117090000D02*
X150727064Y-117090000D01*
%TO.C,R1*%
X161272936Y-92910000D02*
X162727064Y-92910000D01*
X161272936Y-91090000D02*
X162727064Y-91090000D01*
%TO.C,R4*%
X146272936Y-91090000D02*
X147727064Y-91090000D01*
X146272936Y-92910000D02*
X147727064Y-92910000D01*
%TO.C,R8*%
X164727064Y-104090000D02*
X163272936Y-104090000D01*
X164727064Y-105910000D02*
X163272936Y-105910000D01*
%TO.C,R3*%
X151272936Y-91090000D02*
X152727064Y-91090000D01*
X151272936Y-92910000D02*
X152727064Y-92910000D01*
%TO.C,R6*%
X145727064Y-118910000D02*
X144272936Y-118910000D01*
X145727064Y-117090000D02*
X144272936Y-117090000D01*
%TO.C,R9*%
X154272936Y-117090000D02*
X155727064Y-117090000D01*
X154272936Y-118910000D02*
X155727064Y-118910000D01*
%TD*%
M02*
